<svg width="380" height="321" viewBox="0 0 380 321" fill="none" xmlns="http://www.w3.org/2000/svg">
<rect y="0.844238" width="380" height="320" rx="12" fill="white"/>
<g clip-path="url(#clip0_575_638)">
<path d="M285.948 83.1079H235.359V166.92H285.948V83.1079Z" fill="#E0E0E0"/>
<path d="M284.264 83.1079H233.676V166.92H284.264V83.1079Z" fill="#EBEBEB"/>
<path d="M282.117 84.8076H235.836V165.22H282.117V84.8076Z" fill="white"/>
<path d="M273.1 95.2563H244.645V154.771H273.1V95.2563Z" fill="#EBEBEB"/>
<path d="M244.645 133.715C244.582 128.154 249.571 122.726 255.074 121.953C257.698 121.582 260.481 122.101 262.937 121.1C267.312 119.305 268.704 113.49 273.106 111.764L273.307 154.782H244.65V133.72L244.645 133.715Z" fill="#E0E0E0"/>
<path d="M278.165 178.371C278.165 178.371 273.974 178.069 274.361 187.474C274.747 196.88 275.705 201.895 275.705 201.895C275.705 201.895 275.583 203.982 273.969 203.574C272.355 203.166 269.318 201.132 267.821 202.652C266.265 204.225 266.821 206.64 268.879 209.484C270.943 212.328 275.234 218.72 275.62 219.302C276.001 219.869 276.149 220.939 275.006 220.838C273.863 220.738 266.138 218.116 265.117 221.86C264.096 225.605 271.144 232.579 271.9 233.358C272.657 234.136 272.699 234.623 272.392 235.095C272.085 235.566 269.572 234.438 267.345 233.787C265.117 233.13 262.419 232.765 262.011 234.973C261.604 237.181 264.704 243.647 276.329 250.437L281.922 253.233L287.213 249.854C298.102 241.932 300.541 235.19 299.917 233.035C299.287 230.879 296.642 231.515 294.493 232.388C292.345 233.262 289.954 234.634 289.604 234.2C289.25 233.76 289.245 233.268 289.916 232.42C290.588 231.573 296.906 223.926 295.514 220.303C294.123 216.681 286.699 220.06 285.572 220.277C284.445 220.494 284.488 219.419 284.811 218.81C285.139 218.196 288.768 211.401 290.536 208.367C292.303 205.332 292.615 202.875 290.906 201.466C289.26 200.105 286.446 202.43 284.879 202.997C283.313 203.563 282.985 201.503 282.985 201.503C282.985 201.503 283.44 196.419 282.885 187.024C282.329 177.63 278.091 178.382 278.091 178.382" fill="#EBEBEB"/>
<path d="M278.492 186.796C278.492 186.796 278.503 186.865 278.513 186.992C278.524 187.13 278.54 187.321 278.556 187.57C278.593 188.089 278.64 188.835 278.704 189.789C278.831 191.716 278.995 194.512 279.185 197.965C279.566 204.871 280.016 214.414 280.476 224.953C280.937 235.497 281.36 245.04 281.704 251.946C281.879 255.393 282.021 258.184 282.122 260.123C282.17 261.081 282.207 261.828 282.233 262.347C282.244 262.596 282.249 262.786 282.254 262.924C282.254 263.056 282.254 263.12 282.254 263.12C282.254 263.12 282.244 263.051 282.233 262.924C282.222 262.786 282.207 262.596 282.191 262.347C282.154 261.828 282.106 261.081 282.043 260.128C281.916 258.2 281.752 255.404 281.561 251.951C281.18 245.045 280.73 235.502 280.27 224.958C279.81 214.419 279.386 204.876 279.042 197.971C278.868 194.523 278.725 191.732 278.624 189.794C278.577 188.835 278.54 188.089 278.513 187.57C278.503 187.321 278.497 187.13 278.492 186.992C278.492 186.86 278.492 186.796 278.492 186.796V186.796Z" fill="#E0E0E0"/>
<path d="M271.946 205.66C271.946 205.66 272.078 205.755 272.295 205.951C272.512 206.147 272.814 206.439 273.184 206.804C273.92 207.535 274.914 208.573 275.988 209.738C277.041 210.887 277.988 211.93 278.724 212.735C279.052 213.09 279.327 213.392 279.555 213.641C279.75 213.853 279.856 213.975 279.846 213.985C279.835 213.996 279.713 213.895 279.496 213.699C279.28 213.503 278.978 213.212 278.613 212.841C277.883 212.1 276.904 211.051 275.83 209.886C274.771 208.742 273.814 207.71 273.073 206.91C272.745 206.555 272.465 206.259 272.237 206.01C272.041 205.793 271.935 205.671 271.946 205.66V205.66Z" fill="#E0E0E0"/>
<path d="M280.403 213.8C280.361 213.758 282.408 211.613 284.969 209.013C287.535 206.407 289.647 204.336 289.689 204.374C289.731 204.416 287.689 206.561 285.123 209.161C282.556 211.761 280.445 213.837 280.403 213.8Z" fill="#E0E0E0"/>
<path d="M280.383 230.021C280.383 230.021 280.515 229.921 280.774 229.772C281.071 229.603 281.436 229.402 281.87 229.158C282.79 228.639 284.065 227.919 285.441 227.072C286.817 226.23 288.039 225.425 288.917 224.831C289.33 224.556 289.674 224.323 289.96 224.132C290.208 223.968 290.346 223.883 290.357 223.899C290.367 223.915 290.24 224.021 290.007 224.201C289.775 224.387 289.431 224.646 289.002 224.953C288.145 225.578 286.933 226.404 285.547 227.252C284.166 228.099 282.88 228.803 281.938 229.291C281.467 229.534 281.081 229.719 280.811 229.847C280.542 229.974 280.388 230.032 280.383 230.021V230.021Z" fill="#E0E0E0"/>
<path d="M271.117 224.344C271.117 224.344 271.26 224.397 271.504 224.524C271.747 224.651 272.091 224.847 272.519 225.086C273.371 225.568 274.541 226.251 275.821 227.013C277.107 227.776 278.26 228.48 279.091 228.999C279.509 229.259 279.842 229.471 280.07 229.624C280.297 229.778 280.419 229.863 280.414 229.878C280.409 229.889 280.271 229.825 280.028 229.698C279.784 229.571 279.44 229.375 279.012 229.137C278.16 228.655 276.99 227.972 275.71 227.209C274.424 226.447 273.271 225.742 272.44 225.223C272.022 224.964 271.689 224.752 271.461 224.598C271.234 224.445 271.112 224.36 271.117 224.344Z" fill="#E0E0E0"/>
<path d="M269.274 238.659C269.274 238.659 269.453 238.733 269.766 238.897C270.11 239.088 270.549 239.326 271.067 239.617C272.163 240.232 273.665 241.095 275.321 242.059C276.977 243.022 278.47 243.907 279.544 244.553C280.052 244.865 280.475 245.125 280.814 245.331C281.11 245.517 281.269 245.628 281.263 245.644C281.258 245.654 281.083 245.57 280.771 245.406C280.427 245.215 279.988 244.977 279.47 244.685C278.374 244.071 276.872 243.208 275.216 242.244C273.559 241.28 272.067 240.396 270.993 239.75C270.485 239.437 270.062 239.178 269.723 238.971C269.427 238.786 269.268 238.675 269.274 238.659Z" fill="#E0E0E0"/>
<path d="M281.022 245.395C281.022 245.395 281.186 245.268 281.509 245.067C281.864 244.85 282.324 244.574 282.869 244.241C284.017 243.542 285.599 242.567 287.313 241.45C289.033 240.332 290.562 239.279 291.663 238.511C292.187 238.145 292.626 237.838 292.97 237.6C293.282 237.388 293.456 237.277 293.462 237.287C293.472 237.298 293.314 237.436 293.017 237.669C292.721 237.902 292.292 238.235 291.747 238.632C290.668 239.432 289.149 240.507 287.425 241.63C285.705 242.753 284.107 243.706 282.938 244.373C282.35 244.707 281.874 244.966 281.541 245.141C281.207 245.316 281.022 245.406 281.012 245.395H281.022Z" fill="#E0E0E0"/>
<path d="M289.428 255.055H273.957L279.005 293.312H284.381L289.428 255.055Z" fill="#E0E0E0"/>
<path d="M274.762 259.757C274.762 259.757 274.778 259.81 274.846 259.895C274.91 259.974 275.032 260.08 275.222 260.16C275.587 260.319 276.233 260.334 276.857 259.958C277.481 259.614 278.026 258.936 278.862 258.634C279.693 258.317 280.72 258.375 281.709 258.693C282.709 259 283.571 259.508 284.36 259.98C285.148 260.446 285.868 260.864 286.513 261.134C287.154 261.415 287.714 261.542 288.101 261.595C288.296 261.621 288.445 261.627 288.55 261.627C288.651 261.627 288.709 261.627 288.709 261.616C288.72 261.563 287.836 261.574 286.587 260.975C285.963 260.689 285.259 260.26 284.482 259.784C283.704 259.302 282.815 258.777 281.788 258.46C280.772 258.131 279.677 258.073 278.783 258.428C278.339 258.597 277.963 258.862 277.651 259.127C277.333 259.386 277.053 259.635 276.767 259.815C276.201 260.181 275.608 260.197 275.259 260.075C274.905 259.953 274.788 259.741 274.767 259.762L274.762 259.757Z" fill="#F5F5F5"/>
<path d="M275.321 266.801C275.321 266.801 275.443 266.642 275.686 266.388C275.935 266.144 276.337 265.821 276.924 265.604C277.507 265.382 278.253 265.249 279.078 265.281C279.909 265.307 280.808 265.493 281.771 265.646C282.729 265.805 283.681 265.879 284.528 265.763C285.374 265.652 286.11 265.408 286.697 265.143C287.285 264.878 287.718 264.582 287.999 264.365C288.285 264.148 288.422 264.005 288.412 263.994C288.385 263.952 287.787 264.487 286.623 264.979C286.041 265.217 285.322 265.44 284.496 265.53C283.671 265.63 282.761 265.556 281.808 265.397C280.856 265.244 279.94 265.064 279.083 265.048C278.226 265.027 277.454 265.186 276.856 265.44C276.253 265.689 275.845 266.049 275.612 266.324C275.501 266.467 275.422 266.584 275.379 266.668C275.332 266.753 275.316 266.796 275.321 266.801V266.801Z" fill="#F5F5F5"/>
<path d="M287.675 270.572C287.675 270.572 287.538 270.466 287.247 270.349C286.961 270.233 286.522 270.116 285.966 270.074C285.411 270.032 284.749 270.063 284.03 270.185C283.31 270.302 282.532 270.503 281.723 270.672C280.913 270.842 280.13 270.958 279.421 270.932C278.712 270.905 278.083 270.752 277.59 270.535C276.596 270.095 276.241 269.46 276.204 269.502C276.194 269.507 276.262 269.666 276.463 269.905C276.664 270.143 277.008 270.445 277.516 270.694C278.019 270.942 278.67 271.123 279.411 271.16C280.151 271.202 280.956 271.085 281.776 270.916C282.596 270.741 283.363 270.535 284.072 270.408C284.776 270.281 285.421 270.228 285.961 270.243C287.046 270.28 287.665 270.609 287.681 270.561L287.675 270.572Z" fill="#F5F5F5"/>
<path d="M276.692 275.878C276.697 275.92 277.242 275.534 278.194 275.724C278.66 275.809 279.178 276.042 279.766 276.312C280.348 276.582 281.051 276.815 281.808 276.874C283.327 277.022 284.681 276.529 285.507 276.016C285.93 275.762 286.226 275.491 286.427 275.306C286.618 275.105 286.713 274.988 286.697 274.978C286.665 274.941 286.258 275.396 285.417 275.862C284.586 276.323 283.284 276.762 281.829 276.625C280.364 276.54 279.242 275.666 278.226 275.55C277.729 275.476 277.316 275.55 277.057 275.65C276.797 275.751 276.686 275.867 276.692 275.878V275.878Z" fill="#F5F5F5"/>
<path d="M277.555 283.223C277.555 283.25 278.073 283.25 278.846 282.969C279.624 282.71 280.586 282.111 281.708 281.666C282.274 281.449 282.835 281.317 283.354 281.322C283.867 281.322 284.327 281.449 284.677 281.624C285.386 281.979 285.592 282.482 285.634 282.45C285.645 282.45 285.613 282.318 285.486 282.122C285.359 281.926 285.126 281.672 284.761 281.465C284.401 281.259 283.915 281.105 283.359 281.089C282.803 281.073 282.206 281.206 281.624 281.428C280.459 281.894 279.528 282.508 278.782 282.8C278.047 283.117 277.549 283.181 277.56 283.223H277.555Z" fill="#F5F5F5"/>
<path d="M278.31 286.639C278.299 286.671 278.67 286.803 279.289 286.957C279.908 287.11 280.77 287.275 281.739 287.37C282.707 287.465 283.585 287.471 284.22 287.444C284.855 287.412 285.247 287.354 285.241 287.322C285.241 287.248 283.675 287.312 281.76 287.121C279.844 286.936 278.326 286.565 278.305 286.639H278.31Z" fill="#F5F5F5"/>
<path d="M95.6543 214.885C90.2309 206.581 91.0192 194.719 97.5009 187.209C99.5115 184.879 102.321 182.851 105.39 183.116C108.528 183.386 111.057 186.081 112.014 189.084C112.967 192.087 112.639 195.344 112.078 198.447C111.295 202.79 109.977 207.238 106.967 210.463C103.956 213.689 99.5327 217.004 95.6596 214.891" fill="#FCCC3E" fill-opacity="0.5"/>
<path d="M97.2924 254.858C95.25 250.087 96.7315 244.049 100.747 240.766C101.996 239.749 103.626 238.96 105.181 239.373C106.774 239.797 107.832 241.412 108.055 243.049C108.277 244.685 107.811 246.332 107.24 247.878C106.441 250.044 105.361 252.216 103.52 253.603C101.679 254.991 99.0966 256.299 97.2924 254.858" fill="#FCCC3E" fill-opacity="0.5"/>
<path d="M85.5753 252.004C87.0674 244.643 83.189 236.519 76.5328 233.05C74.464 231.975 71.9242 231.34 69.8395 232.383C67.7072 233.453 66.6807 236.058 66.85 238.436C67.0194 240.819 68.1622 243.017 69.4268 245.04C71.1941 247.873 73.3634 250.632 76.3846 252.057C79.4059 253.482 83.443 254.573 85.5753 251.999" fill="#FCCC3E" fill-opacity="0.5"/>
<path d="M86.5109 232.097C89.1089 223.708 84.7067 213.54 77.3679 208.726C75.0874 207.233 72.2037 206.195 69.6587 207.164C67.0555 208.16 65.5581 211.067 65.4734 213.858C65.3888 216.649 66.4629 219.339 67.6957 221.839C69.4206 225.345 71.6217 228.808 74.9657 230.821C78.315 232.833 83.7278 234.846 86.5109 232.097Z" fill="#FCCC3E" fill-opacity="0.5"/>
<path d="M90.3675 273.097C90.3675 273.097 90.3252 272.96 90.2828 272.689C90.2352 272.382 90.177 271.996 90.1082 271.519C90.0712 271.26 90.0341 270.979 89.9918 270.672C89.9336 270.365 89.8701 270.031 89.8013 269.676C89.6638 268.961 89.5262 268.14 89.2881 267.256C89.1823 266.811 89.0659 266.345 88.9495 265.858C88.8066 265.376 88.6637 264.878 88.5103 264.359C88.2299 263.316 87.8172 262.241 87.4309 261.092C86.5738 258.825 85.5049 256.384 84.198 253.91C82.8647 251.453 81.4202 249.208 80.0075 247.243C79.2667 246.284 78.6 245.347 77.8857 244.537C77.5418 244.124 77.2032 243.726 76.8804 243.345C76.5418 242.98 76.2137 242.625 75.9016 242.291C75.2931 241.603 74.6899 241.036 74.1714 240.528C73.9121 240.274 73.674 240.035 73.4465 239.818C73.2137 239.612 73.002 239.426 72.8063 239.251C72.4465 238.928 72.1554 238.664 71.9279 238.457C71.7322 238.272 71.6316 238.171 71.6369 238.161C71.6422 238.15 71.7586 238.235 71.9755 238.399C72.2189 238.595 72.5205 238.838 72.8962 239.14C73.0973 239.304 73.3195 239.49 73.5576 239.686C73.7904 239.903 74.0391 240.131 74.3036 240.38C74.838 240.877 75.4571 241.439 76.0815 242.117C76.3989 242.45 76.7323 242.8 77.0815 243.16C77.4095 243.541 77.7535 243.938 78.108 244.346C78.8328 245.151 79.5154 246.088 80.2667 247.047C81.7006 249.017 83.1663 251.268 84.5049 253.741C85.8224 256.23 86.8859 258.693 87.7325 260.975C88.1135 262.135 88.5156 263.22 88.7854 264.269C88.9283 264.788 89.0712 265.296 89.2087 265.778C89.3198 266.266 89.4257 266.737 89.5262 267.192C89.7484 268.087 89.8701 268.913 89.9865 269.634C90.0447 269.994 90.0976 270.327 90.1506 270.64C90.1823 270.947 90.2088 271.233 90.2352 271.493C90.2775 271.974 90.3146 272.366 90.341 272.674C90.3622 272.944 90.3675 273.087 90.3569 273.087L90.3675 273.097Z" fill="#263238"/>
<path d="M90.1776 274.607C90.1776 274.607 90.1723 274.548 90.1776 274.437C90.1881 274.305 90.1987 274.146 90.2146 273.95C90.2569 273.494 90.3151 272.875 90.3839 272.086C90.4262 271.678 90.4686 271.228 90.5162 270.741C90.5532 270.248 90.5691 269.713 90.5956 269.136C90.6379 267.982 90.749 266.673 90.7067 265.222C90.7067 264.497 90.7014 263.734 90.6961 262.945C90.6855 262.151 90.6114 261.33 90.5744 260.477C90.5162 258.772 90.2834 256.961 90.0823 255.054C89.5638 251.257 88.749 247.111 87.5108 242.858C86.2304 238.616 84.6536 234.697 83.024 231.228C82.1562 229.518 81.3678 227.876 80.4842 226.414C80.0557 225.678 79.6694 224.948 79.2461 224.28C78.8175 223.613 78.4048 222.977 78.0133 222.363C77.2566 221.124 76.4524 220.086 75.7857 219.143C75.4471 218.677 75.1455 218.232 74.8439 217.841C74.537 217.459 74.2566 217.104 74.0026 216.787C73.5158 216.167 73.1243 215.675 72.8439 215.32C72.7274 215.161 72.6269 215.034 72.5475 214.933C72.4841 214.843 72.4523 214.795 72.4576 214.795C72.4629 214.795 72.4999 214.832 72.574 214.912C72.6587 215.013 72.7645 215.129 72.8968 215.277C73.1931 215.627 73.5952 216.103 74.1084 216.707C74.373 217.02 74.664 217.369 74.9762 217.745C75.2831 218.132 75.5952 218.571 75.9444 219.032C76.627 219.964 77.4471 220.997 78.2196 222.231C78.6218 222.84 79.0398 223.475 79.4736 224.143C79.9075 224.81 80.299 225.541 80.7382 226.277C81.6324 227.738 82.4367 229.385 83.315 231.096C84.9711 234.575 86.5637 238.51 87.8495 242.768C89.0929 247.042 89.9024 251.21 90.4051 255.028C90.6009 256.945 90.8231 258.761 90.8707 260.477C90.9025 261.335 90.9712 262.156 90.9712 262.956C90.9712 263.75 90.9607 264.513 90.9607 265.244C90.9871 266.7 90.8548 268.013 90.7966 269.168C90.7596 269.745 90.7331 270.28 90.6855 270.778C90.6273 271.265 90.5691 271.715 90.5215 272.123C90.421 272.907 90.3416 273.526 90.2834 273.982C90.2569 274.178 90.2305 274.337 90.2146 274.464C90.1987 274.57 90.1829 274.628 90.1776 274.628V274.607Z" fill="#263238"/>
<path d="M104.301 193.141C104.301 193.141 104.285 193.199 104.232 193.294C104.168 193.411 104.094 193.554 103.999 193.728C103.772 194.131 103.465 194.687 103.073 195.386C102.872 195.746 102.634 196.138 102.406 196.583C102.184 197.033 101.941 197.52 101.682 198.045C101.422 198.569 101.142 199.13 100.846 199.723C100.565 200.322 100.295 200.973 99.9937 201.646C99.7026 202.324 99.3746 203.023 99.0783 203.769C98.7873 204.521 98.491 205.3 98.1788 206.11C98.0254 206.513 97.8666 206.926 97.7026 207.344C97.5597 207.768 97.4116 208.197 97.2634 208.636C96.9671 209.51 96.6655 210.41 96.3534 211.332C95.2052 215.055 94.1152 219.196 93.1946 223.597C92.3057 228.003 91.6813 232.245 91.2157 236.116C90.8189 239.993 90.5278 243.493 90.4485 246.438C90.3744 247.91 90.3585 249.245 90.3532 250.415C90.3321 251.586 90.3321 252.597 90.3532 253.418C90.3638 254.218 90.3744 254.853 90.3797 255.319C90.3797 255.52 90.3797 255.679 90.3797 255.812C90.3797 255.923 90.3744 255.981 90.3691 255.981C90.3638 255.981 90.3532 255.923 90.3479 255.812C90.3374 255.679 90.3268 255.515 90.3162 255.319C90.295 254.858 90.2633 254.223 90.221 253.423C90.1733 252.597 90.1575 251.591 90.1575 250.415C90.1416 249.245 90.1416 247.905 90.1998 246.433C90.2474 243.478 90.5173 239.972 90.8929 236.085C91.3374 232.203 91.9564 227.95 92.8453 223.533C93.766 219.122 94.8719 214.965 96.0412 211.242C96.3587 210.32 96.6655 209.415 96.9671 208.541C97.1206 208.101 97.2687 207.672 97.4116 207.249C97.5756 206.83 97.7343 206.417 97.8931 206.015C98.2105 205.21 98.5174 204.426 98.8137 203.674C99.1206 202.927 99.454 202.228 99.7556 201.556C100.062 200.883 100.343 200.237 100.634 199.639C100.941 199.051 101.226 198.489 101.496 197.97C101.766 197.451 102.015 196.97 102.248 196.519C102.486 196.08 102.734 195.693 102.946 195.333C103.364 194.645 103.692 194.104 103.93 193.707C104.036 193.538 104.126 193.4 104.195 193.289C104.258 193.194 104.29 193.151 104.295 193.151L104.301 193.141Z" fill="#263238"/>
<path d="M102.46 244.097C102.46 244.097 102.275 244.473 101.883 245.109C101.487 245.744 100.942 246.682 100.301 247.857C99.6559 249.028 98.9575 250.457 98.2484 252.078C97.5553 253.704 96.8622 255.52 96.2537 257.464C95.6611 259.413 95.206 261.303 94.8621 263.04C94.5394 264.777 94.3066 266.356 94.1796 267.685C94.0473 269.014 93.9679 270.094 93.9362 270.846C93.8991 271.593 93.8674 272.006 93.8409 272.006C93.8145 272.006 93.8039 271.593 93.7986 270.841C93.788 270.089 93.8251 269.004 93.9309 267.664C94.0261 266.324 94.2325 264.735 94.5394 262.982C94.8674 261.235 95.3119 259.328 95.9098 257.363C96.5235 255.404 97.2273 253.577 97.9416 251.951C98.6717 250.33 99.4019 248.9 100.079 247.741C100.751 246.576 101.328 245.654 101.762 245.04C102.19 244.42 102.434 244.087 102.455 244.102L102.46 244.097Z" fill="#263238"/>
<path d="M79.7188 269.364H103.545L100.661 293.719H82.6871L79.7188 269.364Z" fill="#455A64"/>
<path d="M80.5859 291.092L82.6124 293.719H100.66L102.745 291.172L80.5859 291.092Z" fill="#263238"/>
<path d="M102.616 276.524C102.616 276.624 97.6692 276.704 91.5738 276.704C85.4784 276.704 80.5312 276.624 80.5312 276.524C80.5312 276.423 85.4732 276.344 91.5738 276.344C97.6745 276.344 102.616 276.423 102.616 276.524Z" fill="white"/>
<path d="M102.616 278.144C102.616 278.245 97.6692 278.324 91.5738 278.324C85.4784 278.324 80.5312 278.245 80.5312 278.144C80.5312 278.043 85.4732 277.964 91.5738 277.964C97.6745 277.964 102.616 278.043 102.616 278.144Z" fill="white"/>
<path d="M102.32 279.717C102.32 279.818 97.5479 279.897 91.6641 279.897C85.7804 279.897 81.0078 279.818 81.0078 279.717C81.0078 279.617 85.7804 279.537 91.6641 279.537C97.5479 279.537 102.32 279.617 102.32 279.717Z" fill="white"/>
<path d="M290.506 294.108C290.506 294.378 238.902 294.608 175.26 294.608C111.619 294.608 60.0039 294.378 60.0039 294.108C60.0039 293.839 111.598 293.608 175.26 293.608C238.923 293.608 290.506 293.839 290.506 294.108Z" fill="#263238"/>
<path d="M261.047 126.386C259.269 124.13 259.227 120.015 259.285 118.934C259.422 116.44 253.867 101.877 240.099 107.893V107.882C235.163 107.882 235.083 112.754 234.147 113.739C233.21 114.719 232.168 115.741 231.924 117.076C231.491 119.443 233.734 121.741 233.163 124.077C232.951 124.956 232.364 125.697 231.951 126.497C231.512 127.217 231.157 128.377 231.348 129.028C231.538 129.674 231.951 130.231 232.289 130.813C232.628 131.396 232.909 132.063 232.787 132.73C232.57 133.932 231.184 134.594 230.808 135.759C230.443 136.898 231.157 138.068 231.808 139.075C232.454 140.081 233.083 141.341 232.559 142.416C232.279 142.988 231.729 143.369 231.284 143.82C229.924 145.186 229.522 147.416 230.311 149.174C232.951 148.655 235.591 148.13 238.231 147.611C238.575 143.836 238.925 140.054 239.268 136.278C241.586 136.856 244.12 135.373 245.216 135.092L246.565 134.361C249.517 134.88 252.703 134.695 255.29 133.186C257.877 131.676 261.713 133.604 261.211 130.649C260.967 129.214 261.941 127.54 261.041 126.396L261.047 126.386Z" fill="#263238"/>
<path d="M252.013 112.606L241.241 109.413C237.77 108.904 235.278 113.104 234.918 116.599C234.516 120.481 234.177 125.231 234.521 128.155C235.214 134.028 239.653 134.955 239.653 134.955C239.653 134.949 238.876 143.274 238.802 145.356L252.088 138.55L253.765 114.767C253.828 113.702 253.066 112.765 252.013 112.611V112.606Z" fill="#FFD3C1"/>
<path d="M235.584 121.387C235.553 121.784 235.865 122.133 236.277 122.17C236.69 122.207 237.045 121.922 237.076 121.524C237.108 121.127 236.796 120.778 236.389 120.741C235.976 120.703 235.621 120.989 235.59 121.387H235.584Z" fill="#263238"/>
<path d="M235.188 119.676C235.262 119.771 235.897 119.633 236.69 119.872C237.484 120.099 237.987 120.571 238.093 120.523C238.145 120.502 238.082 120.348 237.865 120.137C237.653 119.93 237.262 119.671 236.765 119.528C236.272 119.385 235.817 119.395 235.542 119.459C235.262 119.522 235.145 119.628 235.182 119.671L235.188 119.676Z" fill="#263238"/>
<path d="M243.049 121.996C243.017 122.393 243.33 122.742 243.742 122.779C244.155 122.816 244.509 122.53 244.541 122.133C244.573 121.736 244.261 121.386 243.853 121.349C243.441 121.312 243.086 121.598 243.054 121.996H243.049Z" fill="#263238"/>
<path d="M243.181 120.735C243.298 120.788 243.88 120.401 244.779 120.274C245.679 120.142 246.393 120.343 246.478 120.258C246.52 120.221 246.393 120.11 246.081 120.015C245.774 119.919 245.266 119.861 244.705 119.941C244.144 120.02 243.7 120.221 243.451 120.396C243.203 120.571 243.129 120.714 243.187 120.735H243.181Z" fill="#263238"/>
<path d="M240.404 125.994C240.41 125.946 239.912 125.84 239.108 125.702C238.902 125.671 238.711 125.623 238.68 125.48C238.637 125.332 238.732 125.109 238.844 124.876C239.055 124.384 239.277 123.875 239.516 123.335C240.447 121.137 241.135 119.332 241.045 119.295C240.955 119.257 240.129 121.005 239.193 123.203C238.965 123.743 238.754 124.262 238.547 124.755C238.463 124.988 238.314 125.247 238.41 125.56C238.457 125.713 238.605 125.835 238.738 125.872C238.87 125.92 238.981 125.925 239.087 125.936C239.902 126.015 240.404 126.036 240.41 125.988L240.404 125.994Z" fill="#263238"/>
<path d="M239.655 134.955C239.655 134.955 243.485 135.447 247.47 133.265C247.401 133.276 245.078 137.327 239.512 136.506L239.655 134.96V134.955Z" fill="#F4AF9B"/>
<path d="M240.662 127.948C240.969 127.578 241.482 127.387 241.985 127.461C242.334 127.514 242.678 127.694 242.879 127.991C243.08 128.282 243.107 128.69 242.906 128.955C242.678 129.251 242.218 129.304 241.842 129.177C241.461 129.05 241.144 128.785 240.837 128.52C240.752 128.446 240.667 128.372 240.615 128.271C240.562 128.176 240.556 128.049 240.625 127.97" fill="#F4AF9B"/>
<path d="M242.749 126.646C242.617 126.635 242.58 127.509 241.808 128.097C241.035 128.69 240.109 128.552 240.098 128.674C240.083 128.727 240.3 128.854 240.691 128.88C241.077 128.907 241.643 128.806 242.114 128.446C242.585 128.086 242.802 127.583 242.845 127.228C242.892 126.863 242.802 126.646 242.744 126.646H242.749Z" fill="#263238"/>
<path d="M243.289 117.865C243.358 118.088 244.167 118.013 245.109 118.167C246.051 118.299 246.802 118.607 246.935 118.416C246.993 118.326 246.871 118.114 246.57 117.886C246.273 117.664 245.792 117.441 245.231 117.357C244.665 117.272 244.146 117.341 243.797 117.468C243.443 117.595 243.263 117.759 243.294 117.865H243.289Z" fill="#263238"/>
<path d="M236.051 117.346C236.184 117.536 236.75 117.367 237.417 117.383C238.083 117.378 238.644 117.558 238.782 117.367C238.84 117.277 238.76 117.092 238.522 116.906C238.284 116.726 237.887 116.567 237.427 116.562C236.967 116.562 236.565 116.71 236.327 116.885C236.083 117.065 235.999 117.25 236.057 117.341L236.051 117.346Z" fill="#263238"/>
<path d="M239.972 108.65C244.305 109.338 248.549 110.546 252.596 112.235C253.533 112.627 254.517 113.093 255.046 113.962C255.607 114.878 255.533 116.038 255.443 117.107C254.999 122.34 254.554 127.572 254.11 132.804L253.549 132.778C251.935 133.043 251.819 132.216 250.665 131.057C249.512 129.897 248.956 128.165 249.221 126.55C249.459 125.125 250.284 123.695 249.84 122.318C249.252 120.502 246.76 119.851 246.162 118.034C245.813 116.98 246.21 115.773 245.808 114.74C245.432 113.766 244.443 113.173 243.475 112.781C242.506 112.389 241.464 112.103 240.665 111.43C239.866 110.758 239.4 109.529 239.961 108.65H239.972Z" fill="#263238"/>
<path d="M204.608 98.1484H161.898C160.16 98.1484 158.75 99.5592 158.75 101.299V135.659C158.75 137.399 160.16 138.81 161.898 138.81H204.608C206.347 138.81 207.756 137.399 207.756 135.659V101.299C207.756 99.5592 206.347 98.1484 204.608 98.1484Z" fill="#263238"/>
<path d="M183.255 124.76C187.156 124.76 190.319 121.595 190.319 117.69C190.319 113.785 187.156 110.62 183.255 110.62C179.354 110.62 176.191 113.785 176.191 117.69C176.191 121.595 179.354 124.76 183.255 124.76Z" fill="#008C99"/>
<path d="M181.551 119.761V115.588C181.551 115.387 181.768 115.254 181.948 115.355L185.673 117.457C185.852 117.558 185.852 117.817 185.673 117.918L181.948 119.989C181.773 120.089 181.556 119.957 181.556 119.756L181.551 119.761Z" fill="white"/>
<path d="M227.572 275.564L228.794 287.347C228.794 287.347 217.238 292.548 217.254 294.746L240.164 293.194L239.011 274.754L227.572 275.559V275.564Z" fill="#455A64"/>
<g opacity="0.3">
<path opacity="0.3" d="M227.572 275.564L228.794 287.347C228.794 287.347 217.238 292.548 217.254 294.746L240.164 293.194L239.011 274.754L227.572 275.559V275.564Z" fill="black"/>
</g>
<g opacity="0.6">
<path opacity="0.6" d="M235.811 285.875C236.261 285.965 236.605 286.447 236.531 286.903C236.457 287.358 235.975 287.708 235.52 287.623C235.065 287.538 234.642 286.977 234.763 286.532C234.885 286.087 235.478 285.706 235.896 285.897" fill="white"/>
</g>
<g opacity="0.6">
<path opacity="0.6" d="M240.163 293.194L239.973 291.34L218.078 293.522C218.078 293.522 217.089 294.036 217.253 294.746L240.163 293.194Z" fill="white"/>
</g>
<path d="M228.411 287.257C228.422 287.368 228.983 287.384 229.559 287.702C230.141 288.009 230.459 288.475 230.559 288.422C230.66 288.396 230.448 287.734 229.745 287.358C229.046 286.971 228.379 287.151 228.411 287.252V287.257Z" fill="#263238"/>
<path d="M226.078 288.412C226.063 288.523 226.56 288.682 226.967 289.127C227.391 289.561 227.523 290.07 227.634 290.054C227.74 290.064 227.772 289.402 227.253 288.857C226.735 288.306 226.073 288.301 226.078 288.412V288.412Z" fill="#263238"/>
<path d="M224.909 291.383C225.015 291.399 225.131 290.832 224.803 290.234C224.48 289.635 223.935 289.429 223.893 289.529C223.835 289.625 224.2 289.932 224.459 290.424C224.734 290.911 224.798 291.377 224.909 291.383Z" fill="#263238"/>
<path d="M228.434 284.541C228.487 284.641 228.99 284.451 229.625 284.451C230.26 284.44 230.768 284.615 230.821 284.52C230.879 284.435 230.371 284.054 229.625 284.064C228.879 284.064 228.376 284.461 228.434 284.546V284.541Z" fill="#263238"/>
<path d="M228.229 282.157C228.229 282.205 228.679 282.242 229.378 282.073C229.727 281.988 230.134 281.845 230.552 281.622C230.764 281.511 230.975 281.379 231.187 281.225C231.288 281.151 231.409 281.072 231.515 280.934C231.632 280.807 231.679 280.505 231.526 280.336C231.399 280.166 231.182 280.108 231.018 280.113C230.848 280.118 230.716 280.161 230.589 280.203C230.341 280.283 230.102 280.383 229.891 280.494C229.468 280.722 229.129 280.998 228.88 281.262C228.383 281.792 228.229 282.221 228.266 282.242C228.319 282.274 228.552 281.908 229.065 281.464C229.319 281.241 229.653 281.008 230.05 280.817C230.251 280.722 230.462 280.637 230.695 280.569C230.933 280.489 231.139 280.473 231.208 280.574C231.235 280.616 231.24 280.632 231.192 280.706C231.145 280.775 231.05 280.844 230.949 280.923C230.753 281.072 230.557 281.199 230.367 281.31C229.981 281.538 229.61 281.697 229.288 281.813C228.642 282.041 228.214 282.099 228.219 282.163L228.229 282.157Z" fill="#263238"/>
<path d="M228.385 282.306C228.428 282.321 228.624 281.903 228.613 281.178C228.613 280.817 228.539 280.383 228.37 279.933C228.285 279.705 228.174 279.478 228.031 279.255C227.883 279.038 227.698 278.747 227.258 278.726C227.031 278.731 226.856 278.922 226.803 279.08C226.74 279.239 226.735 279.377 226.714 279.509C226.687 279.779 226.714 280.044 226.766 280.283C226.872 280.764 227.1 281.156 227.338 281.437C227.825 282.004 228.301 282.104 228.306 282.067C228.338 282.009 227.936 281.818 227.555 281.273C227.364 281.003 227.19 280.643 227.121 280.219C227.084 280.007 227.073 279.785 227.094 279.552C227.116 279.303 227.19 279.102 227.285 279.123C227.401 279.112 227.602 279.282 227.714 279.472C227.846 279.668 227.952 279.875 228.042 280.076C228.211 280.479 228.301 280.876 228.343 281.209C228.423 281.882 228.327 282.306 228.391 282.321L228.385 282.306Z" fill="#263238"/>
<path d="M225.587 189.327C225.587 189.327 215.439 235.443 215.127 239.558C214.814 243.678 227.704 279.229 227.704 279.229L238.794 277.132C238.794 277.132 238.09 224.634 237.73 223.601C237.371 222.574 240.566 196.773 240.566 196.773L225.587 189.327V189.327Z" fill="#263238"/>
<path d="M232.672 276.11L232.793 287.957C232.793 287.957 220.804 292.061 220.613 294.253L243.566 294.492L244.132 276.375L232.666 276.115L232.672 276.11Z" fill="#455A64"/>
<g opacity="0.6">
<path opacity="0.6" d="M239.921 287.147C240.361 287.279 240.657 287.787 240.54 288.232C240.424 288.677 239.911 288.984 239.472 288.857C239.027 288.73 238.657 288.132 238.821 287.703C238.985 287.274 239.609 286.945 240.006 287.173" fill="white"/>
</g>
<g opacity="0.6">
<path opacity="0.6" d="M243.572 294.492L243.562 292.977L221.556 293.109C221.556 293.109 220.524 293.528 220.619 294.253L243.572 294.492Z" fill="white"/>
</g>
<path d="M232.43 287.83C232.43 287.941 232.991 288.01 233.531 288.38C234.081 288.741 234.356 289.233 234.457 289.191C234.563 289.17 234.409 288.497 233.748 288.052C233.087 287.602 232.404 287.718 232.43 287.824V287.83Z" fill="#263238"/>
<path d="M229.997 288.767C229.971 288.873 230.447 289.079 230.817 289.561C231.198 290.033 231.283 290.552 231.394 290.546C231.5 290.568 231.595 289.911 231.124 289.318C230.659 288.719 230.002 288.656 229.997 288.762V288.767Z" fill="#263238"/>
<path d="M228.552 291.616C228.653 291.642 228.822 291.086 228.552 290.467C228.283 289.842 227.764 289.588 227.711 289.678C227.648 289.768 227.976 290.107 228.193 290.62C228.42 291.129 228.441 291.605 228.552 291.616V291.616Z" fill="#263238"/>
<path d="M232.699 285.128C232.741 285.234 233.26 285.091 233.895 285.15C234.53 285.197 235.016 285.42 235.075 285.324C235.143 285.245 234.673 284.816 233.926 284.758C233.18 284.694 232.646 285.038 232.699 285.128Z" fill="#263238"/>
<g opacity="0.3">
<path opacity="0.3" d="M232.699 278.461L232.72 280.569L244.006 280.755L244.07 278.853L232.699 278.461Z" fill="black"/>
</g>
<path d="M232.719 282.74C232.719 282.788 233.158 282.867 233.867 282.761C234.221 282.708 234.639 282.602 235.079 282.422C235.301 282.332 235.523 282.221 235.745 282.089C235.851 282.025 235.978 281.956 236.1 281.829C236.227 281.718 236.306 281.421 236.169 281.236C236.057 281.056 235.851 280.977 235.682 280.966C235.512 280.955 235.375 280.987 235.248 281.014C234.989 281.067 234.751 281.146 234.528 281.241C234.084 281.432 233.724 281.676 233.449 281.909C232.904 282.391 232.713 282.804 232.75 282.825C232.798 282.862 233.068 282.518 233.618 282.126C233.893 281.93 234.243 281.729 234.661 281.575C234.867 281.501 235.089 281.432 235.327 281.39C235.571 281.331 235.777 281.337 235.841 281.448C235.862 281.49 235.867 281.506 235.814 281.575C235.761 281.639 235.661 281.702 235.555 281.766C235.348 281.893 235.142 282.004 234.941 282.099C234.534 282.29 234.147 282.412 233.819 282.496C233.158 282.666 232.724 282.682 232.724 282.745L232.719 282.74Z" fill="#263238"/>
<path d="M232.857 282.904C232.894 282.92 233.127 282.528 233.191 281.803C233.217 281.443 233.191 281.003 233.064 280.537C233 280.304 232.91 280.066 232.789 279.833C232.662 279.6 232.503 279.293 232.069 279.234C231.841 279.219 231.651 279.393 231.582 279.542C231.503 279.695 231.482 279.828 231.455 279.96C231.408 280.225 231.402 280.49 231.434 280.733C231.492 281.226 231.683 281.639 231.894 281.935C232.328 282.544 232.794 282.687 232.804 282.65C232.842 282.597 232.461 282.37 232.127 281.787C231.963 281.501 231.826 281.125 231.789 280.696C231.773 280.484 231.778 280.256 231.826 280.034C231.868 279.79 231.963 279.595 232.053 279.621C232.17 279.621 232.355 279.812 232.445 280.008C232.556 280.214 232.646 280.431 232.715 280.638C232.847 281.056 232.9 281.453 232.91 281.792C232.926 282.465 232.794 282.883 232.852 282.904H232.857Z" fill="#263238"/>
<path d="M251.38 188.617L225.586 189.327L229.29 235.263L231.586 279.541L244.967 280.008C245.65 271.46 245.697 241.258 245.697 241.258L248.401 223.014C249.026 218.094 250.999 212.925 251.952 208.514C252.507 205.919 253.327 202.556 253.497 201.46C254.01 198.213 251.385 188.617 251.385 188.617H251.38Z" fill="#263238"/>
<path d="M227.088 199.897C227.088 199.897 227.093 199.966 227.088 200.104C227.088 200.252 227.077 200.453 227.072 200.708C227.05 201.253 227.019 202.032 226.982 203.027C226.939 204.033 226.886 205.267 226.844 206.697C226.802 208.127 226.733 209.758 226.696 211.559C226.595 215.16 226.543 219.45 226.564 224.216C226.601 228.982 226.712 234.214 226.982 239.706C227.262 245.198 227.68 250.42 228.151 255.159C228.41 257.527 228.638 259.777 228.924 261.88C229.061 262.928 229.178 263.945 229.32 264.92C229.463 265.894 229.601 266.826 229.728 267.716C229.971 269.501 230.262 271.105 230.49 272.519C230.712 273.933 230.934 275.146 231.119 276.136C231.294 277.116 231.437 277.884 231.532 278.419C231.574 278.673 231.606 278.869 231.633 279.012C231.654 279.144 231.664 279.213 231.659 279.218C231.659 279.218 231.638 279.15 231.606 279.017C231.574 278.874 231.532 278.678 231.479 278.429C231.373 277.894 231.215 277.132 231.019 276.152C230.818 275.162 230.58 273.954 230.342 272.54C230.098 271.126 229.797 269.527 229.543 267.742C229.405 266.853 229.262 265.915 229.114 264.946C228.966 263.972 228.844 262.955 228.707 261.906C228.41 259.804 228.172 257.553 227.908 255.186C227.421 250.441 226.998 245.214 226.717 239.717C226.447 234.22 226.341 228.982 226.32 224.211C226.32 219.444 226.389 215.149 226.511 211.548C226.553 209.748 226.638 208.116 226.696 206.687C226.754 205.257 226.818 204.023 226.881 203.017C226.939 202.021 226.987 201.242 227.019 200.697C227.035 200.443 227.05 200.242 227.061 200.093C227.072 199.956 227.082 199.887 227.082 199.887L227.088 199.897Z" fill="#455A64"/>
<path d="M212.409 138.466L205.8 131.406L200.594 135.055L205.8 142.761L212.409 138.466Z" fill="#FFD3C1"/>
<path d="M254.171 141.072L253.849 136.597L238.933 136.379L238.806 141.998C238.806 141.998 231.483 149.926 228.827 158.818C224.361 173.763 222.742 192.785 222.742 192.785H253.267C252.949 187.521 250.78 175.743 250.78 175.743L257.568 155.487C259.256 148.205 254.177 141.072 254.177 141.072H254.171Z" fill="#007C88"/>
<path d="M217.238 161.296C217.238 161.296 217.323 161.376 217.492 161.524C217.656 161.678 217.916 161.884 218.265 162.128C218.963 162.604 220.09 163.192 221.609 163.415C222.36 163.531 223.212 163.531 224.096 163.388C224.984 163.287 225.932 163.166 226.926 163.033C228.916 162.763 231.101 162.43 233.387 162.043C237.937 161.243 242.059 160.518 245.08 159.988C246.551 159.75 247.757 159.549 248.631 159.406C249.027 159.342 249.345 159.289 249.599 159.252C249.821 159.215 249.932 159.188 249.932 159.188C249.932 159.188 249.816 159.199 249.593 159.226C249.34 159.263 249.022 159.305 248.625 159.358C247.784 159.474 246.567 159.66 245.07 159.903C242.07 160.38 237.937 161.148 233.371 161.926C231.085 162.313 228.905 162.652 226.916 162.927C225.921 163.065 224.974 163.187 224.085 163.293C223.201 163.436 222.371 163.441 221.625 163.33C220.122 163.118 218.995 162.551 218.291 162.091C217.937 161.852 217.677 161.656 217.508 161.508C217.334 161.365 217.238 161.296 217.238 161.296V161.296Z" fill="#263238"/>
<path d="M255.108 154.073C255.108 154.073 255.124 154.03 255.14 153.956C255.161 153.845 255.188 153.734 255.209 153.612C255.267 153.31 255.346 152.876 255.42 152.33C255.563 151.255 255.717 149.709 255.309 148.067C254.891 146.425 253.865 145.17 252.939 144.583C252.473 144.281 252.055 144.116 251.759 144.048C251.463 143.973 251.293 143.963 251.293 143.963C251.277 144 251.992 144.042 252.896 144.651C253.796 145.244 254.796 146.484 255.203 148.099C255.606 149.714 255.468 151.25 255.346 152.325C255.283 152.865 255.214 153.305 255.172 153.607C255.156 153.728 255.14 153.845 255.124 153.956C255.113 154.036 255.108 154.078 255.113 154.078L255.108 154.073Z" fill="#263238"/>
<path d="M223.357 157.721C223.357 157.721 223.357 157.6 223.336 157.388L223.251 156.482C223.188 155.714 223.135 154.65 223.162 153.479C223.193 152.304 223.299 151.245 223.4 150.482C223.447 150.159 223.49 149.862 223.532 149.582C223.564 149.37 223.58 149.248 223.569 149.248C223.564 149.248 223.532 149.365 223.484 149.571C223.437 149.783 223.378 150.09 223.32 150.471C223.199 151.234 223.077 152.298 223.045 153.474C223.019 154.655 223.082 155.72 223.167 156.487C223.209 156.869 223.251 157.181 223.289 157.393C223.326 157.605 223.347 157.721 223.357 157.721V157.721Z" fill="#263238"/>
<path d="M238.986 141.919C239.298 140.86 239.964 139.949 240.615 139.064C241.684 137.618 242.837 136.104 244.504 135.421C245.636 134.955 248.562 135.214 249.346 134.266C251.779 131.316 248.213 129.479 249.51 125.422C250.928 120.974 250.197 121.657 250.303 118.162L255.711 115.821C256.563 116.456 258.922 118.755 258.663 119.782C258.404 120.815 258.478 121.959 258.87 123.187C259.7 125.793 262.568 127.334 263.923 129.706C265.314 132.143 263.748 135.368 263.711 138.169C263.674 140.971 264.732 144.344 267.468 144.953C266.446 147.008 264.737 148.713 262.674 149.719C262.102 148.941 261.531 148.162 260.96 147.384C261.298 149.497 259.864 151.753 257.801 152.336C257.224 149.873 256.616 147.342 255.129 145.303C253.642 143.264 251.028 141.823 248.589 142.475C246.959 142.914 245.695 144.169 244.24 145.027C242.785 145.88 240.716 146.245 239.552 145.022C238.79 144.222 238.679 142.973 238.991 141.919H238.986Z" fill="#263238"/>
<g opacity="0.3">
<path opacity="0.3" d="M228.826 162.678C235.858 161.391 245.233 159.856 252.265 158.574C252.53 158.526 252.805 158.479 253.054 158.574C253.519 158.759 253.657 159.406 253.445 159.861C253.234 160.316 252.789 160.613 252.345 160.846C250.038 162.053 247.329 162.149 244.725 162.223C240.281 162.345 233.27 162.551 228.82 162.673L228.826 162.678Z" fill="black"/>
</g>
<path d="M223.691 163.383C225.877 163.425 251.062 158.823 251.062 158.823Z" fill="#FF725E"/>
<path d="M250.632 143.078C252.478 143.306 253.679 143.629 255.838 145.938C256.071 146.187 256.282 146.494 256.483 146.844C258.886 151.08 257.145 156.932 252.547 158.521L248.092 159.437L223.689 163.377C223.689 163.377 218.488 164.548 214.028 157.61C212.393 155.068 201.117 138.233 201.117 138.233L208.525 133.271L223.456 149.259L250.637 143.073L250.632 143.078Z" fill="#007C88"/>
<path d="M217.238 161.296C217.238 161.296 217.323 161.376 217.492 161.524C217.656 161.678 217.916 161.884 218.265 162.128C218.963 162.604 220.09 163.192 221.609 163.415C222.36 163.531 223.212 163.531 224.096 163.388C224.984 163.287 225.932 163.166 226.926 163.033C228.916 162.763 231.101 162.43 233.387 162.043C237.937 161.243 242.059 160.518 245.08 159.988C246.551 159.75 247.757 159.549 248.631 159.406C249.027 159.342 249.345 159.289 249.599 159.252C249.821 159.215 249.932 159.188 249.932 159.188C249.932 159.188 249.816 159.199 249.593 159.226C249.34 159.263 249.022 159.305 248.625 159.358C247.784 159.474 246.567 159.66 245.07 159.903C242.07 160.38 237.937 161.148 233.371 161.926C231.085 162.313 228.905 162.652 226.916 162.927C225.921 163.065 224.974 163.187 224.085 163.293C223.201 163.436 222.371 163.441 221.625 163.33C220.122 163.118 218.995 162.551 218.291 162.091C217.937 161.852 217.677 161.656 217.508 161.508C217.334 161.365 217.238 161.296 217.238 161.296V161.296Z" fill="#263238"/>
<path d="M255.108 154.073C255.108 154.073 255.124 154.03 255.14 153.956C255.161 153.845 255.188 153.734 255.209 153.612C255.267 153.31 255.346 152.876 255.42 152.33C255.563 151.255 255.717 149.709 255.309 148.067C254.891 146.425 253.865 145.17 252.939 144.583C252.473 144.281 252.055 144.116 251.759 144.048C251.463 143.973 251.293 143.963 251.293 143.963C251.277 144 251.992 144.042 252.896 144.651C253.796 145.244 254.796 146.484 255.203 148.099C255.606 149.714 255.468 151.25 255.346 152.325C255.283 152.865 255.214 153.305 255.172 153.607C255.156 153.728 255.14 153.845 255.124 153.956C255.113 154.036 255.108 154.078 255.113 154.078L255.108 154.073Z" fill="#263238"/>
<path d="M223.353 157.721C223.353 157.721 223.353 157.6 223.332 157.388L223.248 156.482C223.184 155.714 223.131 154.65 223.158 153.479C223.189 152.304 223.295 151.245 223.396 150.482C223.443 150.159 223.486 149.862 223.528 149.582C223.56 149.37 223.576 149.248 223.565 149.248C223.56 149.248 223.528 149.365 223.48 149.571C223.433 149.783 223.375 150.09 223.316 150.471C223.195 151.234 223.073 152.298 223.041 153.474C223.015 154.655 223.078 155.72 223.163 156.487C223.205 156.869 223.248 157.181 223.285 157.393C223.322 157.605 223.343 157.721 223.353 157.721V157.721Z" fill="#263238"/>
<path d="M205.766 125.952C205.565 124.379 205.591 123.394 205.628 122.917C205.644 122.695 205.459 122.52 205.242 122.536C204.84 122.573 204.247 122.801 203.882 123.722C203.66 124.289 203.724 124.871 203.729 125.433C203.739 126.375 203.729 127.117 203.729 127.117C203.729 127.117 199.03 121.487 198.078 121.233C197.565 121.095 197.38 121.249 197.189 121.551C197.014 121.831 197.364 122.488 197.364 122.488L200.015 126.28C200.015 126.28 196.009 121.561 195.284 121.577C194.544 121.593 194.242 122.128 194.697 122.981C195.041 123.621 198.538 127.768 198.538 127.768C198.538 127.768 194.797 124.151 194.051 124.183C193.305 124.215 193.432 125.004 193.824 125.332C194.215 125.66 196.983 128.88 196.983 128.88C196.983 128.88 194.279 126.598 193.734 126.778C193.173 126.963 193.422 127.562 193.713 128.054C193.999 128.541 200.782 135.331 200.782 135.331L206.66 132.375C206.814 131.549 206.787 130.702 206.57 129.886C206.3 128.88 205.946 127.371 205.761 125.941L205.766 125.952Z" fill="#FFD3C1"/>
<path d="M119.378 190.827C116.388 190.827 113.965 188.402 113.965 185.41V138.308C113.965 135.909 116.039 133.971 118.595 133.971H123.018C124.822 133.971 126.462 132.986 127.219 131.45L128.172 129.517C128.928 127.982 130.568 126.997 132.373 126.997H153.378C155.013 126.997 156.532 127.807 157.363 129.131L158.394 130.767C159.225 132.086 160.744 132.901 162.379 132.901H189.157C191.713 132.901 193.787 134.845 193.787 137.239V185.41C193.787 188.402 191.363 190.827 188.374 190.827H119.378Z" fill="#7FBFC0"/>
<g opacity="0.3">
<path opacity="0.3" d="M119.378 190.827C116.388 190.827 113.965 188.402 113.965 185.41V138.308C113.965 135.909 116.039 133.971 118.595 133.971H123.018C124.822 133.971 126.462 132.986 127.219 131.45L128.172 129.517C128.928 127.982 130.568 126.997 132.373 126.997H153.378C155.013 126.997 156.532 127.807 157.363 129.131L158.394 130.767C159.225 132.086 160.744 132.901 162.379 132.901H189.157C191.713 132.901 193.787 134.845 193.787 137.239V185.41C193.787 188.402 191.363 190.827 188.374 190.827H119.378Z" fill="#A6DCDD"/>
</g>
<path d="M159.74 132.896L142.708 132.859L141.184 130.01C140.194 128.162 138.184 126.997 135.977 126.997H119.326C116.363 126.997 113.961 129.247 113.961 132.028V185.113C113.961 188.269 116.691 190.827 120.056 190.827H187.687C191.053 190.827 193.783 188.269 193.783 185.113V136.799C193.783 134.644 192.037 132.896 189.883 132.896H159.734H159.74Z" fill="#A6DCDD"/>
<path d="M168.333 173.123H160.793C160.497 173.123 160.259 172.885 160.259 172.588C160.259 172.292 160.497 172.054 160.793 172.054H168.333C172.471 172.054 175.836 168.685 175.836 164.544C175.836 160.403 172.719 157.273 168.746 157.056C168.513 157.045 168.317 156.881 168.259 156.659C166.894 151.357 162.121 147.656 156.655 147.656C152.999 147.656 149.592 149.297 147.296 152.162C147.179 152.305 146.999 152.38 146.819 152.358C146.401 152.311 146.026 152.284 145.676 152.284C140.232 152.284 135.803 156.717 135.803 162.166C135.803 167.616 140.232 172.048 145.676 172.048H151.788C152.084 172.048 152.322 172.287 152.322 172.583C152.322 172.88 152.084 173.118 151.788 173.118H145.676C139.645 173.118 134.734 168.203 134.734 162.166C134.734 156.129 139.645 151.214 145.676 151.214C145.983 151.214 146.306 151.23 146.65 151.262C149.142 148.286 152.777 146.581 156.655 146.581C162.481 146.581 167.582 150.441 169.19 156.018C173.545 156.452 176.905 160.122 176.905 164.539C176.905 169.268 173.063 173.113 168.338 173.113L168.333 173.123Z" fill="white"/>
<path d="M156.144 177.942C155.847 177.942 155.609 177.704 155.609 177.408V163.638C155.609 163.342 155.847 163.104 156.144 163.104C156.44 163.104 156.678 163.342 156.678 163.638V177.408C156.678 177.704 156.44 177.942 156.144 177.942Z" fill="white"/>
<path d="M160.158 169.135C159.994 169.135 159.835 169.061 159.729 168.924L156.221 164.221C156.189 164.184 156.163 164.179 156.121 164.173C156.089 164.173 156.052 164.184 156.02 164.221L152.3 168.791C152.115 169.019 151.777 169.056 151.549 168.871C151.322 168.685 151.285 168.346 151.47 168.119L155.189 163.548C155.422 163.262 155.766 163.109 156.136 163.104C156.507 163.109 156.845 163.278 157.073 163.575L160.581 168.283C160.756 168.521 160.708 168.855 160.475 169.03C160.38 169.104 160.269 169.135 160.158 169.135V169.135Z" fill="white"/>
<path d="M145.812 201.986V199.613H146.252V201.97C146.252 202.955 146.712 203.405 147.516 203.405C148.32 203.405 148.786 202.955 148.786 201.97V199.613H149.215V201.986C149.215 203.177 148.574 203.792 147.516 203.792C146.458 203.792 145.812 203.177 145.812 201.986V201.986Z" fill="#263238"/>
<path d="M153.595 202.203C153.595 203.151 152.934 203.791 152.045 203.791C151.547 203.791 151.124 203.58 150.859 203.177V204.914H150.441V200.651H150.844V201.265C151.098 200.852 151.531 200.625 152.045 200.625C152.934 200.625 153.595 201.265 153.595 202.203V202.203ZM153.177 202.203C153.177 201.482 152.674 200.99 152.018 200.99C151.362 200.99 150.859 201.482 150.859 202.203C150.859 202.923 151.357 203.415 152.018 203.415C152.68 203.415 153.177 202.928 153.177 202.203Z" fill="#263238"/>
<path d="M154.453 199.364H154.871V203.76H154.453V199.364V199.364Z" fill="#263238"/>
<path d="M155.734 202.203C155.734 201.281 156.406 200.625 157.322 200.625C158.237 200.625 158.904 201.281 158.904 202.203C158.904 203.124 158.237 203.791 157.322 203.791C156.406 203.791 155.734 203.129 155.734 202.203V202.203ZM158.475 202.203C158.475 201.472 157.983 200.99 157.322 200.99C156.66 200.99 156.163 201.477 156.163 202.203C156.163 202.928 156.66 203.415 157.322 203.415C157.983 203.415 158.475 202.928 158.475 202.203Z" fill="#263238"/>
<path d="M162.085 201.827V203.755H161.683V203.267C161.492 203.585 161.127 203.781 160.614 203.781C159.91 203.781 159.477 203.416 159.477 202.876C159.477 202.394 159.783 201.991 160.678 201.991H161.667V201.801C161.667 201.266 161.365 200.98 160.783 200.98C160.381 200.98 160 201.123 159.746 201.345L159.556 201.033C159.868 200.768 160.328 200.614 160.821 200.614C161.625 200.614 162.08 201.017 162.08 201.822L162.085 201.827ZM161.667 202.823V202.314H160.694C160.09 202.314 159.895 202.553 159.895 202.87C159.895 203.23 160.186 203.458 160.683 203.458C161.18 203.458 161.503 203.23 161.672 202.823H161.667Z" fill="#263238"/>
<path d="M166.079 199.364V203.76H165.677V203.145C165.423 203.564 164.989 203.792 164.476 203.792C163.587 203.792 162.926 203.145 162.926 202.203C162.926 201.26 163.587 200.625 164.476 200.625C164.973 200.625 165.402 200.836 165.661 201.239V199.37H166.079V199.364ZM165.667 202.203C165.667 201.472 165.169 200.99 164.513 200.99C163.857 200.99 163.354 201.477 163.354 202.203C163.354 202.928 163.852 203.416 164.513 203.416C165.175 203.416 165.667 202.928 165.667 202.203Z" fill="#263238"/>
<path d="M166.973 203.463C166.973 203.278 167.116 203.146 167.285 203.146C167.454 203.146 167.602 203.283 167.602 203.463C167.602 203.643 167.454 203.792 167.285 203.792C167.116 203.792 166.973 203.649 166.973 203.463Z" fill="#263238"/>
<path d="M168.227 203.463C168.227 203.278 168.369 203.146 168.539 203.146C168.708 203.146 168.856 203.283 168.856 203.463C168.856 203.643 168.708 203.792 168.539 203.792C168.369 203.792 168.227 203.649 168.227 203.463Z" fill="#263238"/>
<path d="M169.48 203.463C169.48 203.278 169.623 203.146 169.793 203.146C169.962 203.146 170.11 203.283 170.11 203.463C170.11 203.643 169.962 203.792 169.793 203.792C169.623 203.792 169.48 203.649 169.48 203.463Z" fill="#263238"/>
<path d="M196.423 210.846H113.903C111.965 210.846 110.395 212.418 110.395 214.357V215.379C110.395 217.318 111.965 218.89 113.903 218.89H196.423C198.36 218.89 199.931 217.318 199.931 215.379V214.357C199.931 212.418 198.36 210.846 196.423 210.846Z" fill="#E0E0E0"/>
<path d="M113.903 210.846H151.66C153.597 210.846 155.168 212.419 155.168 214.357V215.384C155.168 217.323 153.597 218.895 151.66 218.895H113.903C111.966 218.895 110.395 217.323 110.395 215.384V214.357C110.395 212.419 111.966 210.846 113.903 210.846V210.846Z" fill="#008C99"/>
<g opacity="0.3">
<path opacity="0.3" d="M117.162 210.846L112.395 218.413L113.141 218.747C113.352 218.842 113.58 218.89 113.807 218.89H115.321L120.495 210.846H117.151H117.162Z" fill="white"/>
</g>
<g opacity="0.3">
<path opacity="0.3" d="M125.673 210.846L120.609 218.89H123.842L129.017 210.846H125.673Z" fill="white"/>
</g>
<g opacity="0.3">
<path opacity="0.3" d="M134.194 210.846L129.125 218.89H132.363L137.533 210.846H134.194Z" fill="white"/>
</g>
<g opacity="0.3">
<path opacity="0.3" d="M142.708 210.846L137.645 218.89H140.877L146.052 210.846H142.708Z" fill="white"/>
</g>
<g opacity="0.3">
<path opacity="0.3" d="M151.228 210.846L146.164 218.89H149.397L153.471 212.551L153.953 211.863C153.328 211.169 152.371 210.893 151.228 210.846V210.846Z" fill="white"/>
</g>
<path d="M196.503 218.89C196.503 218.89 196.667 218.89 196.99 218.837C197.307 218.794 197.783 218.683 198.318 218.35C198.852 218.032 199.434 217.46 199.762 216.607C199.926 216.184 200 215.691 199.99 215.167C199.979 214.637 200.027 214.065 199.863 213.499C199.582 212.365 198.572 211.232 197.143 210.978C196.794 210.904 196.423 210.92 196.042 210.92C195.662 210.92 195.275 210.92 194.884 210.92C194.095 210.92 193.275 210.92 192.423 210.925C189.026 210.93 185.153 210.935 180.878 210.946C163.767 210.957 140.136 210.973 114.035 210.988C113.252 210.988 112.474 211.269 111.871 211.767C111.268 212.265 110.85 212.969 110.702 213.732C110.623 214.108 110.638 214.5 110.638 214.907C110.638 215.315 110.638 215.696 110.718 216.078C110.877 216.83 111.31 217.518 111.898 218C112.49 218.482 113.247 218.747 114.004 218.757C114.792 218.757 115.575 218.757 116.358 218.757C117.924 218.757 119.475 218.757 121.014 218.757C127.168 218.757 133.105 218.763 138.761 218.768C150.068 218.779 160.253 218.789 168.809 218.8C177.36 218.821 184.275 218.832 189.069 218.842C191.455 218.853 193.312 218.863 194.577 218.869C195.201 218.874 195.677 218.879 196.011 218.885C196.333 218.885 196.497 218.9 196.497 218.9C196.497 218.9 196.333 218.911 196.011 218.916C195.683 218.916 195.201 218.922 194.577 218.932C193.312 218.937 191.455 218.948 189.069 218.959C184.28 218.969 177.36 218.985 168.809 219.001C160.253 219.012 150.068 219.017 138.761 219.033C133.105 219.033 127.168 219.038 121.014 219.043C119.475 219.043 117.924 219.043 116.358 219.043C115.575 219.043 114.787 219.043 113.998 219.043C113.178 219.033 112.358 218.747 111.718 218.228C111.078 217.704 110.612 216.967 110.437 216.147C110.347 215.739 110.353 215.315 110.353 214.918C110.353 214.521 110.337 214.102 110.422 213.689C110.586 212.868 111.041 212.106 111.686 211.566C112.337 211.031 113.178 210.729 114.025 210.724C140.121 210.74 163.751 210.755 180.868 210.766C185.143 210.771 189.011 210.782 192.413 210.787C193.265 210.787 194.079 210.787 194.873 210.792C195.27 210.792 195.656 210.792 196.032 210.792C196.408 210.792 196.789 210.782 197.154 210.861C198.635 211.137 199.672 212.312 199.953 213.483C200.117 214.076 200.064 214.653 200.069 215.183C200.074 215.718 199.995 216.221 199.82 216.655C199.476 217.523 198.873 218.101 198.328 218.419C197.783 218.747 197.296 218.847 196.974 218.885C196.651 218.922 196.487 218.906 196.487 218.906L196.503 218.89Z" fill="#263238"/>
</g>
<path d="M0 5.84424C0 3.08281 2.23858 0.844238 5 0.844238H375C377.761 0.844238 380 3.08281 380 5.84424V40.8442H0V5.84424Z" fill="#C9E6E7"/>
<path d="M25.84 25.2122C23.888 25.2122 23.392 23.2602 23.392 22.5402V15.6442H21.44V22.5402C21.44 24.4122 22.576 26.9562 25.84 26.9562C29.104 26.9562 30.256 24.4122 30.256 22.5402V15.6442H28.272V22.5402C28.272 23.2602 27.792 25.2122 25.84 25.2122ZM36.7171 26.9722C39.7891 26.9722 40.7011 24.5242 40.7011 22.8442C40.7011 21.1322 39.7731 18.7162 36.7971 18.7162C36.0131 18.7162 35.2291 18.9722 34.5891 19.4682L34.3651 18.8442H33.1331V30.0442H35.0211V26.6682C35.5011 26.8442 36.0771 26.9722 36.7171 26.9722ZM36.7171 20.3482C38.5731 20.3482 38.8291 22.2202 38.8291 22.8442C38.8291 23.5802 38.4611 25.3402 36.5891 25.3402C36.0611 25.3402 35.4371 25.1802 35.0211 24.8922V21.2282C35.3251 20.7482 35.8691 20.3482 36.7171 20.3482ZM44.9996 15.6442H43.0956V26.8442H44.9996V15.6442ZM51.3784 18.7002C48.3064 18.7002 47.3944 21.1482 47.3944 22.8282C47.3944 24.5562 48.3064 26.9562 51.3784 26.9562C54.4504 26.9562 55.3624 24.5562 55.3624 22.8282C55.3624 21.1482 54.4504 18.7002 51.3784 18.7002ZM51.3784 25.3242C49.5224 25.3242 49.2664 23.4522 49.2664 22.8282C49.2664 22.2042 49.5224 20.3322 51.3784 20.3322C53.2184 20.3322 53.4904 22.2042 53.4904 22.8282C53.4904 23.4522 53.2184 25.3242 51.3784 25.3242ZM60.539 18.7322C59.675 18.7802 58.795 19.0682 57.883 19.5322L58.475 20.9242C59.259 20.5882 60.235 20.3642 60.635 20.3642C61.515 20.3642 61.915 20.5722 61.947 21.8842V22.0122C61.579 21.9642 61.195 21.9162 60.779 21.9162C59.147 21.9162 57.435 22.3802 57.435 24.5242C57.435 25.2922 57.835 26.9882 60.299 26.9882C60.939 26.9882 61.755 26.7162 62.395 26.2042L62.587 26.8442H63.851V22.0922C63.851 20.3962 63.611 18.5562 60.539 18.7322ZM61.947 24.4762C61.691 24.8922 61.115 25.4042 60.347 25.4042C59.739 25.4042 59.211 25.0842 59.211 24.3962C59.211 23.6282 60.139 23.4522 60.939 23.4522C61.323 23.4522 61.691 23.5002 61.947 23.5322V24.4762ZM70.2253 18.7162C67.1533 18.7162 66.2413 21.1642 66.2413 22.8442C66.2413 24.5562 67.1693 26.9722 70.1453 26.9722C70.9293 26.9722 71.7133 26.7162 72.3533 26.2202L72.5773 26.8442H73.8093V15.6442H71.9213V19.0202C71.4413 18.8442 70.8653 18.7162 70.2253 18.7162ZM70.2253 25.3402C68.3693 25.3402 68.1133 23.4682 68.1133 22.8442C68.1133 22.1082 68.4813 20.3482 70.3533 20.3482C70.8813 20.3482 71.5053 20.5082 71.9213 20.7962V24.4602C71.6173 24.9402 71.0733 25.3402 70.2253 25.3402Z" fill="#344170"/>
<circle cx="328" cy="21.8442" r="4" fill="#F23936"/>
<circle cx="342" cy="21.8442" r="4" fill="#FABB18"/>
<circle cx="356" cy="21.8442" r="4" fill="#008EFF"/>
<defs>
<clipPath id="clip0_575_638">
<rect width="241" height="212" fill="white" transform="translate(60 82.8452)"/>
</clipPath>
</defs>
</svg>
