<svg width="380" height="321" viewBox="0 0 380 321" fill="none" xmlns="http://www.w3.org/2000/svg">
<rect y="0.844238" width="380" height="320" rx="12" fill="white"/>
<g clip-path="url(#clip0_575_1116)">
<path d="M304.395 107.054H253.828V180.412H304.395V107.054Z" fill="#E0E0E0"/>
<path d="M301.864 107.054H251.297V180.412H301.864V107.054Z" fill="#F5F5F5"/>
<path d="M295.583 114.998H257.582V172.463H295.583V114.998Z" fill="white"/>
<path d="M295.581 172.468C295.581 172.468 295.581 172.373 295.576 172.188C295.576 171.997 295.576 171.727 295.57 171.372C295.57 170.652 295.56 169.593 295.554 168.221C295.549 165.467 295.533 161.453 295.523 156.385C295.507 146.254 295.486 131.902 295.459 115.003L295.586 115.13C283.978 115.13 271.11 115.136 257.591 115.141L257.728 115.003C257.718 136.684 257.707 156.671 257.702 172.468L257.591 172.357C269.162 172.384 278.649 172.4 285.253 172.415C288.554 172.426 291.131 172.437 292.893 172.442C293.766 172.447 294.438 172.453 294.898 172.453C295.353 172.453 295.592 172.463 295.592 172.463C295.592 172.463 295.369 172.468 294.92 172.474C294.465 172.474 293.803 172.479 292.935 172.484C291.179 172.49 288.607 172.5 285.316 172.511C278.697 172.527 269.189 172.543 257.591 172.569H257.48V172.458C257.474 156.66 257.464 136.669 257.453 114.993V114.855H257.596C271.115 114.855 283.983 114.86 295.592 114.866H295.719V114.993C295.692 131.923 295.671 146.302 295.655 156.459C295.639 161.517 295.629 165.52 295.623 168.269C295.618 169.63 295.613 170.678 295.607 171.393C295.607 171.743 295.602 172.008 295.602 172.193C295.602 172.373 295.597 172.458 295.597 172.458L295.581 172.468Z" fill="#E0E0E0"/>
<path d="M302.005 107.054C302.037 107.076 301.693 107.579 301.105 108.362C300.518 109.146 299.682 110.216 298.735 111.376C297.782 112.53 296.894 113.558 296.237 114.283C295.581 115.009 295.153 115.443 295.126 115.422C295.1 115.395 295.47 114.919 296.089 114.156C296.767 113.335 297.603 112.318 298.523 111.201C299.444 110.078 300.28 109.067 300.957 108.246C301.581 107.494 301.978 107.033 302.01 107.054H302.005Z" fill="#E0E0E0"/>
<path d="M295.773 172.284C297.662 175.286 299.89 178.077 302.403 180.582L295.773 172.284Z" fill="white"/>
<path d="M302.405 180.577C302.405 180.577 301.929 180.211 301.251 179.523C300.574 178.84 299.669 177.849 298.749 176.7C297.828 175.546 297.066 174.449 296.548 173.639C296.029 172.823 295.749 172.299 295.775 172.278C295.807 172.257 296.151 172.744 296.706 173.528C297.262 174.312 298.045 175.381 298.96 176.525C299.876 177.669 300.749 178.67 301.389 179.385C302.029 180.1 302.431 180.54 302.405 180.571V180.577Z" fill="#E0E0E0"/>
<path d="M251.289 180.354C253.495 177.627 255.707 174.899 257.914 172.177L251.289 180.354Z" fill="white"/>
<path d="M257.915 172.172C257.973 172.219 256.54 174.089 254.709 176.35C252.878 178.612 251.349 180.402 251.291 180.354C251.233 180.306 252.666 178.437 254.497 176.175C256.328 173.919 257.857 172.124 257.915 172.172Z" fill="#E0E0E0"/>
<path d="M251.295 107.054C251.353 107.007 252.792 108.728 254.512 110.899C256.226 113.07 257.57 114.871 257.512 114.919C257.454 114.966 256.014 113.245 254.295 111.074C252.581 108.902 251.237 107.102 251.295 107.054Z" fill="#E0E0E0"/>
<path d="M283.741 126.665H271.016V162.825H283.741V126.665Z" fill="#E0E0E0"/>
<path d="M70.1621 214.912C64.7387 206.608 65.5271 194.746 72.0087 187.236C74.0193 184.906 76.8289 182.878 79.8977 183.142C83.0354 183.413 85.5645 186.108 86.5222 189.111C87.4746 192.114 87.1466 195.371 86.5857 198.474C85.8026 202.817 84.4851 207.265 81.4745 210.49C78.4639 213.715 74.0405 217.031 70.1674 214.918" fill="#FCCC3E" fill-opacity="0.5"/>
<path d="M71.8002 254.885C69.7578 250.114 71.2393 244.076 75.2553 240.793C76.504 239.776 78.1337 238.987 79.6892 239.4C81.2819 239.824 82.3401 241.439 82.5623 243.075C82.7846 244.712 82.3189 246.359 81.7475 247.905C80.9485 250.071 79.8691 252.242 78.0278 253.63C76.1865 255.018 73.6045 256.326 71.8002 254.885Z" fill="#FCCC3E" fill-opacity="0.5"/>
<path d="M60.0831 252.031C61.5752 244.67 57.6968 236.546 51.0406 233.077C48.9718 232.002 46.432 231.367 44.3473 232.41C42.215 233.48 41.1885 236.085 41.3579 238.463C41.5272 240.846 42.6701 243.044 43.9346 245.067C45.7019 247.9 47.8712 250.659 50.8925 252.084C53.9137 253.508 57.9508 254.599 60.0831 252.026" fill="#FCCC3E" fill-opacity="0.5"/>
<path d="M61.0188 232.124C63.6167 223.735 59.2145 213.567 51.8757 208.753C49.5952 207.26 46.7116 206.222 44.1665 207.191C41.5633 208.187 40.0659 211.094 39.9813 213.885C39.8966 216.676 40.9707 219.366 42.2035 221.866C43.9284 225.372 46.1295 228.835 49.4735 230.848C52.8228 232.86 58.2356 234.872 61.0188 232.124Z" fill="#FCCC3E" fill-opacity="0.5"/>
<path d="M64.8753 273.124C64.8753 273.124 64.833 272.986 64.7906 272.716C64.743 272.409 64.6848 272.023 64.616 271.546C64.579 271.286 64.542 271.006 64.4996 270.699C64.4414 270.391 64.3779 270.058 64.3092 269.703C64.1716 268.988 64.034 268.167 63.7959 267.283C63.6901 266.838 63.5737 266.372 63.4573 265.885C63.3144 265.403 63.1716 264.905 63.0181 264.386C62.7377 263.343 62.325 262.268 61.9387 261.118C61.0816 258.852 60.0128 256.41 58.7059 253.937C57.3725 251.48 55.928 249.235 54.5153 247.27C53.7745 246.311 53.1078 245.374 52.3935 244.564C52.0496 244.151 51.711 243.753 51.3882 243.372C51.0496 243.007 50.7215 242.652 50.4094 242.318C49.8009 241.63 49.1977 241.063 48.6792 240.555C48.4199 240.3 48.1818 240.062 47.9543 239.845C47.7215 239.638 47.5098 239.453 47.3141 239.278C46.9543 238.955 46.6633 238.691 46.4357 238.484C46.24 238.299 46.1394 238.198 46.1447 238.187C46.15 238.177 46.2664 238.262 46.4834 238.426C46.7268 238.622 47.0283 238.865 47.404 239.167C47.6051 239.331 47.8273 239.517 48.0654 239.713C48.2982 239.93 48.5469 240.157 48.8115 240.406C49.3459 240.904 49.9649 241.466 50.5893 242.143C50.9067 242.477 51.2401 242.827 51.5893 243.187C51.9173 243.568 52.2613 243.965 52.6158 244.373C53.3407 245.178 54.0232 246.115 54.7745 247.074C56.2084 249.044 57.6741 251.295 59.0127 253.768C60.3302 256.257 61.3937 258.719 62.2403 261.002C62.6213 262.162 63.0234 263.247 63.2933 264.296C63.4361 264.815 63.579 265.323 63.7165 265.805C63.8277 266.292 63.9335 266.764 64.034 267.219C64.2562 268.114 64.3779 268.94 64.4943 269.661C64.5525 270.021 64.6055 270.354 64.6584 270.667C64.6901 270.974 64.7166 271.26 64.743 271.519C64.7854 272.001 64.8224 272.393 64.8488 272.7C64.87 272.97 64.8753 273.113 64.8647 273.113L64.8753 273.124Z" fill="#263238"/>
<path d="M64.6854 274.633C64.6854 274.633 64.6801 274.575 64.6854 274.464C64.696 274.332 64.7065 274.173 64.7224 273.977C64.7647 273.521 64.8229 272.902 64.8917 272.113C64.9341 271.705 64.9764 271.255 65.024 270.768C65.061 270.275 65.0769 269.74 65.1034 269.163C65.1457 268.008 65.2568 266.7 65.2145 265.249C65.2145 264.524 65.2092 263.761 65.2039 262.972C65.1933 262.178 65.1193 261.357 65.0822 260.504C65.024 258.799 64.7912 256.988 64.5901 255.081C64.0716 251.284 63.2568 247.137 62.0187 242.885C60.7382 238.643 59.1614 234.724 57.5318 231.255C56.664 229.545 55.8757 227.903 54.992 226.441C54.5635 225.705 54.1772 224.974 53.7539 224.307C53.3253 223.64 52.9126 223.004 52.5211 222.39C51.7645 221.151 50.9602 220.113 50.2935 219.17C49.9549 218.704 49.6533 218.259 49.3517 217.867C49.0448 217.486 48.7644 217.131 48.5104 216.814C48.0236 216.194 47.6321 215.701 47.3517 215.347C47.2353 215.188 47.1347 215.061 47.0554 214.96C46.9919 214.87 46.9601 214.822 46.9654 214.822C46.9707 214.822 47.0077 214.859 47.0818 214.939C47.1665 215.039 47.2723 215.156 47.4046 215.304C47.7009 215.654 48.103 216.13 48.6162 216.734C48.8808 217.047 49.1718 217.396 49.484 217.772C49.7909 218.159 50.103 218.598 50.4523 219.059C51.1348 219.991 51.9549 221.024 52.7274 222.258C53.1296 222.867 53.5476 223.502 53.9814 224.169C54.4153 224.837 54.8069 225.568 55.246 226.304C56.1402 227.765 56.9445 229.412 57.8228 231.123C59.4789 234.602 61.0715 238.537 62.3573 242.795C63.6007 247.069 64.4102 251.236 64.9129 255.055C65.1087 256.972 65.3309 258.788 65.3785 260.504C65.4103 261.362 65.479 262.183 65.479 262.983C65.479 263.777 65.4685 264.54 65.4685 265.27C65.4949 266.727 65.3626 268.04 65.3044 269.195C65.2674 269.772 65.2409 270.307 65.1933 270.805C65.1351 271.292 65.0769 271.742 65.0293 272.15C64.9288 272.934 64.8494 273.553 64.7912 274.009C64.7647 274.205 64.7383 274.363 64.7224 274.49C64.7065 274.596 64.6907 274.655 64.6854 274.655V274.633Z" fill="#263238"/>
<path d="M78.8084 193.167C78.8084 193.167 78.7926 193.226 78.7397 193.321C78.6762 193.438 78.6021 193.581 78.5068 193.755C78.2793 194.158 77.9724 194.714 77.5809 195.413C77.3798 195.773 77.1417 196.165 76.9142 196.61C76.692 197.06 76.4486 197.547 76.1893 198.071C75.9301 198.596 75.6496 199.157 75.3533 199.75C75.0729 200.349 74.8031 201 74.5015 201.673C74.2105 202.35 73.8824 203.05 73.5861 203.796C73.2951 204.548 72.9988 205.327 72.6866 206.137C72.5332 206.539 72.3744 206.953 72.2104 207.371C72.0676 207.795 71.9194 208.224 71.7712 208.663C71.4749 209.537 71.1734 210.437 70.8612 211.359C69.713 215.082 68.623 219.223 67.7024 223.624C66.8135 228.03 66.1891 232.272 65.7235 236.143C65.3267 240.02 65.0357 243.52 64.9563 246.465C64.8822 247.937 64.8663 249.272 64.861 250.442C64.8399 251.612 64.8399 252.624 64.861 253.445C64.8716 254.244 64.8822 254.88 64.8875 255.346C64.8875 255.547 64.8875 255.706 64.8875 255.838C64.8875 255.95 64.8822 256.008 64.8769 256.008C64.8716 256.008 64.861 255.95 64.8558 255.838C64.8452 255.706 64.8346 255.542 64.824 255.346C64.8028 254.885 64.7711 254.25 64.7288 253.45C64.6811 252.624 64.6653 251.618 64.6653 250.442C64.6494 249.272 64.6494 247.932 64.7076 246.46C64.7552 243.504 65.0251 239.999 65.4007 236.111C65.8452 232.23 66.4643 227.977 67.3532 223.56C68.2738 219.149 69.3797 214.992 70.549 211.269C70.8665 210.347 71.1734 209.442 71.4749 208.568C71.6284 208.128 71.7765 207.699 71.9194 207.276C72.0834 206.857 72.2422 206.444 72.4009 206.042C72.7184 205.237 73.0252 204.453 73.3215 203.701C73.6284 202.954 73.9618 202.255 74.2634 201.583C74.5703 200.91 74.8507 200.264 75.1417 199.665C75.4486 199.078 75.7343 198.516 76.0041 197.997C76.274 197.478 76.5227 196.996 76.7555 196.546C76.9936 196.107 77.2423 195.72 77.4539 195.36C77.8719 194.671 78.2 194.131 78.4381 193.734C78.5439 193.565 78.6338 193.427 78.7026 193.316C78.7661 193.22 78.7979 193.178 78.8032 193.178L78.8084 193.167Z" fill="#263238"/>
<path d="M76.968 244.124C76.968 244.124 76.7828 244.5 76.3913 245.136C75.9944 245.771 75.4494 246.708 74.8092 247.884C74.1637 249.054 73.4653 250.484 72.7563 252.105C72.0631 253.731 71.37 255.547 70.7615 257.491C70.1689 259.44 69.7139 261.33 69.3699 263.067C69.0472 264.804 68.8144 266.382 68.6874 267.712C68.5551 269.041 68.4757 270.121 68.444 270.873C68.407 271.62 68.3752 272.033 68.3488 272.033C68.3223 272.033 68.3117 271.62 68.3064 270.868C68.2958 270.116 68.3329 269.03 68.4387 267.691C68.5339 266.351 68.7403 264.762 69.0472 263.009C69.3752 261.261 69.8197 259.355 70.4176 257.39C71.0314 255.431 71.7351 253.604 72.4494 251.978C73.1795 250.357 73.9097 248.927 74.587 247.768C75.259 246.602 75.8357 245.681 76.2696 245.067C76.6981 244.447 76.9415 244.113 76.9627 244.129L76.968 244.124Z" fill="#263238"/>
<path d="M54.2266 269.391H78.0525L75.1688 293.746H57.1949L54.2266 269.391Z" fill="#455A64"/>
<path d="M55.0938 291.119L57.1202 293.746H75.1683L77.253 291.199L55.0938 291.119Z" fill="#263238"/>
<path d="M77.1242 276.551C77.1242 276.651 72.177 276.731 66.0816 276.731C59.9863 276.731 55.0391 276.651 55.0391 276.551C55.0391 276.45 59.981 276.371 66.0816 276.371C72.1823 276.371 77.1242 276.45 77.1242 276.551Z" fill="white"/>
<path d="M77.1242 278.171C77.1242 278.272 72.177 278.351 66.0816 278.351C59.9863 278.351 55.0391 278.272 55.0391 278.171C55.0391 278.071 59.981 277.991 66.0816 277.991C72.1823 277.991 77.1242 278.071 77.1242 278.171Z" fill="white"/>
<path d="M76.8283 279.744C76.8283 279.845 72.0557 279.924 66.1719 279.924C60.2882 279.924 55.5156 279.845 55.5156 279.744C55.5156 279.643 60.2882 279.564 66.1719 279.564C72.0557 279.564 76.8283 279.643 76.8283 279.744Z" fill="white"/>
<path d="M270.506 294.108C270.506 294.378 218.902 294.608 155.26 294.608C91.6188 294.608 40.0039 294.378 40.0039 294.108C40.0039 293.839 91.5976 293.608 155.26 293.608C218.923 293.608 270.506 293.839 270.506 294.108Z" fill="#263238"/>
<path d="M199.964 134.032H98.9336V199.351H199.964V134.032Z" fill="#64B1B3"/>
<path d="M130.776 127.265H98.9336V134.032H132.597L130.776 127.265Z" fill="#64B1B3"/>
<g opacity="0.1">
<path opacity="0.1" d="M130.776 127.265H98.9336V134.032H132.597L130.776 127.265Z" fill="black"/>
</g>
<path d="M180.06 149.278L114.355 149.252L114.395 64.9072L163.175 64.9338L180.087 81.0077L180.06 149.278Z" fill="#FFC727"/>
<path d="M180.06 149.278L114.355 149.252L114.395 64.9072L163.175 64.9338L180.087 81.0077L180.06 149.278Z" fill="#EBEBEB"/>
<path d="M163.176 64.9341L180.087 81.008H163.176V64.9341Z" fill="#FFC727"/>
<path d="M163.176 64.9341L180.087 81.008H163.176V64.9341Z" fill="#C0C0C0"/>
<path d="M120.781 81.2333L157.316 81.2524L157.318 79.0853L120.782 79.0662L120.781 81.2333Z" fill="white"/>
<path d="M120.785 86.6845L157.32 86.7036L157.321 84.5365L120.786 84.5174L120.785 86.6845Z" fill="white"/>
<path d="M120.789 92.1493L157.324 92.1685L157.325 90.0013L120.79 89.9822L120.789 92.1493Z" fill="white"/>
<path d="M120.778 97.6312L174.305 97.6592L174.306 95.4921L120.779 95.464L120.778 97.6312Z" fill="white"/>
<path d="M120.778 103.096L174.305 103.124L174.306 100.956L120.779 100.928L120.778 103.096Z" fill="white"/>
<path d="M120.786 108.547L174.312 108.575L174.314 106.408L120.787 106.38L120.786 108.547Z" fill="white"/>
<path d="M120.79 114.024L174.316 114.052L174.318 111.885L120.791 111.857L120.79 114.024Z" fill="white"/>
<path d="M120.774 119.489L174.301 119.517L174.302 117.349L120.776 117.321L120.774 119.489Z" fill="white"/>
<path d="M120.763 124.953L174.289 124.981L174.29 122.814L120.764 122.786L120.763 124.953Z" fill="white"/>
<path d="M120.77 130.43L174.297 130.458L174.298 128.291L120.772 128.263L120.77 130.43Z" fill="white"/>
<path d="M120.77 135.895L174.297 135.923L174.298 133.756L120.772 133.728L120.77 135.895Z" fill="white"/>
<path d="M120.763 141.346L174.289 141.374L174.29 139.206L120.764 139.178L120.763 141.346Z" fill="white"/>
<path d="M146.019 170.279L219.834 145.989L203.534 96.6372L129.719 120.928L146.019 170.279Z" fill="#EBEBEB"/>
<path d="M148.076 166.197L215.762 143.914L201.483 100.718L133.797 122.988L148.076 166.197Z" fill="white"/>
<path d="M144.383 134.449C145.726 138.517 150.1 140.724 154.168 139.395C158.236 138.052 160.443 133.678 159.114 129.609C157.771 125.541 153.397 123.334 149.329 124.664C145.26 126.006 143.053 130.381 144.383 134.449Z" fill="#DBDBDB"/>
<path d="M169.113 159.35L215.739 144.007L182.023 120.076L169.113 159.35Z" fill="#DBDBDB"/>
<path d="M150.844 165.373L189.333 152.703L163.315 138.463L150.844 165.373Z" fill="#EBEBEB"/>
<path d="M199.718 199.351H98.6877L91.7344 139.457H192.764L199.718 199.351Z" fill="#A6DCDD"/>
<path d="M122.858 133.248H91.0156L91.7336 139.456H125.41L122.858 133.248Z" fill="#A6DCDD"/>
<path d="M116.77 174.635C116.77 178.517 119.774 181.695 123.59 181.974V182.001H165.31C170.097 182.001 173.965 178.132 173.965 173.346C173.965 168.839 170.522 165.129 166.121 164.73C165.869 156.899 159.447 150.611 151.55 150.611C145.261 150.611 139.903 154.586 137.856 160.17C136.686 159.585 135.383 159.253 133.987 159.253C129.387 159.253 125.624 162.842 125.345 167.376C124.959 167.31 124.561 167.283 124.148 167.283C120.08 167.283 116.783 170.58 116.783 174.649L116.77 174.635Z" fill="white"/>
<path d="M150.392 150.651V170.075H142.867V153.469C145.008 151.887 147.587 150.877 150.392 150.664V150.651Z" fill="#008C99"/>
<path d="M154.25 170.075H139L146.631 179.541L154.25 170.075Z" fill="#008C99"/>
<path d="M101.241 247.934C101.93 247.611 102.751 247.892 103.098 248.566L125.124 291.394H166.982C168.427 291.394 169.595 292.565 169.595 294.007H122.967L100.583 249.852C100.222 249.14 100.522 248.273 101.245 247.934H101.241Z" fill="#263238"/>
<path d="M226.645 163.979C222.114 166.965 218.949 171.941 218.161 177.309C217.644 180.835 218.108 184.434 217.876 187.995C217.568 192.693 216.054 197.479 217.336 202.01C218.173 204.973 220.174 207.53 222.635 209.382C225.096 211.235 227.999 212.429 230.97 213.244C234.093 214.099 237.502 214.541 240.518 213.365C244.338 211.874 246.742 208.15 248.781 204.593C250.82 201.036 252.947 197.224 256.568 195.295" fill="#263238"/>
<path d="M308.438 208.218C314.296 208.028 315.681 205.662 315.681 205.662C315.681 205.662 323.414 197.938 323.483 195.435C323.559 192.73 319.435 185.481 315.658 188.497C313.76 191.031 308.156 191.929 305.516 190.186C302.872 188.444 300.407 184.145 295.199 181.89C290.216 179.733 283.832 182.784 280.302 182.757C272.001 182.696 274.839 171.751 266.915 169.282C264.18 168.43 258.907 169.374 256.24 168.331C252.063 166.699 249.819 160.316 245.744 158.44C242.53 156.964 235.218 156.489 232.22 158.368C229.223 160.247 227.815 161.02 226.168 164.15L243.975 197.278C247.049 202.995 252.337 207.248 258.633 208.827C261.714 209.599 264.636 210.862 266.268 212.418C269.582 215.572 273.443 219.06 278 218.65C281.47 218.334 284.342 215.777 287.735 214.986C291.954 213.997 296.249 215.838 300.293 217.394C304.417 218.984 310.64 220.289 314.547 218.147C313.798 214.537 319.06 216.032 318.31 212.418C318.018 211.007 303.732 209.204 300.818 206.434C302.933 206.895 306.277 208.287 308.442 208.218H308.438Z" fill="#263238"/>
<path d="M220.859 178.058C221.551 172.017 225.945 164.785 231.952 165.733L250.569 171.462C252.395 171.751 253.696 173.387 253.567 175.228L248.23 218.718C247.229 219.612 235.432 230.381 235.432 230.381L228.429 217.557C228.429 217.557 228.737 209.88 228.729 209.93C228.729 209.93 221.053 208.248 219.961 198.065C219.421 192.997 220.094 184.773 220.859 178.058Z" fill="#FFD3C1"/>
<path d="M223.169 186.002C223.108 186.686 223.641 187.299 224.352 187.371C225.063 187.447 225.687 186.953 225.748 186.272C225.809 185.587 225.276 184.974 224.565 184.898C223.854 184.822 223.226 185.317 223.169 185.998V186.002Z" fill="#263238"/>
<path d="M222.552 183.247C222.704 183.426 223.723 182.749 225.116 182.821C226.508 182.874 227.497 183.647 227.657 183.483C227.737 183.411 227.589 183.099 227.159 182.753C226.736 182.407 226.006 182.057 225.135 182.015C224.267 181.977 223.518 182.258 223.081 182.562C222.635 182.871 222.476 183.167 222.548 183.247H222.552Z" fill="#263238"/>
<path d="M236.415 186.827C236.354 187.512 236.887 188.124 237.598 188.197C238.309 188.273 238.933 187.778 238.994 187.097C239.055 186.413 238.522 185.8 237.811 185.724C237.1 185.648 236.472 186.142 236.415 186.823V186.827Z" fill="#263238"/>
<path d="M236.45 183.997C236.602 184.175 237.622 183.498 239.014 183.571C240.407 183.624 241.396 184.396 241.555 184.233C241.632 184.16 241.487 183.848 241.057 183.498C240.635 183.152 239.904 182.802 239.033 182.76C238.166 182.722 237.416 183.004 236.979 183.308C236.534 183.616 236.374 183.913 236.446 183.993L236.45 183.997Z" fill="#263238"/>
<path d="M230.534 193.48C230.546 193.4 229.686 193.206 228.29 192.955C227.936 192.902 227.601 192.811 227.555 192.567C227.483 192.305 227.654 191.928 227.848 191.525C228.229 190.68 228.624 189.794 229.039 188.866C230.698 185.081 231.919 181.961 231.767 181.893C231.615 181.828 230.146 184.841 228.484 188.63C228.084 189.562 227.7 190.456 227.335 191.304C227.179 191.704 226.924 192.149 227.08 192.693C227.164 192.963 227.415 193.172 227.639 193.244C227.864 193.324 228.065 193.339 228.24 193.359C229.652 193.507 230.527 193.556 230.534 193.48Z" fill="#263238"/>
<path d="M228.724 209.93C228.724 209.93 235.499 210.714 242.441 207.012C242.441 207.012 238.672 213.784 228.609 212.323L228.727 209.93H228.724Z" fill="#F4AF9B"/>
<path d="M235.869 178.61C235.987 178.994 237.387 178.888 239.015 179.169C240.647 179.416 241.941 179.964 242.176 179.633C242.283 179.477 242.07 179.108 241.556 178.713C241.047 178.321 240.221 177.929 239.243 177.769C238.266 177.613 237.36 177.724 236.752 177.933C236.139 178.146 235.82 178.427 235.873 178.61H235.869Z" fill="#263238"/>
<path d="M222.74 178.495C222.969 178.822 223.946 178.545 225.103 178.587C226.259 178.587 227.226 178.91 227.469 178.587C227.576 178.431 227.439 178.107 227.028 177.784C226.621 177.464 225.928 177.183 225.133 177.168C224.338 177.152 223.634 177.404 223.216 177.708C222.79 178.012 222.641 178.332 222.74 178.492V178.495Z" fill="#263238"/>
<path d="M229.674 197.784C229.88 198.388 230.089 199.005 230.458 199.53C230.827 200.051 231.382 200.481 232.022 200.542C232.699 200.606 233.376 200.237 233.783 199.69C234.19 199.142 234.354 198.446 234.357 197.761C234.357 197.145 234.114 196.395 233.505 196.292C233.25 196.251 232.995 196.334 232.756 196.422C231.664 196.802 230.572 197.186 229.477 197.567" fill="#EB996E"/>
<path d="M230.827 200.488C230.849 200.389 231.538 200.709 232.55 200.359C233.041 200.187 233.585 199.83 233.904 199.244C234.224 198.662 234.319 197.863 234.049 197.144C233.988 196.965 233.889 196.798 233.794 196.65C233.672 196.509 233.695 196.516 233.558 196.532C233.425 196.562 233.208 196.65 233.033 196.71C232.85 196.775 232.672 196.836 232.493 196.901C231.793 197.144 231.158 197.357 230.621 197.528C229.548 197.871 228.871 198.046 228.845 197.97C228.818 197.894 229.442 197.585 230.48 197.148C230.998 196.927 231.618 196.676 232.31 196.402C232.485 196.334 232.66 196.265 232.843 196.193C233.033 196.125 233.181 196.048 233.44 195.98C233.566 195.95 233.744 195.938 233.916 196.018C234.083 196.094 234.182 196.216 234.258 196.315C234.391 196.513 234.509 196.714 234.589 196.942C234.924 197.84 234.787 198.807 234.364 199.51C233.935 200.225 233.246 200.61 232.668 200.75C232.082 200.899 231.584 200.834 231.272 200.735C230.956 200.636 230.811 200.518 230.827 200.488Z" fill="#263238"/>
<path d="M257.146 180.017C257.104 180.28 256.595 180.482 255.663 180.489C254.742 180.485 253.395 180.272 251.858 179.595C250.325 178.926 248.598 177.784 247.115 176.042C246.373 175.175 245.802 174.296 245.22 173.676C244.935 173.36 244.657 173.132 244.394 172.968C244.132 172.816 243.858 172.706 243.466 172.63C242.694 172.466 241.644 172.497 240.461 172.451C239.244 172.398 238.06 172.207 236.988 171.911C235.907 171.618 234.926 171.226 234.047 170.785C233.172 170.336 232.407 169.834 231.749 169.335C230.441 168.316 229.589 167.277 229.121 166.49C228.881 166.098 228.748 165.759 228.691 165.501C228.634 165.246 228.656 165.071 228.759 164.983C229.204 164.607 230.673 165.794 233.214 166.946C233.853 167.224 234.557 167.509 235.321 167.753C236.09 167.992 236.915 168.202 237.79 168.346C238.669 168.495 239.582 168.571 240.545 168.567C241.534 168.574 242.759 168.453 244.265 168.742C245.007 168.886 245.817 169.187 246.51 169.632C247.194 170.077 247.735 170.613 248.157 171.123C249.005 172.154 249.507 173.098 250.006 173.798C250.987 175.22 252.166 176.331 253.258 177.157C255.453 178.819 257.249 179.435 257.154 180.01L257.146 180.017Z" fill="#263238"/>
<path d="M242.98 174.273C245.064 177.902 246.308 182.167 245.7 186.31C244.912 191.658 246.339 192.023 248.523 190.41C254.004 186.359 252.901 196.402 254.297 199.213C255.815 202.264 259.456 203.634 262.849 203.961C266.239 204.288 269.708 203.855 273.037 204.574C275.787 205.167 278.313 206.518 280.984 207.408C283.654 208.298 286.702 208.686 289.201 207.389C284.902 207.198 281.071 204.707 277.651 202.089C274.235 199.472 270.861 196.577 266.737 195.329C264.671 194.705 262.389 194.481 260.685 193.153C257.847 190.943 257.801 186.77 257.645 183.175C257.519 180.341 257.15 177.472 256.005 174.878C254.86 172.283 252.852 169.97 250.204 168.959C247.556 167.947 244.254 168.46 242.371 170.579" fill="#263238"/>
<path d="M250.167 189.615C250.327 189.574 256.539 188.721 255.439 194.766C254.34 200.811 248.497 198.46 248.52 198.281C248.542 198.106 250.167 189.615 250.167 189.615Z" fill="#FFBE9D"/>
<path d="M250.252 196.246C250.282 196.231 250.343 196.338 250.507 196.452C250.666 196.562 250.956 196.672 251.29 196.611C251.971 196.494 252.694 195.577 252.922 194.493C253.036 193.945 253.017 193.401 252.903 192.933C252.801 192.457 252.569 192.096 252.26 191.982C251.952 191.849 251.69 192.001 251.587 192.157C251.477 192.313 251.492 192.438 251.458 192.442C251.439 192.453 251.347 192.317 251.443 192.077C251.488 191.963 251.587 191.833 251.751 191.742C251.918 191.651 252.142 191.628 252.359 191.693C252.82 191.811 253.162 192.317 253.288 192.83C253.44 193.351 253.474 193.968 253.345 194.58C253.086 195.79 252.253 196.817 251.332 196.912C250.887 196.946 250.556 196.752 250.4 196.577C250.24 196.395 250.233 196.254 250.256 196.246H250.252Z" fill="#EB996E"/>
<path d="M246.33 160.821C246.33 160.821 246.06 160.669 245.569 160.395C245.082 160.121 244.352 159.764 243.408 159.437C242.465 159.11 241.297 158.839 239.981 158.756C238.668 158.668 237.204 158.786 235.739 159.193C234.278 159.615 232.97 160.277 231.893 161.042C230.816 161.803 229.96 162.644 229.329 163.416C228.694 164.188 228.26 164.873 227.99 165.364C227.716 165.851 227.583 166.132 227.568 166.124C227.56 166.124 227.59 166.048 227.647 165.911C227.708 165.778 227.788 165.573 227.921 165.326C228.172 164.823 228.595 164.12 229.222 163.328C229.846 162.537 230.702 161.674 231.79 160.894C232.874 160.114 234.202 159.433 235.686 159.003C237.177 158.592 238.661 158.478 239.996 158.577C241.331 158.672 242.51 158.961 243.458 159.307C244.405 159.654 245.132 160.034 245.611 160.331C245.854 160.471 246.029 160.605 246.151 160.688C246.273 160.772 246.334 160.821 246.33 160.825V160.821Z" fill="#455A64"/>
<path d="M315.683 199.815C315.683 199.815 314.618 199.993 312.67 200.138C311.697 200.195 310.502 200.248 309.113 200.18C308.421 200.134 307.679 200.077 306.903 199.933C306.127 199.803 305.313 199.598 304.495 199.282C303.677 198.966 302.859 198.529 302.087 197.958C301.319 197.384 300.603 196.688 299.888 195.953C299.173 195.219 298.431 194.466 297.56 193.819C296.689 193.176 295.692 192.651 294.6 192.313C294.056 192.119 293.493 192.024 292.911 191.989C292.329 191.97 291.736 192.012 291.146 192.104C289.959 192.282 288.78 192.629 287.597 193.032C286.418 193.443 285.238 193.926 284.048 194.436C282.861 194.968 281.537 195.284 280.198 195.314C277.512 195.398 274.876 194.417 273.012 192.697C271.136 190.993 269.85 188.889 268.157 187.341C267.317 186.565 266.392 185.91 265.392 185.507C264.395 185.096 263.318 184.982 262.322 185.157C261.321 185.321 260.397 185.69 259.518 186.043C258.635 186.397 257.787 186.751 256.931 186.953C256.079 187.162 255.246 187.253 254.455 187.265C253.663 187.265 252.921 187.181 252.237 187.059C250.871 186.785 249.753 186.321 248.897 185.846C248.041 185.37 247.451 184.883 247.059 184.552C246.869 184.377 246.732 184.24 246.637 184.149C246.542 184.058 246.5 184.004 246.5 184.004C246.5 184.004 246.553 184.046 246.652 184.134C246.755 184.225 246.899 184.354 247.086 184.522C247.485 184.841 248.079 185.317 248.935 185.781C249.787 186.245 250.901 186.69 252.256 186.953C252.933 187.071 253.667 187.15 254.451 187.143C255.231 187.128 256.056 187.033 256.893 186.82C257.734 186.618 258.578 186.264 259.457 185.906C260.34 185.553 261.268 185.172 262.295 185.001C263.318 184.818 264.433 184.933 265.456 185.351C266.484 185.766 267.427 186.431 268.279 187.211C269.999 188.779 271.288 190.882 273.137 192.556C274.967 194.242 277.55 195.204 280.186 195.12C281.503 195.09 282.792 194.786 283.964 194.261C285.155 193.751 286.341 193.268 287.528 192.857C288.719 192.454 289.91 192.104 291.116 191.925C291.717 191.837 292.322 191.792 292.919 191.814C293.512 191.849 294.11 191.951 294.654 192.149C295.765 192.495 296.78 193.036 297.663 193.69C298.545 194.348 299.291 195.116 300.006 195.851C300.718 196.589 301.421 197.277 302.178 197.848C302.935 198.415 303.738 198.848 304.545 199.164C305.351 199.48 306.154 199.689 306.926 199.822C307.695 199.967 308.433 200.032 309.121 200.081C310.502 200.161 311.693 200.119 312.667 200.073C313.637 200.013 314.394 199.952 314.903 199.895C315.155 199.872 315.345 199.853 315.486 199.841C315.615 199.83 315.683 199.83 315.683 199.83V199.815Z" fill="#455A64"/>
<path d="M285.262 183.711C285.262 183.711 285.224 183.749 285.14 183.822C285.06 183.89 284.939 183.997 284.76 184.107C284.41 184.339 283.851 184.636 283.063 184.799C282.279 184.959 281.279 184.99 280.168 184.735C279.057 184.484 277.87 183.913 276.691 183.11C275.504 182.315 274.329 181.284 273.009 180.269C271.689 179.268 270.174 178.249 268.352 177.826C267.443 177.628 266.484 177.598 265.507 177.686C264.529 177.762 263.536 177.918 262.517 178.013C261.497 178.112 260.432 178.134 259.382 177.899C258.328 177.67 257.347 177.13 256.51 176.426C254.813 175.004 253.748 173.109 252.683 171.378C252.146 170.507 251.602 169.666 250.986 168.905C250.374 168.145 249.677 167.483 248.928 166.923C247.433 165.805 245.751 165.113 244.127 164.785C242.499 164.451 240.92 164.508 239.539 164.804C238.154 165.097 236.971 165.622 235.997 166.182C235.031 166.756 234.278 167.376 233.707 167.928C233.133 168.476 232.756 168.966 232.498 169.293C232.38 169.457 232.288 169.583 232.22 169.678C232.155 169.765 232.121 169.807 232.117 169.807C232.117 169.807 232.144 169.758 232.201 169.666C232.266 169.567 232.353 169.438 232.463 169.271C232.714 168.936 233.083 168.434 233.654 167.874C234.217 167.311 234.97 166.676 235.94 166.087C236.914 165.512 238.109 164.972 239.509 164.668C240.905 164.356 242.503 164.291 244.158 164.622C245.809 164.945 247.513 165.641 249.034 166.775C249.795 167.338 250.507 168.011 251.131 168.784C251.758 169.552 252.306 170.4 252.846 171.272C253.915 173.006 254.977 174.882 256.635 176.27C257.457 176.959 258.404 177.48 259.424 177.705C260.44 177.937 261.486 177.914 262.498 177.819C263.513 177.727 264.506 177.571 265.492 177.495C266.477 177.412 267.462 177.442 268.39 177.647C270.258 178.085 271.787 179.124 273.108 180.135C274.431 181.163 275.595 182.197 276.771 182.992C277.935 183.799 279.099 184.37 280.195 184.628C281.287 184.891 282.276 184.872 283.048 184.727C283.824 184.575 284.383 184.297 284.737 184.077C285.091 183.86 285.251 183.7 285.262 183.715V183.711Z" fill="#455A64"/>
<path d="M297.77 177.039C297.77 177.039 297.56 177.252 297.131 177.617C296.697 177.982 296.024 178.485 295.084 179.01C294.144 179.531 292.919 180.056 291.42 180.39C289.929 180.729 288.153 180.858 286.247 180.527C284.345 180.204 282.325 179.409 280.483 178.077C279.567 177.408 278.703 176.598 277.935 175.658C277.177 174.711 276.519 173.657 275.823 172.599C275.123 171.546 274.374 170.473 273.377 169.609C272.392 168.738 271.114 168.194 269.755 168.038C268.397 167.875 266.99 168.027 265.582 168.228C264.175 168.43 262.741 168.692 261.261 168.727C260.523 168.761 259.785 168.685 259.066 168.544C258.883 168.517 258.712 168.445 258.537 168.396C258.362 168.339 258.183 168.297 258.016 168.225L257.521 167.989C257.354 167.913 257.194 167.833 257.046 167.726C256.422 167.35 255.901 166.84 255.444 166.296C254.98 165.756 254.603 165.162 254.25 164.565C253.546 163.37 252.956 162.145 252.245 161.027C251.883 160.475 251.499 159.947 251.058 159.475C250.609 159.015 250.126 158.596 249.586 158.28C249.057 157.938 248.479 157.71 247.9 157.504C247.314 157.333 246.725 157.189 246.128 157.124C244.941 156.972 243.773 156.995 242.65 157.097C241.528 157.196 240.452 157.371 239.421 157.558C238.39 157.748 237.404 157.942 236.469 158.155C234.597 158.569 232.938 159.094 231.538 159.699C230.146 160.316 229.039 161.035 228.229 161.738C228.035 161.921 227.833 162.077 227.673 162.252C227.514 162.427 227.361 162.587 227.221 162.739C226.958 163.058 226.753 163.34 226.585 163.564C226.441 163.8 226.327 163.983 226.247 164.112C226.171 164.234 226.125 164.295 226.125 164.295C226.125 164.295 226.155 164.226 226.228 164.101C226.304 163.968 226.41 163.781 226.551 163.542C226.711 163.31 226.916 163.02 227.175 162.697C227.316 162.541 227.464 162.378 227.624 162.199C227.784 162.02 227.981 161.86 228.175 161.674C228.982 160.959 230.093 160.224 231.489 159.593C232.889 158.977 234.555 158.44 236.431 158.014C237.366 157.793 238.356 157.596 239.386 157.402C240.417 157.211 241.498 157.033 242.628 156.93C243.754 156.827 244.937 156.801 246.139 156.949C246.744 157.014 247.345 157.158 247.942 157.333C248.532 157.539 249.125 157.774 249.669 158.121C250.225 158.444 250.723 158.874 251.183 159.346C251.636 159.825 252.028 160.361 252.393 160.92C253.116 162.047 253.706 163.275 254.405 164.458C254.755 165.048 255.132 165.634 255.585 166.163C256.034 166.691 256.54 167.186 257.141 167.551C257.281 167.658 257.441 167.734 257.601 167.806L258.077 168.034C258.236 168.107 258.411 168.145 258.583 168.202C258.754 168.247 258.917 168.32 259.096 168.346C259.796 168.483 260.519 168.556 261.245 168.525C264.152 168.453 266.959 167.506 269.767 167.84C271.155 167.996 272.479 168.563 273.487 169.461C274.503 170.351 275.26 171.439 275.96 172.493C276.656 173.554 277.311 174.608 278.056 175.544C278.809 176.472 279.662 177.275 280.567 177.941C282.385 179.261 284.379 180.059 286.258 180.387C288.141 180.725 289.903 180.603 291.382 180.28C292.87 179.961 294.091 179.447 295.031 178.937C295.97 178.424 296.651 177.937 297.089 177.583C297.313 177.412 297.469 177.263 297.583 177.172C297.694 177.077 297.754 177.035 297.754 177.035L297.77 177.039Z" fill="#263238"/>
<path d="M312.186 215.058C312.186 215.058 312.133 215.081 312.023 215.123C311.905 215.165 311.741 215.218 311.532 215.29C311.319 215.374 311.041 215.427 310.718 215.503C310.395 215.595 310.014 215.633 309.584 215.697C308.725 215.785 307.659 215.808 306.442 215.656C305.221 215.507 303.855 215.191 302.383 214.724C300.911 214.259 299.336 213.632 297.666 212.936C295.996 212.239 294.196 211.513 292.241 210.969C290.293 210.429 288.151 210.052 285.96 210.299C284.868 210.421 283.777 210.714 282.75 211.197C281.726 211.692 280.76 212.338 279.759 212.958C278.759 213.575 277.724 214.161 276.583 214.427C275.445 214.682 274.209 214.492 273.266 213.856C272.311 213.236 271.622 212.354 270.96 211.52C270.306 210.68 269.671 209.847 268.906 209.192C267.365 207.868 265.505 207.187 263.774 206.716C262.028 206.248 260.362 205.978 258.851 205.654C257.341 205.327 255.995 204.932 254.865 204.452C253.735 203.973 252.818 203.417 252.148 202.87C251.475 202.322 251.053 201.793 250.775 201.435C250.646 201.249 250.555 201.101 250.494 201.002C250.433 200.903 250.402 200.85 250.402 200.85C250.402 200.85 250.44 200.895 250.509 200.99C250.581 201.093 250.68 201.23 250.806 201.409C251.091 201.759 251.521 202.276 252.198 202.809C252.871 203.341 253.78 203.882 254.907 204.349C256.033 204.817 257.375 205.202 258.882 205.517C260.388 205.829 262.058 206.092 263.82 206.556C265.562 207.024 267.453 207.705 269.028 209.051C269.815 209.721 270.458 210.566 271.112 211.402C271.771 212.232 272.455 213.099 273.372 213.693C274.281 214.301 275.445 214.48 276.541 214.237C277.64 213.982 278.66 213.407 279.657 212.791C280.653 212.175 281.623 211.52 282.666 211.018C283.716 210.528 284.83 210.231 285.941 210.105C288.171 209.854 290.331 210.242 292.294 210.79C294.265 211.342 296.064 212.076 297.734 212.78C299.404 213.483 300.968 214.115 302.432 214.587C303.893 215.062 305.251 215.385 306.461 215.541C307.671 215.701 308.728 215.69 309.584 215.614C310.01 215.557 310.391 215.522 310.71 215.439C311.034 215.37 311.312 215.321 311.525 215.245L312.019 215.096C312.129 215.066 312.19 215.051 312.19 215.051L312.186 215.058Z" fill="#455A64"/>
<path d="M228.908 185.477C228.878 185.477 228.912 184.963 228.691 184.084C228.588 183.643 228.375 183.122 228.048 182.574C227.717 182.026 227.242 181.456 226.595 180.969C225.952 180.489 225.142 180.082 224.206 179.919C223.278 179.763 222.232 179.793 221.235 180.17C220.733 180.345 220.25 180.607 219.805 180.942C219.356 181.269 218.949 181.672 218.61 182.14C217.914 183.065 217.526 184.252 217.514 185.477C217.526 186.702 217.918 187.888 218.61 188.813C218.945 189.281 219.356 189.688 219.805 190.015C220.25 190.346 220.733 190.612 221.235 190.787C222.232 191.168 223.278 191.198 224.206 191.038C225.142 190.875 225.952 190.468 226.595 189.988C227.242 189.505 227.717 188.931 228.044 188.383C228.372 187.831 228.581 187.314 228.687 186.873C228.912 185.994 228.874 185.477 228.904 185.48C228.904 185.48 228.908 185.511 228.908 185.572C228.908 185.644 228.908 185.735 228.904 185.846C228.904 185.967 228.897 186.116 228.87 186.291C228.847 186.466 228.824 186.667 228.763 186.892C228.668 187.341 228.467 187.873 228.143 188.44C227.816 189.003 227.337 189.597 226.683 190.099C226.028 190.597 225.199 191.023 224.24 191.202C223.285 191.373 222.209 191.347 221.178 190.958C220.661 190.78 220.158 190.51 219.698 190.167C219.234 189.832 218.812 189.414 218.462 188.931C217.743 187.976 217.332 186.743 217.324 185.477C217.336 184.21 217.743 182.981 218.462 182.026C218.812 181.543 219.234 181.125 219.698 180.79C220.158 180.447 220.661 180.177 221.178 179.999C222.209 179.611 223.285 179.588 224.24 179.755C225.199 179.93 226.028 180.356 226.683 180.858C227.337 181.36 227.816 181.954 228.143 182.517C228.471 183.084 228.672 183.616 228.763 184.065C228.824 184.286 228.847 184.491 228.87 184.666C228.9 184.841 228.904 184.99 228.904 185.111C228.904 185.222 228.904 185.313 228.908 185.385C228.908 185.446 228.908 185.477 228.904 185.477H228.908Z" fill="#455A64"/>
<path d="M243.908 185.477C243.878 185.477 243.912 184.963 243.691 184.084C243.589 183.643 243.376 183.122 243.048 182.574C242.717 182.026 242.242 181.456 241.595 180.969C240.952 180.489 240.142 180.082 239.206 179.919C238.278 179.763 237.232 179.793 236.235 180.17C235.733 180.345 235.25 180.607 234.805 180.942C234.356 181.269 233.949 181.672 233.61 182.14C232.914 183.065 232.526 184.252 232.515 185.477C232.526 186.702 232.918 187.888 233.61 188.813C233.945 189.281 234.356 189.688 234.805 190.015C235.25 190.346 235.733 190.612 236.235 190.787C237.232 191.168 238.278 191.198 239.206 191.038C240.142 190.875 240.952 190.468 241.595 189.988C242.242 189.505 242.717 188.931 243.048 188.383C243.376 187.831 243.585 187.314 243.691 186.873C243.916 185.994 243.878 185.477 243.908 185.48C243.908 185.48 243.912 185.511 243.912 185.572C243.912 185.644 243.912 185.735 243.908 185.846C243.908 185.967 243.901 186.116 243.874 186.291C243.851 186.466 243.828 186.667 243.767 186.892C243.672 187.341 243.471 187.873 243.147 188.44C242.82 189.003 242.341 189.597 241.686 190.099C241.032 190.597 240.203 191.023 239.244 191.202C238.289 191.373 237.213 191.347 236.182 190.958C235.664 190.78 235.162 190.51 234.702 190.167C234.238 189.832 233.816 189.414 233.466 188.931C232.747 187.976 232.336 186.743 232.328 185.477C232.34 184.21 232.747 182.981 233.466 182.026C233.816 181.543 234.238 181.125 234.702 180.79C235.162 180.447 235.664 180.177 236.182 179.999C237.213 179.611 238.289 179.588 239.244 179.755C240.203 179.93 241.032 180.356 241.686 180.858C242.341 181.36 242.82 181.954 243.147 182.517C243.474 183.084 243.676 183.616 243.767 184.065C243.828 184.286 243.851 184.491 243.874 184.666C243.904 184.841 243.908 184.99 243.908 185.111C243.908 185.222 243.908 185.313 243.912 185.385C243.912 185.446 243.912 185.477 243.908 185.477Z" fill="#455A64"/>
<path d="M232.583 184.096C232.553 184.111 232.431 183.863 232.115 183.578C231.807 183.293 231.271 182.981 230.628 182.962C229.985 182.947 229.434 183.232 229.11 183.498C228.779 183.768 228.646 184.008 228.616 183.989C228.597 183.981 228.692 183.708 229.015 183.392C229.331 183.08 229.92 182.745 230.628 182.76C231.336 182.783 231.906 183.144 232.207 183.475C232.515 183.81 232.595 184.088 232.576 184.092L232.583 184.096Z" fill="#455A64"/>
<path d="M249.987 189.631C249.968 189.654 249.633 189.426 249.093 189.049C248.553 188.672 247.807 188.159 246.974 187.6C246.141 187.044 245.376 186.553 244.825 186.2C244.273 185.846 243.931 185.621 243.946 185.599C243.957 185.576 244.326 185.755 244.897 186.082C245.471 186.405 246.247 186.881 247.084 187.436C247.921 187.995 248.655 188.532 249.173 188.935C249.694 189.338 249.998 189.608 249.983 189.627L249.987 189.631Z" fill="#455A64"/>
<path d="M238.653 190.346C238.653 190.346 238.516 190.38 238.265 190.392C238.014 190.399 237.648 190.38 237.207 190.289C236.332 190.114 235.126 189.563 234.266 188.455C233.41 187.348 233.175 186.04 233.22 185.15C233.239 184.701 233.312 184.339 233.384 184.1C233.456 183.86 233.513 183.731 233.521 183.734C233.559 183.742 233.365 184.271 233.361 185.15C233.35 186.017 233.601 187.269 234.422 188.33C235.248 189.388 236.397 189.943 237.237 190.148C238.093 190.365 238.649 190.304 238.649 190.346H238.653Z" fill="white"/>
<path d="M219.75 188.821C219.75 188.821 219.648 188.783 219.484 188.672C219.321 188.562 219.1 188.38 218.864 188.117C218.389 187.603 217.867 186.709 217.772 185.618C217.681 184.522 218.039 183.556 218.419 182.966C218.609 182.666 218.796 182.449 218.936 182.312C219.077 182.175 219.165 182.11 219.172 182.118C219.199 182.144 218.875 182.437 218.537 183.038C218.198 183.628 217.879 184.56 217.966 185.602C218.058 186.645 218.533 187.508 218.967 188.03C219.404 188.562 219.769 188.798 219.747 188.828L219.75 188.821Z" fill="white"/>
<path d="M267.449 223.058C267.449 223.058 272.573 224.748 274.635 230.382C276.697 236.019 280.303 270.992 280.303 270.992C280.307 269.15 285.097 274.982 284.355 294.007H264.299L256.227 266.674L267.445 223.055L267.449 223.058Z" fill="#007C88"/>
<path d="M222.267 218.474C221.339 218.356 212.125 221.552 210.41 224.42C208.694 227.289 199.971 256.612 199.971 256.612L180.315 259.788C180.315 259.788 173.353 259.579 173.893 266.674C174.433 273.769 175.483 279.258 178.523 281.586C181.566 283.914 184.701 284.896 186.489 283.998C188.136 283.169 187.9 280.993 187.9 280.993C187.9 280.993 204.544 284.611 208.078 281.59C211.608 278.569 222.267 218.478 222.267 218.478V218.474Z" fill="#007C88"/>
<path d="M250.602 213.396L250.724 217.972C250.724 217.972 266.233 222.313 267.458 223.051C268.68 223.789 259.637 273.259 259.637 273.259C259.637 273.259 271.369 287.224 272.103 292.234L272.362 294.011H205.762L208.181 275.332L207.029 255.516L215.984 220.624L226.795 216.785L226.677 214.141C226.647 213.499 227.153 212.955 227.796 212.936L249.415 212.277C250.054 212.258 250.587 212.761 250.606 213.4L250.602 213.396Z" fill="#007C88"/>
<path d="M207.85 269.714C207.85 269.714 207.85 269.675 207.85 269.603C207.843 269.519 207.835 269.413 207.827 269.284C207.801 268.987 207.763 268.576 207.717 268.055C207.668 267.522 207.595 266.868 207.55 266.107C207.504 265.346 207.413 264.483 207.379 263.528C207.341 262.569 207.272 261.523 207.268 260.397C207.261 259.834 207.242 259.252 207.245 258.651C207.253 258.05 207.264 257.434 207.276 256.802C207.348 254.272 207.527 251.488 207.919 248.593C208.322 245.698 208.889 242.966 209.517 240.512C209.68 239.9 209.844 239.306 210 238.724C210.159 238.146 210.346 237.595 210.506 237.054C210.821 235.974 211.187 234.989 211.499 234.083C211.651 233.631 211.807 233.201 211.966 232.801C212.122 232.398 212.267 232.018 212.404 231.664C212.67 230.949 212.929 230.348 213.138 229.853C213.34 229.37 213.496 228.986 213.61 228.712C213.659 228.59 213.697 228.491 213.728 228.411C213.754 228.343 213.766 228.308 213.762 228.305C213.762 228.305 213.739 228.335 213.709 228.4C213.675 228.476 213.629 228.571 213.572 228.689C213.45 228.959 213.279 229.336 213.066 229.815C212.849 230.306 212.575 230.903 212.301 231.614C212.16 231.968 212.008 232.349 211.848 232.748C211.685 233.147 211.521 233.574 211.365 234.03C211.046 234.935 210.673 235.921 210.35 237.001C210.182 237.541 209.992 238.093 209.832 238.671C209.672 239.249 209.509 239.847 209.338 240.459C208.702 242.917 208.124 245.656 207.721 248.558C207.329 251.465 207.154 254.253 207.093 256.791C207.086 257.426 207.078 258.042 207.074 258.647C207.074 259.248 207.097 259.83 207.105 260.397C207.116 261.527 207.192 262.577 207.238 263.535C207.28 264.494 207.382 265.358 207.436 266.119C207.493 266.879 207.576 267.53 207.637 268.062C207.702 268.584 207.751 268.995 207.786 269.287C207.805 269.417 207.82 269.523 207.831 269.607C207.843 269.679 207.85 269.714 207.854 269.714H207.85Z" fill="#263238"/>
<path d="M258.129 237.838C258.129 237.838 258.125 237.887 258.106 237.982C258.087 238.089 258.057 238.226 258.022 238.405C257.939 238.774 257.844 239.325 257.726 240.033C257.501 241.452 257.296 243.529 257.334 246.097C257.368 248.665 257.684 251.719 258.3 255.059C258.913 258.403 259.829 262.029 260.78 265.841C261.735 269.649 262.557 273.308 263.055 276.679C263.573 280.045 263.835 283.104 263.991 285.676C264.147 288.247 264.212 290.328 264.261 291.766C264.28 292.478 264.296 293.033 264.307 293.421C264.307 293.604 264.311 293.744 264.315 293.851C264.315 293.95 264.315 293.999 264.311 293.999C264.307 293.999 264.303 293.95 264.296 293.855C264.288 293.748 264.28 293.607 264.269 293.425C264.25 293.037 264.223 292.481 264.185 291.77C264.113 290.332 264.025 288.251 263.854 285.687C263.679 283.123 263.405 280.068 262.877 276.709C262.367 273.346 261.545 269.698 260.59 265.89C259.643 262.082 258.73 258.449 258.125 255.094C257.516 251.742 257.212 248.676 257.197 246.097C257.174 243.517 257.406 241.437 257.653 240.018C257.904 238.599 258.133 237.834 258.133 237.834L258.129 237.838Z" fill="#263238"/>
<path d="M250.818 218.174C250.818 218.174 250.738 218.216 250.586 218.281C250.411 218.349 250.183 218.436 249.901 218.547C249.296 218.748 248.421 219.045 247.307 219.3C246.196 219.559 244.853 219.795 243.35 219.951C241.848 220.11 240.189 220.179 238.447 220.183C236.704 220.175 235.05 220.129 233.543 220.011C232.037 219.89 230.682 219.593 229.636 219.11C228.586 218.642 227.852 218.033 227.426 217.558C227.209 217.322 227.065 217.12 226.969 216.979C226.878 216.839 226.836 216.763 226.84 216.759C226.859 216.744 227.038 217.056 227.483 217.508C227.924 217.961 228.655 218.539 229.697 218.984C230.732 219.441 232.067 219.719 233.562 219.829C235.057 219.935 236.716 219.973 238.451 219.981C240.185 219.981 241.84 219.916 243.335 219.768C244.83 219.623 246.169 219.403 247.28 219.163C248.395 218.931 249.274 218.653 249.882 218.475C250.167 218.379 250.4 218.303 250.578 218.246C250.738 218.197 250.822 218.174 250.826 218.178L250.818 218.174Z" fill="#263238"/>
<path d="M244.977 263.109C244.977 263.109 244.901 263.128 244.749 263.139C244.578 263.151 244.361 263.17 244.094 263.189C243.95 263.2 243.79 263.208 243.619 263.219C243.444 263.223 243.257 263.219 243.052 263.216C242.645 263.204 242.181 263.216 241.675 263.151C241.42 263.124 241.154 263.098 240.876 263.071C240.598 263.041 240.313 262.976 240.016 262.926C239.419 262.839 238.799 262.664 238.145 262.497C236.847 262.109 235.455 261.565 234.082 260.815C232.716 260.05 231.514 259.16 230.494 258.27C230.004 257.806 229.524 257.372 229.132 256.916C228.935 256.691 228.725 256.486 228.554 256.265C228.383 256.045 228.219 255.835 228.06 255.63C227.732 255.234 227.497 254.835 227.272 254.496C227.162 254.325 227.055 254.169 226.968 254.021C226.888 253.869 226.812 253.732 226.743 253.602C226.618 253.366 226.515 253.172 226.435 253.02C226.367 252.887 226.336 252.815 226.34 252.811C226.348 252.811 226.39 252.872 226.47 253.001C226.557 253.15 226.671 253.336 226.808 253.564C226.88 253.69 226.96 253.827 227.048 253.971C227.139 254.116 227.253 254.268 227.367 254.435C227.603 254.763 227.843 255.158 228.174 255.542C228.334 255.74 228.501 255.95 228.672 256.163C228.847 256.376 229.056 256.577 229.254 256.802C229.646 257.251 230.125 257.673 230.616 258.133C231.632 259.008 232.826 259.883 234.181 260.64C235.543 261.382 236.92 261.926 238.202 262.318C238.848 262.489 239.461 262.672 240.054 262.763C240.347 262.816 240.629 262.881 240.903 262.915C241.177 262.945 241.443 262.976 241.694 263.006C242.196 263.082 242.656 263.079 243.06 263.101C243.261 263.109 243.448 263.124 243.623 263.124C243.794 263.12 243.95 263.113 244.094 263.109C244.361 263.105 244.578 263.098 244.749 263.094C244.897 263.094 244.977 263.094 244.981 263.101L244.977 263.109Z" fill="#263238"/>
<path d="M203.873 266.994C203.839 266.994 203.782 266.362 203.596 265.358C203.409 264.353 203.063 262.98 202.481 261.535C201.895 260.089 201.192 258.86 200.628 258.008C200.065 257.156 199.666 256.661 199.693 256.639C199.704 256.631 199.811 256.745 200.001 256.966C200.191 257.183 200.446 257.51 200.743 257.932C201.34 258.769 202.07 260.001 202.664 261.462C203.25 262.923 203.581 264.315 203.733 265.335C203.809 265.845 203.854 266.259 203.866 266.545C203.881 266.83 203.885 266.99 203.87 266.994H203.873Z" fill="#263238"/>
<path d="M270.56 227.03C270.552 227.08 269.791 226.874 268.544 226.893C268.388 226.897 268.224 226.905 268.057 226.912C267.886 226.92 267.711 226.95 267.532 226.973C267.167 227.003 266.786 227.099 266.383 227.182C265.588 227.391 264.732 227.703 263.895 228.152C263.066 228.616 262.339 229.164 261.734 229.72C261.445 230.013 261.16 230.283 260.935 230.572C260.821 230.713 260.699 230.846 260.601 230.983C260.505 231.123 260.41 231.257 260.323 231.386C259.63 232.424 259.391 233.178 259.345 233.159C259.334 233.155 259.395 232.972 259.52 232.641C259.581 232.474 259.661 232.272 259.783 232.055C259.901 231.835 260.018 231.572 260.201 231.314L260.475 230.899C260.57 230.754 260.692 230.621 260.806 230.473C261.027 230.172 261.316 229.895 261.605 229.594C262.213 229.02 262.951 228.453 263.796 227.985C264.648 227.528 265.523 227.216 266.337 227.011C266.748 226.931 267.136 226.84 267.509 226.817C267.695 226.802 267.874 226.771 268.045 226.768C268.217 226.768 268.384 226.768 268.544 226.764C268.859 226.749 269.145 226.794 269.396 226.813C269.647 226.828 269.86 226.87 270.031 226.908C270.377 226.981 270.564 227.026 270.564 227.042L270.56 227.03Z" fill="#263238"/>
<g opacity="0.3">
<path opacity="0.3" d="M237.067 261.915C232.951 260.465 228.747 257.464 226.754 253.583C227.701 258.266 231.254 263.086 235.766 264.658C240.282 266.229 245.592 265.247 249.244 262.162C245.258 263.935 241.183 263.364 237.067 261.911V261.915Z" fill="black"/>
</g>
<path d="M205.762 294.007C205.762 294.007 205.762 293.92 205.773 293.756C205.792 293.573 205.815 293.337 205.845 293.045C205.921 292.402 206.024 291.515 206.15 290.431C206.427 288.206 206.808 285.174 207.226 281.822C207.47 279.962 207.698 278.201 207.899 276.641V276.656C207.865 274.587 207.839 272.829 207.82 271.566C207.82 270.965 207.816 270.478 207.812 270.12C207.812 269.968 207.816 269.843 207.816 269.736C207.816 269.649 207.823 269.603 207.827 269.603C207.831 269.603 207.839 269.649 207.846 269.732C207.854 269.835 207.861 269.961 207.869 270.113C207.884 270.47 207.903 270.954 207.926 271.555C207.964 272.818 208.014 274.571 208.074 276.641V276.656C207.877 278.216 207.652 279.981 207.416 281.837C206.975 285.185 206.576 288.217 206.283 290.439C206.131 291.519 206.005 292.405 205.917 293.045C205.872 293.334 205.838 293.57 205.807 293.752C205.781 293.912 205.762 293.999 205.754 293.996L205.762 294.007Z" fill="#263238"/>
<path d="M181.238 265.209C181.238 265.209 181.28 265.255 181.345 265.354C181.421 265.471 181.512 265.616 181.623 265.787C181.862 266.164 182.189 266.723 182.581 267.419C183.365 268.812 184.365 270.782 185.309 273.034C186.245 275.286 186.941 277.386 187.378 278.923C187.599 279.692 187.763 280.315 187.861 280.753C187.907 280.951 187.945 281.118 187.976 281.255C187.998 281.369 188.01 281.43 188.002 281.434C187.995 281.434 187.972 281.377 187.937 281.267C187.896 281.133 187.846 280.97 187.789 280.776C187.667 280.346 187.481 279.73 187.245 278.969C186.773 277.447 186.062 275.362 185.126 273.118C184.19 270.873 183.209 268.903 182.459 267.495C182.087 266.792 181.775 266.225 181.558 265.837C181.459 265.658 181.379 265.51 181.314 265.384C181.261 265.281 181.234 265.224 181.242 265.22L181.238 265.209Z" fill="#263238"/>
<path d="M185.054 271.768C185.05 271.806 184.457 271.726 183.494 271.756C183.015 271.768 182.444 271.825 181.82 271.931C181.197 272.049 180.519 272.216 179.835 272.464C179.15 272.719 178.522 273.023 177.967 273.331C177.419 273.651 176.947 273.97 176.571 274.271C175.814 274.864 175.41 275.306 175.384 275.279C175.372 275.271 175.467 275.153 175.65 274.952C175.741 274.849 175.852 274.727 175.996 274.598C176.137 274.469 176.293 274.309 176.483 274.16C176.852 273.845 177.324 273.506 177.875 273.171C178.431 272.848 179.07 272.532 179.766 272.274C180.466 272.022 181.155 271.855 181.79 271.749C182.425 271.65 183.007 271.608 183.49 271.612C183.734 271.604 183.955 271.623 184.145 271.634C184.339 271.642 184.502 271.661 184.636 271.684C184.906 271.722 185.05 271.749 185.05 271.764L185.054 271.768Z" fill="white"/>
<path d="M180.399 264.555C180.384 264.589 179.992 264.376 179.311 264.22C178.634 264.064 177.641 263.999 176.621 264.315C175.602 264.631 174.818 265.247 174.35 265.761C173.875 266.274 173.673 266.67 173.639 266.651C173.627 266.643 173.665 266.541 173.76 266.366C173.856 266.191 174.011 265.943 174.244 265.666C174.696 265.114 175.499 264.456 176.56 264.125C177.622 263.798 178.656 263.885 179.341 264.083C179.687 264.182 179.957 264.292 180.132 264.387C180.311 264.479 180.403 264.543 180.395 264.555H180.399Z" fill="white"/>
<path d="M187.262 279.506C187.262 279.506 187.171 279.601 186.984 279.741C186.802 279.886 186.516 280.076 186.159 280.293C185.44 280.723 184.378 281.221 183.134 281.541C181.887 281.857 180.719 281.929 179.882 281.895C179.463 281.879 179.125 281.845 178.893 281.807C178.661 281.769 178.535 281.746 178.535 281.731C178.539 281.697 179.053 281.758 179.882 281.754C180.711 281.754 181.86 281.659 183.085 281.347C184.31 281.031 185.364 280.567 186.09 280.171C186.821 279.776 187.243 279.479 187.262 279.506Z" fill="white"/>
<path d="M231.051 219.539C231.051 219.539 230.979 219.475 230.876 219.334C230.773 219.197 230.64 218.98 230.499 218.702C230.218 218.151 229.932 217.325 229.856 216.374C229.78 215.423 229.929 214.563 230.119 213.974C230.214 213.677 230.305 213.445 230.389 213.293C230.469 213.137 230.514 213.057 230.53 213.061C230.56 213.076 230.408 213.422 230.256 214.012C230.104 214.598 229.986 215.438 230.058 216.359C230.134 217.28 230.385 218.09 230.632 218.645C230.876 219.201 231.085 219.52 231.055 219.539H231.051Z" fill="white"/>
<path d="M237.577 219.973C237.577 219.973 237.501 219.905 237.391 219.753C237.281 219.604 237.14 219.376 236.984 219.083C236.676 218.497 236.36 217.626 236.246 216.618C236.136 215.61 236.254 214.685 236.425 214.05C236.509 213.73 236.596 213.476 236.672 213.308C236.744 213.137 236.794 213.05 236.805 213.053C236.839 213.065 236.691 213.445 236.562 214.08C236.429 214.716 236.337 215.614 236.444 216.595C236.554 217.577 236.843 218.432 237.113 219.022C237.383 219.612 237.608 219.95 237.577 219.969V219.973Z" fill="white"/>
<path d="M244.899 219.487C244.834 219.475 245.257 218.052 245.161 216.257C245.089 214.461 244.538 213.084 244.598 213.065C244.621 213.057 244.785 213.388 244.964 213.955C245.142 214.522 245.317 215.336 245.359 216.249C245.401 217.162 245.302 217.988 245.177 218.57C245.051 219.152 244.918 219.498 244.895 219.49L244.899 219.487Z" fill="white"/>
<path d="M191.873 271.889C191.873 271.889 191.797 271.714 191.694 271.387C191.58 271.026 191.436 270.558 191.261 270.002C190.896 268.835 190.367 267.229 189.728 265.475C189.085 263.722 188.446 262.158 187.97 261.032C187.742 260.496 187.552 260.047 187.403 259.697C187.27 259.381 187.202 259.202 187.217 259.198C187.228 259.191 187.32 259.358 187.476 259.666C187.632 259.971 187.845 260.42 188.1 260.979C188.609 262.094 189.271 263.653 189.914 265.411C190.557 267.168 191.063 268.785 191.398 269.964C191.565 270.554 191.691 271.033 191.771 271.368C191.85 271.703 191.889 271.886 191.877 271.889H191.873Z" fill="white"/>
<path d="M193.868 276.268C193.819 276.287 193.579 275.827 193.336 275.237C193.092 274.647 192.936 274.149 192.986 274.13C193.035 274.111 193.275 274.571 193.518 275.161C193.762 275.751 193.918 276.249 193.868 276.268Z" fill="white"/>
<path d="M204.189 279.037C204.189 279.037 204.159 278.961 204.117 278.817C204.072 278.649 204.018 278.436 203.946 278.178C203.805 277.622 203.592 276.819 203.314 275.83C202.759 273.856 201.907 271.147 200.766 268.233C199.621 265.319 198.403 262.755 197.464 260.929C196.996 260.016 196.608 259.282 196.33 258.78C196.204 258.54 196.102 258.35 196.018 258.194C195.95 258.061 195.915 257.989 195.923 257.985C195.931 257.985 195.972 258.046 196.056 258.175C196.147 258.323 196.258 258.51 196.398 258.742C196.695 259.233 197.102 259.959 197.589 260.865C198.563 262.675 199.803 265.239 200.952 268.161C202.097 271.083 202.93 273.807 203.451 275.792C203.714 276.785 203.908 277.596 204.022 278.159C204.075 278.425 204.121 278.638 204.155 278.805C204.182 278.954 204.197 279.034 204.189 279.034V279.037Z" fill="white"/>
<path d="M206.326 253.112C206.292 253.153 205.39 252.514 204.31 251.685C203.229 250.852 202.381 250.144 202.415 250.099C202.449 250.057 203.351 250.696 204.431 251.525C205.512 252.358 206.36 253.066 206.326 253.112Z" fill="white"/>
<path d="M207.594 244.157C207.571 244.206 207.187 244.077 206.734 243.868C206.281 243.658 205.935 243.449 205.958 243.4C205.981 243.35 206.365 243.48 206.818 243.689C207.271 243.898 207.617 244.107 207.594 244.157Z" fill="white"/>
<path d="M210.61 236.13C210.594 236.183 209.769 235.993 208.761 235.704C207.756 235.415 206.954 235.141 206.969 235.088C206.984 235.034 207.81 235.224 208.818 235.514C209.822 235.803 210.625 236.077 210.61 236.13Z" fill="white"/>
<path d="M222.958 226.817C222.958 226.87 219.994 226.817 216.346 226.687C212.694 226.562 209.738 226.417 209.738 226.36C209.738 226.307 212.702 226.36 216.35 226.49C219.998 226.615 222.958 226.76 222.954 226.817H222.958Z" fill="white"/>
<path d="M229.252 226.905C229.252 226.958 228.738 226.977 228.114 226.939C227.487 226.905 226.984 226.832 226.988 226.775C226.988 226.722 227.502 226.703 228.126 226.741C228.75 226.775 229.256 226.848 229.252 226.905Z" fill="white"/>
<path d="M252.425 226.825C252.425 226.878 248.731 226.866 244.177 226.798C239.62 226.729 235.93 226.631 235.93 226.573C235.93 226.52 239.624 226.532 244.181 226.6C248.735 226.669 252.429 226.768 252.429 226.825H252.425Z" fill="white"/>
<path d="M261.616 225.645C261.616 225.699 261.023 225.744 260.293 225.744C259.562 225.744 258.969 225.699 258.969 225.645C258.969 225.592 259.562 225.546 260.293 225.546C261.023 225.546 261.616 225.592 261.616 225.645Z" fill="white"/>
<path d="M269.168 224.641C269.172 224.694 268.529 224.797 267.73 224.865C266.932 224.934 266.277 224.945 266.273 224.892C266.27 224.839 266.913 224.736 267.711 224.667C268.51 224.599 269.165 224.588 269.168 224.641Z" fill="white"/>
<path d="M253.63 219.304C253.63 219.304 253.523 219.345 253.318 219.41C253.094 219.475 252.793 219.566 252.413 219.676C252.021 219.794 251.538 219.927 250.971 220.061C250.404 220.194 249.765 220.365 249.046 220.502C248.688 220.574 248.312 220.65 247.92 220.73C247.528 220.806 247.117 220.863 246.691 220.936C245.843 221.088 244.93 221.187 243.967 221.305C242.042 221.502 239.912 221.632 237.679 221.62C235.442 221.594 233.315 221.43 231.394 221.198C230.436 221.065 229.523 220.947 228.678 220.78C228.256 220.7 227.845 220.635 227.453 220.551C227.061 220.468 226.689 220.384 226.331 220.304C225.612 220.16 224.977 219.977 224.414 219.832C223.851 219.692 223.371 219.547 222.979 219.425C222.603 219.307 222.302 219.212 222.082 219.144C221.876 219.075 221.77 219.037 221.774 219.034C221.774 219.026 221.888 219.053 222.093 219.106C222.318 219.167 222.622 219.25 223.002 219.353C223.394 219.467 223.877 219.597 224.444 219.73C225.007 219.863 225.646 220.038 226.365 220.171C226.723 220.247 227.099 220.323 227.487 220.403C227.879 220.483 228.29 220.544 228.712 220.616C229.557 220.776 230.466 220.886 231.425 221.015C233.342 221.236 235.461 221.396 237.69 221.423C239.92 221.434 242.039 221.312 243.96 221.126C244.918 221.012 245.831 220.917 246.676 220.776C247.098 220.707 247.513 220.654 247.905 220.582C248.296 220.51 248.673 220.437 249.031 220.369C249.75 220.243 250.393 220.083 250.959 219.958C251.526 219.836 252.013 219.714 252.405 219.608C252.789 219.513 253.094 219.433 253.318 219.376C253.527 219.326 253.638 219.3 253.641 219.307L253.63 219.304Z" fill="white"/>
<path d="M257.331 241.828C257.331 241.828 257.289 241.836 257.209 241.836C257.118 241.836 257 241.84 256.852 241.844C256.524 241.844 256.06 241.847 255.475 241.851C254.28 241.851 252.545 241.844 250.407 241.809C246.131 241.749 240.22 241.6 233.699 241.288C227.183 240.961 221.259 240.691 217.044 239.865C214.937 239.481 213.267 238.99 212.133 238.61C211.566 238.42 211.133 238.256 210.84 238.135L210.509 237.998C210.433 237.967 210.398 237.948 210.398 237.944C210.398 237.944 210.44 237.952 210.516 237.979C210.604 238.009 210.714 238.047 210.855 238.097C211.152 238.207 211.589 238.359 212.16 238.538C213.297 238.895 214.967 239.363 217.071 239.729C221.275 240.516 227.194 240.763 233.711 241.09C240.227 241.402 246.135 241.57 250.411 241.669C252.538 241.711 254.265 241.749 255.475 241.771C256.06 241.783 256.524 241.794 256.852 241.802C257 241.806 257.118 241.809 257.209 241.813C257.289 241.817 257.331 241.821 257.331 241.825V241.828Z" fill="white"/>
<path d="M220.946 254.679C220.946 254.679 220.763 254.717 220.429 254.751C220.094 254.785 219.611 254.82 219.013 254.842C217.819 254.892 216.16 254.88 214.338 254.705C212.516 254.53 210.888 254.226 209.72 253.948C209.138 253.811 208.67 253.686 208.35 253.587C208.031 253.492 207.856 253.431 207.859 253.42C207.859 253.408 208.046 253.442 208.373 253.515C208.7 253.591 209.172 253.694 209.754 253.811C210.922 254.051 212.546 254.333 214.361 254.508C216.172 254.679 217.823 254.717 219.013 254.702C219.611 254.694 220.094 254.683 220.429 254.671C220.763 254.66 220.95 254.664 220.95 254.675L220.946 254.679Z" fill="white"/>
<path d="M226.106 254.611C226.106 254.664 225.661 254.736 225.106 254.774C224.55 254.808 224.094 254.793 224.094 254.74C224.094 254.687 224.539 254.614 225.094 254.576C225.65 254.542 226.106 254.557 226.106 254.611Z" fill="white"/>
<path d="M249.025 256.505C249.025 256.505 248.952 256.52 248.812 256.524C248.652 256.528 248.45 256.536 248.207 256.543C247.682 256.555 246.917 256.562 245.978 256.558C244.095 256.555 241.492 256.501 238.62 256.361C235.748 256.22 233.154 256.014 231.278 255.836C230.342 255.744 229.581 255.664 229.06 255.604C228.817 255.573 228.619 255.547 228.459 255.528C228.322 255.509 228.25 255.493 228.25 255.486C228.25 255.478 228.322 255.478 228.463 255.486C228.623 255.497 228.824 255.509 229.068 255.528C229.62 255.569 230.373 255.626 231.29 255.699C233.165 255.843 235.76 256.022 238.628 256.163C241.496 256.304 244.095 256.376 245.978 256.418C246.898 256.437 247.651 256.452 248.207 256.467C248.45 256.475 248.652 256.482 248.812 256.486C248.949 256.494 249.025 256.501 249.025 256.505Z" fill="white"/>
<path d="M257.941 255.741C257.949 255.794 257.169 255.942 256.199 256.064C255.229 256.19 254.441 256.247 254.434 256.193C254.426 256.14 255.206 255.992 256.176 255.87C257.146 255.744 257.934 255.687 257.941 255.741Z" fill="white"/>
<path d="M261.586 270.17C261.586 270.17 261.541 270.182 261.449 270.193C261.35 270.204 261.217 270.22 261.05 270.239C260.685 270.277 260.167 270.326 259.505 270.395C258.836 270.463 258.014 270.539 257.059 270.611C256.104 270.684 255.016 270.779 253.814 270.847C251.41 271.011 248.538 271.148 245.354 271.235C242.166 271.311 238.658 271.334 234.98 271.262C231.301 271.178 227.797 271.007 224.613 270.798C221.433 270.573 218.572 270.319 216.175 270.052C214.977 269.934 213.893 269.79 212.942 269.679C211.991 269.569 211.173 269.455 210.507 269.36L208.97 269.139C208.803 269.113 208.67 269.094 208.571 269.078C208.48 269.063 208.434 269.056 208.438 269.052C208.438 269.052 208.483 269.052 208.575 269.059C208.674 269.071 208.807 269.086 208.978 269.101C209.343 269.143 209.86 269.208 210.519 269.284C211.188 269.368 212.006 269.466 212.957 269.569C213.908 269.672 214.992 269.805 216.191 269.915C218.587 270.163 221.448 270.402 224.628 270.615C227.809 270.817 231.309 270.984 234.987 271.064C238.662 271.136 242.166 271.117 245.35 271.053C248.534 270.973 251.402 270.851 253.807 270.707C255.009 270.646 256.097 270.562 257.052 270.497C258.007 270.436 258.828 270.372 259.502 270.315C260.164 270.265 260.685 270.223 261.05 270.197L261.453 270.17C261.544 270.166 261.59 270.166 261.59 270.17H261.586Z" fill="white"/>
<path d="M235.674 287.197C235.674 287.197 235.575 287.213 235.384 287.224C235.175 287.232 234.898 287.247 234.551 287.262C233.829 287.292 232.779 287.315 231.481 287.323C228.891 287.338 225.303 287.247 221.362 286.92C217.417 286.592 213.868 286.09 211.311 285.649C210.033 285.428 209.002 285.234 208.295 285.086C207.956 285.014 207.682 284.957 207.477 284.911C207.29 284.869 207.195 284.843 207.195 284.839C207.195 284.831 207.298 284.843 207.484 284.873C207.69 284.907 207.964 284.953 208.306 285.01C209.018 285.135 210.052 285.31 211.33 285.512C213.887 285.919 217.436 286.395 221.374 286.722C225.311 287.045 228.887 287.159 231.478 287.182C232.771 287.194 233.821 287.194 234.544 287.182C234.89 287.182 235.168 287.182 235.377 287.182C235.567 287.182 235.67 287.19 235.67 287.194L235.674 287.197Z" fill="white"/>
<path d="M245.372 286.821C245.372 286.874 244.105 286.943 242.541 286.969C240.978 286.996 239.707 286.977 239.707 286.92C239.707 286.867 240.974 286.798 242.537 286.772C244.101 286.745 245.372 286.764 245.372 286.821Z" fill="white"/>
<path d="M263.63 285.9C263.63 285.9 263.459 285.927 263.147 285.942C262.793 285.953 262.352 285.972 261.823 285.991C260.666 286.029 259.145 286.079 257.459 286.132C255.778 286.201 254.256 286.261 253.1 286.307C252.571 286.326 252.13 286.341 251.776 286.357C251.464 286.364 251.289 286.364 251.289 286.349C251.289 286.334 251.46 286.311 251.772 286.28C252.084 286.25 252.533 286.212 253.092 286.17C254.207 286.086 255.748 285.999 257.456 285.934C259.16 285.873 260.704 285.851 261.823 285.851C262.382 285.851 262.835 285.854 263.147 285.866C263.459 285.873 263.634 285.885 263.634 285.9H263.63Z" fill="white"/>
<path d="M268.67 246.268C268.67 246.268 268.506 246.295 268.213 246.306C267.878 246.321 267.464 246.336 266.977 246.355C265.931 246.401 264.493 246.504 262.91 246.705C261.328 246.911 259.909 247.181 258.889 247.402C258.41 247.508 258.007 247.596 257.679 247.668C257.394 247.733 257.234 247.759 257.23 247.748C257.23 247.736 257.379 247.679 257.66 247.596C257.942 247.508 258.349 247.394 258.859 247.268C259.874 247.014 261.297 246.721 262.887 246.515C264.477 246.31 265.927 246.234 266.977 246.222C267.502 246.215 267.924 246.222 268.217 246.234C268.51 246.245 268.674 246.26 268.674 246.272L268.67 246.268Z" fill="white"/>
<path d="M274.84 245.039C274.84 245.096 273.988 245.13 272.95 245.271C271.911 245.408 271.078 245.598 271.063 245.541C271.047 245.492 271.869 245.214 272.923 245.073C273.977 244.933 274.84 244.986 274.84 245.035V245.039Z" fill="white"/>
<path d="M276.965 244.499C276.984 244.552 276.828 244.651 276.619 244.719C276.41 244.788 276.228 244.803 276.209 244.753C276.19 244.7 276.345 244.601 276.554 244.533C276.763 244.465 276.946 244.449 276.961 244.499H276.965Z" fill="white"/>
<path d="M274.838 233.018C274.838 233.018 274.621 233.045 274.225 233.06C273.829 233.071 273.259 233.094 272.555 233.128C271.148 233.197 269.204 233.349 267.077 233.665C264.95 233.98 263.045 234.395 261.675 234.737C260.99 234.909 260.439 235.053 260.058 235.156C259.678 235.259 259.465 235.308 259.461 235.293C259.457 235.281 259.663 235.205 260.039 235.08C260.412 234.954 260.964 234.787 261.645 234.6C263.007 234.224 264.916 233.786 267.054 233.467C269.192 233.151 271.144 233.022 272.559 232.987C273.266 232.968 273.837 232.968 274.233 232.984C274.628 232.995 274.845 233.006 274.845 233.022L274.838 233.018Z" fill="white"/>
<path d="M278.871 258.807C278.871 258.807 278.806 258.826 278.684 258.845C278.536 258.864 278.357 258.883 278.144 258.909C277.642 258.967 276.969 259.039 276.151 259.13C274.469 259.317 272.145 259.598 269.588 259.975C267.032 260.351 264.727 260.751 263.06 261.055C262.25 261.203 261.584 261.325 261.086 261.416C260.873 261.454 260.694 261.485 260.55 261.508C260.428 261.527 260.359 261.534 260.359 261.527C260.359 261.519 260.42 261.5 260.542 261.47C260.687 261.435 260.862 261.394 261.071 261.34C261.531 261.23 262.201 261.085 263.034 260.918C264.696 260.58 266.998 260.157 269.562 259.781C272.122 259.404 274.45 259.145 276.139 258.993C276.984 258.917 277.669 258.864 278.14 258.833C278.357 258.822 278.54 258.811 278.684 258.803C278.81 258.799 278.874 258.803 278.874 258.803L278.871 258.807Z" fill="white"/>
<path d="M270.171 273.696C270.179 273.749 268.551 274 266.535 274.255C264.518 274.51 262.879 274.674 262.871 274.621C262.864 274.567 264.492 274.316 266.508 274.061C268.524 273.806 270.164 273.643 270.168 273.696H270.171Z" fill="white"/>
<path d="M275.72 273C275.728 273.054 275.032 273.21 274.161 273.35C273.289 273.491 272.578 273.56 272.57 273.506C272.563 273.453 273.259 273.297 274.13 273.156C274.997 273.016 275.713 272.947 275.72 273Z" fill="white"/>
<path d="M281.011 272.992C281.011 273.046 280.448 273.091 279.751 273.091C279.055 273.091 278.492 273.046 278.492 272.992C278.492 272.939 279.055 272.894 279.751 272.894C280.448 272.894 281.011 272.939 281.011 272.992Z" fill="white"/>
<path d="M284.028 287.357C284.028 287.357 283.959 287.372 283.83 287.388C283.678 287.399 283.491 287.414 283.263 287.433C282.738 287.468 282.034 287.509 281.171 287.563C279.379 287.673 276.952 287.825 274.274 287.993C271.595 288.183 269.168 288.354 267.38 288.479C266.521 288.54 265.813 288.59 265.292 288.628C265.064 288.639 264.877 288.651 264.721 288.658C264.592 288.662 264.523 288.662 264.523 288.658C264.523 288.651 264.592 288.639 264.721 288.62C264.873 288.601 265.06 288.578 265.288 288.552C265.779 288.495 266.494 288.422 267.373 288.343C269.134 288.179 271.573 287.977 274.266 287.799C276.959 287.62 279.402 287.494 281.171 287.426C282.053 287.391 282.772 287.369 283.267 287.357C283.495 287.357 283.685 287.353 283.837 287.35C283.967 287.35 284.035 287.353 284.035 287.361L284.028 287.357Z" fill="white"/>
<g opacity="0.3">
<path opacity="0.3" d="M257.331 242.418C256.38 245.039 255.81 248.908 256.357 255.98C256.574 258.78 256.205 261.667 255.163 264.273C254.748 265.312 254.284 266.727 255.209 267.355C255.958 267.861 257.004 267.328 257.871 267.594C258.994 267.94 259.275 269.371 259.389 270.542C260.051 277.481 261.942 285.961 264.247 292.538C265.67 276.009 256.589 258.993 257.331 242.418Z" fill="black"/>
</g>
<g opacity="0.3">
<path opacity="0.3" d="M207.274 282.119L207.99 276.797C207.876 275.123 207.902 269.865 207.617 267.32C207.054 262.322 207.069 257.422 207.32 252.29C205.867 256.33 205.152 260.705 205.627 264.973C205.833 266.811 206.217 268.629 206.282 270.474C206.346 272.319 206.065 274.244 205.049 275.785C203.588 278.003 200.864 279.064 198.236 279.437C193.359 280.125 187.789 278.505 185.324 274.24C185.754 276.652 186.69 278.969 188.048 281.008C188.048 281.008 201.268 284.105 207.271 282.119H207.274Z" fill="black"/>
</g>
<g opacity="0.3">
<path opacity="0.3" d="M238.225 220.076C230.282 219.726 229.255 219.068 227.25 217.356C227.242 218.729 228.445 219.798 229.67 220.418C236.167 223.709 244.529 222.914 250.292 218.455C246.317 219.319 242.288 220.255 238.225 220.076Z" fill="black"/>
</g>
<path d="M152.188 266.758C152.188 266.758 156.559 265.35 162.01 265.632C167.461 265.913 173.814 265.221 173.814 265.221C177.288 268.549 178.425 272.726 178.471 277.303L155.528 274.819L152.188 266.758Z" fill="#FFD3C1"/>
<path d="M150.639 277.702C149.981 277.451 149.3 277.988 148.828 278.513C148.353 279.045 147.873 279.631 147.2 279.871L145.671 278.197L144.023 282.351C144.659 282.975 145.385 283.508 146.173 283.922C146.732 284.219 147.383 284.459 147.987 284.272C148.661 284.067 149.075 283.405 149.425 282.796C149.867 282.032 150.304 281.271 150.745 280.506C151.012 280.042 151.286 279.559 151.335 279.026C151.385 278.494 151.141 277.893 150.639 277.702Z" fill="#FFD3C1"/>
<path d="M152.356 266.682C152.356 266.682 146.989 270.216 146.026 270.744C145.064 271.273 140.742 280.43 140.742 280.43L141.537 291.576C141.537 291.576 143.592 291.458 144.166 289.161C144.74 286.863 144.984 281.784 144.984 281.784L148.921 276.778L157.036 274.351L152.356 266.678V266.682Z" fill="#FFD3C1"/>
<path d="M148.551 273.963C148.532 275.606 150.525 276.493 149.932 278.326C150.054 280.985 150.012 282.648 149.776 284.816C149.742 285.124 150.297 285.801 150.552 285.98C150.91 286.231 151.408 286.015 151.743 285.737C152.663 284.976 153.139 283.797 153.39 282.629C153.641 281.461 153.709 280.255 153.999 279.095C154.364 277.622 155.079 276.264 155.528 274.815C155.977 273.366 156.137 271.726 155.418 270.391" fill="#FFD3C1"/>
<path d="M148.298 274.111C148.298 274.111 148.431 274.161 148.629 274.324C148.827 274.488 149.078 274.769 149.298 275.173C149.755 275.975 150.021 277.235 150.097 278.608C150.181 279.985 150.139 281.233 150.097 282.134C150.074 282.583 150.052 282.948 150.029 283.2C150.006 283.451 149.991 283.588 149.975 283.588C149.96 283.588 149.953 283.447 149.953 283.196C149.953 282.899 149.953 282.545 149.956 282.131C149.964 281.233 149.983 279.989 149.899 278.619C149.823 277.254 149.584 276.029 149.173 275.237C148.781 274.431 148.267 274.138 148.294 274.111H148.298Z" fill="#EB996E"/>
<path d="M155.802 270.067C155.824 270.06 155.923 270.322 156.015 270.763C156.106 271.205 156.174 271.829 156.144 272.517C156.114 273.206 155.988 273.822 155.855 274.252C155.725 274.686 155.604 274.937 155.581 274.925C155.52 274.906 155.893 273.856 155.946 272.506C156.015 271.155 155.741 270.075 155.802 270.063V270.067Z" fill="#EB996E"/>
<path d="M148.861 276.77C148.861 276.77 148.769 276.918 148.579 277.158C148.359 277.428 148.081 277.767 147.75 278.17C147.385 278.604 146.966 279.102 146.502 279.654C146.266 279.931 146.019 280.224 145.76 280.525C145.509 280.825 145.243 281.145 145.102 281.51C144.988 281.883 144.958 282.309 144.916 282.697C144.878 283.089 144.847 283.473 144.821 283.834C144.767 284.55 144.714 285.2 144.672 285.767C144.627 286.319 144.573 286.76 144.524 287.068C144.474 287.376 144.414 287.54 144.402 287.536C144.387 287.532 144.421 287.365 144.448 287.06C144.474 286.756 144.505 286.311 144.532 285.759C144.562 285.196 144.596 284.542 144.638 283.827C144.661 283.462 144.688 283.081 144.722 282.682C144.767 282.282 144.786 281.879 144.916 281.445C145.079 281.027 145.357 280.707 145.612 280.403C145.871 280.103 146.122 279.817 146.361 279.539C146.837 278.999 147.267 278.509 147.64 278.086C147.99 277.702 148.282 277.375 148.515 277.116C148.724 276.892 148.846 276.77 148.857 276.778L148.861 276.77Z" fill="#EB996E"/>
</g>
<path d="M0 5.84424C0 3.08281 2.23858 0.844238 5 0.844238H375C377.761 0.844238 380 3.08281 380 5.84424V40.8442H0V5.84424Z" fill="#C9E6E7"/>
<circle cx="328" cy="21.8442" r="4" fill="#F23936"/>
<circle cx="342" cy="21.8442" r="4" fill="#FABB18"/>
<circle cx="356" cy="21.8442" r="4" fill="#008EFF"/>
<path d="M25.52 26.8442C29.792 26.8442 31.056 23.6282 31.056 21.2282C31.056 18.8922 29.792 15.6442 25.52 15.6442H21.6V26.8442H25.52ZM23.536 25.0842V17.3882H25.52C28.624 17.3882 29.072 20.2362 29.072 21.2282C29.072 22.2202 28.624 25.0842 25.52 25.0842H23.536ZM36.9596 18.7002C33.8876 18.7002 32.9756 21.1482 32.9756 22.8282C32.9756 24.5562 33.8876 26.9562 36.9596 26.9562C40.0316 26.9562 40.9436 24.5562 40.9436 22.8282C40.9436 21.1482 40.0316 18.7002 36.9596 18.7002ZM36.9596 25.3242C35.1036 25.3242 34.8476 23.4522 34.8476 22.8282C34.8476 22.2042 35.1036 20.3322 36.9596 20.3322C38.7996 20.3322 39.0716 22.2042 39.0716 22.8282C39.0716 23.4522 38.7996 25.3242 36.9596 25.3242ZM51.8178 18.8442L50.0738 23.0202L48.0258 18.7002H47.8658L45.9138 23.0202L44.1538 18.8442H42.0738L45.8018 26.9082H45.9618L47.9618 22.7802L49.9618 26.9082H50.1218L53.9138 18.8442H51.8178ZM57.5586 21.2282C57.8306 20.7962 58.4706 20.3642 59.2546 20.3642C60.6626 20.3642 60.8226 21.7242 60.8226 22.7162V26.8442H62.7426V22.7162C62.7426 20.8442 62.3426 18.7162 59.3346 18.7162C58.5506 18.7162 57.7666 18.9722 57.1266 19.4682L56.9026 18.8442H55.6706V26.8442H57.5586V21.2282ZM66.8871 15.6442H64.9831V26.8442H66.8871V15.6442ZM73.1159 18.7002C70.0439 18.7002 69.1319 21.1482 69.1319 22.8282C69.1319 24.5562 70.0439 26.9562 73.1159 26.9562C76.1879 26.9562 77.0999 24.5562 77.0999 22.8282C77.0999 21.1482 76.1879 18.7002 73.1159 18.7002ZM73.1159 25.3242C71.2599 25.3242 71.0039 23.4522 71.0039 22.8282C71.0039 22.2042 71.2599 20.3322 73.1159 20.3322C74.9559 20.3322 75.2279 22.2042 75.2279 22.8282C75.2279 23.4522 74.9559 25.3242 73.1159 25.3242ZM82.1265 18.7322C81.2625 18.7802 80.3825 19.0682 79.4705 19.5322L80.0625 20.9242C80.8465 20.5882 81.8225 20.3642 82.2225 20.3642C83.1025 20.3642 83.5025 20.5722 83.5345 21.8842V22.0122C83.1665 21.9642 82.7825 21.9162 82.3665 21.9162C80.7345 21.9162 79.0225 22.3802 79.0225 24.5242C79.0225 25.2922 79.4225 26.9882 81.8865 26.9882C82.5265 26.9882 83.3425 26.7162 83.9825 26.2042L84.1745 26.8442H85.4385V22.0922C85.4385 20.3962 85.1985 18.5562 82.1265 18.7322ZM83.5345 24.4762C83.2785 24.8922 82.7025 25.4042 81.9345 25.4042C81.3265 25.4042 80.7985 25.0842 80.7985 24.3962C80.7985 23.6282 81.7265 23.4522 82.5265 23.4522C82.9105 23.4522 83.2785 23.5002 83.5345 23.5322V24.4762ZM91.6628 18.7162C88.5908 18.7162 87.6788 21.1642 87.6788 22.8442C87.6788 24.5562 88.6068 26.9722 91.5828 26.9722C92.3668 26.9722 93.1508 26.7162 93.7908 26.2202L94.0148 26.8442H95.2468V15.6442H93.3588V19.0202C92.8788 18.8442 92.3028 18.7162 91.6628 18.7162ZM91.6628 25.3402C89.8068 25.3402 89.5508 23.4682 89.5508 22.8442C89.5508 22.1082 89.9188 20.3482 91.7908 20.3482C92.3188 20.3482 92.9428 20.5082 93.3588 20.7962V24.4602C93.0548 24.9402 92.5108 25.3402 91.6628 25.3402Z" fill="#344170"/>
<defs>
<clipPath id="clip0_575_1116">
<rect width="285" height="224" fill="white" transform="translate(39 70.8452)"/>
</clipPath>
</defs>
</svg>
