<svg width="380" height="321" viewBox="0 0 380 321" fill="none" xmlns="http://www.w3.org/2000/svg">
<rect width="380" height="320" rx="12" transform="matrix(-1 0 0 1 380 0.844238)" fill="white" fill-opacity="0.92"/>
<g clip-path="url(#clip0_575_815)">
<path d="M336.643 98.2153H286.055V182.027H336.643V98.2153Z" fill="#E0E0E0"/>
<path d="M334.96 98.2153H284.371V182.027H334.96V98.2153Z" fill="#EBEBEB"/>
<path d="M332.813 99.915H286.531V180.327H332.813V99.915Z" fill="white"/>
<path d="M323.795 110.364H295.34V169.878H323.795V110.364Z" fill="#EBEBEB"/>
<path d="M295.34 148.822C295.277 143.262 300.266 137.833 305.769 137.06C308.394 136.69 311.177 137.209 313.632 136.208C318.008 134.412 319.399 128.598 323.801 126.871L324.002 169.889H295.346V148.828L295.34 148.822Z" fill="#E0E0E0"/>
<path d="M142.792 227.183C138.127 220.04 138.805 209.835 144.381 203.375C146.111 201.37 148.528 199.625 151.168 199.853C153.867 200.085 156.042 202.404 156.866 204.987C157.686 207.571 157.403 210.372 156.921 213.042C156.247 216.778 155.114 220.605 152.524 223.379C149.934 226.153 146.129 229.005 142.797 227.188" fill="#FCCC3E" fill-opacity="0.5"/>
<path d="M144.204 261.57C142.447 257.465 143.721 252.272 147.176 249.447C148.25 248.573 149.652 247.894 150.99 248.249C152.36 248.614 153.271 250.003 153.462 251.411C153.653 252.819 153.253 254.235 152.761 255.566C152.074 257.429 151.145 259.297 149.561 260.49C147.977 261.684 145.756 262.809 144.204 261.57Z" fill="#FCCC3E" fill-opacity="0.5"/>
<path d="M134.12 259.114C135.404 252.782 132.067 245.793 126.341 242.809C124.561 241.885 122.377 241.338 120.583 242.235C118.749 243.156 117.866 245.397 118.012 247.443C118.157 249.493 119.14 251.383 120.228 253.124C121.749 255.561 123.615 257.935 126.214 259.16C128.813 260.386 132.286 261.324 134.12 259.11" fill="#FCCC3E" fill-opacity="0.5"/>
<path d="M134.926 241.989C137.161 234.773 133.374 226.026 127.06 221.885C125.099 220.6 122.618 219.707 120.429 220.541C118.189 221.397 116.901 223.898 116.828 226.299C116.755 228.7 117.679 231.014 118.74 233.165C120.224 236.181 122.117 239.16 124.994 240.891C127.875 242.623 132.532 244.354 134.926 241.989Z" fill="#FCCC3E" fill-opacity="0.5"/>
<path d="M138.246 277.26C138.246 277.26 138.21 277.142 138.173 276.909C138.132 276.645 138.082 276.313 138.023 275.903C137.991 275.679 137.959 275.438 137.923 275.174C137.873 274.909 137.818 274.622 137.759 274.317C137.641 273.702 137.522 272.996 137.317 272.235C137.226 271.852 137.126 271.452 137.026 271.032C136.903 270.618 136.78 270.19 136.648 269.743C136.407 268.846 136.052 267.921 135.72 266.932C134.982 264.982 134.063 262.882 132.939 260.755C131.792 258.641 130.549 256.709 129.334 255.019C128.697 254.194 128.123 253.388 127.509 252.691C127.213 252.336 126.921 251.994 126.644 251.666C126.352 251.352 126.07 251.046 125.802 250.759C125.278 250.167 124.759 249.68 124.313 249.242C124.09 249.024 123.885 248.819 123.69 248.632C123.489 248.454 123.307 248.295 123.139 248.144C122.829 247.866 122.579 247.639 122.383 247.461C122.215 247.302 122.128 247.215 122.133 247.206C122.138 247.197 122.238 247.27 122.424 247.411C122.634 247.579 122.893 247.789 123.216 248.049C123.389 248.19 123.58 248.349 123.785 248.518C123.986 248.705 124.199 248.901 124.427 249.115C124.887 249.543 125.419 250.026 125.956 250.609C126.23 250.896 126.516 251.197 126.817 251.506C127.099 251.834 127.395 252.176 127.7 252.527C128.323 253.219 128.91 254.026 129.557 254.85C130.79 256.545 132.051 258.481 133.203 260.609C134.336 262.75 135.251 264.869 135.979 266.832C136.307 267.83 136.653 268.764 136.885 269.666C137.008 270.112 137.131 270.55 137.249 270.964C137.345 271.383 137.436 271.789 137.522 272.181C137.713 272.95 137.818 273.661 137.918 274.281C137.968 274.59 138.014 274.878 138.059 275.146C138.087 275.411 138.109 275.657 138.132 275.88C138.169 276.294 138.2 276.631 138.223 276.896C138.241 277.128 138.246 277.251 138.237 277.251L138.246 277.26Z" fill="#263238"/>
<path d="M138.08 278.558C138.08 278.558 138.076 278.508 138.08 278.412C138.089 278.299 138.098 278.162 138.112 277.993C138.148 277.601 138.198 277.068 138.258 276.39C138.294 276.039 138.33 275.652 138.371 275.232C138.403 274.809 138.417 274.349 138.44 273.852C138.476 272.859 138.572 271.734 138.535 270.485C138.535 269.861 138.531 269.205 138.526 268.526C138.517 267.843 138.453 267.137 138.421 266.403C138.371 264.936 138.171 263.378 137.998 261.738C137.552 258.472 136.851 254.905 135.786 251.246C134.684 247.597 133.328 244.226 131.926 241.242C131.18 239.77 130.501 238.358 129.741 237.101C129.373 236.468 129.04 235.839 128.676 235.265C128.308 234.691 127.953 234.144 127.616 233.616C126.965 232.55 126.273 231.657 125.699 230.846C125.408 230.445 125.149 230.062 124.889 229.725C124.625 229.397 124.384 229.092 124.166 228.818C123.747 228.285 123.41 227.862 123.169 227.556C123.069 227.42 122.982 227.31 122.914 227.224C122.859 227.146 122.832 227.105 122.836 227.105C122.841 227.105 122.873 227.137 122.937 227.206C123.009 227.292 123.1 227.392 123.214 227.52C123.469 227.821 123.815 228.231 124.257 228.75C124.484 229.019 124.734 229.32 125.003 229.643C125.267 229.976 125.536 230.354 125.836 230.75C126.423 231.552 127.129 232.44 127.793 233.502C128.139 234.026 128.499 234.572 128.872 235.146C129.245 235.72 129.582 236.349 129.96 236.982C130.729 238.24 131.421 239.657 132.177 241.128C133.601 244.121 134.971 247.506 136.077 251.169C137.147 254.845 137.843 258.431 138.276 261.716C138.444 263.365 138.635 264.927 138.676 266.403C138.704 267.141 138.763 267.848 138.763 268.536C138.763 269.219 138.754 269.875 138.754 270.504C138.776 271.756 138.663 272.886 138.613 273.879C138.581 274.376 138.558 274.836 138.517 275.264C138.467 275.684 138.417 276.071 138.376 276.422C138.289 277.096 138.221 277.629 138.171 278.021C138.148 278.189 138.126 278.326 138.112 278.435C138.098 278.526 138.085 278.576 138.08 278.576V278.558Z" fill="#263238"/>
<path d="M150.229 208.477C150.229 208.477 150.215 208.527 150.17 208.609C150.115 208.709 150.052 208.832 149.97 208.983C149.774 209.329 149.51 209.807 149.173 210.409C149 210.718 148.795 211.056 148.6 211.438C148.408 211.826 148.199 212.245 147.976 212.696C147.753 213.147 147.512 213.63 147.257 214.14C147.016 214.655 146.784 215.215 146.524 215.794C146.274 216.377 145.992 216.978 145.737 217.62C145.486 218.267 145.231 218.937 144.963 219.634C144.831 219.98 144.694 220.336 144.553 220.696C144.43 221.06 144.303 221.429 144.175 221.807C143.92 222.559 143.661 223.333 143.392 224.126C142.405 227.329 141.467 230.891 140.675 234.677C139.91 238.468 139.373 242.117 138.973 245.447C138.631 248.782 138.381 251.793 138.313 254.326C138.249 255.593 138.235 256.741 138.231 257.748C138.213 258.754 138.213 259.625 138.231 260.331C138.24 261.019 138.249 261.565 138.254 261.966C138.254 262.139 138.254 262.276 138.254 262.39C138.254 262.486 138.249 262.536 138.245 262.536C138.24 262.536 138.231 262.486 138.226 262.39C138.217 262.276 138.208 262.135 138.199 261.966C138.181 261.57 138.153 261.023 138.117 260.335C138.076 259.625 138.062 258.759 138.062 257.748C138.049 256.741 138.049 255.588 138.099 254.322C138.14 251.78 138.372 248.764 138.695 245.42C139.077 242.08 139.61 238.422 140.375 234.623C141.167 230.828 142.118 227.251 143.124 224.049C143.397 223.256 143.661 222.477 143.92 221.725C144.052 221.347 144.18 220.978 144.303 220.614C144.444 220.254 144.58 219.898 144.717 219.552C144.99 218.86 145.254 218.185 145.509 217.538C145.773 216.896 146.06 216.295 146.319 215.716C146.583 215.138 146.824 214.582 147.075 214.067C147.339 213.561 147.585 213.078 147.817 212.632C148.049 212.185 148.263 211.771 148.463 211.384C148.668 211.005 148.882 210.673 149.064 210.363C149.423 209.771 149.706 209.306 149.911 208.965C150.002 208.819 150.079 208.7 150.138 208.605C150.193 208.523 150.22 208.486 150.225 208.486L150.229 208.477Z" fill="#263238"/>
<path d="M148.644 252.312C148.644 252.312 148.485 252.636 148.148 253.183C147.807 253.729 147.338 254.536 146.787 255.547C146.232 256.554 145.631 257.784 145.021 259.178C144.425 260.577 143.828 262.139 143.305 263.811C142.795 265.488 142.404 267.114 142.108 268.608C141.83 270.103 141.63 271.46 141.521 272.604C141.407 273.747 141.339 274.677 141.311 275.324C141.279 275.966 141.252 276.321 141.229 276.321C141.207 276.321 141.197 275.966 141.193 275.319C141.184 274.672 141.216 273.738 141.307 272.586C141.389 271.433 141.566 270.066 141.83 268.558C142.112 267.055 142.495 265.415 143.009 263.725C143.537 262.039 144.142 260.467 144.757 259.069C145.385 257.675 146.013 256.445 146.596 255.447C147.174 254.445 147.67 253.652 148.043 253.123C148.412 252.59 148.621 252.303 148.639 252.317L148.644 252.312Z" fill="#263238"/>
<path d="M129.082 274.048H149.578L147.098 295H131.636L129.082 274.048Z" fill="#455A64"/>
<path d="M129.828 292.741L131.571 295H147.097L148.891 292.809L129.828 292.741Z" fill="#263238"/>
<path d="M148.78 280.208C148.78 280.294 144.524 280.363 139.281 280.363C134.037 280.363 129.781 280.294 129.781 280.208C129.781 280.121 134.033 280.053 139.281 280.053C144.529 280.053 148.78 280.121 148.78 280.208Z" fill="white"/>
<path d="M148.78 281.602C148.78 281.688 144.524 281.757 139.281 281.757C134.037 281.757 129.781 281.688 129.781 281.602C129.781 281.515 134.033 281.447 139.281 281.447C144.529 281.447 148.78 281.515 148.78 281.602Z" fill="white"/>
<path d="M148.526 282.955C148.526 283.041 144.42 283.11 139.359 283.11C134.297 283.11 130.191 283.041 130.191 282.955C130.191 282.868 134.297 282.8 139.359 282.8C144.42 282.8 148.526 282.868 148.526 282.955Z" fill="white"/>
<path d="M310.506 294.108C310.506 294.378 258.902 294.608 195.26 294.608C131.619 294.608 80.0039 294.378 80.0039 294.108C80.0039 293.839 131.598 293.608 195.26 293.608C258.923 293.608 310.506 293.839 310.506 294.108Z" fill="#263238"/>
<g filter="url(#filter0_bd_575_815)">
<path d="M243.249 83.9312H148.898C145.585 83.9312 142.898 86.6174 142.898 89.9312V148.914C142.898 152.228 145.585 154.914 148.898 154.914H243.249C246.562 154.914 249.249 152.228 249.249 148.914V89.9312C249.249 86.6174 246.562 83.9312 243.249 83.9312Z" fill="#F5F5F5"/>
<path d="M148.898 84.4312H243.249C246.286 84.4312 248.749 86.8936 248.749 89.9312V148.914C248.749 151.952 246.286 154.414 243.249 154.414H148.898C145.861 154.414 143.398 151.952 143.398 148.914V89.9312C143.398 86.8936 145.861 84.4312 148.898 84.4312Z" stroke="black"/>
</g>
<mask id="mask0_575_815" style="mask-type:alpha" maskUnits="userSpaceOnUse" x="142" y="83" width="108" height="73">
<path d="M243.311 83.9312H148.961C145.647 83.9312 142.961 86.6174 142.961 89.9312V148.914C142.961 152.228 145.647 154.914 148.961 154.914H243.311C246.625 154.914 249.311 152.228 249.311 148.914V89.9312C249.311 86.6174 246.625 83.9312 243.311 83.9312Z" fill="#F5F5F5" stroke="black"/>
</mask>
<g mask="url(#mask0_575_815)">
<path d="M245.655 84.4331H146.04C144.39 84.4331 143.131 85.9068 143.389 87.5359H248.758C248.758 85.8223 247.369 84.4331 245.655 84.4331Z" fill="#060000"/>
<path d="M146.069 85.8574C146.07 86.0128 146.024 86.165 145.938 86.2946C145.852 86.4241 145.73 86.5252 145.586 86.585C145.443 86.6449 145.285 86.6607 145.132 86.6306C144.98 86.6004 144.84 86.5256 144.73 86.4157C144.62 86.3058 144.545 86.1657 144.515 86.0132C144.485 85.8607 144.501 85.7027 144.56 85.5592C144.62 85.4157 144.721 85.2932 144.851 85.2073C144.98 85.1214 145.133 85.0759 145.288 85.0767C145.495 85.0767 145.694 85.1589 145.84 85.3053C145.987 85.4517 146.069 85.6503 146.069 85.8574Z" fill="#C7C7C7"/>
<path d="M148.307 85.8574C148.308 86.0128 148.262 86.165 148.176 86.2946C148.091 86.4241 147.968 86.5252 147.825 86.585C147.681 86.6449 147.523 86.6607 147.371 86.6306C147.218 86.6004 147.078 86.5256 146.968 86.4157C146.858 86.3058 146.783 86.1657 146.753 86.0132C146.723 85.8607 146.739 85.7027 146.799 85.5592C146.859 85.4157 146.96 85.2932 147.089 85.2073C147.219 85.1214 147.371 85.0759 147.526 85.0767C147.733 85.0767 147.932 85.1589 148.078 85.3053C148.225 85.4517 148.307 85.6503 148.307 85.8574Z" fill="white"/>
<path d="M149.765 86.6455C150.198 86.6455 150.549 86.2943 150.549 85.8611C150.549 85.4278 150.198 85.0767 149.765 85.0767C149.332 85.0767 148.98 85.4278 148.98 85.8611C148.98 86.2943 149.332 86.6455 149.765 86.6455Z" fill="#FFC727"/>
<path d="M248.761 87.5356H143.391V93.1313H248.761V87.5356Z" fill="#008C99"/>
<path d="M248.737 93.1313H143.402V97.7194H248.737V93.1313Z" fill="#88D0D1"/>
<path d="M146.292 89.2051H144.23V91.3781H146.292V89.2051Z" fill="white"/>
<path d="M201.148 89.2051H147.953V90.2902H201.148V89.2051Z" fill="white"/>
<path d="M146.292 93.7949H144.23V95.9679H146.292V93.7949Z" fill="#DBDBDB"/>
<path d="M147.249 94.8828H145.188V97.0558H147.249V94.8828Z" fill="white"/>
<path d="M173.122 93.7949H151.23V94.8801H173.122V93.7949Z" fill="white"/>
<path d="M155.539 95.9683H151.23V97.0534H155.539V95.9683Z" fill="white"/>
<path d="M161.398 95.9683H157.09V97.0534H161.398V95.9683Z" fill="white"/>
<path d="M167.262 95.9683H162.953V97.0534H167.262V95.9683Z" fill="white"/>
<path d="M173.121 95.9683H168.812V97.0534H173.121V95.9683Z" fill="white"/>
<path d="M177.053 93.7949H174.695V94.8801H177.053V93.7949Z" fill="white"/>
<path d="M177.053 95.9683H174.695V97.0534H177.053V95.9683Z" fill="white"/>
<path d="M180.187 93.7949H179.008V94.8801H180.187V93.7949Z" fill="white"/>
<path d="M180.187 95.9683H179.008V97.0534H180.187V95.9683Z" fill="white"/>
<path d="M183.325 93.7949H181.016V94.8801H183.325V93.7949Z" fill="white"/>
<path d="M183.325 95.9683H181.016V97.0534H183.325V95.9683Z" fill="white"/>
<path d="M201.316 93.7949H184.43V94.8801H201.316V93.7949Z" fill="white"/>
<path d="M201.316 95.9683H184.43V97.0534H201.316V95.9683Z" fill="white"/>
<path d="M205.97 93.7949H202.879V97.0531H205.97V93.7949Z" fill="white"/>
<path d="M210.708 93.7949H207.617V97.0531H210.708V93.7949Z" fill="white"/>
<path d="M215.446 93.7949H212.355V97.0531H215.446V93.7949Z" fill="white"/>
<path d="M220.185 93.7949H217.094V97.0531H220.185V93.7949Z" fill="white"/>
<path d="M224.923 93.7949H221.832V97.0531H224.923V93.7949Z" fill="white"/>
<path d="M247.278 93.7949H244.188V94.4368H247.278V93.7949Z" fill="white"/>
<path d="M247.278 95.106H244.188V95.7478H247.278V95.106Z" fill="white"/>
<path d="M247.278 96.4141H244.188V97.0559H247.278V96.4141Z" fill="white"/>
<path opacity="0.3" d="M200.292 111.748H189.492V115.253H200.292V111.748Z" fill="white"/>
<path opacity="0.5" d="M146.288 97.7197H143.43V151.508C143.43 153.087 144.709 154.367 146.288 154.367V97.7197Z" fill="#AFE9EA"/>
<path opacity="0.5" d="M146.289 97.7224V101.228H248.738V97.7224H146.289Z" fill="#AFE9EA"/>
<path d="M146.287 97.7334C146.357 98.3151 146.39 98.9012 146.385 99.4876C146.39 100.074 146.357 100.66 146.287 101.242C146.219 100.66 146.188 100.074 146.192 99.4876C146.188 98.9013 146.219 98.3153 146.287 97.7334Z" fill="white"/>
<path d="M157.087 97.7334C157.155 98.3153 157.186 98.9013 157.182 99.4876C157.187 100.069 157.155 100.651 157.087 101.228C157.017 100.646 156.984 100.06 156.989 99.474C156.986 98.8922 157.019 98.3108 157.087 97.7334Z" fill="white"/>
<path d="M167.889 97.7334C167.959 98.3151 167.991 98.9012 167.987 99.4876C167.991 100.074 167.959 100.66 167.889 101.242C167.821 100.66 167.789 100.074 167.793 99.4876C167.789 98.9013 167.821 98.3153 167.889 97.7334Z" fill="white"/>
<path d="M178.692 97.7334C178.76 98.3153 178.792 98.9013 178.788 99.4876C178.793 100.074 178.761 100.66 178.692 101.242C178.622 100.66 178.59 100.074 178.594 99.4876C178.591 98.9012 178.624 98.3153 178.692 97.7334Z" fill="white"/>
<path d="M189.493 97.7334C189.564 98.3105 189.599 98.892 189.596 99.474C189.601 100.06 189.568 100.646 189.498 101.228C189.431 100.646 189.399 100.06 189.403 99.474C189.398 98.8923 189.428 98.3109 189.493 97.7334Z" fill="white"/>
<path d="M200.294 97.7334C200.362 98.3153 200.393 98.9013 200.389 99.4876C200.393 100.074 200.362 100.66 200.294 101.242C200.224 100.66 200.191 100.074 200.196 99.4876C200.192 98.9012 200.225 98.3153 200.294 97.7334Z" fill="white"/>
<path d="M211.094 97.7334C211.164 98.3151 211.197 98.9012 211.192 99.4876C211.197 100.074 211.164 100.66 211.094 101.242C211.029 100.655 211.001 100.065 211.009 99.474C211.002 98.8925 211.031 98.3111 211.094 97.7334Z" fill="white"/>
<path d="M221.899 97.7334C221.967 98.3153 221.999 98.9013 221.995 99.4876C221.999 100.074 221.967 100.66 221.899 101.242C221.829 100.66 221.797 100.074 221.801 99.4876C221.798 98.9012 221.831 98.3153 221.899 97.7334Z" fill="white"/>
<path d="M232.697 97.7334C232.767 98.3151 232.8 98.9012 232.795 99.4876C232.8 100.074 232.767 100.66 232.697 101.242C232.63 100.66 232.598 100.074 232.602 99.4876C232.598 98.9013 232.63 98.3153 232.697 97.7334Z" fill="white"/>
<path d="M243.501 97.7334C243.569 98.3153 243.6 98.9013 243.596 99.4876C243.6 100.074 243.569 100.66 243.501 101.242C243.431 100.66 243.398 100.074 243.403 99.4876C243.398 98.9012 243.431 98.3151 243.501 97.7334Z" fill="white"/>
<path d="M143.418 101.228C143.895 101.154 144.375 101.12 144.855 101.124C145.335 101.12 145.814 101.154 146.29 101.228C145.814 101.299 145.335 101.333 144.855 101.328C144.375 101.333 143.895 101.299 143.418 101.228Z" fill="white"/>
<path d="M143.418 104.734C143.895 104.662 144.375 104.629 144.855 104.633C145.335 104.627 145.814 104.661 146.29 104.734C145.814 104.806 145.335 104.84 144.855 104.834C144.375 104.84 143.895 104.806 143.418 104.734Z" fill="white"/>
<path d="M143.418 108.239C143.895 108.168 144.375 108.134 144.855 108.139C145.335 108.134 145.814 108.168 146.29 108.239C145.814 108.312 145.335 108.346 144.855 108.34C144.375 108.346 143.895 108.312 143.418 108.239Z" fill="white"/>
<path d="M143.418 111.747C143.895 111.675 144.375 111.64 144.855 111.644C145.335 111.639 145.814 111.674 146.29 111.747C145.814 111.82 145.335 111.854 144.855 111.848C144.375 111.852 143.895 111.819 143.418 111.747Z" fill="white"/>
<path d="M143.418 115.253C143.895 115.182 144.375 115.148 144.855 115.153C145.335 115.148 145.814 115.182 146.29 115.253C145.814 115.327 145.335 115.362 144.855 115.357C144.375 115.362 143.895 115.327 143.418 115.253Z" fill="white"/>
<path d="M143.418 118.762C143.895 118.689 144.375 118.655 144.855 118.658C145.335 118.653 145.814 118.688 146.29 118.762C145.814 118.833 145.335 118.867 144.855 118.862C144.375 118.867 143.895 118.833 143.418 118.762Z" fill="white"/>
<path d="M143.418 122.267C143.895 122.196 144.375 122.162 144.855 122.166C145.335 122.162 145.814 122.196 146.29 122.267C145.814 122.341 145.335 122.375 144.855 122.37C144.375 122.374 143.895 122.339 143.418 122.267Z" fill="white"/>
<path d="M143.418 125.776C143.895 125.702 144.375 125.667 144.855 125.672C145.335 125.667 145.814 125.702 146.29 125.776C145.814 125.847 145.335 125.881 144.855 125.876C144.375 125.881 143.895 125.847 143.418 125.776Z" fill="white"/>
<path d="M143.418 129.281C143.895 129.21 144.375 129.176 144.855 129.181C145.335 129.175 145.814 129.209 146.29 129.281C145.814 129.355 145.335 129.39 144.855 129.385C144.375 129.388 143.895 129.354 143.418 129.281Z" fill="white"/>
<path d="M143.418 132.79C143.895 132.716 144.375 132.682 144.855 132.687C145.335 132.682 145.814 132.716 146.29 132.79C145.814 132.861 145.335 132.895 144.855 132.89C144.375 132.895 143.895 132.861 143.418 132.79Z" fill="white"/>
<path d="M143.418 136.295C143.895 136.224 144.375 136.19 144.855 136.195C145.335 136.189 145.814 136.222 146.29 136.295C145.814 136.368 145.335 136.402 144.855 136.396C144.375 136.4 143.895 136.367 143.418 136.295Z" fill="white"/>
<path d="M143.418 139.801C143.895 139.729 144.375 139.696 144.855 139.7C145.335 139.696 145.814 139.729 146.29 139.801C145.814 139.875 145.335 139.909 144.855 139.904C144.375 139.909 143.895 139.874 143.418 139.801Z" fill="white"/>
<path d="M143.418 143.309C143.895 143.237 144.375 143.203 144.855 143.206C145.335 143.201 145.814 143.236 146.29 143.309C145.814 143.387 145.335 143.425 144.855 143.424C144.374 143.424 143.894 143.385 143.418 143.309Z" fill="white"/>
<path d="M143.418 146.815C143.895 146.743 144.375 146.71 144.855 146.714C145.335 146.71 145.814 146.743 146.29 146.815C145.814 146.889 145.335 146.923 144.855 146.918C144.375 146.923 143.895 146.889 143.418 146.815Z" fill="white"/>
<path d="M143.418 150.323C143.895 150.252 144.375 150.218 144.855 150.223C145.335 150.218 145.814 150.252 146.29 150.326C145.814 150.398 145.335 150.431 144.855 150.427C144.375 150.43 143.895 150.396 143.418 150.323Z" fill="white"/>
<path d="M157.09 101.228L157.137 107.937L157.155 114.65L157.186 128.071L157.155 141.492L157.137 148.202L157.09 154.914L157.044 148.202L157.026 141.492L156.992 128.071L157.026 114.65L157.044 107.937L157.09 101.228Z" fill="#DED9D9"/>
<path d="M167.892 101.228L167.941 107.937L167.957 114.65L167.99 128.071L167.957 141.492L167.941 148.202L167.892 154.914L167.846 148.202L167.828 141.492L167.797 128.071L167.83 114.65L167.846 107.937L167.892 101.228Z" fill="#DED9D9"/>
<path d="M178.692 101.228L178.738 107.937L178.756 114.65L178.787 128.071L178.756 141.492L178.738 148.202L178.692 154.914L178.645 148.202L178.627 141.492L178.594 128.071L178.627 114.65L178.645 107.937L178.692 101.228Z" fill="#DED9D9"/>
<path d="M189.494 101.228L189.543 107.937L189.558 114.65L189.592 128.071L189.558 141.492L189.543 148.202L189.494 154.914L189.447 148.202L189.429 141.492L189.398 128.071L189.429 114.65L189.447 107.937L189.494 101.228Z" fill="#DED9D9"/>
<path d="M200.297 101.228L200.344 107.937L200.362 114.65L200.393 128.071L200.362 141.492L200.344 148.202L200.297 154.914L200.248 148.202L200.233 141.492L200.199 128.071L200.233 114.65L200.251 107.937L200.297 101.228Z" fill="#DED9D9"/>
<path d="M211.095 101.228L211.142 107.937L211.16 114.65L211.193 128.071L211.16 141.492L211.144 148.202L211.095 154.914L211.049 148.202L211.031 141.492L211 128.071L211.031 114.65L211.049 107.937L211.095 101.228Z" fill="#DED9D9"/>
<path d="M221.899 101.228L221.945 107.937L221.963 114.65L221.994 128.071L221.963 141.492L221.945 148.202L221.899 154.914L221.85 148.202L221.834 141.492L221.801 128.071L221.834 114.65L221.85 107.937L221.899 101.228Z" fill="#DED9D9"/>
<path d="M232.697 101.228L232.746 107.937L232.762 114.65L232.795 128.071L232.762 141.492L232.746 148.202L232.697 154.914L232.651 148.202L232.633 141.492L232.602 128.071L232.633 114.65L232.651 107.937L232.697 101.228Z" fill="#DED9D9"/>
<path d="M243.5 101.228L243.547 107.937L243.565 114.65L243.596 128.071L243.565 141.492L243.547 148.202L243.5 154.914L243.451 148.202L243.436 141.492L243.402 128.071L243.436 114.65L243.454 107.937L243.5 101.228Z" fill="#DED9D9"/>
<path d="M146.25 101.228L159.132 101.176L172.016 101.16L197.78 101.125L223.547 101.16L236.429 101.176L249.313 101.228L236.429 101.277L223.547 101.293L197.78 101.328L172.016 101.293L159.132 101.277L146.25 101.228Z" fill="#DED8D8"/>
<path d="M146.25 104.733L159.132 104.684L172.016 104.665L197.78 104.633L223.547 104.665L236.429 104.684L249.313 104.733L236.429 104.782L223.547 104.801L197.78 104.834L172.016 104.801L159.132 104.782L146.25 104.733Z" fill="#DED8D8"/>
<path d="M146.25 108.242L159.132 108.19L172.016 108.174L197.78 108.139L223.547 108.174L236.429 108.19L249.313 108.242L236.429 108.291L223.547 108.307L197.78 108.343L172.016 108.307L159.132 108.291L146.25 108.242Z" fill="#DED8D8"/>
<path d="M146.25 111.748L159.132 111.699L172.016 111.68L197.78 111.647L223.547 111.68L236.429 111.699L249.313 111.748L236.429 111.797L223.547 111.816L197.78 111.848L172.016 111.816L159.132 111.797L146.25 111.748Z" fill="#DED8D8"/>
<path d="M146.25 115.253L159.132 115.204L172.016 115.185L197.78 115.152L223.547 115.185L236.429 115.204L249.313 115.253L236.429 115.305L223.547 115.321L197.78 115.356L172.016 115.321L159.132 115.305L146.25 115.253Z" fill="#DED8D8"/>
<path d="M146.25 118.762L159.132 118.713L172.016 118.694L197.78 118.658L223.547 118.694L236.429 118.71L249.313 118.762L236.429 118.811L223.547 118.83L197.78 118.862L172.016 118.83L159.132 118.811L146.25 118.762Z" fill="#DED8D8"/>
<path d="M146.25 122.267L159.132 122.218L172.016 122.199L197.78 122.167L223.547 122.199L236.429 122.218L249.313 122.267L236.429 122.319L223.547 122.335L197.78 122.37L172.016 122.335L159.132 122.319L146.25 122.267Z" fill="#DED8D8"/>
<path d="M146.25 125.776L159.132 125.724L172.016 125.708L197.78 125.672L223.547 125.708L236.429 125.724L249.313 125.776L236.429 125.825L223.547 125.844L197.78 125.876L172.016 125.841L159.132 125.825L146.25 125.776Z" fill="#DED8D8"/>
<path d="M146.25 129.281L159.132 129.232L172.016 129.213L197.78 129.181L223.547 129.213L236.429 129.232L249.313 129.281L236.429 129.333L223.547 129.349L197.78 129.385L172.016 129.349L159.132 129.33L146.25 129.281Z" fill="#DED8D8"/>
<path d="M146.25 132.789L159.132 132.738L172.016 132.721L197.78 132.686L223.547 132.721L236.429 132.738L249.313 132.789L236.429 132.838L223.547 132.857L197.78 132.89L172.016 132.855L159.132 132.838L146.25 132.789Z" fill="#DED8D8"/>
<path d="M146.25 136.295L159.132 136.246L172.016 136.227L197.78 136.194L223.547 136.227L236.429 136.246L249.313 136.295L236.429 136.344L223.547 136.363L197.78 136.396L172.016 136.363L159.132 136.344L146.25 136.295Z" fill="#DED8D8"/>
<path d="M146.25 139.801L159.132 139.752L172.016 139.736L197.78 139.7L223.547 139.736L236.429 139.752L249.313 139.801L236.429 139.852L223.547 139.869L197.78 139.904L172.016 139.869L159.132 139.852L146.25 139.801Z" fill="#DED8D8"/>
<path d="M146.25 143.309L159.132 143.26L172.016 143.241L197.78 143.208L223.547 143.241L236.429 143.26L249.313 143.309L236.429 143.358L223.547 143.377L197.78 143.41L172.016 143.377L159.132 143.358L146.25 143.309Z" fill="#DED8D8"/>
<path d="M146.25 146.815L159.132 146.766L172.016 146.747L197.78 146.714L223.547 146.747L236.429 146.766L249.313 146.815L236.429 146.867L223.547 146.883L197.78 146.918L172.016 146.883L159.132 146.867L146.25 146.815Z" fill="#DED8D8"/>
<path d="M146.25 150.323L159.132 150.274L172.016 150.255L197.78 150.22L223.547 150.255L236.429 150.271L249.313 150.323L236.429 150.372L223.547 150.391L197.78 150.424L172.016 150.391L159.132 150.372L146.25 150.323Z" fill="#DED8D8"/>
<path d="M146.25 153.829L159.132 153.78L172.016 153.761L197.78 153.728L223.547 153.761L236.429 153.78L249.313 153.829L236.429 153.88L223.547 153.897L197.78 153.932L172.016 153.897L159.132 153.878L146.25 153.829Z" fill="#EBEBEB"/>
<path d="M146.266 101.225V108.239H248.735V101.225H146.266Z" fill="#88D0D1"/>
<path d="M149.281 110.248H198.488" stroke="#ACC2C2" stroke-width="1.3" stroke-linecap="round" stroke-linejoin="round"/>
<path d="M149.375 113.696H242.65" stroke="#ACC2C2" stroke-width="1.3" stroke-linecap="round" stroke-linejoin="round"/>
<path d="M149.375 117.012H242.65" stroke="#ACC2C2" stroke-width="1.3" stroke-linecap="round" stroke-linejoin="round"/>
<path d="M149.375 137.542H242.65" stroke="#ACC2C2" stroke-width="1.3" stroke-linecap="round" stroke-linejoin="round"/>
<path d="M149.375 120.461H242.65" stroke="#ACC2C2" stroke-width="1.3" stroke-linecap="round" stroke-linejoin="round"/>
<path d="M149.375 140.991H242.65" stroke="#ACC2C2" stroke-width="1.3" stroke-linecap="round" stroke-linejoin="round"/>
<path d="M149.375 124.042H242.65" stroke="#ACC2C2" stroke-width="1.3" stroke-linecap="round" stroke-linejoin="round"/>
<path d="M149.375 144.572H242.65" stroke="#ACC2C2" stroke-width="1.3" stroke-linecap="round" stroke-linejoin="round"/>
<path d="M149.375 127.491H175.875" stroke="#ACC2C2" stroke-width="1.3" stroke-linecap="round" stroke-linejoin="round"/>
<path d="M149.375 130.792H175.875" stroke="#ACC2C2" stroke-width="1.3" stroke-linecap="round" stroke-linejoin="round"/>
<path d="M149.375 148.489H206.214" stroke="#ACC2C2" stroke-width="1.3" stroke-linecap="round" stroke-linejoin="round"/>
</g>
<path d="M131.373 100.409L124.739 92.7889L121.457 102.345L131.373 100.409ZM84.8544 123.142C85.427 111.753 89.1667 103.961 95.5892 99.8417C102.034 95.7082 111.43 95.1083 123.68 98.6911L124.172 97.0115C111.697 93.3631 101.701 93.8428 94.6444 98.3686C87.5655 102.909 83.6947 111.356 83.1066 123.054L84.8544 123.142Z" fill="#008C99"/>
<g clip-path="url(#clip1_575_815)">
<path d="M96.4756 132.999H67.1474C63.8947 132.999 61.2578 135.635 61.2578 138.887V207.68C61.2578 210.932 63.8947 213.569 67.1474 213.569H96.4756C99.7284 213.569 102.365 210.932 102.365 207.68V138.887C102.365 135.635 99.7284 132.999 96.4756 132.999Z" fill="#EDFFFF"/>
<path d="M79.3482 191.128H65.8185C65.3859 191.128 65.0352 191.609 65.0352 192.202V203.65C65.0352 204.242 65.3859 204.723 65.8185 204.723H79.3482C79.7808 204.723 80.1316 204.242 80.1316 203.65V192.202C80.1316 191.609 79.7808 191.128 79.3482 191.128Z" fill="#AFE9EA"/>
<path d="M78.4276 192.671H66.7955C66.546 192.671 66.3438 192.927 66.3438 193.242V195.19C66.3438 195.506 66.546 195.761 66.7955 195.761H78.4276C78.6771 195.761 78.8794 195.506 78.8794 195.19V193.242C78.8794 192.927 78.6771 192.671 78.4276 192.671Z" fill="#88D0D1"/>
<path d="M66.4492 197.786H72.2667" stroke="white" stroke-linecap="round" stroke-linejoin="round"/>
<path d="M66.4492 199.544H78.8809" stroke="white" stroke-linecap="round" stroke-linejoin="round"/>
<path d="M66.4492 201.482H78.8809" stroke="white" stroke-linecap="round" stroke-linejoin="round"/>
<path d="M97.4537 191.128H83.924C83.4913 191.128 83.1406 191.609 83.1406 192.202V203.65C83.1406 204.242 83.4913 204.723 83.924 204.723H97.4537C97.8863 204.723 98.237 204.242 98.237 203.65V192.202C98.237 191.609 97.8863 191.128 97.4537 191.128Z" fill="#AFE9EA"/>
<path d="M96.533 192.671H84.901C84.6515 192.671 84.4492 192.927 84.4492 193.242V195.19C84.4492 195.506 84.6515 195.761 84.901 195.761H96.533C96.7826 195.761 96.9848 195.506 96.9848 195.19V193.242C96.9848 192.927 96.7826 192.671 96.533 192.671Z" fill="#88D0D1"/>
<path d="M84.5547 197.786H90.3722" stroke="white" stroke-linecap="round" stroke-linejoin="round"/>
<path d="M84.5547 199.544H96.9864" stroke="white" stroke-linecap="round" stroke-linejoin="round"/>
<path d="M84.5547 201.482H96.9864" stroke="white" stroke-linecap="round" stroke-linejoin="round"/>
<path d="M96.4735 192.671H67.1453L61.9492 192.671L62.4645 207.899C62.4645 208.828 63.4388 213.26 66.6916 213.26H96.7448C99.9975 213.26 101.075 209.55 101.075 208.62L101.694 192.671C99.5815 192.671 99.7857 192.672 96.4735 192.671Z" fill="url(#paint0_linear_575_815)"/>
<path d="M96.4755 206.214H67.1473L61.2578 206.214L63.8335 211.188C63.8335 211.487 63.8945 213.6 67.1473 213.6H96.4755C99.7282 213.6 100.482 211.487 100.482 211.188L102.488 206.214L96.4755 206.214Z" fill="#7BB5B6"/>
<path d="M96.4756 135.048C97.5024 135.049 98.4867 135.458 99.2128 136.184C99.9388 136.909 100.347 137.894 100.348 138.92V207.714C100.347 208.74 99.9388 209.724 99.2128 210.45C98.4867 211.176 97.5024 211.584 96.4756 211.585H67.1454C66.1186 211.584 65.1342 211.176 64.4082 210.45C63.6822 209.724 63.2738 208.74 63.2727 207.714V138.918C63.2744 137.892 63.683 136.908 64.4089 136.183C65.1349 135.457 66.119 135.049 67.1454 135.048H96.4756ZM96.4756 133.032H67.1454C65.5837 133.032 64.0862 133.653 62.9821 134.757C61.878 135.861 61.2578 137.359 61.2578 138.92V207.714C61.2578 209.275 61.878 210.772 62.9821 211.877C64.0862 212.981 65.5837 213.601 67.1454 213.602H96.4756C98.0362 213.6 99.5321 212.978 100.635 211.874C101.738 210.77 102.357 209.274 102.357 207.714V138.918C102.357 138.145 102.205 137.379 101.909 136.665C101.613 135.95 101.179 135.301 100.632 134.754C100.085 134.208 99.4358 133.774 98.7212 133.478C98.0066 133.182 97.2408 133.03 96.4673 133.03L96.4756 133.032Z" fill="#060000"/>
<path d="M96.4756 135.048C97.5024 135.049 98.4867 135.457 99.2128 136.183C99.9388 136.909 100.347 137.893 100.348 138.92V207.713C100.347 208.74 99.9388 209.724 99.2128 210.45C98.4867 211.176 97.5024 211.584 96.4756 211.585H67.1454C66.1186 211.584 65.1342 211.176 64.4082 210.45C63.6822 209.724 63.2738 208.74 63.2727 207.713V138.918C63.2744 137.891 63.683 136.908 64.4089 136.182C65.1349 135.457 66.119 135.049 67.1454 135.048H96.4756ZM96.4756 133.031H67.1454C65.5837 133.032 64.0862 133.653 62.9821 134.757C61.878 135.861 61.2578 137.358 61.2578 138.92V207.713C61.2578 209.275 61.878 210.772 62.9821 211.876C64.0862 212.98 65.5837 213.601 67.1454 213.602H96.4756C98.0362 213.599 99.5321 212.978 100.635 211.874C101.738 210.77 102.357 209.273 102.357 207.713V138.918C102.357 138.144 102.205 137.379 101.909 136.664C101.613 135.95 101.179 135.301 100.632 134.754C100.085 134.207 99.4358 133.773 98.7212 133.478C98.0066 133.182 97.2408 133.029 96.4673 133.029L96.4756 133.031Z" fill="#060000"/>
<path d="M90.98 133.232H72.6367V135.367C72.6364 135.592 72.6806 135.815 72.7666 136.023C72.8525 136.23 72.9787 136.419 73.1378 136.578C73.2969 136.737 73.4859 136.864 73.6938 136.95C73.9017 137.036 74.1246 137.08 74.3496 137.079H89.2754C89.7282 137.077 90.1618 136.896 90.4812 136.575C90.8007 136.254 90.98 135.82 90.98 135.367V133.232Z" fill="#060000"/>
<path d="M78.3945 134.831H85.4323" stroke="white" stroke-width="0.76" stroke-linecap="round" stroke-linejoin="round"/>
<path d="M79.3482 140.189H65.8185C65.3859 140.189 65.0352 140.67 65.0352 141.263V152.711C65.0352 153.303 65.3859 153.784 65.8185 153.784H79.3482C79.7808 153.784 80.1316 153.303 80.1316 152.711V141.263C80.1316 140.67 79.7808 140.189 79.3482 140.189Z" fill="#AFE9EA"/>
<path d="M78.4276 141.732H66.7955C66.546 141.732 66.3438 141.988 66.3438 142.303V144.252C66.3438 144.567 66.546 144.822 66.7955 144.822H78.4276C78.6771 144.822 78.8794 144.567 78.8794 144.252V142.303C78.8794 141.988 78.6771 141.732 78.4276 141.732Z" fill="#88D0D1"/>
<path d="M66.4492 146.847H72.2667" stroke="white" stroke-linecap="round" stroke-linejoin="round"/>
<path d="M66.4492 148.605H78.8809" stroke="white" stroke-linecap="round" stroke-linejoin="round"/>
<path d="M66.4492 150.543H78.8809" stroke="white" stroke-linecap="round" stroke-linejoin="round"/>
<path d="M97.4537 140.189H83.924C83.4913 140.189 83.1406 140.67 83.1406 141.263V152.711C83.1406 153.303 83.4913 153.784 83.924 153.784H97.4537C97.8863 153.784 98.237 153.303 98.237 152.711V141.263C98.237 140.67 97.8863 140.189 97.4537 140.189Z" fill="#AFE9EA"/>
<path d="M96.533 141.732H84.901C84.6515 141.732 84.4492 141.988 84.4492 142.303V144.252C84.4492 144.567 84.6515 144.822 84.901 144.822H96.533C96.7826 144.822 96.9848 144.567 96.9848 144.252V142.303C96.9848 141.988 96.7826 141.732 96.533 141.732Z" fill="#88D0D1"/>
<path d="M84.5547 146.847H90.3722" stroke="white" stroke-linecap="round" stroke-linejoin="round"/>
<path d="M84.5547 148.605H96.9864" stroke="white" stroke-linecap="round" stroke-linejoin="round"/>
<path d="M84.5547 150.543H96.9864" stroke="white" stroke-linecap="round" stroke-linejoin="round"/>
<path d="M79.3482 157.169H65.8185C65.3859 157.169 65.0352 157.65 65.0352 158.242V169.69C65.0352 170.283 65.3859 170.763 65.8185 170.763H79.3482C79.7808 170.763 80.1316 170.283 80.1316 169.69V158.242C80.1316 157.65 79.7808 157.169 79.3482 157.169Z" fill="#AFE9EA"/>
<path d="M78.4276 158.712H66.7955C66.546 158.712 66.3438 158.967 66.3438 159.283V161.231C66.3438 161.546 66.546 161.802 66.7955 161.802H78.4276C78.6771 161.802 78.8794 161.546 78.8794 161.231V159.283C78.8794 158.967 78.6771 158.712 78.4276 158.712Z" fill="#88D0D1"/>
<path d="M66.4492 163.827H72.2667" stroke="white" stroke-linecap="round" stroke-linejoin="round"/>
<path d="M66.4492 165.584H78.8809" stroke="white" stroke-linecap="round" stroke-linejoin="round"/>
<path d="M66.4492 167.522H78.8809" stroke="white" stroke-linecap="round" stroke-linejoin="round"/>
<path d="M97.4537 157.169H83.924C83.4913 157.169 83.1406 157.65 83.1406 158.242V169.69C83.1406 170.283 83.4913 170.763 83.924 170.763H97.4537C97.8863 170.763 98.237 170.283 98.237 169.69V158.242C98.237 157.65 97.8863 157.169 97.4537 157.169Z" fill="#AFE9EA"/>
<path d="M96.533 158.712H84.901C84.6515 158.712 84.4492 158.967 84.4492 159.283V161.231C84.4492 161.546 84.6515 161.802 84.901 161.802H96.533C96.7826 161.802 96.9848 161.546 96.9848 161.231V159.283C96.9848 158.967 96.7826 158.712 96.533 158.712Z" fill="#88D0D1"/>
<path d="M84.5547 163.827H90.3722" stroke="white" stroke-linecap="round" stroke-linejoin="round"/>
<path d="M84.5547 165.584H96.9864" stroke="white" stroke-linecap="round" stroke-linejoin="round"/>
<path d="M84.5547 167.522H96.9864" stroke="white" stroke-linecap="round" stroke-linejoin="round"/>
<path d="M79.3482 174.148H65.8185C65.3859 174.148 65.0352 174.629 65.0352 175.222V186.67C65.0352 187.262 65.3859 187.743 65.8185 187.743H79.3482C79.7808 187.743 80.1316 187.262 80.1316 186.67V175.222C80.1316 174.629 79.7808 174.148 79.3482 174.148Z" fill="#AFE9EA"/>
<path d="M78.4276 175.691H66.7955C66.546 175.691 66.3438 175.947 66.3438 176.262V178.211C66.3438 178.526 66.546 178.781 66.7955 178.781H78.4276C78.6771 178.781 78.8794 178.526 78.8794 178.211V176.262C78.8794 175.947 78.6771 175.691 78.4276 175.691Z" fill="#88D0D1"/>
<path d="M66.4492 180.806H72.2667" stroke="white" stroke-linecap="round" stroke-linejoin="round"/>
<path d="M66.4492 182.564H78.8809" stroke="white" stroke-linecap="round" stroke-linejoin="round"/>
<path d="M66.4492 184.502H78.8809" stroke="white" stroke-linecap="round" stroke-linejoin="round"/>
<path d="M97.4537 174.148H83.924C83.4913 174.148 83.1406 174.629 83.1406 175.222V186.67C83.1406 187.262 83.4913 187.743 83.924 187.743H97.4537C97.8863 187.743 98.237 187.262 98.237 186.67V175.222C98.237 174.629 97.8863 174.148 97.4537 174.148Z" fill="#AFE9EA"/>
<path d="M96.533 175.691H84.901C84.6515 175.691 84.4492 175.947 84.4492 176.262V178.211C84.4492 178.526 84.6515 178.781 84.901 178.781H96.533C96.7826 178.781 96.9848 178.526 96.9848 178.211V176.262C96.9848 175.947 96.7826 175.691 96.533 175.691Z" fill="#88D0D1"/>
<path d="M84.5547 180.806H90.3722" stroke="white" stroke-linecap="round" stroke-linejoin="round"/>
<path d="M84.5547 182.564H96.9864" stroke="white" stroke-linecap="round" stroke-linejoin="round"/>
<path d="M84.5547 184.502H96.9864" stroke="white" stroke-linecap="round" stroke-linejoin="round"/>
<path d="M88.5309 174.368C89.1287 170.651 86.6045 167.153 82.893 166.554C79.1815 165.955 75.6881 168.483 75.0903 172.2C74.4924 175.917 77.0166 179.416 80.7281 180.014C84.4397 180.613 87.9331 178.085 88.5309 174.368Z" fill="#263238"/>
<path d="M80.3984 175.427V171.145C80.3984 170.936 80.6152 170.805 80.7909 170.908L84.4919 173.066C84.6709 173.171 84.6709 173.437 84.4919 173.541L80.7909 175.665C80.6152 175.766 80.4001 175.634 80.4001 175.427H80.3984Z" fill="white"/>
<path d="M88.6204 173.286C88.6204 173.286 88.6145 173.25 88.6055 173.176C88.5995 173.095 88.5905 172.987 88.5816 172.852L88.5666 172.615C88.5576 172.528 88.5367 172.432 88.5217 172.331C88.4888 172.127 88.4559 171.887 88.3781 171.629C88.2554 171.105 88.0101 170.485 87.6211 169.829C87.2291 169.175 86.6666 168.492 85.8977 167.914C85.1317 167.341 84.1683 166.853 83.0552 166.655C81.9511 166.467 80.7035 166.5 79.5156 166.952C79.2134 167.048 78.9292 167.198 78.6389 167.338C78.3637 167.506 78.0704 167.659 77.8131 167.869C77.5408 168.058 77.3015 168.291 77.0501 168.519C76.8228 168.771 76.5864 169.016 76.3919 169.301C75.991 169.858 75.6409 170.479 75.4314 171.159C75.213 171.836 75.0933 172.555 75.0844 173.286C75.0933 174.017 75.213 174.737 75.4314 175.414C75.6439 176.094 75.994 176.714 76.3919 177.272C76.5864 177.556 76.8257 177.802 77.0501 178.054C77.3015 178.281 77.5408 178.515 77.8131 178.704C78.0704 178.914 78.3607 179.069 78.6389 179.237C78.9322 179.378 79.2164 179.528 79.5186 179.624C80.7064 180.076 81.9541 180.112 83.0582 179.92C84.1713 179.723 85.1347 179.237 85.9007 178.662C86.6666 178.084 87.2321 177.4 87.6241 176.744C88.0131 176.088 88.2584 175.468 88.3811 174.943C88.4589 174.686 88.4918 174.446 88.5247 174.242C88.5397 174.14 88.5606 174.044 88.5696 173.958C88.5756 173.871 88.5815 173.793 88.5845 173.721C88.5935 173.586 88.6025 173.478 88.6085 173.397C88.6145 173.325 88.6204 173.286 88.6234 173.286C88.6264 173.286 88.6264 173.322 88.6234 173.397C88.6234 173.478 88.6175 173.586 88.6145 173.721C88.6145 173.793 88.6085 173.874 88.6055 173.961C88.5995 174.047 88.5815 174.143 88.5666 174.248C88.5367 174.455 88.5097 174.695 88.4349 174.958C88.3212 175.492 88.0789 176.121 87.6929 176.789C87.3039 177.457 86.7384 178.156 85.9635 178.749C85.1915 179.339 84.2131 179.84 83.0791 180.046C81.9541 180.244 80.6825 180.214 79.4677 179.756C79.1596 179.657 78.8693 179.504 78.5701 179.363C78.2859 179.192 77.9897 179.036 77.7264 178.821C77.4451 178.629 77.1997 178.389 76.9454 178.159C76.712 177.904 76.4697 177.652 76.2692 177.361C75.8593 176.792 75.5003 176.16 75.2818 175.462C75.0574 174.77 74.9348 174.032 74.9258 173.286C74.9348 172.537 75.0574 171.803 75.2818 171.111C75.5003 170.416 75.8563 169.781 76.2692 169.211C76.4697 168.921 76.712 168.669 76.9454 168.414C77.2027 168.183 77.4481 167.944 77.7264 167.752C77.9897 167.539 78.2889 167.38 78.5701 167.21C78.8693 167.066 79.1596 166.916 79.4677 166.817C80.6825 166.359 81.9541 166.329 83.0791 166.526C84.2131 166.733 85.1915 167.234 85.9635 167.824C86.7384 168.417 87.3039 169.115 87.6929 169.784C88.0789 170.452 88.3212 171.084 88.4349 171.614C88.5097 171.875 88.5367 172.118 88.5666 172.325C88.5815 172.429 88.5965 172.522 88.6055 172.612C88.6085 172.699 88.6115 172.78 88.6145 172.852C88.6175 172.99 88.6204 173.095 88.6234 173.176C88.6234 173.247 88.6234 173.286 88.6234 173.286H88.6204Z" fill="#263238"/>
</g>
<path d="M68.2524 208.726V208.838H67.7332V208.765L68.0121 208.499C68.0807 208.43 68.0936 208.392 68.0936 208.353C68.0936 208.314 68.0507 208.25 67.9606 208.25C67.9295 208.248 67.8983 208.253 67.8699 208.266C67.8414 208.279 67.8166 208.298 67.7975 208.323L67.7031 208.254C67.7355 208.214 67.7769 208.183 67.8239 208.162C67.8709 208.141 67.9221 208.132 67.9735 208.134C68.1279 208.134 68.2266 208.211 68.2266 208.34C68.2247 208.384 68.2129 208.427 68.1921 208.466C68.1713 208.504 68.142 208.538 68.1065 208.563L67.922 208.739L68.2524 208.726Z" fill="white"/>
<path d="M68.3243 208.379C68.3237 208.368 68.3254 208.357 68.3293 208.346C68.3331 208.336 68.339 208.326 68.3466 208.318C68.3543 208.31 68.3635 208.304 68.3736 208.3C68.3838 208.295 68.3948 208.293 68.4059 208.293C68.4173 208.292 68.4287 208.294 68.4394 208.298C68.4501 208.302 68.4598 208.309 68.4679 208.317C68.476 208.325 68.4823 208.335 68.4864 208.345C68.4905 208.356 68.4923 208.367 68.4917 208.379C68.4917 208.39 68.4895 208.401 68.4851 208.411C68.4807 208.421 68.4743 208.431 68.4663 208.438C68.4583 208.446 68.4488 208.452 68.4384 208.456C68.428 208.459 68.4169 208.461 68.4059 208.46C68.3842 208.46 68.3635 208.452 68.3482 208.437C68.3329 208.421 68.3243 208.401 68.3243 208.379ZM68.3243 208.761C68.3243 208.739 68.3329 208.718 68.3482 208.703C68.3635 208.688 68.3842 208.679 68.4059 208.679C68.4169 208.679 68.428 208.68 68.4384 208.684C68.4488 208.688 68.4583 208.694 68.4663 208.702C68.4743 208.709 68.4807 208.718 68.4851 208.729C68.4895 208.739 68.4917 208.75 68.4917 208.761C68.4923 208.772 68.4905 208.784 68.4864 208.794C68.4823 208.805 68.476 208.815 68.4679 208.823C68.4598 208.831 68.4501 208.837 68.4394 208.841C68.4287 208.845 68.4173 208.847 68.4059 208.847C68.3842 208.847 68.3635 208.838 68.3482 208.823C68.3329 208.807 68.3243 208.787 68.3243 208.765V208.761Z" fill="white"/>
<path d="M68.818 208.135V208.839H68.6892V208.242H68.5391V208.135H68.818Z" fill="white"/>
<path d="M69.5925 208.68H69.4638V208.839H69.3393V208.68H68.9531V208.59L69.3007 208.135H69.438L69.1119 208.564H69.3436V208.422H69.4638V208.564H69.5925V208.68Z" fill="white"/>
<path d="M90.3294 208.358H70.707V208.652H90.3294V208.358Z" fill="white"/>
<path d="M78.9652 208.358H70.707V208.652H78.9652V208.358Z" fill="#008C99"/>
<path d="M79.1544 208.493C79.1552 208.651 79.1093 208.805 79.0223 208.936C78.9353 209.068 78.8113 209.17 78.666 209.231C78.5206 209.292 78.3604 209.309 78.2057 209.278C78.0511 209.248 77.9088 209.173 77.7971 209.061C77.6854 208.95 77.6092 208.808 77.5781 208.654C77.547 208.499 77.5626 208.339 77.6227 208.194C77.6828 208.048 77.7848 207.923 77.9158 207.836C78.0468 207.748 78.2008 207.701 78.3585 207.701C78.5688 207.701 78.7707 207.784 78.9198 207.933C79.069 208.081 79.1533 208.283 79.1544 208.493Z" fill="#008C99"/>
<path d="M92.2441 208.512C92.243 208.545 92.2354 208.576 92.2217 208.605C92.208 208.634 92.1885 208.66 92.1644 208.682C92.1403 208.703 92.1121 208.719 92.0815 208.729C92.0509 208.739 92.0186 208.743 91.9866 208.74C91.7935 208.74 91.6819 208.615 91.6819 208.388C91.6764 208.34 91.6812 208.292 91.696 208.246C91.7109 208.2 91.7354 208.158 91.768 208.123C91.8006 208.087 91.8404 208.059 91.8848 208.04C91.9292 208.022 91.9771 208.013 92.0252 208.015C92.0909 208.011 92.1562 208.026 92.214 208.057L92.1625 208.156C92.1218 208.134 92.076 208.122 92.0295 208.122C91.8965 208.122 91.8107 208.208 91.8107 208.366C91.8354 208.342 91.865 208.323 91.8975 208.31C91.93 208.298 91.9647 208.292 91.9995 208.294C92.0302 208.291 92.0612 208.294 92.0905 208.304C92.1198 208.313 92.1468 208.329 92.1697 208.349C92.1927 208.37 92.2112 208.395 92.224 208.423C92.2368 208.451 92.2436 208.482 92.2441 208.512ZM92.1153 208.512C92.1148 208.495 92.1108 208.478 92.1035 208.463C92.0962 208.447 92.0858 208.434 92.0729 208.422C92.06 208.411 92.0449 208.403 92.0286 208.397C92.0123 208.392 91.9951 208.39 91.978 208.392C91.9604 208.39 91.9425 208.391 91.9255 208.396C91.9084 208.401 91.8925 208.409 91.8788 208.42C91.8651 208.432 91.8539 208.446 91.8458 208.461C91.8378 208.477 91.8331 208.495 91.8321 208.512C91.8321 208.581 91.8836 208.632 91.978 208.632C91.9947 208.634 92.0116 208.633 92.0276 208.628C92.0437 208.623 92.0586 208.615 92.0714 208.604C92.0842 208.593 92.0947 208.58 92.1023 208.565C92.1098 208.55 92.1143 208.533 92.1153 208.517V208.512Z" fill="white"/>
<path d="M92.3087 208.268C92.3087 208.257 92.311 208.246 92.3153 208.235C92.3197 208.225 92.3261 208.216 92.3341 208.208C92.3421 208.201 92.3516 208.195 92.362 208.191C92.3724 208.187 92.3835 208.186 92.3945 208.186C92.4054 208.186 92.4163 208.187 92.4265 208.191C92.4366 208.195 92.4459 208.201 92.4536 208.209C92.4613 208.216 92.4673 208.226 92.4711 208.236C92.475 208.246 92.4767 208.257 92.4761 208.268C92.4767 208.279 92.475 208.29 92.4711 208.3C92.4673 208.311 92.4614 208.32 92.4538 208.328C92.4461 208.336 92.4369 208.343 92.4268 208.347C92.4166 208.351 92.4056 208.354 92.3945 208.354C92.3831 208.354 92.3717 208.352 92.361 208.348C92.3503 208.344 92.3406 208.338 92.3325 208.33C92.3244 208.322 92.3181 208.312 92.314 208.301C92.3099 208.291 92.3081 208.279 92.3087 208.268ZM92.3087 208.654C92.3081 208.642 92.3099 208.631 92.314 208.62C92.3181 208.61 92.3244 208.6 92.3325 208.592C92.3406 208.584 92.3503 208.577 92.361 208.573C92.3717 208.569 92.3831 208.567 92.3945 208.568C92.4056 208.568 92.4166 208.57 92.4268 208.575C92.4369 208.579 92.4461 208.585 92.4538 208.593C92.4614 208.601 92.4673 208.611 92.4711 208.621C92.475 208.632 92.4767 208.643 92.4761 208.654C92.4761 208.676 92.4675 208.696 92.4522 208.712C92.4369 208.727 92.4162 208.735 92.3945 208.735C92.3835 208.736 92.3724 208.734 92.362 208.73C92.3516 208.727 92.3421 208.721 92.3341 208.713C92.3261 208.705 92.3197 208.696 92.3153 208.686C92.311 208.676 92.3087 208.665 92.3087 208.654Z" fill="white"/>
<path d="M92.5586 208.375C92.5586 208.143 92.683 208.014 92.8504 208.014C93.0177 208.014 93.1465 208.143 93.1465 208.375C93.1465 208.606 93.022 208.739 92.8504 208.739C92.6787 208.739 92.5586 208.606 92.5586 208.375ZM93.0134 208.375C93.0134 208.207 92.9491 208.126 92.8504 208.126C92.7517 208.126 92.6873 208.207 92.6873 208.375C92.6873 208.542 92.756 208.623 92.8504 208.623C92.9448 208.623 93.0134 208.546 93.0134 208.375Z" fill="white"/>
<path d="M93.2227 208.375C93.2227 208.143 93.3514 208.014 93.5187 208.014C93.6861 208.014 93.8148 208.143 93.8148 208.375C93.8148 208.606 93.6861 208.739 93.5187 208.739C93.3514 208.739 93.2227 208.606 93.2227 208.375ZM93.6818 208.375C93.6818 208.207 93.6131 208.126 93.5187 208.126C93.4243 208.126 93.3557 208.207 93.3557 208.375C93.3557 208.542 93.42 208.623 93.5187 208.623C93.6174 208.623 93.6947 208.546 93.6947 208.375H93.6818Z" fill="white"/>
<path d="M95.0132 208.332H94.6914V207.59H95.4338V207.912H95.0132V208.332Z" fill="white"/>
<path d="M95.4381 209.293H94.6914V208.551H95.0132V208.971H95.4381V209.293Z" fill="white"/>
<path d="M96.5978 209.293H95.8555V208.971H96.276V208.546H96.5978V209.293Z" fill="white"/>
<path d="M96.5978 208.332H96.276V207.912H95.8555V207.59H96.5978V208.332Z" fill="white"/>
</g>
<path d="M0 5.84424C0 3.08281 2.23858 0.844238 5 0.844238H375C377.761 0.844238 380 3.08281 380 5.84424V40.8442H0V5.84424Z" fill="#C9E6E7"/>
<circle cx="328" cy="21.8442" r="4" fill="#F23936"/>
<circle cx="342" cy="21.8442" r="4" fill="#FABB18"/>
<circle cx="356" cy="21.8442" r="4" fill="#008EFF"/>
<path d="M23.856 25.8442H25.824V16.4042H28.992V14.6442H20.72V16.4042H23.856V25.8442ZM34.4818 17.8282C33.9538 17.7322 33.7938 17.7162 33.5378 17.7162C32.7538 17.7162 31.9698 17.9722 31.3298 18.4682L31.1058 17.8442H29.8738V25.8442H31.7618V20.2922C31.9858 19.7642 32.6578 19.4282 33.4258 19.4282C33.6018 19.4282 33.8258 19.4602 34.1778 19.5402L34.4818 17.8282ZM38.8609 17.7322C37.9969 17.7802 37.1169 18.0682 36.2049 18.5322L36.7969 19.9242C37.5809 19.5882 38.5569 19.3642 38.9569 19.3642C39.8369 19.3642 40.2369 19.5722 40.2689 20.8842V21.0122C39.9009 20.9642 39.5169 20.9162 39.1009 20.9162C37.4689 20.9162 35.7569 21.3802 35.7569 23.5242C35.7569 24.2922 36.1569 25.9882 38.6209 25.9882C39.2609 25.9882 40.0769 25.7162 40.7169 25.2042L40.9089 25.8442H42.1729V21.0922C42.1729 19.3962 41.9329 17.5562 38.8609 17.7322ZM40.2689 23.4762C40.0129 23.8922 39.4369 24.4042 38.6689 24.4042C38.0609 24.4042 37.5329 24.0842 37.5329 23.3962C37.5329 22.6282 38.4609 22.4522 39.2609 22.4522C39.6449 22.4522 40.0129 22.5002 40.2689 22.5322V23.4762ZM46.6211 20.2282C46.8931 19.7962 47.5331 19.3642 48.3171 19.3642C49.7251 19.3642 49.8851 20.7242 49.8851 21.7162V25.8442H51.8051V21.7162C51.8051 19.8442 51.4051 17.7162 48.3971 17.7162C47.6131 17.7162 46.8291 17.9722 46.1891 18.4682L45.9651 17.8442H44.7331V25.8442H46.6211V20.2282ZM55.7096 20.0362C55.7416 19.5562 56.2536 19.4122 56.8296 19.4122C57.3576 19.4122 58.2376 19.7162 58.8616 20.0042L59.5496 18.5002C58.1736 17.8122 57.0056 17.7162 56.5576 17.7162C54.9736 17.7162 53.9016 18.6122 53.9016 20.1162C53.9016 22.9162 57.8856 22.1642 57.8856 23.6202C57.8856 24.0522 57.3736 24.3402 56.7656 24.3402C55.9976 24.3402 55.1816 24.0362 54.4136 23.6362L53.7256 25.0922C54.7656 25.6842 55.6296 25.9722 56.8616 25.9722C58.5576 25.9722 59.8216 25.0122 59.8216 23.6042C59.8216 20.6922 55.7416 21.2042 55.7096 20.0362ZM67.6613 23.2842C67.0693 23.8922 66.3493 24.1642 65.7573 24.1642C64.6533 24.1642 63.6293 23.3802 63.6293 21.8762C63.6293 20.6442 64.3813 19.4442 65.7413 19.4442C66.4613 19.4442 67.2453 19.8442 67.7413 20.3882L68.8293 19.1722C68.0453 18.3402 67.0853 17.7162 65.7413 17.7162C62.5573 17.7162 61.7413 20.1002 61.7413 21.8762C61.7413 23.5562 62.7013 25.9562 65.7733 25.9562C67.1813 25.9562 68.1413 25.3482 68.9413 24.4362L67.6613 23.2842ZM75.7943 17.8282C75.2663 17.7322 75.1063 17.7162 74.8503 17.7162C74.0663 17.7162 73.2823 17.9722 72.6423 18.4682L72.4183 17.8442H71.1863V25.8442H73.0743V20.2922C73.2983 19.7642 73.9703 19.4282 74.7383 19.4282C74.9143 19.4282 75.1383 19.4602 75.4903 19.5402L75.7943 17.8282ZM79.2934 17.8442H77.3894V25.8442H79.2934V17.8442ZM77.2614 15.3322C77.2614 15.9722 77.7254 16.4202 78.3494 16.4202C78.9574 16.4202 79.4374 15.9722 79.4374 15.3322C79.4374 14.7242 78.9574 14.2442 78.3494 14.2442C77.7254 14.2442 77.2614 14.7242 77.2614 15.3322ZM85.4421 25.9722C88.5141 25.9722 89.4261 23.5242 89.4261 21.8442C89.4261 20.1322 88.4981 17.7162 85.5221 17.7162C84.7381 17.7162 83.9541 17.9722 83.3141 18.4682L83.0901 17.8442H81.8581V29.0442H83.7461V25.6682C84.2261 25.8442 84.8021 25.9722 85.4421 25.9722ZM85.4421 19.3482C87.2981 19.3482 87.5541 21.2202 87.5541 21.8442C87.5541 22.5802 87.1861 24.3402 85.3141 24.3402C84.7861 24.3402 84.1621 24.1802 83.7461 23.8922V20.2282C84.0501 19.7482 84.5941 19.3482 85.4421 19.3482ZM91.4146 19.4762V23.8602C91.4146 24.4042 91.5746 25.9402 93.2226 25.9402C93.5586 25.9402 94.3586 25.8762 95.3346 25.5882L95.0306 24.1002C94.4386 24.2442 94.0706 24.3242 93.8946 24.3402C93.3666 24.3722 93.3186 24.0042 93.3186 23.6042V19.4762H94.8866V17.8442H93.3186V16.2602H91.5746L91.4146 17.8442H90.5506V19.4762H91.4146ZM98.684 17.8442H96.78V25.8442H98.684V17.8442ZM96.652 15.3322C96.652 15.9722 97.116 16.4202 97.74 16.4202C98.348 16.4202 98.828 15.9722 98.828 15.3322C98.828 14.7242 98.348 14.2442 97.74 14.2442C97.116 14.2442 96.652 14.7242 96.652 15.3322ZM104.913 17.7002C101.841 17.7002 100.929 20.1482 100.929 21.8282C100.929 23.5562 101.841 25.9562 104.913 25.9562C107.985 25.9562 108.897 23.5562 108.897 21.8282C108.897 20.1482 107.985 17.7002 104.913 17.7002ZM104.913 24.3242C103.057 24.3242 102.801 22.4522 102.801 21.8282C102.801 21.2042 103.057 19.3322 104.913 19.3322C106.753 19.3322 107.025 21.2042 107.025 21.8282C107.025 22.4522 106.753 24.3242 104.913 24.3242ZM113.027 20.2282C113.299 19.7962 113.939 19.3642 114.723 19.3642C116.131 19.3642 116.291 20.7242 116.291 21.7162V25.8442H118.211V21.7162C118.211 19.8442 117.811 17.7162 114.803 17.7162C114.019 17.7162 113.235 17.9722 112.595 18.4682L112.371 17.8442H111.139V25.8442H113.027V20.2282Z" fill="#344170"/>
<path d="M278.477 167.164L254.295 158.48C255.874 177.354 257.418 196.697 252.396 214.958C251.852 216.935 251.378 219.41 252.948 220.724C253.888 221.51 255.231 221.537 256.459 221.5C258.97 221.423 261.476 221.24 263.969 220.953C266.626 220.647 269.461 220.126 271.351 218.232C272.935 216.648 273.579 214.369 274.108 212.192C277.706 197.496 279.185 182.28 278.477 167.164Z" fill="#263238"/>
<path d="M238.867 245.071L241.734 241.314L243.656 231.261L248.016 206.813C248.016 206.813 249.938 197.614 255.869 194.98L257.124 219.409L245.026 250.102L238.867 245.071Z" fill="#028491"/>
<path d="M264.867 188.342L261.301 192.565L255.864 194.98C255.864 194.98 243.898 217.848 243.574 218.062C243.25 218.277 241.328 224.796 242.401 230.352C243.469 235.908 244.218 243.176 244.108 248.413C244.003 253.649 237.164 270.852 236.735 274.805C236.306 278.759 234.918 294.039 234.918 294.039L295.4 293.578C295.4 293.578 294.866 289.232 293.154 282.178C293.154 282.178 292.939 267.003 290.697 264.118C290.697 264.118 292.405 260.164 292.195 257.918C291.98 255.672 301.17 243.706 302.987 239.538C304.804 235.37 311.963 225.86 312.068 219.021C312.173 212.182 311.104 206.412 307.685 201.709C304.266 197.007 298.07 193.802 295.505 192.095L290.483 185.685L264.862 188.342H264.867Z" fill="#007C88"/>
<path d="M243.305 294.034C243.305 294.034 243.305 293.97 243.305 293.852C243.309 293.719 243.314 293.541 243.323 293.318C243.346 292.834 243.373 292.144 243.414 291.259C243.487 289.46 243.597 286.876 243.729 283.689C243.784 282.091 243.839 280.338 243.866 278.462C243.88 277.521 243.88 276.549 243.848 275.554C243.811 274.54 243.944 273.499 244.158 272.458C244.583 270.372 245.364 268.277 246.135 266.113C246.519 265.031 246.92 263.926 247.181 262.78C247.313 262.214 247.354 261.62 247.413 261.018C247.473 260.42 247.532 259.812 247.596 259.205C247.838 256.777 248.08 254.403 248.308 252.115C248.422 250.969 248.537 249.846 248.646 248.741C248.747 247.637 248.897 246.564 248.934 245.505C249.18 241.273 249.847 237.506 250.454 234.365C251.07 231.224 251.636 228.7 252.002 226.947C252.184 226.079 252.326 225.403 252.422 224.929L252.536 224.404C252.563 224.285 252.577 224.226 252.581 224.226C252.581 224.226 252.581 224.29 252.559 224.408C252.536 224.541 252.508 224.714 252.467 224.938C252.381 225.413 252.253 226.093 252.088 226.965C251.751 228.722 251.212 231.256 250.614 234.397C250.029 237.538 249.377 241.3 249.144 245.518C249.112 246.578 248.961 247.65 248.865 248.755C248.756 249.855 248.646 250.983 248.532 252.129C248.304 254.421 248.066 256.795 247.824 259.224C247.765 259.831 247.701 260.433 247.642 261.036C247.582 261.629 247.541 262.237 247.404 262.83C247.135 264.003 246.733 265.108 246.35 266.19C245.578 268.354 244.798 270.441 244.368 272.504C244.154 273.531 244.021 274.554 244.053 275.545C244.085 276.549 244.076 277.526 244.063 278.466C244.031 280.347 243.962 282.1 243.898 283.698C243.761 286.894 243.615 289.483 243.51 291.268C243.451 292.149 243.405 292.843 243.378 293.322C243.359 293.546 243.346 293.724 243.337 293.856C243.328 293.975 243.318 294.039 243.314 294.039L243.305 294.034Z" fill="#263238"/>
<path d="M252.719 224.029C252.719 223.541 254.865 215.255 259.348 208.329C263.831 201.408 264.808 195.359 264.808 195.359L264.881 186.42L265.265 187.571L288 184.274L288.685 187.557L273.496 201.308C273.496 201.308 266.466 202.673 266.173 202.869C265.881 203.065 252.715 224.029 252.715 224.029H252.719Z" fill="#FFD3C1"/>
<path d="M295.508 192.095C295.508 192.095 295.444 192.209 295.308 192.414C295.171 192.62 294.965 192.916 294.691 193.295C294.152 194.058 293.349 195.149 292.331 196.473C291.313 197.797 290.076 199.354 288.743 201.111C288.076 201.988 287.387 202.919 286.688 203.896C286.515 204.138 286.341 204.394 286.117 204.627C285.898 204.855 285.597 205.06 285.246 205.083C284.894 205.106 284.57 204.969 284.291 204.809C284.008 204.645 283.753 204.471 283.483 204.298C282.41 203.609 281.365 202.937 280.356 202.289C279.849 201.97 279.356 201.636 278.868 201.34C278.384 201.047 277.859 200.824 277.338 200.892C276.818 200.951 276.361 201.244 275.946 201.545C275.535 201.855 275.124 202.175 274.7 202.431C273.85 202.947 272.983 203.294 272.161 203.485C270.518 203.882 269.125 203.773 268.212 203.577C267.984 203.531 267.778 203.481 267.605 203.43C267.432 203.38 267.285 203.339 267.171 203.294C266.938 203.207 266.82 203.161 266.824 203.152C266.824 203.143 266.952 203.179 267.185 203.248C267.299 203.284 267.45 203.325 267.623 203.362C267.797 203.408 267.998 203.449 268.226 203.49C269.134 203.654 270.509 203.736 272.116 203.325C272.919 203.125 273.764 202.778 274.59 202.266C275.001 202.011 275.393 201.7 275.813 201.381C276.234 201.07 276.717 200.751 277.306 200.678C277.9 200.6 278.48 200.851 278.977 201.148C279.479 201.454 279.963 201.773 280.475 202.097C281.488 202.746 282.534 203.417 283.607 204.102C284.145 204.421 284.661 204.878 285.223 204.846C285.497 204.827 285.743 204.668 285.949 204.462C286.154 204.257 286.318 204.006 286.496 203.764C287.199 202.787 287.893 201.86 288.565 200.983C289.911 199.23 291.162 197.687 292.194 196.377C293.23 195.067 294.047 193.994 294.614 193.25C294.888 192.894 295.102 192.606 295.262 192.391C295.413 192.195 295.495 192.095 295.499 192.099L295.508 192.095Z" fill="#263238"/>
<path d="M261.298 218.176C261.298 218.176 261.408 217.939 261.636 217.528C261.864 217.117 262.216 216.537 262.659 215.825C263.549 214.401 264.841 212.47 266.384 210.424C267.932 208.379 269.438 206.612 270.566 205.371C271.132 204.75 271.598 204.257 271.926 203.923C272.255 203.59 272.442 203.412 272.456 203.421C272.47 203.43 272.301 203.631 271.995 203.987C271.662 204.371 271.219 204.878 270.689 205.485C269.593 206.754 268.114 208.534 266.571 210.571C265.028 212.611 263.718 214.52 262.796 215.917C262.353 216.592 261.988 217.149 261.709 217.578C261.453 217.971 261.303 218.186 261.289 218.176H261.298Z" fill="#263238"/>
<path d="M263.264 219.935C263.264 219.935 263.296 219.935 263.351 219.948C263.419 219.962 263.501 219.98 263.611 220.003C263.853 220.053 264.186 220.126 264.62 220.222C265.505 220.414 266.802 220.697 268.455 221.03C269.281 221.195 270.199 221.377 271.203 221.546C271.705 221.633 272.226 221.706 272.773 221.793C273.317 221.884 273.878 222.012 274.449 222.158C275.59 222.455 276.786 222.834 278.033 223.272C278.658 223.491 279.293 223.724 279.936 223.979C280.261 224.107 280.585 224.235 280.913 224.377C281.078 224.45 281.242 224.523 281.406 224.596L281.653 224.714C281.694 224.737 281.735 224.756 281.776 224.783C281.799 224.797 281.817 224.806 281.84 224.824L281.877 224.851C281.877 224.851 281.931 224.92 281.931 224.956V224.988C280.521 229.476 278.896 234.667 277.161 240.209V240.218L277.152 240.228C276.905 240.707 276.604 241.173 276.257 241.62C275.91 242.063 275.526 242.497 275.051 242.853C274.883 242.971 274.7 243.085 274.495 243.154L273.928 243.346C273.554 243.473 273.18 243.597 272.805 243.725C272.061 243.976 271.322 244.227 270.587 244.473C269.126 244.966 267.692 245.446 266.309 245.916L266.245 245.939L266.195 245.893C264.647 244.46 263.154 243.072 261.716 241.743C261.36 241.41 261.004 241.081 260.652 240.757C260.305 240.428 259.945 240.123 259.634 239.753C259.319 239.392 259.096 238.936 259.027 238.47C258.954 238.004 258.995 237.539 259.059 237.096C259.666 233.599 260.36 230.535 260.986 227.992C261.611 225.454 262.186 223.445 262.593 222.071C262.803 221.395 262.962 220.87 263.077 220.501C263.131 220.332 263.177 220.199 263.209 220.099C263.241 220.008 263.259 219.962 263.259 219.962C263.259 219.962 263.25 220.012 263.227 220.103C263.2 220.204 263.163 220.341 263.113 220.514C263.008 220.884 262.857 221.414 262.666 222.094C262.282 223.473 261.73 225.486 261.123 228.029C260.52 230.567 259.844 233.64 259.251 237.123C259.191 237.557 259.155 238 259.223 238.433C259.292 238.867 259.488 239.269 259.79 239.616C260.082 239.963 260.442 240.269 260.794 240.597C261.145 240.921 261.502 241.25 261.862 241.583C263.3 242.912 264.798 244.295 266.345 245.724L266.231 245.701C267.619 245.231 269.048 244.752 270.509 244.254C271.239 244.008 271.979 243.757 272.723 243.505C273.098 243.378 273.472 243.254 273.846 243.127L274.412 242.935C274.586 242.875 274.746 242.78 274.905 242.665C275.348 242.337 275.723 241.912 276.06 241.483C276.398 241.049 276.695 240.593 276.932 240.132L276.923 240.15C278.672 234.612 280.306 229.426 281.721 224.938L281.808 224.97C279.165 223.874 276.654 222.948 274.394 222.345C273.828 222.194 273.276 222.067 272.737 221.971C272.198 221.884 271.669 221.806 271.171 221.715C270.167 221.537 269.253 221.345 268.427 221.172C266.775 220.82 265.483 220.519 264.601 220.309C264.172 220.204 263.834 220.122 263.597 220.062C263.492 220.035 263.405 220.012 263.341 219.994C263.282 219.976 263.255 219.967 263.255 219.967L263.264 219.935Z" fill="#263238"/>
<g opacity="0.3">
<path opacity="0.3" d="M263.765 272.66C258.478 271.861 251.132 269.656 245.106 268.396C242.956 267.948 241.093 267.428 238.943 266.976L238.555 268.172C244.727 269.533 250.507 271.56 256.131 274.44C259.478 276.152 262.788 278.152 266.508 278.7C270.667 279.311 274.845 278.029 278.853 276.764C281.113 276.052 283.482 275.271 285.094 273.532C286.231 272.308 286.879 270.715 287.477 269.154C289.057 265.022 290.435 260.817 291.613 256.553C284.432 264.606 274.438 274.271 263.769 272.655L263.765 272.66Z" fill="black"/>
</g>
<path d="M288.688 220.624L273.499 248.564C273.499 248.564 269.97 249.276 269.97 253.006C269.97 253.006 268.742 252.024 266.962 253.084C265.816 253.764 262.588 254.672 260.803 255.627C259.922 256.097 259.488 257.11 259.753 258.074L264.469 275.207C264.469 275.207 270.198 275.207 270.71 273.787L278.562 271.331C278.562 271.331 283.639 269.989 285.593 266.611C287.547 263.237 299.261 245.784 299.261 245.784" fill="#028491"/>
<path d="M299.259 245.779C299.259 245.779 299.227 245.838 299.154 245.953C299.076 246.071 298.966 246.24 298.829 246.455C298.533 246.902 298.108 247.555 297.556 248.395C296.437 250.093 294.807 252.559 292.767 255.649C291.749 257.202 290.63 258.914 289.416 260.763C288.21 262.621 286.905 264.611 285.604 266.771C284.928 267.866 283.942 268.779 282.814 269.51C281.691 270.249 280.431 270.825 279.098 271.276C276.427 272.112 273.638 272.989 270.748 273.892L270.821 273.824C270.702 274.116 270.46 274.299 270.223 274.436C269.981 274.573 269.721 274.669 269.461 274.751C268.936 274.911 268.392 275.011 267.844 275.093C266.744 275.248 265.617 275.317 264.475 275.331H264.388L264.366 275.244C263.507 272.135 262.617 268.889 261.704 265.579C261.225 263.84 260.75 262.114 260.284 260.416C260.056 259.557 259.805 258.735 259.599 257.868C259.444 256.955 259.924 255.992 260.718 255.563C262.261 254.759 263.877 254.271 265.411 253.668C265.795 253.522 266.174 253.367 266.539 253.193C266.89 253.024 267.251 252.787 267.648 252.659C268.438 252.385 269.351 252.44 270.054 252.928L269.871 253.015C269.885 251.942 270.191 250.847 270.894 250.052C271.574 249.244 272.506 248.719 273.492 248.473L273.419 248.527C277.957 240.218 281.764 233.243 284.444 228.335C285.786 225.892 286.845 223.97 287.571 222.646C287.932 221.994 288.21 221.496 288.407 221.149C288.498 220.985 288.571 220.857 288.626 220.766C288.676 220.679 288.703 220.638 288.703 220.638C288.703 220.638 288.685 220.683 288.64 220.775L288.439 221.167C288.252 221.519 287.982 222.026 287.635 222.683C286.918 224.011 285.878 225.947 284.558 228.399C281.897 233.316 278.112 240.305 273.606 248.632L273.583 248.673L273.533 248.687C272.611 248.92 271.698 249.436 271.058 250.198C270.392 250.952 270.104 251.992 270.095 253.024V253.234L269.913 253.111C269.305 252.686 268.447 252.618 267.721 252.878C267.347 253.001 267.023 253.221 266.639 253.403C266.265 253.581 265.881 253.736 265.493 253.883C263.955 254.485 262.334 254.983 260.832 255.763C260.115 256.152 259.691 257.014 259.832 257.832C260.029 258.649 260.284 259.507 260.512 260.356C260.983 262.055 261.453 263.78 261.932 265.52C262.841 268.829 263.736 272.075 264.589 275.189L264.475 275.102C265.603 275.089 266.726 275.02 267.812 274.869C268.356 274.792 268.89 274.696 269.392 274.536C269.643 274.459 269.89 274.367 270.113 274.244C270.333 274.121 270.529 273.961 270.611 273.755L270.634 273.701L270.684 273.682C273.574 272.783 276.363 271.911 279.034 271.08C280.349 270.637 281.6 270.071 282.705 269.341C283.819 268.629 284.782 267.734 285.439 266.675C286.754 264.515 288.064 262.525 289.279 260.676C290.498 258.831 291.63 257.124 292.653 255.576C294.716 252.499 296.36 250.048 297.496 248.358C298.062 247.528 298.501 246.884 298.802 246.441L299.144 245.948C299.222 245.838 299.268 245.784 299.268 245.784L299.259 245.779Z" fill="#263238"/>
<path d="M291.032 257.457C291.032 257.457 290.995 257.366 290.945 257.188C290.895 256.987 290.826 256.726 290.744 256.407C290.571 255.699 290.329 254.722 290.036 253.531C289.438 251.102 288.589 247.751 287.594 244.067C286.599 240.383 285.64 237.064 284.932 234.662C284.585 233.484 284.302 232.521 284.097 231.822C284.006 231.507 283.933 231.247 283.878 231.046C283.832 230.868 283.809 230.772 283.818 230.772C283.828 230.772 283.864 230.859 283.923 231.033C283.992 231.229 284.079 231.485 284.188 231.795C284.412 232.457 284.722 233.42 285.097 234.616C285.845 237.004 286.827 240.319 287.827 244.007C288.822 247.692 289.644 251.052 290.201 253.494C290.479 254.713 290.698 255.704 290.835 256.389C290.899 256.713 290.949 256.973 290.991 257.178C291.023 257.361 291.036 257.457 291.032 257.457Z" fill="white"/>
<path d="M285.493 266.19C285.429 266.204 284.16 259.584 282.663 251.408C281.161 243.231 280.001 236.593 280.065 236.584C280.129 236.57 281.398 243.19 282.9 251.367C284.398 259.543 285.562 266.181 285.498 266.19H285.493Z" fill="white"/>
<path d="M260.482 227.413C260.519 227.467 258.291 229.047 255.511 230.937C252.726 232.832 250.443 234.32 250.407 234.265C250.37 234.21 252.594 232.631 255.378 230.741C258.159 228.846 260.446 227.358 260.482 227.413Z" fill="white"/>
<path d="M259.005 233.375C259.005 233.375 258.9 233.512 258.677 233.722C258.458 233.932 258.129 234.233 257.718 234.594C256.901 235.32 255.746 236.297 254.44 237.338C253.134 238.379 251.92 239.283 251.03 239.917C250.582 240.237 250.222 240.488 249.966 240.657C249.71 240.826 249.564 240.912 249.555 240.899C249.546 240.885 249.674 240.775 249.911 240.584C250.194 240.365 250.532 240.095 250.929 239.785C251.792 239.114 252.988 238.191 254.294 237.155C255.6 236.119 256.768 235.165 257.613 234.471C258.006 234.156 258.339 233.882 258.622 233.658C258.864 233.466 259.001 233.37 259.01 233.38L259.005 233.375Z" fill="white"/>
<path d="M249.08 234.023C249.025 234.06 247.441 231.978 245.533 229.366C243.624 226.755 242.127 224.609 242.177 224.573C242.232 224.536 243.816 226.618 245.724 229.229C247.628 231.836 249.13 233.986 249.08 234.023Z" fill="white"/>
<path d="M248.286 242.021C248.286 242.021 247.948 241.779 247.473 241.318C246.999 240.857 246.369 240.195 245.716 239.424C245.063 238.652 244.515 237.922 244.141 237.374C243.766 236.831 243.561 236.475 243.584 236.456C243.611 236.438 243.867 236.758 244.273 237.274C244.679 237.789 245.246 238.502 245.894 239.269C246.542 240.036 247.149 240.711 247.588 241.2C248.03 241.688 248.3 241.994 248.277 242.017L248.286 242.021Z" fill="white"/>
<path d="M289.808 199.167C289.785 199.194 289.365 198.893 288.69 198.409C287.955 197.875 287.051 197.222 286.051 196.496C285.024 195.743 284.102 195.049 283.449 194.528C282.796 194.008 282.408 193.661 282.431 193.638C282.453 193.611 282.873 193.912 283.549 194.396C284.284 194.93 285.188 195.583 286.188 196.309C287.215 197.062 288.137 197.756 288.79 198.276C289.443 198.797 289.831 199.144 289.808 199.167Z" fill="white"/>
<path d="M291.888 196.286C291.847 196.336 290.368 195.181 288.592 193.702C286.811 192.223 285.405 190.985 285.446 190.935C285.487 190.885 286.966 192.04 288.742 193.519C290.523 194.994 291.929 196.236 291.888 196.286Z" fill="white"/>
<path d="M269.953 225.235C270.017 225.248 269.204 229.782 268.136 235.36C267.068 240.944 266.15 245.459 266.082 245.445C266.018 245.432 266.83 240.898 267.899 235.315C268.967 229.736 269.885 225.221 269.953 225.23V225.235Z" fill="white"/>
<path d="M281.515 259.228C281.515 259.228 281.364 259.178 281.118 259.041C280.866 258.909 280.519 258.699 280.099 258.425C279.259 257.877 278.146 257.023 277.059 255.937C275.972 254.846 275.123 253.736 274.571 252.896C274.297 252.476 274.087 252.125 273.955 251.878C273.822 251.632 273.754 251.49 273.767 251.481C273.799 251.463 274.123 251.988 274.708 252.8C275.288 253.613 276.15 254.69 277.223 255.768C278.301 256.841 279.383 257.703 280.191 258.283C281.003 258.868 281.528 259.192 281.51 259.224L281.515 259.228Z" fill="#263238"/>
<path d="M282.01 250.463C282.015 250.49 281.527 250.609 280.714 250.7C279.906 250.787 278.774 250.823 277.532 250.696C276.29 250.563 275.194 250.289 274.418 250.034C273.642 249.778 273.19 249.559 273.199 249.531C273.213 249.495 273.688 249.659 274.464 249.874C275.24 250.088 276.331 250.33 277.555 250.458C278.778 250.586 279.892 250.577 280.696 250.531C281.499 250.486 282.001 250.426 282.006 250.463H282.01Z" fill="#263238"/>
<path d="M249.364 207.065C249.364 207.065 249.355 207.101 249.332 207.175L249.214 207.485C249.113 207.759 248.935 208.151 248.707 208.658C248.241 209.667 247.461 211.073 246.447 212.781C245.452 214.493 244.201 216.511 243.306 218.962L243.142 219.423C243.096 219.583 243.055 219.743 243.009 219.903C242.923 220.222 242.831 220.551 242.74 220.88C242.635 221.204 242.58 221.546 242.53 221.889C242.471 222.231 242.416 222.578 242.357 222.93C242.274 223.633 242.229 224.354 242.188 225.084C242.188 225.45 242.188 225.819 242.188 226.194C242.188 226.564 242.188 226.938 242.224 227.317C242.393 230.33 242.941 233.165 243.398 235.749C243.863 238.328 244.224 240.675 244.338 242.656C244.429 243.647 244.384 244.551 244.397 245.336C244.338 246.126 244.297 246.802 244.228 247.354C244.133 247.888 244.06 248.308 244.005 248.614L243.941 248.938C243.927 249.011 243.913 249.048 243.909 249.048C243.909 249.048 243.909 249.007 243.913 248.934C243.923 248.847 243.936 248.737 243.955 248.605C244 248.299 244.06 247.875 244.133 247.345C244.187 246.797 244.21 246.117 244.26 245.336C244.233 244.551 244.27 243.656 244.165 242.67C244.028 240.698 243.653 238.365 243.178 235.79C242.713 233.211 242.156 230.371 241.987 227.335C241.955 226.956 241.946 226.577 241.95 226.203C241.95 225.829 241.95 225.454 241.95 225.084C241.996 224.345 242.042 223.614 242.124 222.907C242.183 222.555 242.243 222.204 242.302 221.857C242.357 221.51 242.416 221.163 242.521 220.834C242.612 220.501 242.704 220.172 242.795 219.848C242.841 219.684 242.886 219.524 242.932 219.364C242.987 219.209 243.046 219.054 243.101 218.898C244.018 216.419 245.292 214.401 246.306 212.703C247.337 211.009 248.136 209.622 248.625 208.626C248.867 208.129 249.054 207.741 249.173 207.476C249.227 207.353 249.278 207.257 249.314 207.175C249.346 207.106 249.364 207.074 249.369 207.074L249.364 207.065Z" fill="#263238"/>
<path d="M264.866 188.342C264.866 188.342 264.853 188.379 264.812 188.438C264.761 188.511 264.702 188.598 264.629 188.708C264.469 188.945 264.209 189.274 263.867 189.698C263.182 190.543 262.132 191.721 260.817 193.168C260.159 193.894 259.443 194.693 258.671 195.551C257.909 196.418 257.092 197.35 256.32 198.4C254.823 200.523 253.809 203.298 253.366 206.302L253.143 206.234C253.476 205.54 253.955 204.901 254.425 204.253C254.672 203.915 254.914 203.581 255.147 203.248C255.261 203.079 255.37 202.91 255.475 202.737L255.626 202.477L255.695 202.344L255.727 202.276L255.745 202.244C255.745 202.244 255.736 202.253 255.772 202.198C255.804 202.162 255.854 202.148 255.9 202.157C255.941 202.162 255.982 202.194 256 202.23L256.01 202.253L256.023 202.289L256.051 202.362L256.105 202.509C256.147 202.604 256.178 202.705 256.201 202.805C256.261 203.002 256.302 203.202 256.334 203.408C256.402 203.81 256.42 204.216 256.411 204.613C256.37 206.211 255.959 207.69 255.663 209.096C255.128 211.945 254.151 214.383 253.572 216.479C252.964 218.569 252.727 220.327 252.723 221.546C252.718 222.153 252.754 222.628 252.786 222.943C252.805 223.089 252.818 223.212 252.828 223.304C252.837 223.386 252.837 223.427 252.837 223.427C252.837 223.427 252.654 222.77 252.631 221.541C252.604 220.318 252.818 218.537 253.407 216.428C253.973 214.315 254.928 211.886 255.443 209.046C255.736 207.635 256.142 206.161 256.174 204.609C256.183 204.221 256.16 203.833 256.096 203.444C256.069 203.253 256.028 203.061 255.968 202.869C255.946 202.773 255.914 202.682 255.877 202.591L255.827 202.454L255.8 202.385L255.786 202.349V202.34C255.822 202.321 255.69 202.372 255.868 202.294C255.79 202.257 255.978 202.344 255.955 202.34V202.349L255.932 202.385L255.895 202.454L255.822 202.591L255.667 202.86C255.558 203.038 255.448 203.212 255.329 203.381C255.096 203.723 254.85 204.056 254.603 204.394C254.133 205.042 253.658 205.677 253.343 206.334L253.006 207.047L253.12 206.266C253.572 203.225 254.603 200.427 256.137 198.272C256.918 197.213 257.744 196.286 258.516 195.423C259.292 194.56 260.023 193.775 260.689 193.058C262.022 191.625 263.086 190.465 263.793 189.639C264.145 189.228 264.414 188.904 264.588 188.68C264.67 188.575 264.734 188.493 264.789 188.424C264.834 188.37 264.862 188.342 264.862 188.342H264.866Z" fill="#263238"/>
<path d="M265.817 253.498C265.817 253.498 265.876 253.549 265.977 253.654C266.091 253.781 266.232 253.941 266.401 254.133C266.588 254.338 266.807 254.599 267.036 254.918C267.269 255.238 267.552 255.585 267.816 256.009C268.09 256.425 268.387 256.881 268.666 257.397C268.967 257.899 269.227 258.47 269.515 259.059C270.049 260.26 270.546 261.625 270.916 263.099C271.272 264.578 271.46 266.017 271.542 267.331C271.56 267.989 271.592 268.614 271.56 269.199C271.555 269.783 271.505 270.326 271.45 270.824C271.414 271.321 271.327 271.764 271.263 272.152C271.208 272.545 271.131 272.874 271.062 273.143L270.907 273.764C270.871 273.905 270.843 273.979 270.839 273.974C270.829 273.974 270.839 273.896 270.861 273.75C270.893 273.581 270.93 273.371 270.971 273.12C271.026 272.851 271.085 272.518 271.131 272.125C271.176 271.737 271.254 271.294 271.281 270.801C271.323 270.308 271.364 269.769 271.359 269.189C271.386 268.61 271.345 267.989 271.323 267.341C271.231 266.039 271.035 264.615 270.683 263.154C270.318 261.693 269.83 260.342 269.314 259.146C269.035 258.557 268.784 257.991 268.492 257.489C268.227 256.973 267.94 256.512 267.675 256.096C267.424 255.671 267.154 255.315 266.931 254.991C266.712 254.667 266.502 254.398 266.328 254.183C266.173 253.982 266.045 253.813 265.94 253.676C265.853 253.558 265.812 253.494 265.817 253.489V253.498Z" fill="#263238"/>
<path d="M280.312 228.636C280.312 228.636 280.061 228.567 279.623 228.403C279.143 228.225 278.518 227.997 277.765 227.718C276.19 227.152 273.998 226.426 271.533 225.769C269.068 225.116 266.803 224.659 265.155 224.372C264.361 224.239 263.703 224.13 263.201 224.043C262.74 223.97 262.484 223.92 262.484 223.901C262.484 223.883 262.745 223.901 263.21 223.952C263.676 223.997 264.352 224.084 265.178 224.207C266.835 224.454 269.113 224.888 271.592 225.54C274.067 226.198 276.258 226.951 277.819 227.563C278.6 227.869 279.225 228.124 279.655 228.321C280.084 228.512 280.317 228.622 280.312 228.64V228.636Z" fill="#263238"/>
<g opacity="0.3">
<path opacity="0.3" d="M277.839 260.831C277.542 260.196 277.04 259.685 276.551 259.187C274.31 256.909 272.232 254.791 269.995 252.513L269.973 253.006C271.434 253.996 271.744 256.001 272.159 257.717C272.579 259.429 272.945 261.26 274.136 262.561C274.616 263.086 275.246 263.506 275.949 263.611C276.652 263.711 277.432 263.447 277.82 262.849C278.199 262.26 278.14 261.47 277.839 260.84V260.831Z" fill="black"/>
</g>
<g opacity="0.3">
<path opacity="0.3" d="M268.828 245.003C268.107 245.263 267.336 245.528 266.587 245.354C265.925 245.199 265.395 244.724 264.893 244.268L259.438 239.292C260.999 241.588 262.25 243.916 263.811 246.213C264.231 246.829 264.697 247.486 265.395 247.742C266.13 248.011 266.947 247.774 267.683 247.495C270.294 246.491 272.686 244.911 274.636 242.903C272.7 243.601 270.764 244.304 268.828 245.003Z" fill="black"/>
</g>
<g opacity="0.3">
<path opacity="0.3" d="M261.977 216.807C267.077 214.36 268.912 207.581 273.97 205.051C276.86 203.609 280.54 203.906 283.165 205.791C284.042 206.421 285.014 207.261 286.05 206.964C286.836 206.741 287.287 205.942 287.657 205.216C288.922 202.737 290.191 200.258 291.456 197.779C289.794 199.733 288.137 201.691 286.475 203.645C286.114 204.07 285.722 204.513 285.183 204.654C284.178 204.91 283.453 203.787 282.526 203.326C279.636 201.883 277.614 200.075 276.002 201.29C276.002 201.29 273.199 203.221 272.071 203.422L261.973 216.611" fill="black"/>
</g>
<g opacity="0.3">
<path opacity="0.3" d="M253.295 221.77C252.875 219.524 253.373 217.045 254.3 214.954C255.226 212.863 256.39 210.859 256.961 208.644C257.418 206.882 257.482 205.019 257.148 203.225C256.993 202.385 256.751 201.532 256.929 200.696C257.043 200.162 257.326 199.678 257.619 199.217C258.769 197.373 260.107 195.642 261.595 194.063L264.777 189.269C264.777 189.269 264.914 194.834 264.809 195.364C264.759 195.629 264.32 197.738 263.421 200.217C262.517 202.705 261.143 205.572 259.805 207.617C257.121 211.712 255.318 216.045 255.318 216.045L253.295 221.774V221.77Z" fill="black"/>
</g>
<path d="M273.506 201.313C267.037 199.783 265.046 196.569 264.973 190.876L264.877 183.64C264.877 183.64 257.714 183.266 256.048 172.601C255.217 167.296 254.496 158.723 254.957 151.619C255.372 145.223 262.019 133.942 268.392 134.631L285.891 143.146C287.827 143.356 289.279 145.008 289.238 146.958L287.877 188.306" fill="#FFD3C1"/>
<path d="M257.684 159.453C257.657 160.174 258.246 160.795 258.999 160.836C259.752 160.877 260.382 160.329 260.41 159.608C260.437 158.887 259.848 158.266 259.095 158.225C258.342 158.184 257.707 158.732 257.68 159.457L257.684 159.453Z" fill="#263238"/>
<path d="M256.836 156.509C256.982 156.641 258.06 156.495 259.489 156.846C260.918 157.189 261.895 157.833 262.068 157.778C262.15 157.755 262.013 157.549 261.589 157.262C261.169 156.979 260.434 156.618 259.543 156.404C258.653 156.189 257.872 156.18 257.411 156.248C256.941 156.317 256.763 156.449 256.836 156.509Z" fill="#263238"/>
<path d="M271.383 159.864C271.356 160.585 271.945 161.206 272.698 161.247C273.452 161.288 274.082 160.741 274.109 160.019C274.136 159.298 273.547 158.677 272.794 158.636C272.041 158.595 271.406 159.143 271.379 159.869L271.383 159.864Z" fill="#263238"/>
<path d="M271.333 157.654C271.543 157.709 272.493 156.983 274.036 156.572C275.574 156.152 276.852 156.276 276.985 156.129C277.053 156.061 276.811 155.929 276.254 155.869C275.707 155.805 274.816 155.842 273.853 156.098C272.89 156.358 272.146 156.764 271.744 157.084C271.333 157.408 271.233 157.631 271.333 157.654Z" fill="#263238"/>
<path d="M265.926 167.351C265.935 167.269 265.017 167.109 263.538 166.913C263.164 166.872 262.808 166.799 262.744 166.543C262.657 166.269 262.812 165.867 262.995 165.429C263.351 164.521 263.721 163.566 264.113 162.571C265.665 158.499 266.789 155.152 266.624 155.093C266.46 155.034 265.067 158.28 263.515 162.352C263.141 163.356 262.785 164.311 262.442 165.228C262.301 165.653 262.054 166.137 262.246 166.703C262.346 166.986 262.62 167.187 262.862 167.255C263.104 167.328 263.314 167.333 263.501 167.346C264.994 167.429 265.917 167.438 265.926 167.356V167.351Z" fill="#263238"/>
<path d="M264.871 183.741C264.871 183.741 272.043 184.22 279.161 179.965C279.161 179.965 275.54 187.484 264.871 186.462V183.741Z" fill="#F4AF9B"/>
<path d="M266.161 170.926C266.892 169.835 267.992 169.104 268.987 169.058C269.677 169.026 270.325 169.328 270.645 169.981C270.964 170.633 270.9 171.656 270.407 172.428C269.855 173.295 268.91 173.647 268.179 173.505C267.444 173.368 266.874 172.839 266.339 172.304C266.189 172.158 266.038 172.003 265.965 171.775C265.892 171.551 265.915 171.232 266.084 171.003" fill="#F4AF9B"/>
<path d="M270.253 168.378C270.016 168.364 270.007 169.962 268.637 171.09C267.272 172.222 265.569 172.039 265.556 172.263C265.533 172.364 265.935 172.574 266.651 172.596C267.354 172.624 268.386 172.4 269.226 171.706C270.062 171.012 270.422 170.086 270.477 169.433C270.541 168.766 270.363 168.369 270.253 168.378Z" fill="#263238"/>
<path d="M270.129 151.222C270.312 151.605 271.754 151.272 273.494 151.309C275.233 151.309 276.667 151.678 276.863 151.299C276.95 151.117 276.671 150.77 276.073 150.437C275.48 150.108 274.557 149.829 273.517 149.816C272.476 149.807 271.544 150.062 270.946 150.377C270.339 150.692 270.056 151.039 270.134 151.222H270.129Z" fill="#263238"/>
<path d="M256.386 153.267C256.711 153.6 257.966 153.253 259.482 153.23C260.997 153.166 262.28 153.45 262.572 153.098C262.7 152.929 262.499 152.596 261.938 152.276C261.385 151.961 260.463 151.706 259.422 151.733C258.381 151.76 257.482 152.066 256.957 152.409C256.423 152.751 256.249 153.098 256.391 153.262L256.386 153.267Z" fill="#263238"/>
<path d="M304.555 191.406C302.231 187.649 300.332 178.285 299.524 173.537C298.716 168.789 296.201 153.573 292.156 145.579C288.111 137.581 283.349 134.348 278.679 133.088C274.008 131.828 270.502 133.536 268.393 135.426C266.284 137.311 265.562 142.808 265.562 142.808C265.562 142.808 276.834 145.314 280.628 151.742C284.988 159.124 286.047 162.841 286.047 162.841L287.458 166.881C287.458 166.881 286.139 174.697 285.65 178.564C285.166 182.426 285.938 186.019 289.12 187.585L295.516 192.104C295.516 192.104 303.879 197.788 304.263 198.08C306.048 199.446 309.545 204.641 309.545 204.641C309.545 204.641 309.303 199.094 304.555 191.411V191.406Z" fill="#263238"/>
<path d="M265.236 142.872C265.236 142.872 258.789 142.173 256.411 149.45C255.333 152.742 254.512 162.252 254.512 162.252C254.512 162.252 253.567 154.701 253.918 150.391C254.265 146.081 256.415 140.63 259.721 137.613C262.935 134.677 265.642 133.303 271.385 133.65C271.385 133.65 268.71 134.572 267.24 136.75C266.505 137.841 266.185 138.772 265.236 142.867V142.872Z" fill="#263238"/>
<path d="M285.96 163.397C286.078 161.037 288.649 159.462 290.694 160.645C291.817 161.293 292.675 162.599 292.575 165.105C292.301 171.784 285.649 170.131 285.645 169.94C285.645 169.821 285.823 166.159 285.96 163.397Z" fill="#EFBDA8"/>
<path d="M287.785 167.493C287.817 167.474 287.899 167.579 288.091 167.675C288.278 167.771 288.606 167.844 288.958 167.73C289.675 167.502 290.314 166.406 290.396 165.201C290.437 164.594 290.337 164.009 290.14 163.521C289.958 163.023 289.657 162.667 289.3 162.589C288.949 162.493 288.689 162.694 288.602 162.882C288.506 163.064 288.543 163.201 288.506 163.21C288.488 163.228 288.369 163.092 288.433 162.818C288.465 162.685 288.552 162.53 288.711 162.411C288.876 162.288 289.118 162.229 289.36 162.27C289.876 162.325 290.319 162.818 290.533 163.356C290.775 163.895 290.907 164.552 290.862 165.237C290.761 166.579 290.022 167.812 289.045 168.054C288.57 168.159 288.182 167.999 287.986 167.835C287.785 167.661 287.757 167.511 287.78 167.497L287.785 167.493Z" fill="#D1967C"/>
<path d="M275.997 132.668C275.997 132.718 275.079 132.691 273.627 132.883C272.906 132.992 272.048 133.184 271.19 133.608C270.322 134.024 269.482 134.686 268.743 135.517C267.241 137.174 266.414 139.073 266.035 140.479C265.647 141.895 265.602 142.812 265.551 142.803C265.538 142.803 265.538 142.575 265.574 142.159C265.611 141.748 265.693 141.155 265.871 140.434C266.213 139 267.031 137.046 268.565 135.357C269.322 134.512 270.194 133.828 271.094 133.412C271.989 132.983 272.87 132.805 273.605 132.714C274.344 132.631 274.942 132.622 275.353 132.627C275.764 132.631 275.992 132.65 275.992 132.663L275.997 132.668Z" fill="#455A64"/>
<path d="M292.147 168.228C292.147 168.228 292.147 168.191 292.16 168.118L292.22 167.808C292.247 167.666 292.279 167.497 292.32 167.301C292.348 167.095 292.384 166.863 292.421 166.602C292.558 165.557 292.649 164.009 292.361 162.142C292.069 160.284 291.403 158.083 290.051 155.983C288.714 153.874 286.646 151.975 284.189 150.477C282.961 149.72 281.697 149.09 280.459 148.524C279.222 147.953 277.98 147.51 276.83 146.99C274.534 145.944 272.598 144.757 271.009 143.716C269.425 142.666 268.192 141.744 267.352 141.091C266.937 140.762 266.613 140.507 266.398 140.324C266.302 140.242 266.22 140.173 266.156 140.119C266.101 140.073 266.074 140.046 266.079 140.041C266.083 140.037 266.111 140.059 266.17 140.1L266.426 140.288C266.668 140.466 266.992 140.712 267.407 141.018C268.261 141.648 269.507 142.547 271.096 143.575C272.694 144.593 274.634 145.761 276.917 146.789C278.054 147.3 279.304 147.738 280.551 148.309C281.797 148.87 283.071 149.51 284.313 150.272C286.796 151.783 288.887 153.719 290.238 155.865C291.603 158.001 292.261 160.234 292.53 162.119C292.8 164.014 292.681 165.571 292.517 166.621C292.471 166.881 292.43 167.114 292.393 167.319C292.348 167.511 292.307 167.68 292.27 167.821L292.188 168.127C292.17 168.196 292.156 168.232 292.151 168.232L292.147 168.228Z" fill="#455A64"/>
<path d="M293.695 165.703C293.695 165.703 293.691 165.666 293.686 165.593C293.686 165.507 293.686 165.402 293.686 165.274C293.686 164.995 293.718 164.58 293.709 164.05C293.7 162.986 293.622 161.443 293.275 159.576C292.924 157.709 292.285 155.522 291.207 153.253C290.107 150.998 288.578 148.66 286.541 146.601C284.505 144.533 282.186 142.986 280.004 141.744C277.817 140.498 275.763 139.53 274.051 138.694C272.334 137.868 270.946 137.183 270.006 136.686C269.531 136.439 269.17 136.234 268.928 136.097C268.819 136.033 268.728 135.978 268.65 135.937C268.586 135.9 268.559 135.877 268.559 135.877C268.559 135.877 268.595 135.887 268.659 135.919L268.947 136.055C269.216 136.188 269.581 136.371 270.047 136.603C271.001 137.078 272.393 137.736 274.124 138.544C275.845 139.361 277.913 140.31 280.113 141.552C282.309 142.789 284.656 144.346 286.71 146.437C288.769 148.519 290.308 150.884 291.408 153.162C292.486 155.454 293.111 157.668 293.444 159.549C293.773 161.434 293.823 162.986 293.805 164.055C293.805 164.589 293.755 165.004 293.741 165.283C293.732 165.411 293.723 165.516 293.714 165.602C293.705 165.675 293.7 165.712 293.695 165.712V165.703Z" fill="#455A64"/>
<path d="M293.496 190.675C293.496 190.675 293.455 190.611 293.396 190.474L293.145 189.876C293.035 189.616 292.907 189.297 292.789 188.918C292.665 188.539 292.51 188.11 292.391 187.621C292.327 187.379 292.259 187.123 292.19 186.859C292.127 186.594 292.072 186.311 292.008 186.023C291.875 185.448 291.789 184.823 291.679 184.165C291.506 182.846 291.387 181.389 291.35 179.855C291.3 176.788 291.542 174.021 291.738 172.026C291.839 171.031 291.935 170.223 292.008 169.666C292.044 169.41 292.072 169.2 292.095 169.026C292.117 168.88 292.131 168.803 292.14 168.807C292.149 168.807 292.149 168.885 292.14 169.036L292.095 169.679C292.044 170.273 291.98 171.072 291.903 172.044C291.748 174.039 291.533 176.801 291.583 179.851C291.615 181.376 291.725 182.823 291.889 184.133C291.99 184.786 292.067 185.407 292.19 185.982C292.25 186.27 292.295 186.548 292.355 186.813C292.419 187.078 292.483 187.329 292.542 187.575C292.652 188.064 292.793 188.493 292.903 188.872C293.008 189.255 293.122 189.58 293.218 189.84C293.3 190.082 293.368 190.283 293.428 190.452C293.473 190.593 293.492 190.666 293.487 190.671L293.496 190.675Z" fill="#455A64"/>
<path d="M208.977 252.002C208.977 252.002 216.236 261.311 218.838 262.055C221.441 262.799 231.297 265.228 231.297 265.228L263.643 272.706L259.831 258.841L229.202 258.421L208.973 252.002H208.977Z" fill="#FFD3C1"/>
<path d="M209.249 237.615C209.051 237.492 208.825 237.42 208.591 237.406C208.357 237.392 208.122 237.436 207.907 237.534C207.693 237.633 207.505 237.782 207.362 237.97C207.219 238.157 207.124 238.376 207.086 238.608L200.591 245.113C200.547 245.382 200.581 245.657 200.689 245.906C200.797 246.154 200.974 246.366 201.2 246.516L221.586 259.735C221.841 259.911 222.151 259.994 222.464 259.97C222.776 259.946 223.073 259.816 223.303 259.602L230.084 253.635C230.244 253.482 230.368 253.296 230.446 253.09C230.525 252.884 230.556 252.664 230.537 252.446C230.518 252.228 230.45 252.018 230.337 251.831C230.225 251.644 230.072 251.486 229.888 251.367L209.249 237.615Z" fill="#102A54"/>
<path d="M243.711 252.645C243.711 252.645 244.264 249.02 243.711 248.304C243.159 247.591 239.274 244.094 239.274 244.094L237.073 242.022L232.211 241.278C231.627 241.186 231.042 241.456 230.727 241.958L230.23 242.757L228.915 242.538L227.751 240.853H224.514L222.117 243.446V246.943C222.117 246.943 222.441 247.916 223.281 247.203C224.121 246.491 224.176 244.519 224.176 244.519L225.614 245.843L224.085 250.509C224.085 250.509 225.158 251.481 225.938 250.509C226.714 249.536 227.815 248.112 227.815 248.112C227.815 248.112 229.111 251.609 231.312 252.645C233.512 253.682 238.826 254.627 239.927 254.38C241.027 254.134 243.51 254.581 243.72 252.645H243.711Z" fill="#FFD3C1"/>
<path d="M236.019 244.697C236.019 244.697 236 244.752 235.932 244.829C235.864 244.907 235.736 245.003 235.553 245.071C235.366 245.14 235.124 245.176 234.845 245.172C234.567 245.172 234.257 245.103 233.923 245.071C233.595 245.039 233.216 245.035 232.896 245.231C232.576 245.427 232.353 245.802 232.047 246.149C231.444 246.824 230.563 247.5 229.449 247.559C228.582 247.605 227.71 247.217 227.281 246.55L227.23 246.473L227.29 246.409C228.331 245.322 229.111 244.291 229.641 243.542C230.166 242.793 230.449 242.327 230.476 242.346C230.486 242.35 230.431 242.474 230.312 242.697C230.193 242.916 230.006 243.236 229.76 243.624C229.262 244.4 228.495 245.459 227.459 246.569L227.472 246.427C227.856 247.012 228.641 247.363 229.44 247.322C230.454 247.272 231.298 246.646 231.887 245.998C232.184 245.678 232.417 245.286 232.8 245.062C233.188 244.834 233.608 244.861 233.946 244.902C234.293 244.948 234.59 245.021 234.855 245.039C235.119 245.058 235.348 245.039 235.526 244.985C235.886 244.879 236.005 244.679 236.023 244.697H236.019Z" fill="#D1967C"/>
<path d="M239.83 252.458C239.802 252.463 239.775 252.253 239.629 251.91C239.492 251.563 239.213 251.098 238.789 250.582C238.369 250.061 237.789 249.495 237.264 248.751C237.008 248.377 236.775 247.943 236.657 247.45C236.529 246.962 236.547 246.418 236.684 245.907C236.821 245.391 237.068 244.921 237.383 244.533C237.542 244.337 237.725 244.149 237.967 244.044C238.209 243.93 238.506 243.948 238.725 244.067C239.181 244.3 239.368 244.761 239.501 245.126C239.629 245.505 239.761 245.839 239.935 246.122C240.272 246.692 240.674 247.067 240.966 247.299C241.259 247.532 241.446 247.628 241.437 247.646C241.432 247.656 241.231 247.587 240.912 247.372C240.597 247.162 240.163 246.793 239.793 246.208C239.606 245.921 239.451 245.565 239.318 245.195C239.186 244.83 238.999 244.442 238.633 244.263C238.455 244.172 238.25 244.163 238.067 244.254C237.88 244.341 237.716 244.501 237.574 244.683C237.282 245.053 237.054 245.496 236.926 245.975C236.798 246.455 236.784 246.952 236.899 247.404C237.004 247.861 237.218 248.272 237.46 248.637C237.958 249.363 238.524 249.943 238.935 250.486C239.355 251.025 239.62 251.522 239.734 251.888C239.798 252.07 239.82 252.216 239.834 252.317C239.848 252.417 239.852 252.467 239.843 252.467L239.83 252.458Z" fill="#D1967C"/>
<path d="M227.475 243.492C227.475 243.524 227.123 243.433 226.772 243.78C226.42 244.117 226.16 244.77 225.9 245.501C225.64 246.231 225.411 246.898 225.22 247.372C225.033 247.847 224.882 248.13 224.85 248.117C224.818 248.103 224.914 247.806 225.06 247.318C225.206 246.829 225.411 246.158 225.676 245.423C225.936 244.697 226.229 244.008 226.658 243.661C226.868 243.483 227.096 243.423 227.251 243.428C227.407 243.433 227.48 243.483 227.475 243.496V243.492Z" fill="#D1967C"/>
<path d="M227.823 243.437C227.823 243.464 227.622 243.506 227.289 243.464C226.96 243.423 226.49 243.273 226.07 242.921H226.221C226.125 243.003 226.024 243.09 225.924 243.177C224.993 243.971 224.203 244.574 224.162 244.524C224.121 244.473 224.838 243.789 225.769 242.999L226.07 242.743L226.148 242.679L226.221 242.743C226.595 243.067 227.015 243.232 227.316 243.314C227.622 243.396 227.819 243.405 227.819 243.437H227.823Z" fill="#D1967C"/>
<path d="M232.973 251.783C232.945 251.769 233.059 251.445 233.32 250.956C233.58 250.468 233.995 249.82 234.552 249.185C235.114 248.55 235.698 248.053 236.15 247.733C236.602 247.414 236.908 247.258 236.926 247.286C236.967 247.345 235.821 248.089 234.73 249.345C233.63 250.587 233.041 251.819 232.973 251.787V251.783Z" fill="#D1967C"/>
<path d="M197.351 227.883C198.319 229.225 198.31 230.887 197.328 231.599C196.347 232.311 194.762 231.8 193.79 230.458C192.822 229.116 192.831 227.454 193.813 226.742C194.794 226.03 196.379 226.541 197.351 227.883Z" fill="white"/>
<defs>
<filter id="filter0_bd_575_815" x="102.898" y="46.085" width="186.352" height="158.829" filterUnits="userSpaceOnUse" color-interpolation-filters="sRGB">
<feFlood flood-opacity="0" result="BackgroundImageFix"/>
<feGaussianBlur in="BackgroundImage" stdDeviation="18.9231"/>
<feComposite in2="SourceAlpha" operator="in" result="effect1_backgroundBlur_575_815"/>
<feColorMatrix in="SourceAlpha" type="matrix" values="0 0 0 0 0 0 0 0 0 0 0 0 0 0 0 0 0 0 127 0" result="hardAlpha"/>
<feOffset dy="10"/>
<feGaussianBlur stdDeviation="20"/>
<feComposite in2="hardAlpha" operator="out"/>
<feColorMatrix type="matrix" values="0 0 0 0 0 0 0 0 0 0 0 0 0 0 0 0 0 0 0.14 0"/>
<feBlend mode="normal" in2="effect1_backgroundBlur_575_815" result="effect2_dropShadow_575_815"/>
<feBlend mode="normal" in="SourceGraphic" in2="effect2_dropShadow_575_815" result="shape"/>
</filter>
<linearGradient id="paint0_linear_575_815" x1="81.8709" y1="194.684" x2="81.8713" y2="215.695" gradientUnits="userSpaceOnUse">
<stop stop-color="white" stop-opacity="0.04"/>
<stop offset="0.992848" stop-color="#0F1D1E"/>
</linearGradient>
<clipPath id="clip0_575_815">
<rect width="281" height="252" fill="white" transform="translate(56 43)"/>
</clipPath>
<clipPath id="clip1_575_815">
<rect width="41.3743" height="80.868" fill="white" transform="translate(61.125 132.85)"/>
</clipPath>
</defs>
</svg>
