<svg width="56" height="78" viewBox="0 0 56 78" fill="none" xmlns="http://www.w3.org/2000/svg">
<path d="M10.168 42.0782V23.2188C10.168 19.6335 11.3043 16.3979 13.3728 14.1243L6.32224 4.94238C2.44732 8.20707 0 13.1041 0 18.5841V46.6837C0 51.2601 1.71895 55.4576 4.57415 58.6057L12.4114 49.9193C10.9547 47.7622 10.168 45.0514 10.168 42.0782Z" fill="#008C99"/>
<path d="M38.1937 0.686523H17.8577C13.4583 0.686523 9.43773 2.28972 6.32031 4.94227L13.3709 14.1242C15.2647 12.0255 17.9451 10.7429 21.2082 10.7429H34.8432C37.9898 10.7429 40.6119 11.9089 42.5639 13.8327L49.5854 4.82568C46.4971 2.23142 42.5348 0.686523 38.1937 0.686523Z" fill="#344170"/>
<path d="M46.15 23.1312V61.637C46.15 61.6953 46.1791 61.7828 46.2374 61.8119C46.2957 61.8411 46.3831 61.8411 46.4413 61.8119C51.7438 58.489 55.9684 52.834 55.9684 46.6253V18.4966C55.9684 13.0165 53.4919 8.11952 49.617 4.82568L42.5664 13.8327C44.8389 16.1355 46.15 19.4293 46.15 23.1312Z" fill="#FCCC3E"/>
<path d="M17.9489 64.6682H31.0012L38.7802 76.9108C38.8093 76.9399 39.1881 77.4937 39.8582 77.4937C39.8873 77.4937 39.9456 77.4937 40.0038 77.4937C40.7613 77.4063 40.9944 76.9691 41.1984 76.4735L43.4126 65.601C43.4126 65.5427 43.4126 65.4844 43.3835 65.4552L36.4203 54.6992C36.3911 54.6409 36.3329 54.6118 36.2455 54.6118H21.2702C17.337 54.6118 14.2779 52.7754 12.3841 49.8896L4.54688 58.6343C7.8391 62.3946 12.5881 64.6682 17.9489 64.6682Z" fill="#A6DCDD"/>
</svg>
