<svg width="157" height="94" viewBox="0 0 157 94" fill="none" xmlns="http://www.w3.org/2000/svg">
<path opacity="0.5" d="M12.8786 50.7843V27.9661C12.8786 23.6282 14.2514 19.7135 16.7506 16.9626L8.23215 5.85327C3.55055 9.80326 0.59375 15.7282 0.59375 22.3586V56.3566C0.59375 61.8937 2.67055 66.9722 6.12015 70.7811L15.589 60.2714C13.829 57.6615 12.8786 54.3816 12.8786 50.7843Z" fill="white"/>
<path d="M46.7432 0.704102H22.1736C16.8584 0.704102 12.0008 2.64383 8.23438 5.85319L16.7528 16.9625C19.0408 14.4232 22.2792 12.8715 26.2216 12.8715H42.6952C46.4968 12.8715 49.6648 14.2822 52.0232 16.6098L60.5064 5.71212C56.7752 2.57329 51.988 0.704102 46.7432 0.704102Z" fill="white"/>
<path opacity="0.75" d="M56.3491 27.8603V74.4489C56.3491 74.5195 56.3843 74.6253 56.4547 74.6605C56.5251 74.6958 56.6307 74.6958 56.7011 74.6605C63.1075 70.64 68.2115 63.7981 68.2115 56.2861V22.2527C68.2115 15.6224 65.2195 9.69741 60.5379 5.71216L52.0195 16.6099C54.7651 19.396 56.3491 23.3813 56.3491 27.8603Z" fill="white"/>
<path opacity="0.25" d="M22.2779 78.1168H38.0475L47.4459 92.9293C47.4811 92.9645 47.9387 93.6346 48.7483 93.6346C48.7835 93.6346 48.8539 93.6346 48.9243 93.6346C49.8395 93.5288 50.1211 92.9998 50.3675 92.4002L53.0427 79.2454C53.0427 79.1748 53.0427 79.1043 53.0075 79.069L44.5947 66.0553C44.5595 65.9847 44.4891 65.9495 44.3835 65.9495H26.2907C21.5387 65.9495 17.8427 63.7276 15.5547 60.2361L6.08594 70.8164C10.0635 75.3659 15.8011 78.1168 22.2779 78.1168Z" fill="white"/>
<path d="M85.0399 12.5188H81.2031V10.3674H91.2703V12.5188H87.3983V24.0513H85.0399V12.5188Z" fill="white"/>
<path d="M92.9609 24.0512V10.4026H95.2489V14.8816C95.8473 14.3878 96.7625 14.141 97.4313 14.141C101.163 14.141 101.55 16.7155 101.55 19.0079V24.0512H99.2617V19.0079C99.2617 17.6325 99.0505 16.0807 97.0793 16.1512C96.2697 16.1865 95.5305 16.6802 95.2489 17.1035V24.0512H92.9609Z" fill="white"/>
<path d="M111.3 22.8169C110.244 23.6986 109.152 24.1923 107.709 24.1923C103.978 24.1923 102.852 21.2651 102.852 19.1843C102.852 17.1388 103.978 14.1763 107.709 14.1763C110.279 14.1763 111.687 15.8339 111.687 18.3379C111.687 18.7611 111.652 19.2548 111.546 19.8544H105.175C105.316 20.8066 105.879 22.1468 107.674 22.1468C108.554 22.1468 109.469 21.8646 110.173 21.3356L111.3 22.8169ZM105.28 17.9852H109.469C109.504 17.174 109.082 16.1865 107.674 16.116C106.125 16.1513 105.527 17.0682 105.28 17.9852Z" fill="white"/>
<path d="M91.4812 41.5089C91.4812 43.6602 89.4044 45.3531 86.5884 45.3531C84.5468 45.3531 83.1036 44.8946 81.4844 44.0482L82.3996 42.1084C83.6668 42.708 85.0044 43.1665 86.4124 43.1665C87.75 43.1665 88.982 42.5316 88.982 41.4736C88.982 38.229 81.6604 39.9924 81.6604 35.1607C81.6604 32.7272 83.4908 31.2812 86.0252 31.2812C86.7996 31.2812 88.6652 31.4223 90.8476 32.4451L89.9676 34.4553C89.0172 34.0674 87.2924 33.5384 86.4476 33.5384C85.1452 33.5384 84.1596 33.7853 84.054 35.0196C84.1244 37.7705 91.4812 36.1835 91.4812 41.5089Z" fill="white"/>
<path d="M102.746 40.2745C102.746 42.3905 101.62 45.3178 97.8888 45.3178C94.1576 45.3178 93.0312 42.3905 93.0312 40.2745C93.0312 38.229 94.1576 35.2312 97.8888 35.2312C101.62 35.2312 102.746 38.229 102.746 40.2745ZM100.458 40.2745C100.458 39.4986 100.142 37.2415 97.8888 37.2415C95.636 37.2415 95.3193 39.5339 95.3193 40.2745C95.3193 41.0151 95.636 43.3075 97.8888 43.3075C100.142 43.3075 100.458 41.0504 100.458 40.2745Z" fill="white"/>
<path d="M113.093 43.4485C112.107 44.577 110.946 45.3177 109.221 45.3177C105.49 45.3177 104.293 42.3904 104.293 40.3449C104.293 38.1936 105.279 35.2664 109.151 35.2664C110.805 35.2664 111.967 36.0422 112.917 37.0297L111.579 38.511C110.981 37.8409 110.031 37.3472 109.151 37.3472C107.496 37.3472 106.581 38.8284 106.581 40.3096C106.581 42.1436 107.813 43.0958 109.186 43.0958C109.89 43.0958 110.77 42.7784 111.509 42.0378L113.093 43.4485Z" fill="white"/>
<path d="M116.193 30.999C116.932 30.999 117.531 31.5986 117.531 32.3392C117.531 33.1151 116.932 33.6794 116.193 33.6794C115.419 33.6794 114.855 33.1151 114.855 32.3392C114.891 31.5986 115.454 30.999 116.193 30.999ZM117.355 45.1766H115.031V35.4075H117.355V45.1766Z" fill="white"/>
<path d="M127.104 39.3927V45.1766H125.555L125.308 44.4008C124.534 45.0356 123.548 45.353 122.739 45.353C119.747 45.353 119.254 43.2722 119.254 42.3552C119.254 39.7454 121.331 39.1811 123.337 39.1811C123.83 39.1811 124.323 39.2517 124.745 39.2869V39.1106C124.71 37.5235 124.217 37.2414 123.161 37.2414C122.668 37.2414 121.471 37.5236 120.521 37.9115L119.817 36.2186C120.943 35.6544 122 35.3017 123.056 35.2311C126.822 35.0548 127.104 37.3119 127.104 39.3927ZM124.78 41.1209C124.464 41.0856 124.006 41.015 123.548 41.015C122.563 41.015 121.436 41.2267 121.436 42.1789C121.436 43.0253 122.07 43.4133 122.809 43.4133C123.759 43.4133 124.463 42.7784 124.745 42.2847V41.1209H124.78Z" fill="white"/>
<path d="M131.784 45.1765H129.461V31.4927H131.784V45.1765Z" fill="white"/>
<path d="M95.0011 59.4249C95.0011 61.3999 94.2971 63.9039 92.2203 65.3146L95.3531 69.053V69.1588H92.5723L90.0731 66.2315C89.5803 66.3373 88.9115 66.4079 88.2779 66.4079C83.0683 66.4079 81.5195 62.3168 81.5195 59.3896C81.5195 56.5329 83.0683 52.3713 88.2779 52.3713C93.4523 52.4419 95.0011 56.6035 95.0011 59.4249ZM92.5723 59.4249C92.5723 58.2258 92.0091 54.5932 88.2779 54.5932C84.4763 54.5932 83.9483 58.1905 83.9483 59.4249C83.9483 60.6593 84.5115 64.2918 88.2779 64.2918C92.0443 64.2918 92.5723 60.6593 92.5723 59.4249Z" fill="white"/>
<path d="M103.027 56.4976H105.315V66.2667H103.802L103.52 65.4908C102.746 66.0904 101.795 66.4078 100.845 66.4078C97.1842 66.4078 96.6914 63.798 96.6914 61.5408V56.4976H99.0146V61.5408C99.0146 62.7399 99.2258 64.3975 100.915 64.3975C101.866 64.3975 102.64 63.8685 102.992 63.3395V56.4976H103.027Z" fill="white"/>
<path d="M115.452 65.0324C114.396 65.9141 113.305 66.4079 111.862 66.4079C108.13 66.4079 107.004 63.4807 107.004 61.3999C107.004 59.3543 108.13 56.3918 111.862 56.3918C114.431 56.3918 115.839 58.0494 115.839 60.5534C115.839 60.9766 115.804 61.4704 115.698 62.0699H109.327C109.468 63.0222 110.031 64.3624 111.826 64.3624C112.706 64.3624 113.622 64.0802 114.326 63.5512L115.452 65.0324ZM109.468 60.236H113.657C113.692 59.4249 113.27 58.4374 111.862 58.3668C110.278 58.4021 109.714 59.3191 109.468 60.236Z" fill="white"/>
<path d="M124.537 63.5512C124.537 65.2793 122.988 66.4431 120.946 66.4431C119.433 66.4431 118.377 66.0905 117.109 65.3851L117.954 63.6217C118.905 64.1155 119.89 64.4682 120.805 64.4682C121.545 64.4682 122.178 64.1155 122.178 63.5865C122.178 61.8231 117.321 62.74 117.321 59.3191C117.321 57.4851 118.623 56.3918 120.559 56.3918C121.122 56.3918 122.53 56.4976 124.22 57.3441L123.375 59.178C122.601 58.8253 121.545 58.4726 120.911 58.4726C120.207 58.4726 119.573 58.649 119.538 59.2485C119.573 60.624 124.537 59.9892 124.537 63.5512Z" fill="white"/>
<path d="M125.133 58.508V56.533H126.189L126.4 54.5933H128.512V56.533H130.413V58.508H128.512V63.5513C128.512 64.045 128.582 64.5035 129.216 64.433C129.427 64.3977 129.885 64.3272 130.589 64.1508L130.976 65.9847C129.779 66.3374 128.829 66.4079 128.406 66.4079C126.4 66.4079 126.189 64.5388 126.189 63.8687V58.508H125.133Z" fill="white"/>
<path d="M133.088 52.1245C133.827 52.1245 134.425 52.7241 134.425 53.4647C134.425 54.2406 133.827 54.8049 133.088 54.8049C132.313 54.8049 131.75 54.2406 131.75 53.4647C131.785 52.7241 132.348 52.1245 133.088 52.1245ZM134.249 66.3021H131.926V56.533H134.249V66.3021Z" fill="white"/>
<path d="M145.899 61.3997C145.899 63.5158 144.772 66.443 141.041 66.443C137.31 66.443 136.184 63.5158 136.184 61.3997C136.184 59.3542 137.31 56.3564 141.041 56.3564C144.772 56.3564 145.899 59.3542 145.899 61.3997ZM143.611 61.3997C143.611 60.6238 143.294 58.3667 141.041 58.3667C138.788 58.3667 138.472 60.6591 138.472 61.3997C138.472 62.1404 138.788 64.4328 141.041 64.4328C143.294 64.4328 143.611 62.1404 143.611 61.3997Z" fill="white"/>
<path d="M150.159 66.3021H147.871V56.5329H149.385L149.666 57.3088C150.441 56.7093 151.391 56.3918 152.341 56.3918C156.002 56.3918 156.495 59.0017 156.495 61.2588V66.3021H154.172V61.2588C154.172 60.0597 153.961 58.4021 152.271 58.4021C151.321 58.4021 150.546 58.9311 150.194 59.4601V66.3021H150.159Z" fill="white"/>
</svg>
