<svg width="635" height="638" viewBox="0 0 635 638" fill="none" xmlns="http://www.w3.org/2000/svg">
<circle cx="263.922" cy="315.347" r="263" fill="#FCCC3E"/>
<path d="M196.473 160.461L170.634 147.589L172.406 176.402L196.473 160.461ZM113.942 220.547C116.51 209.098 120.934 196.651 129.984 186.284C138.988 175.969 152.749 167.509 174.385 164.315L173.655 159.368C150.971 162.717 136.085 171.691 126.217 182.996C116.394 194.249 111.719 207.61 109.063 219.453L113.942 220.547Z" fill="#344170"/>
<g clip-path="url(#clip0_575_427)">
<g filter="url(#filter0_bd_575_427)">
<path d="M402.751 50.314H211.379C208.065 50.314 205.379 53.0003 205.379 56.314V180.054C205.379 183.368 208.065 186.054 211.379 186.054H402.751C406.065 186.054 408.751 183.368 408.751 180.054V56.314C408.751 53.0003 406.065 50.314 402.751 50.314Z" fill="#F5F5F5"/>
<path d="M211.379 50.814H402.751C405.789 50.814 408.251 53.2764 408.251 56.314V180.054C408.251 183.091 405.789 185.554 402.751 185.554H211.379C208.341 185.554 205.879 183.091 205.879 180.054V56.314C205.879 53.2764 208.341 50.814 211.379 50.814Z" stroke="black"/>
</g>
<mask id="mask0_575_427" style="mask-type:alpha" maskUnits="userSpaceOnUse" x="205" y="49" width="205" height="138">
<path d="M402.872 50.314H211.5C208.186 50.314 205.5 53.0003 205.5 56.314V180.054C205.5 183.368 208.186 186.054 211.5 186.054H402.872C406.186 186.054 408.872 183.368 408.872 180.054V56.314C408.872 53.0003 406.186 50.314 402.872 50.314Z" fill="#F5F5F5" stroke="black"/>
</mask>
<g mask="url(#mask0_575_427)">
<path d="M402.813 51.2744H211.386C208.232 51.2744 205.824 54.0925 206.317 57.2078H407.813V56.2744C407.813 53.513 405.575 51.2744 402.813 51.2744Z" fill="#060000"/>
<path d="M211.441 53.9983C211.443 54.2956 211.356 54.5866 211.192 54.8343C211.027 55.0821 210.793 55.2754 210.519 55.3898C210.244 55.5042 209.942 55.5345 209.65 55.4769C209.359 55.4192 209.091 55.2762 208.881 55.066C208.671 54.8558 208.528 54.5879 208.47 54.2963C208.412 54.0047 208.443 53.7025 208.557 53.4281C208.671 53.1537 208.865 52.9195 209.112 52.7552C209.36 52.591 209.651 52.504 209.948 52.5054C210.344 52.5054 210.724 52.6627 211.004 52.9427C211.284 53.2226 211.441 53.6024 211.441 53.9983Z" fill="#C7C7C7"/>
<path d="M215.723 53.9983C215.724 54.2956 215.637 54.5866 215.473 54.8343C215.308 55.0821 215.074 55.2754 214.8 55.3898C214.526 55.5042 214.223 55.5345 213.932 55.4769C213.64 55.4192 213.372 55.2762 213.162 55.066C212.952 54.8558 212.809 54.5879 212.751 54.2963C212.693 54.0047 212.724 53.7025 212.838 53.4281C212.953 53.1537 213.146 52.9195 213.394 52.7552C213.641 52.591 213.932 52.504 214.23 52.5054C214.626 52.5054 215.005 52.6627 215.285 52.9427C215.565 53.2226 215.723 53.6024 215.723 53.9983Z" fill="white"/>
<path d="M218.508 55.5054C219.336 55.5054 220.008 54.8338 220.008 54.0054C220.008 53.1769 219.336 52.5054 218.508 52.5054C217.679 52.5054 217.008 53.1769 217.008 54.0054C217.008 54.8338 217.679 55.5054 218.508 55.5054Z" fill="#FFC727"/>
<path d="M407.816 57.208H206.316V67.9086H407.816V57.208Z" fill="#008C99"/>
<path d="M407.773 67.9082H206.344V76.6819H407.773V67.9082Z" fill="#88D0D1"/>
<path d="M211.864 60.4004H207.922V64.5558H211.864V60.4004Z" fill="white"/>
<path d="M316.768 60.4004H215.043V62.4755H316.768V60.4004Z" fill="white"/>
<path d="M211.864 69.1772H207.922V73.3327H211.864V69.1772Z" fill="#DBDBDB"/>
<path d="M213.7 71.2578H209.758V75.4132H213.7V71.2578Z" fill="white"/>
<path d="M263.171 69.1772H221.309V71.2524H263.171V69.1772Z" fill="white"/>
<path d="M229.548 73.333H221.309V75.4081H229.548V73.333Z" fill="white"/>
<path d="M240.759 73.333H232.52V75.4081H240.759V73.333Z" fill="white"/>
<path d="M251.966 73.333H243.727V75.4081H251.966V73.333Z" fill="white"/>
<path d="M263.177 73.333H254.938V75.4081H263.177V73.333Z" fill="white"/>
<path d="M270.697 69.1772H266.188V71.2524H270.697V69.1772Z" fill="white"/>
<path d="M270.697 73.333H266.188V75.4081H270.697V73.333Z" fill="white"/>
<path d="M276.684 69.1772H274.43V71.2524H276.684V69.1772Z" fill="white"/>
<path d="M276.684 73.333H274.43V75.4081H276.684V73.333Z" fill="white"/>
<path d="M282.685 69.1772H278.27V71.2524H282.685V69.1772Z" fill="white"/>
<path d="M282.685 73.333H278.27V75.4081H282.685V73.333Z" fill="white"/>
<path d="M317.088 69.1772H284.797V71.2524H317.088V69.1772Z" fill="white"/>
<path d="M317.088 73.333H284.797V75.4081H317.088V73.333Z" fill="white"/>
<path d="M325.989 69.1772H320.078V75.4078H325.989V69.1772Z" fill="white"/>
<path d="M335.051 69.1772H329.141V75.4078H335.051V69.1772Z" fill="white"/>
<path d="M344.11 69.1772H338.199V75.4078H344.11V69.1772Z" fill="white"/>
<path d="M353.172 69.1772H347.262V75.4078H353.172V69.1772Z" fill="white"/>
<path d="M362.235 69.1772H356.324V75.4078H362.235V69.1772Z" fill="white"/>
<path d="M404.981 69.1772H399.07V70.4046H404.981V69.1772Z" fill="white"/>
<path d="M404.981 71.6841H399.07V72.9115H404.981V71.6841Z" fill="white"/>
<path d="M404.981 74.1855H399.07V75.4129H404.981V74.1855Z" fill="white"/>
<path opacity="0.3" d="M315.133 103.508H294.48V110.212H315.133V103.508Z" fill="white"/>
<path opacity="0.5" d="M211.86 76.6821H206.395V180.007C206.395 182.769 208.633 185.007 211.395 185.007H211.86V76.6821Z" fill="#AFE9EA"/>
<path opacity="0.5" d="M211.859 76.6868V83.3906L407.771 83.3906V76.6868L211.859 76.6868Z" fill="#AFE9EA"/>
<path d="M211.863 76.708C211.997 77.8205 212.059 78.9412 212.05 80.0625C212.059 81.1838 211.997 82.3045 211.863 83.417C211.733 82.3042 211.672 81.1837 211.68 80.0625C211.672 78.9414 211.733 77.8208 211.863 76.708Z" fill="white"/>
<path d="M232.513 76.708C232.642 77.8208 232.703 78.9414 232.695 80.0625C232.704 81.175 232.644 82.287 232.513 83.391C232.379 82.2785 232.316 81.1578 232.325 80.0365C232.32 78.9239 232.382 77.8121 232.513 76.708Z" fill="white"/>
<path d="M253.172 76.708C253.305 77.8205 253.368 78.9412 253.359 80.0625C253.368 81.1838 253.305 82.3045 253.172 83.417C253.042 82.3042 252.981 81.1837 252.989 80.0625C252.981 78.9414 253.042 77.8208 253.172 76.708Z" fill="white"/>
<path d="M273.829 76.708C273.959 77.8208 274.02 78.9414 274.011 80.0625C274.022 81.1837 273.961 82.3044 273.829 83.417C273.695 82.3045 273.633 81.1838 273.641 80.0625C273.635 78.9412 273.698 77.8207 273.829 76.708Z" fill="white"/>
<path d="M294.479 76.708C294.614 77.8116 294.68 78.9236 294.676 80.0365C294.685 81.1578 294.622 82.2785 294.488 83.391C294.359 82.2782 294.298 81.1576 294.306 80.0365C294.296 78.9242 294.353 77.8124 294.479 76.708Z" fill="white"/>
<path d="M315.138 76.708C315.267 77.8208 315.328 78.9414 315.32 80.0625C315.328 81.1837 315.267 82.3042 315.138 83.417C315.004 82.3045 314.941 81.1838 314.95 80.0625C314.944 78.9412 315.006 77.8207 315.138 76.708Z" fill="white"/>
<path d="M335.79 76.708C335.924 77.8205 335.987 78.9412 335.978 80.0625C335.987 81.1838 335.924 82.3045 335.79 83.417C335.666 82.2951 335.612 81.1659 335.628 80.0365C335.614 78.9245 335.668 77.8127 335.79 76.708Z" fill="white"/>
<path d="M356.446 76.708C356.576 77.8208 356.637 78.9414 356.629 80.0625C356.637 81.1837 356.576 82.3042 356.446 83.417C356.312 82.3045 356.25 81.1838 356.259 80.0625C356.252 78.9412 356.315 77.8207 356.446 76.708Z" fill="white"/>
<path d="M377.101 76.708C377.235 77.8205 377.298 78.9412 377.289 80.0625C377.298 81.1838 377.235 82.3045 377.101 83.417C376.972 82.3042 376.911 81.1837 376.919 80.0625C376.911 78.9414 376.972 77.8208 377.101 76.708Z" fill="white"/>
<path d="M397.759 76.708C397.888 77.8208 397.949 78.9414 397.941 80.0625C397.949 81.1837 397.888 82.3042 397.759 83.417C397.625 82.3045 397.562 81.1838 397.571 80.0625C397.562 78.9412 397.625 77.8205 397.759 76.708Z" fill="white"/>
<path d="M206.367 83.3909C207.279 83.25 208.197 83.1839 209.115 83.1933C210.032 83.1838 210.949 83.2498 211.859 83.3909C210.949 83.5277 210.032 83.592 209.115 83.5833C208.197 83.5918 207.279 83.5276 206.367 83.3909Z" fill="white"/>
<path d="M206.367 90.095C207.279 89.9584 208.197 89.8941 209.115 89.9026C210.032 89.8914 210.949 89.9557 211.859 90.095C210.949 90.2344 210.032 90.2987 209.115 90.2875C208.197 90.2986 207.279 90.2343 206.367 90.095Z" fill="white"/>
<path d="M206.367 96.7987C207.279 96.662 208.197 96.5977 209.115 96.6062C210.032 96.5976 210.949 96.6619 211.859 96.7987C210.949 96.938 210.032 97.0023 209.115 96.9911C208.197 97.0022 207.279 96.9379 206.367 96.7987Z" fill="white"/>
<path d="M206.367 103.508C207.279 103.369 208.197 103.303 209.115 103.31C210.032 103.3 210.949 103.367 211.859 103.508C210.949 103.647 210.032 103.711 209.115 103.7C208.197 103.709 207.279 103.644 206.367 103.508Z" fill="white"/>
<path d="M206.367 110.211C207.279 110.075 208.197 110.01 209.115 110.019C210.032 110.01 210.949 110.074 211.859 110.211C210.949 110.352 210.032 110.418 209.115 110.409C208.197 110.418 207.279 110.352 206.367 110.211Z" fill="white"/>
<path d="M206.367 116.92C207.279 116.782 208.197 116.716 209.115 116.723C210.032 116.713 210.949 116.779 211.859 116.92C210.949 117.057 210.032 117.121 209.115 117.113C208.197 117.121 207.279 117.057 206.367 116.92Z" fill="white"/>
<path d="M206.367 123.624C207.279 123.488 208.197 123.423 209.115 123.432C210.032 123.423 210.949 123.488 211.859 123.624C210.949 123.765 210.032 123.831 209.115 123.822C208.197 123.829 207.279 123.763 206.367 123.624Z" fill="white"/>
<path d="M206.367 130.333C207.279 130.192 208.197 130.126 209.115 130.136C210.032 130.126 210.949 130.192 211.859 130.333C210.949 130.47 210.032 130.534 209.115 130.526C208.197 130.534 207.279 130.47 206.367 130.333Z" fill="white"/>
<path d="M206.367 137.037C207.279 136.901 208.197 136.837 209.115 136.845C210.032 136.834 210.949 136.898 211.859 137.037C210.949 137.179 210.032 137.245 209.115 137.235C208.197 137.242 207.279 137.176 206.367 137.037Z" fill="white"/>
<path d="M206.367 143.746C207.279 143.605 208.197 143.539 209.115 143.549C210.032 143.539 210.949 143.605 211.859 143.746C210.949 143.883 210.032 143.947 209.115 143.939C208.197 143.947 207.279 143.883 206.367 143.746Z" fill="white"/>
<path d="M206.367 150.45C207.279 150.313 208.197 150.249 209.115 150.257C210.032 150.246 210.949 150.31 211.859 150.45C210.949 150.589 210.032 150.653 209.115 150.642C208.197 150.65 207.279 150.586 206.367 150.45Z" fill="white"/>
<path d="M206.367 157.154C207.279 157.017 208.197 156.953 209.115 156.961C210.032 156.953 210.949 157.017 211.859 157.154C210.949 157.295 210.032 157.361 209.115 157.351C208.197 157.361 207.279 157.295 206.367 157.154Z" fill="white"/>
<path d="M206.367 163.863C207.279 163.724 208.197 163.658 209.115 163.665C210.032 163.655 210.949 163.721 211.859 163.863C210.949 164.011 210.033 164.084 209.115 164.081C208.196 164.081 207.278 164.008 206.367 163.863Z" fill="white"/>
<path d="M206.367 170.566C207.279 170.43 208.197 170.365 209.115 170.374C210.032 170.365 210.949 170.429 211.859 170.566C210.949 170.707 210.032 170.773 209.115 170.764C208.197 170.773 207.279 170.707 206.367 170.566Z" fill="white"/>
<path d="M206.367 177.275C207.279 177.139 208.197 177.074 209.115 177.083C210.032 177.073 210.949 177.139 211.859 177.281C210.949 177.417 210.032 177.482 209.115 177.473C208.197 177.48 207.279 177.414 206.367 177.275Z" fill="white"/>
<path d="M232.52 83.3906L232.608 96.2209L232.643 109.056L232.702 134.722L232.643 160.388L232.608 173.218L232.52 186.054L232.431 173.218L232.396 160.388L232.332 134.722L232.396 109.056L232.431 96.2209L232.52 83.3906Z" fill="#DED9D9"/>
<path d="M253.171 83.3906L253.265 96.2209L253.294 109.056L253.358 134.722L253.294 160.388L253.265 173.218L253.171 186.054L253.082 173.218L253.047 160.388L252.988 134.722L253.052 109.056L253.082 96.2209L253.171 83.3906Z" fill="#DED9D9"/>
<path d="M273.828 83.3906L273.917 96.2209L273.951 109.056L274.011 134.722L273.951 160.388L273.917 173.218L273.828 186.054L273.739 173.218L273.705 160.388L273.641 134.722L273.705 109.056L273.739 96.2209L273.828 83.3906Z" fill="#DED9D9"/>
<path d="M294.479 83.3906L294.573 96.2209L294.603 109.056L294.667 134.722L294.603 160.388L294.573 173.218L294.479 186.054L294.391 173.218L294.356 160.388L294.297 134.722L294.356 109.056L294.391 96.2209L294.479 83.3906Z" fill="#DED9D9"/>
<path d="M315.141 83.3906L315.229 96.2209L315.264 109.056L315.323 134.722L315.264 160.388L315.229 173.218L315.141 186.054L315.047 173.218L315.017 160.388L314.953 134.722L315.017 109.056L315.052 96.2209L315.141 83.3906Z" fill="#DED9D9"/>
<path d="M335.792 83.3906L335.881 96.2209L335.915 109.056L335.979 134.722L335.915 160.388L335.886 173.218L335.792 186.054L335.703 173.218L335.669 160.388L335.609 134.722L335.669 109.056L335.703 96.2209L335.792 83.3906Z" fill="#DED9D9"/>
<path d="M356.449 83.3906L356.538 96.2209L356.573 109.056L356.632 134.722L356.573 160.388L356.538 173.218L356.449 186.054L356.355 173.218L356.326 160.388L356.262 134.722L356.326 109.056L356.355 96.2209L356.449 83.3906Z" fill="#DED9D9"/>
<path d="M377.101 83.3906L377.194 96.2209L377.224 109.056L377.288 134.722L377.224 160.388L377.194 173.218L377.101 186.054L377.012 173.218L376.977 160.388L376.918 134.722L376.977 109.056L377.012 96.2209L377.101 83.3906Z" fill="#DED9D9"/>
<path d="M397.758 83.3906L397.847 96.2209L397.881 109.056L397.94 134.722L397.881 160.388L397.847 173.218L397.758 186.054L397.664 173.218L397.634 160.388L397.57 134.722L397.634 109.056L397.669 96.2209L397.758 83.3906Z" fill="#DED9D9"/>
<path d="M211.789 83.391L236.423 83.2922L261.062 83.261L310.33 83.1934L359.603 83.261L384.237 83.2922L408.876 83.391L384.237 83.4846L359.603 83.5158L310.33 83.5834L261.062 83.5158L236.423 83.4846L211.789 83.391Z" fill="#DED8D8"/>
<path d="M211.789 90.0948L236.423 90.0012L261.062 89.9648L310.33 89.9023L359.603 89.9648L384.237 90.0012L408.876 90.0948L384.237 90.1884L359.603 90.2248L310.33 90.2872L261.062 90.2248L236.423 90.1884L211.789 90.0948Z" fill="#DED8D8"/>
<path d="M211.789 96.8041L236.423 96.7053L261.062 96.6741L310.33 96.6064L359.603 96.6741L384.237 96.7053L408.876 96.8041L384.237 96.8977L359.603 96.9289L310.33 96.9965L261.062 96.9289L236.423 96.8977L211.789 96.8041Z" fill="#DED8D8"/>
<path d="M211.789 103.508L236.423 103.414L261.062 103.378L310.33 103.315L359.603 103.378L384.237 103.414L408.876 103.508L384.237 103.601L359.603 103.638L310.33 103.7L261.062 103.638L236.423 103.601L211.789 103.508Z" fill="#DED8D8"/>
<path d="M211.789 110.211L236.423 110.117L261.062 110.081L310.33 110.019L359.603 110.081L384.237 110.117L408.876 110.211L384.237 110.31L359.603 110.341L310.33 110.409L261.062 110.341L236.423 110.31L211.789 110.211Z" fill="#DED8D8"/>
<path d="M211.789 116.92L236.423 116.827L261.062 116.79L310.33 116.723L359.603 116.79L384.237 116.821L408.876 116.92L384.237 117.014L359.603 117.05L310.33 117.113L261.062 117.05L236.423 117.014L211.789 116.92Z" fill="#DED8D8"/>
<path d="M211.789 123.624L236.423 123.53L261.062 123.494L310.33 123.432L359.603 123.494L384.237 123.53L408.876 123.624L384.237 123.723L359.603 123.754L310.33 123.822L261.062 123.754L236.423 123.723L211.789 123.624Z" fill="#DED8D8"/>
<path d="M211.789 130.333L236.423 130.235L261.062 130.203L310.33 130.136L359.603 130.203L384.237 130.235L408.876 130.333L384.237 130.427L359.603 130.463L310.33 130.526L261.062 130.458L236.423 130.427L211.789 130.333Z" fill="#DED8D8"/>
<path d="M211.789 137.037L236.423 136.944L261.062 136.907L310.33 136.845L359.603 136.907L384.237 136.944L408.876 137.037L384.237 137.136L359.603 137.167L310.33 137.235L261.062 137.167L236.423 137.131L211.789 137.037Z" fill="#DED8D8"/>
<path d="M211.789 143.746L236.423 143.647L261.062 143.616L310.33 143.548L359.603 143.616L384.237 143.647L408.876 143.746L384.237 143.84L359.603 143.876L310.33 143.938L261.062 143.871L236.423 143.84L211.789 143.746Z" fill="#DED8D8"/>
<path d="M211.789 150.45L236.423 150.356L261.062 150.32L310.33 150.257L359.603 150.32L384.237 150.356L408.876 150.45L384.237 150.543L359.603 150.58L310.33 150.642L261.062 150.58L236.423 150.543L211.789 150.45Z" fill="#DED8D8"/>
<path d="M211.789 157.153L236.423 157.06L261.062 157.029L310.33 156.961L359.603 157.029L384.237 157.06L408.876 157.153L384.237 157.252L359.603 157.283L310.33 157.351L261.062 157.283L236.423 157.252L211.789 157.153Z" fill="#DED8D8"/>
<path d="M211.789 163.862L236.423 163.769L261.062 163.732L310.33 163.67L359.603 163.732L384.237 163.769L408.876 163.862L384.237 163.956L359.603 163.992L310.33 164.055L261.062 163.992L236.423 163.956L211.789 163.862Z" fill="#DED8D8"/>
<path d="M211.789 170.566L236.423 170.473L261.062 170.436L310.33 170.374L359.603 170.436L384.237 170.473L408.876 170.566L384.237 170.665L359.603 170.696L310.33 170.764L261.062 170.696L236.423 170.665L211.789 170.566Z" fill="#DED8D8"/>
<path d="M211.789 177.276L236.423 177.182L261.062 177.146L310.33 177.078L359.603 177.146L384.237 177.177L408.876 177.276L384.237 177.369L359.603 177.406L310.33 177.468L261.062 177.406L236.423 177.369L211.789 177.276Z" fill="#DED8D8"/>
<path d="M211.789 183.979L236.423 183.885L261.062 183.849L310.33 183.787L359.603 183.849L384.237 183.885L408.876 183.979L384.237 184.078L359.603 184.109L310.33 184.177L261.062 184.109L236.423 184.073L211.789 183.979Z" fill="#EBEBEB"/>
<path d="M211.82 83.3861V96.7988L407.772 96.7988V83.3861L211.82 83.3861Z" fill="#88D0D1"/>
<path d="M217.586 100.64H311.683" stroke="#ACC2C2" stroke-width="1.3" stroke-linecap="round" stroke-linejoin="round"/>
<path d="M217.766 107.234H396.134" stroke="#ACC2C2" stroke-width="1.3" stroke-linecap="round" stroke-linejoin="round"/>
<path d="M217.766 113.576H396.134" stroke="#ACC2C2" stroke-width="1.3" stroke-linecap="round" stroke-linejoin="round"/>
<path d="M217.766 152.835H396.134" stroke="#ACC2C2" stroke-width="1.3" stroke-linecap="round" stroke-linejoin="round"/>
<path d="M217.766 120.17H396.134" stroke="#ACC2C2" stroke-width="1.3" stroke-linecap="round" stroke-linejoin="round"/>
<path d="M217.766 159.43H396.134" stroke="#ACC2C2" stroke-width="1.3" stroke-linecap="round" stroke-linejoin="round"/>
<path d="M217.766 127.019H396.134" stroke="#ACC2C2" stroke-width="1.3" stroke-linecap="round" stroke-linejoin="round"/>
<path d="M217.766 166.278H396.134" stroke="#ACC2C2" stroke-width="1.3" stroke-linecap="round" stroke-linejoin="round"/>
<path d="M217.766 133.613H268.441" stroke="#ACC2C2" stroke-width="1.3" stroke-linecap="round" stroke-linejoin="round"/>
<path d="M217.766 139.927H268.441" stroke="#ACC2C2" stroke-width="1.3" stroke-linecap="round" stroke-linejoin="round"/>
<path d="M217.766 173.769H326.458" stroke="#ACC2C2" stroke-width="1.3" stroke-linecap="round" stroke-linejoin="round"/>
</g>
</g>
<path d="M48.4927 574.613H64.1474L106.53 574.804L169.594 575.059L245.959 575.441L330.215 575.822L414.662 576.204L493.954 576.586L560.518 576.904L608.692 577.095C616.265 577.159 623.838 577.286 631.41 577.222H632.365C634.465 577.222 634.465 574.041 632.365 574.041H616.71L574.328 573.85L511.263 573.531L434.898 573.15L350.643 572.768L266.196 572.386L186.904 572.068L120.339 571.75L72.1657 571.495C64.5929 571.495 57.0201 571.304 49.4472 571.431H48.4927C46.4563 571.368 46.3926 574.55 48.4927 574.613Z" fill="#102A54"/>
<path d="M326.526 596.123L317.68 595.105L296.362 592.75L270.652 589.886L248.379 587.405L241.124 586.577C239.965 586.387 238.797 586.26 237.624 586.195H237.433C236.861 586.132 236.861 587.086 237.433 587.15L246.279 588.168L267.598 590.523L293.307 593.386L315.644 595.932L322.898 596.696C324.057 596.886 325.226 597.013 326.398 597.077H326.526C327.162 597.141 327.162 596.187 326.526 596.123Z" fill="#102A54"/>
<path d="M326.525 600.068L317.68 599.05L296.361 596.568L270.652 593.577L248.379 590.968L241.124 590.141C239.965 589.951 238.797 589.823 237.624 589.759H237.497C236.86 589.695 236.86 590.65 237.497 590.713L246.342 591.732L267.597 594.214L293.307 597.204L315.58 599.814L322.898 600.641C324.044 600.768 325.189 601.023 326.335 601.086H326.525C327.098 601.15 327.098 600.195 326.525 600.132V600.068Z" fill="#102A54"/>
<path d="M320.988 608.341L312.206 607.005L291.014 603.823L265.432 599.941L243.223 596.568C239.659 595.995 236.095 595.359 232.532 594.914H232.404C231.768 594.786 231.513 595.741 232.15 595.804L240.932 597.141L262.123 600.386L287.705 604.268L309.851 607.641C313.478 608.15 317.042 608.85 320.606 609.296H320.733C321.369 609.359 321.624 608.468 320.988 608.341Z" fill="#102A54"/>
<path d="M281.98 612.223L266.389 610.569L241.571 607.896L235.907 607.323C235.271 607.26 235.271 608.214 235.907 608.278L251.498 609.933L276.317 612.605L281.98 613.178C282.617 613.242 282.617 612.287 281.98 612.223Z" fill="#102A54"/>
<path d="M232.406 618.269L246.851 612.223L269.888 602.487L275.106 600.323C275.679 600.068 275.424 599.177 274.852 599.368L260.406 605.478L237.369 615.15L232.151 617.378C231.578 617.569 231.833 618.523 232.406 618.269Z" fill="#102A54"/>
<path d="M205.105 616.232L219.55 610.123L242.587 600.45L247.869 598.223C248.378 598.032 248.187 597.077 247.614 597.332L233.169 603.377L210.132 613.114L204.85 615.278C204.277 615.532 204.532 616.423 205.105 616.232Z" fill="#102A54"/>
<path d="M346.147 598.22L247.328 629.757L248.462 633.31L347.28 601.773L346.147 598.22Z" fill="white"/>
<path d="M246.853 629.85L247.999 633.414C248.013 633.474 248.04 633.53 248.077 633.579C248.115 633.628 248.162 633.669 248.216 633.699C248.269 633.729 248.329 633.747 248.39 633.753C248.451 633.759 248.513 633.752 248.572 633.732L258.435 630.614L282.045 623.105L310.618 613.941L335.309 606.114L343.391 603.505L347.209 602.295H347.4C347.46 602.281 347.516 602.254 347.565 602.217C347.614 602.18 347.655 602.133 347.685 602.079C347.715 602.025 347.733 601.966 347.739 601.904C347.745 601.843 347.738 601.781 347.719 601.723L346.573 598.159C346.559 598.099 346.532 598.043 346.495 597.994C346.457 597.945 346.41 597.904 346.356 597.874C346.303 597.845 346.243 597.826 346.182 597.82C346.121 597.815 346.059 597.822 346 597.841L336.2 600.959L312.591 608.405L284.018 617.568L259.326 625.396L251.244 628.005L247.363 629.214H247.235C247.158 629.215 247.082 629.234 247.013 629.269C246.944 629.304 246.884 629.354 246.837 629.416C246.791 629.478 246.759 629.549 246.744 629.625C246.729 629.701 246.732 629.78 246.752 629.854C246.771 629.929 246.808 629.998 246.859 630.057C246.91 630.115 246.973 630.161 247.044 630.191C247.115 630.222 247.192 630.235 247.27 630.232C247.347 630.228 247.422 630.206 247.49 630.169L257.29 626.987L280.899 619.478L309.473 610.377L334.164 602.486L342.246 599.877L344.791 599.05C345.245 598.952 345.691 598.825 346.128 598.668H346.255L345.682 598.35L346.828 601.914L347.146 601.277L337.282 604.459L313.673 611.968L285.163 621.068L260.472 628.959L252.39 631.569L249.844 632.396C249.389 632.485 248.942 632.613 248.508 632.778H248.317L248.953 633.096L247.808 629.532C247.617 629.023 246.663 629.278 246.853 629.85Z" fill="#102A54"/>
<path d="M104.176 510.212L129.185 611.332L247.742 633.287L220.441 509.258L104.176 510.212Z" fill="white"/>
<path d="M103.731 510.34L106.212 520.394L112.194 544.577L119.449 573.786L125.685 599.05L127.722 607.387C128.04 608.659 128.295 609.996 128.676 611.269C128.673 611.303 128.678 611.338 128.689 611.371C128.699 611.403 128.717 611.434 128.74 611.459C128.74 611.544 128.774 611.625 128.833 611.684C128.893 611.744 128.974 611.778 129.058 611.778L132.24 612.414L140.831 614.005L153.622 616.36L169.15 619.223L186.204 622.405L203.45 625.587L219.487 628.578L233.042 631.06L242.778 632.842L247.424 633.733H247.614C247.933 633.86 248.251 633.542 248.187 633.16L247.424 629.851L245.451 620.814L242.523 607.45L238.96 591.159L235.014 573.341L231.069 555.395L227.378 538.595L224.26 524.404L221.969 514.222C221.65 512.567 221.332 510.976 220.95 509.385C220.9 509.311 220.877 509.22 220.887 509.131C220.851 509.041 220.789 508.963 220.711 508.907C220.632 508.85 220.538 508.818 220.441 508.812H208.859L196.386 508.94L181.114 509.067L164.377 509.194L147.513 509.322L131.795 509.449L118.494 509.576H108.949C107.421 509.576 105.894 509.513 104.367 509.576H104.176C104.079 509.612 103.995 509.677 103.935 509.763C103.876 509.848 103.844 509.95 103.844 510.053C103.844 510.157 103.876 510.259 103.935 510.344C103.995 510.429 104.079 510.495 104.176 510.531H115.758L128.295 510.403L143.504 510.276L160.24 510.149L177.104 510.022L192.823 509.894H206.123L215.732 509.767H218.66C219.189 509.799 219.721 509.799 220.25 509.767H220.441L219.996 509.385L220.696 512.694L222.669 521.731L225.596 535.095L229.223 551.386L233.169 569.268L237.114 587.15L240.805 603.95L243.924 618.205L246.151 628.387L246.851 631.569C246.948 632.127 247.075 632.679 247.233 633.223C247.23 633.258 247.234 633.293 247.245 633.325C247.256 633.358 247.273 633.389 247.296 633.414L247.869 632.842L244.687 632.269L236.033 630.678L223.305 628.323L207.714 625.396L190.659 622.278L173.477 619.032L157.44 616.105L143.886 613.559L134.149 611.778L131.095 611.205L129.504 610.887H129.313L129.631 611.205L127.149 601.15L121.167 576.968L113.976 547.759L107.74 522.495L105.64 514.158C105.321 512.885 105.067 511.549 104.685 510.213V510.085C104.63 509.986 104.544 509.908 104.439 509.863C104.335 509.819 104.218 509.81 104.108 509.84C103.999 509.869 103.902 509.934 103.833 510.025C103.765 510.115 103.729 510.226 103.731 510.34Z" fill="#102A54"/>
<path d="M163.676 549.668C156.549 551.195 152.476 560.104 154.512 569.586C156.549 579.068 163.931 585.559 171.058 584.032C178.186 582.504 182.258 573.595 180.222 564.05C178.186 554.504 170.804 548.14 163.676 549.668Z" fill="#A6DCDD"/>
<path d="M434.03 155.656C435.012 165.834 437.997 175.718 442.812 184.738C447.267 193.147 453.448 200.52 460.949 206.375C468.013 211.784 476.986 215.73 486.086 214.266C490.121 213.57 493.929 211.911 497.186 209.429C500.443 206.948 503.053 203.717 504.795 200.011C506.641 195.939 507.531 190.911 505.559 186.711C505.23 185.93 504.735 185.229 504.109 184.658C503.482 184.087 502.74 183.658 501.931 183.402C500.279 183.05 498.558 183.252 497.031 183.975C489.586 187.093 485.831 195.939 484.94 203.448C483.922 212.548 487.231 221.139 492.704 228.266C498.177 235.394 506.895 242.076 514.659 248.121C522.423 254.167 530.25 260.53 536.359 268.358C542.468 276.185 546.796 285.54 547.75 295.404C548.026 298.09 548.047 300.796 547.814 303.486C547.75 304.122 548.705 304.122 548.768 303.486C549.596 293.876 547.114 284.331 542.468 275.931C537.823 267.531 531.459 260.849 524.332 254.739C517.204 248.63 508.995 242.967 501.868 236.539C494.74 230.112 489.077 223.43 486.722 214.648C484.367 205.866 485.768 197.529 490.477 190.784C492.577 187.793 495.886 184.611 499.64 184.229C503.395 183.847 505.813 188.62 505.686 192.375C505.431 200.966 498.813 208.666 491.113 211.848C483.413 215.03 474.058 213.312 466.676 209.048C459.294 204.784 452.103 197.593 447.076 189.957C441.696 181.782 437.957 172.64 436.067 163.038C435.621 160.62 435.239 158.138 434.985 155.656C434.921 155.083 433.967 155.083 434.03 155.656Z" fill="#0053DF"/>
<path d="M552.781 631.187C552.781 634.878 566.845 637.806 584.218 637.806C601.591 637.806 615.591 634.878 615.591 631.187V559.341H552.781V631.187Z" fill="#FFB6D0"/>
<path d="M584.217 564.495C601.544 564.495 615.59 562.187 615.59 559.341C615.59 556.494 601.544 554.186 584.217 554.186C566.89 554.186 552.844 556.494 552.844 559.341C552.844 562.187 566.89 564.495 584.217 564.495Z" fill="white"/>
<path d="M584.216 564.814C568.816 564.814 552.461 562.905 552.461 559.341C552.461 555.777 568.816 553.868 584.216 553.868C599.616 553.868 615.907 555.777 615.907 559.341C615.907 562.905 599.553 564.814 584.216 564.814ZM584.216 554.505C565.888 554.505 553.097 557.05 553.097 559.341C553.097 561.632 565.888 564.177 584.216 564.177C602.544 564.177 615.271 561.632 615.271 559.341C615.271 557.05 602.48 554.505 584.216 554.505Z" fill="#102A54"/>
<path d="M628.635 569.65H615.59V577.668H621.763C623.057 577.685 624.294 578.206 625.209 579.122C626.125 580.037 626.646 581.274 626.663 582.568L626.854 598.287C626.871 600.014 626.205 601.679 625.001 602.918C623.798 604.157 622.154 604.872 620.426 604.905L615.844 605.032L615.59 614.96H627.617C628.592 614.96 629.557 614.767 630.457 614.392C631.357 614.017 632.173 613.467 632.86 612.775C633.546 612.083 634.088 611.262 634.456 610.359C634.823 609.456 635.008 608.489 634.999 607.514V576.077C634.999 574.384 634.331 572.758 633.139 571.555C631.948 570.351 630.329 569.667 628.635 569.65Z" fill="#FFB6D0"/>
<path d="M563.726 578.241C568.626 578.241 568.626 570.604 563.726 570.604C558.826 570.604 558.826 578.241 563.726 578.241Z" fill="#0053DF"/>
<path d="M577.855 598.732C582.755 598.732 582.755 591.096 577.855 591.096C572.955 591.096 572.955 598.732 577.855 598.732Z" fill="#0053DF"/>
<path d="M590.515 582.632C595.415 582.632 595.479 574.996 590.515 574.996C585.552 574.996 585.615 582.632 590.515 582.632Z" fill="#0053DF"/>
<path d="M604.199 597.014C609.099 597.014 609.099 589.377 604.199 589.377C599.299 589.377 599.235 597.014 604.199 597.014Z" fill="#0053DF"/>
<path d="M564.234 615.787C569.134 615.787 569.134 608.151 564.234 608.151C559.334 608.151 559.27 615.787 564.234 615.787Z" fill="#0053DF"/>
<path d="M590.515 615.087C595.415 615.087 595.479 607.451 590.515 607.451C585.552 607.451 585.615 615.087 590.515 615.087Z" fill="#0053DF"/>
<path d="M606.105 626.033C611.005 626.033 611.069 618.396 606.105 618.396C601.141 618.396 601.205 626.033 606.105 626.033Z" fill="#0053DF"/>
<path d="M575.879 632.842C580.842 632.842 580.842 625.205 575.879 625.205C570.915 625.205 570.979 632.842 575.879 632.842Z" fill="#0053DF"/>
<path d="M585.233 554.059C584.978 551.705 586.251 549.668 587.524 547.823C588.712 546.03 589.693 544.108 590.451 542.095C592.019 538.126 592.132 533.73 590.769 529.686C588.415 523.068 580.333 518.359 573.587 521.668C571.933 522.495 570.596 523.831 570.342 525.677C570.268 526.505 570.365 527.339 570.628 528.127C570.891 528.915 571.313 529.641 571.869 530.259C574.605 533.441 579.569 532.423 582.433 530.068C585.296 527.713 587.524 523.386 588.415 519.504C589.306 515.622 589.242 512.059 587.46 508.813C585.678 505.568 581.542 503.595 577.66 502.577C573.778 501.558 569.514 500.604 567.033 497.231C566.506 496.463 566.138 495.598 565.951 494.686C565.896 494.586 565.809 494.508 565.705 494.464C565.6 494.419 565.484 494.411 565.374 494.44C565.264 494.469 565.167 494.534 565.099 494.625C565.031 494.716 564.994 494.827 564.996 494.94C565.76 498.313 568.687 500.413 571.678 501.686C574.669 502.958 578.996 503.531 582.369 505.249C589.56 509.004 588.797 518.168 585.551 524.404C583.769 527.968 580.651 531.532 576.26 531.277C575.328 531.282 574.414 531.022 573.625 530.526C572.836 530.03 572.205 529.319 571.805 528.477C571.357 527.72 571.17 526.836 571.273 525.962C571.377 525.088 571.765 524.272 572.378 523.641C574.86 521.159 579.06 521.159 582.178 522.241C585.41 523.44 588.039 525.863 589.497 528.986C591.342 533.123 591.024 537.895 589.497 542.095C588.583 544.209 587.475 546.233 586.187 548.141C585.042 549.923 584.024 551.896 584.278 554.059C584.406 554.632 585.36 554.632 585.233 554.059Z" fill="#84E2CC"/>
<path d="M129.441 424.303L133.578 428.821C133.578 428.821 132.114 430.285 134.278 435.376C134.278 435.376 133.26 432.512 135.169 430.285C136.093 429.197 137.092 428.177 138.16 427.23L134.087 426.466C131.032 425.83 129.696 424.621 129.441 424.303Z" fill="#102A54"/>
<path d="M132.367 421.248C132.436 421.131 132.48 421.001 132.494 420.866L132.367 421.248Z" fill="#102A54"/>
<path d="M129.567 424.875C126.894 427.166 123.585 428.057 121.294 426.594C119.864 425.66 118.596 424.499 117.539 423.157C117.539 423.157 117.985 425.957 121.485 428.63C122.72 429.634 124.302 430.111 125.887 429.956C127.471 429.801 128.931 429.027 129.948 427.803C131.03 426.403 132.048 422.457 132.367 421.248C132.176 421.884 131.539 423.221 129.567 424.875Z" fill="#102A54"/>
<path d="M146.05 429.584C144.014 431.048 142.741 434.866 140.387 443.521C140.641 454.276 140.705 458.921 141.087 468.148C148.023 468.658 167.178 467.703 167.178 467.703C172.46 463.439 181.751 442.821 181.751 442.821C175.478 439.961 169.436 436.621 163.678 432.83C155.341 427.102 148.15 428.121 146.05 429.584Z" fill="#FFE5DF"/>
<path d="M430.574 362.765C423.765 362.129 402.446 370.465 401.555 371.929C392.901 386.565 418.038 389.175 418.038 389.175L450.365 384.02C450.365 384.02 453.42 373.838 451.256 368.174C449.093 362.511 437.383 363.465 430.574 362.765Z" fill="#102A54"/>
<path d="M430.572 362.32C428.905 362.244 427.235 362.394 425.608 362.765C423.351 363.189 421.12 363.742 418.926 364.42C414.532 365.711 410.218 367.262 406.008 369.065C404.645 369.598 403.326 370.237 402.062 370.975C400.853 371.675 400.344 373.011 399.899 374.284C399.289 375.79 399.132 377.442 399.449 379.036C399.765 380.631 400.541 382.098 401.68 383.257C403.908 385.548 407.026 386.948 410.081 387.902C412.43 388.641 414.835 389.194 417.272 389.557C418.363 389.609 419.456 389.501 420.517 389.238L430.699 387.648L450.108 384.529H450.49C450.58 384.514 450.662 384.467 450.72 384.397C450.778 384.327 450.81 384.239 450.808 384.148C451.294 382.583 451.677 380.989 451.954 379.375C452.536 376.441 452.644 373.433 452.272 370.466C451.954 367.92 450.872 365.947 448.517 364.738C446.163 363.529 443.236 363.147 440.563 362.893C437.89 362.638 433.881 362.638 430.572 362.32C429.999 362.256 429.999 363.211 430.572 363.274C435.981 363.784 441.772 363.211 446.926 365.12C448.007 365.451 448.99 366.041 449.79 366.838C450.564 367.718 451.072 368.799 451.254 369.956C451.827 372.756 451.572 375.747 451.127 378.611C450.822 380.393 450.418 382.156 449.917 383.893L450.236 383.575L434.135 386.12L423.063 387.902L419.372 388.475C418.889 388.574 418.4 388.638 417.908 388.666H417.717L416.826 388.539L413.453 387.839C410.405 387.224 407.48 386.105 404.799 384.529C402.253 382.938 400.153 380.52 400.217 377.402C400.288 376.516 400.459 375.641 400.726 374.793L401.299 373.393L401.68 372.693L401.871 372.311C401.871 372.311 402.062 372.056 401.935 372.184C402.651 371.591 403.471 371.138 404.353 370.847C408.144 369.117 412.033 367.608 415.999 366.329C420.008 364.993 424.272 363.656 428.472 363.274C429.17 363.211 429.873 363.211 430.572 363.274C431.208 363.338 431.208 362.384 430.572 362.32Z" fill="#102A54"/>
<path d="M444.002 332.792C445.975 327.574 450.684 317.583 436.748 316.819C429.811 316.437 431.72 289.328 417.211 288.246C410.529 287.737 405.056 288.437 401.111 288.5C398.284 288.593 395.454 288.465 392.647 288.119C392.647 288.119 381.192 307.21 379.538 322.483C378.583 331.456 380.492 354.62 382.592 361.874C384.374 367.983 387.238 368.811 393.538 368.174C398.12 367.729 399.393 366.647 402.702 365.565C406.011 364.483 404.929 371.42 404.166 386.82C403.402 402.22 425.484 399.802 431.275 398.147C440.439 395.411 449.348 387.138 449.348 387.138L444.257 354.238C444.257 354.238 441.33 339.856 444.002 332.792Z" fill="#FFE5DF"/>
<path d="M442.348 252.291C437.533 249.273 432.563 246.512 427.457 244.018C421.146 240.866 414.591 238.227 407.856 236.127C401.238 234.154 394.365 233.009 387.429 233.963C380.492 234.918 374.765 237.336 370.438 242.109C368.633 244.057 367.285 246.383 366.492 248.918C365.731 251.952 365.473 255.091 365.728 258.209C366.152 264.677 368.455 270.881 372.356 276.059C376.256 281.237 381.583 285.163 387.683 287.355C391.188 288.559 394.86 289.204 398.565 289.264C402.574 289.391 406.52 288.946 410.466 288.628C412.155 288.437 413.857 288.373 415.556 288.437C417.04 288.532 418.489 288.921 419.82 289.582C421.651 290.349 423.267 291.55 424.529 293.082C425.803 294.637 426.872 296.347 427.711 298.173C428.857 300.464 429.239 302.819 429.811 305.301C430.067 306.567 430.451 307.803 430.957 308.992C431.593 310.392 431.911 311.855 432.42 313.319C432.769 314.712 433.548 315.959 434.648 316.883C436.048 317.837 438.084 317.965 439.675 318.346C440.518 318.521 441.347 318.754 442.157 319.046C442.931 319.166 443.658 319.496 444.257 320.001C445.243 321.128 445.786 322.576 445.784 324.074C445.887 325.97 445.421 327.853 444.448 329.483C443.721 330.681 443.144 331.963 442.73 333.301C441.96 335.922 441.658 338.658 441.839 341.383C441.902 342.847 442.03 345.456 443.493 346.219C444.957 346.983 446.23 344.629 446.739 343.547C448.393 340.11 450.112 336.674 451.766 333.301C456.73 323.183 461.757 313.001 465.894 302.564C467.485 298.555 469.075 294.355 469.839 290.091C470.116 288.444 470.073 286.759 469.712 285.128C469.135 282.938 468.257 280.839 467.103 278.891C464.303 273.991 460.612 269.6 456.793 265.464C453.366 261.74 449.711 258.233 445.848 254.964C444.765 253.968 443.593 253.073 442.348 252.291C441.457 251.718 440.693 253.118 441.521 253.691C444.639 255.664 447.375 258.336 449.984 260.882C454.069 264.68 457.856 268.786 461.312 273.164C464.112 276.855 467.166 281.055 468.248 285.637C468.948 288.946 467.739 292.446 466.721 295.564C465.13 300.401 463.157 305.11 461.121 309.755C459.084 314.401 456.412 320.065 453.993 325.156C451.575 330.247 449.73 333.81 447.63 338.074L445.53 342.401C445.259 343.144 444.895 343.849 444.448 344.501L444.13 344.819H444.066C444.321 344.883 444.193 344.819 444.193 344.756C443.175 343.229 443.302 340.81 443.366 339.028C443.433 336.34 444.062 333.696 445.212 331.265C446.175 329.765 446.864 328.106 447.248 326.365C447.523 324.75 447.414 323.093 446.93 321.528C446.571 320.245 445.785 319.123 444.702 318.346C443.43 317.455 441.521 317.137 439.993 316.755L437.575 316.246C436.748 315.992 435.857 315.864 435.22 315.292C434.584 314.719 433.884 312.81 433.502 311.537C432.802 308.928 431.657 306.573 431.148 303.964C430.711 301.467 429.918 299.045 428.793 296.773C427.075 293.4 424.784 290.155 421.22 288.5C419.853 287.748 418.368 287.232 416.829 286.973C415.417 286.761 413.983 286.74 412.566 286.909C408.747 287.164 404.993 287.61 401.174 287.673C394.047 287.8 387.174 286.337 381.192 282.328C375.987 278.776 371.938 273.776 369.547 267.946C368.335 264.98 367.584 261.847 367.319 258.655C367.011 255.583 367.248 252.48 368.019 249.491C369.483 244.272 373.938 240.327 378.711 238.1C384.883 235.172 392.011 234.6 398.693 235.681C405.375 236.763 411.929 238.927 418.166 241.536C424.115 244.044 429.915 246.891 435.539 250.063C437.575 251.209 439.548 252.418 441.521 253.691C441.702 253.757 441.901 253.757 442.082 253.692C442.264 253.627 442.417 253.5 442.515 253.334C442.613 253.168 442.65 252.973 442.62 252.782C442.589 252.592 442.493 252.418 442.348 252.291Z" fill="#102A54"/>
<path d="M387.49 285.764C381.317 280.418 375.08 273.864 372.789 265.782C372.114 263.514 371.876 261.138 372.089 258.782C372.387 255.953 373.593 253.296 375.526 251.209C378.395 248.144 381.86 245.697 385.708 244.018C387.532 243.19 389.428 242.53 391.371 242.045C393.531 241.617 395.725 241.382 397.926 241.345C407.726 241.09 417.399 243.445 426.436 247.009C432.925 249.643 439.183 252.815 445.145 256.491L446.418 257.254C447.309 257.827 448.072 256.427 447.245 255.918C441.517 252.317 435.517 249.169 429.299 246.5C420.199 242.618 410.463 239.945 400.472 239.754C395.89 239.69 391.371 240.072 387.108 241.727C383.03 243.239 379.273 245.506 376.035 248.409C373.489 250.763 371.326 253.691 370.689 257.127C370.328 259.448 370.35 261.813 370.753 264.127C372.153 271.891 377.562 278.636 383.099 283.918L386.344 286.909C387.171 287.546 388.253 286.464 387.49 285.764Z" fill="#102A54"/>
<path d="M401.108 287.673C399.442 287.826 397.764 287.586 396.208 286.973C395.026 286.426 393.999 285.595 393.217 284.555C392.127 283.201 391.128 281.777 390.226 280.291C389.14 278.596 388.364 276.721 387.935 274.755C387.509 272.832 387.476 270.844 387.837 268.909C388.198 266.973 388.945 265.131 390.035 263.491C392.389 260.118 396.208 258.336 400.089 257.573C404.269 256.903 408.533 256.968 412.69 257.763C417.571 258.586 422.365 259.864 427.008 261.582C435.681 264.713 443.833 269.132 451.19 274.691C457.554 279.527 463.218 285.828 465.509 293.655C465.823 294.657 466.078 295.677 466.272 296.71C466.463 297.664 467.99 297.282 467.8 296.264C466.145 287.737 460.863 280.609 454.308 275.136C447.754 269.664 438.335 264.254 429.426 260.754C424.571 258.832 419.541 257.383 414.408 256.427C409.953 255.663 405.371 255.218 400.853 255.854C396.335 256.491 392.644 258.082 389.78 261.264C388.409 262.854 387.376 264.706 386.741 266.708C386.107 268.71 385.885 270.819 386.089 272.909C386.265 275.022 386.803 277.088 387.68 279.018C388.581 280.81 389.646 282.514 390.862 284.109C391.707 285.398 392.736 286.555 393.917 287.546C395.154 288.389 396.57 288.934 398.053 289.137C399.065 289.274 400.088 289.317 401.108 289.264C401.28 289.215 401.433 289.11 401.541 288.967C401.649 288.823 401.708 288.648 401.708 288.468C401.708 288.289 401.649 288.114 401.541 287.97C401.433 287.827 401.28 287.722 401.108 287.673Z" fill="#102A54"/>
<path d="M414.218 286.528C413.454 286.655 412.691 286.591 412.309 285.764C412.053 284.832 411.988 283.858 412.118 282.901C412.159 281.757 412.483 280.641 413.061 279.653C413.638 278.665 414.451 277.835 415.427 277.237C419.945 274.309 426.118 276.028 430.827 277.619C439.749 280.578 447.648 286.006 453.609 293.273C457.047 297.387 459.837 302 461.882 306.955C462.264 307.91 463.791 307.528 463.41 306.574C459.473 296.843 452.797 288.465 444.191 282.455C439.913 279.515 435.214 277.241 430.255 275.71C425.036 274.182 418.418 272.782 413.709 276.537C412.59 277.376 411.712 278.495 411.163 279.782C410.649 281.076 410.41 282.464 410.463 283.855C410.38 284.978 410.671 286.097 411.291 287.037C411.636 287.464 412.091 287.79 412.606 287.98C413.121 288.17 413.678 288.218 414.218 288.119C415.236 288.055 415.236 286.464 414.218 286.528Z" fill="#102A54"/>
<path d="M428.154 297.537C430.459 299.498 432.953 301.224 435.6 302.692C438.259 304.092 441.051 305.222 443.936 306.064C444.954 306.383 445.336 304.855 444.382 304.537C441.615 303.731 438.93 302.666 436.363 301.355C433.867 299.913 431.503 298.252 429.3 296.392C428.536 295.755 427.391 296.901 428.154 297.537Z" fill="#102A54"/>
<path d="M431.146 307.655C433.135 309.264 435.265 310.691 437.51 311.919C439.763 313.157 442.128 314.18 444.573 314.973C445.528 315.292 445.91 313.764 444.955 313.446C442.663 312.65 440.43 311.693 438.273 310.582C436.178 309.38 434.178 308.018 432.291 306.51C431.464 305.873 430.319 307.019 431.146 307.655Z" fill="#102A54"/>
<path d="M439.29 339.219C436.427 341.001 434.199 339.601 434.199 339.601C434.199 339.601 437.381 343.037 440.245 342.719C443.108 342.401 443.49 333.301 444.318 331.328C444.318 331.328 442.154 337.374 439.29 339.219Z" fill="#102A54"/>
<path d="M416.127 356.529C411.29 360.856 401.745 365.884 402.699 365.565C403.654 365.247 404.799 367.411 404.799 367.411C404.799 367.411 407.79 366.838 413.518 361.111C419.245 355.383 424.4 346.029 424.4 346.029C422.144 349.896 419.359 353.43 416.127 356.529Z" fill="#102A54"/>
<path d="M391.436 312.874C390.736 314.21 389.208 315.165 388.063 316.056C386.917 316.947 384.626 318.41 382.908 319.556C381.19 320.701 380.235 321.338 379.345 322.61C378.454 323.883 379.154 326.81 379.981 328.338C381.02 330.321 382.703 331.892 384.754 332.792C385.708 333.174 386.154 331.583 385.199 331.265C383.606 330.498 382.293 329.252 381.445 327.701C380.871 326.735 380.543 325.642 380.49 324.519V323.756C380.554 323.629 380.49 323.692 380.554 323.692C380.636 323.509 380.743 323.338 380.872 323.183C381.972 322.162 383.165 321.246 384.436 320.447C386.026 319.365 387.681 318.283 389.208 317.137C390.736 315.992 392.008 315.101 392.772 313.637C393.536 312.174 391.881 311.919 391.436 312.874Z" fill="#102A54"/>
<path d="M383.228 350.801C383.303 351.155 383.456 351.487 383.677 351.773C383.897 352.059 384.179 352.293 384.501 352.456C384.815 352.64 385.167 352.752 385.53 352.785C385.893 352.818 386.258 352.771 386.601 352.647C386.708 352.623 386.809 352.577 386.897 352.511C386.985 352.445 387.058 352.361 387.11 352.265C387.199 352.088 387.222 351.885 387.174 351.692C387.104 351.486 386.97 351.308 386.792 351.183C386.592 351.094 386.369 351.072 386.155 351.119L385.837 351.247H385.774L385.328 351.119H385.455L385.074 350.865L385.201 350.992L384.883 350.674L385.01 350.801L384.819 350.483V350.674C384.755 350.547 384.755 350.419 384.692 350.292C384.68 350.197 384.645 350.107 384.589 350.029C384.534 349.951 384.46 349.888 384.374 349.847C384.283 349.78 384.18 349.734 384.07 349.712C383.96 349.69 383.846 349.693 383.737 349.719C383.64 349.747 383.549 349.795 383.472 349.861C383.396 349.927 383.334 350.009 383.292 350.101C383.181 350.294 383.136 350.517 383.164 350.738L383.228 350.801Z" fill="#102A54"/>
<path d="M383.672 347.683C384.245 346.983 385.072 345.965 386.09 346.092C386.555 346.206 387.004 346.377 387.427 346.601L391.563 348.447C393.091 349.02 394.809 348.765 396.336 348.574C397.803 348.34 399.222 347.867 400.536 347.174C401.132 346.865 401.67 346.456 402.127 345.965C402.827 345.201 401.682 344.056 400.982 344.82C400.282 345.583 397.609 346.792 395.827 347.047L394.363 347.174H392.9C392.373 347.062 391.861 346.891 391.372 346.665L387.3 344.82C385.39 344.056 383.863 345.074 382.527 346.538C381.19 348.001 382.972 348.383 383.672 347.683Z" fill="#102A54"/>
<path d="M372.41 419.148C370.246 413.484 381.128 391.911 379.346 386.12C376.801 377.465 349.627 387.266 330.663 403.875C324.363 409.348 281.345 453.321 276.508 458.985C274.217 461.658 255.89 450.203 222.162 441.548C208.671 438.048 193.334 437.094 184.743 436.775C181.816 436.648 181.879 437.603 179.079 438.303C177.743 438.621 172.079 437.221 171.061 438.175C170.043 439.13 165.397 445.748 162.788 451.285C156.679 464.139 156.234 469.485 165.588 475.021C168.834 476.931 169.788 480.876 175.579 484.122C226.935 513.204 252.708 515.686 276.826 520.904C321.182 530.449 379.028 474.64 379.028 474.64C379.028 474.64 417.019 442.312 414.537 437.412C412.056 432.512 374.637 424.939 372.41 419.148Z" fill="#008C99"/>
<path d="M372.854 419.02C372.344 417.62 372.599 415.965 372.854 414.502C373.278 412.349 373.83 410.224 374.508 408.138C375.908 403.429 377.626 398.783 378.899 394.074C379.599 391.401 380.999 387.392 379.281 384.847C377.563 382.301 374.19 382.301 371.644 382.492C366.872 382.874 362.226 384.465 357.835 386.31C352.077 388.738 346.559 391.7 341.353 395.156C335.003 399.434 329.097 404.337 323.726 409.793C317.616 415.838 311.571 421.947 305.589 428.057C299.607 434.166 292.798 441.102 286.434 447.72L279.498 454.975L277.207 457.457C276.888 457.839 276.379 458.602 275.934 458.793C275.488 458.984 274.661 458.857 274.088 458.793C272.917 458.52 271.769 458.158 270.652 457.712C266.961 456.375 263.334 454.848 259.706 453.448C247.294 448.423 234.559 444.235 221.588 440.911C214.385 439.188 207.07 437.975 199.696 437.284C196.515 436.966 193.269 436.711 190.024 436.52L185.887 436.329C184.652 436.19 183.401 436.276 182.196 436.584C181.051 436.966 179.969 437.729 178.76 437.857C177.671 437.845 176.585 437.739 175.514 437.538C173.796 437.348 171.632 436.838 170.296 438.238C168.44 440.476 166.799 442.884 165.396 445.43C163.56 448.591 161.924 451.864 160.496 455.23C158.841 459.239 156.869 464.203 158.523 468.53C159.294 470.358 160.521 471.958 162.087 473.175C163.996 474.766 166.16 475.785 167.814 477.63C169.469 479.475 171.314 481.83 173.605 483.485C176.914 485.776 180.669 487.557 184.233 489.467C190.66 492.903 197.215 496.212 203.833 499.267C214.153 504.103 224.782 508.249 235.652 511.676C243.797 514.221 252.134 516.258 260.534 518.04L271.416 520.267C275.552 521.094 279.689 522.049 283.889 522.367C293.88 523.003 303.998 520.903 313.353 517.594C322.707 514.285 332.571 509.258 341.48 503.849C349.388 498.956 357.016 493.623 364.326 487.876C368.844 484.248 373.299 480.557 377.563 476.612C378.187 476.094 378.782 475.541 379.345 474.957C379.663 474.703 379.472 474.321 379.154 474.194L379.472 474.766C379.345 475.085 379.472 474.83 379.599 474.703L380.235 474.13L382.59 472.157L389.972 465.539C396.208 459.939 402.381 454.211 408.109 448.102C410.28 445.933 412.221 443.545 413.9 440.975C414.727 439.702 415.745 437.984 414.6 436.584C413.454 435.184 409.827 433.593 407.536 432.702C403.463 431.111 399.263 429.775 395.127 428.438C390.99 427.102 386.408 425.702 382.145 424.175C379.345 423.093 375.908 422.075 373.617 419.975C373.314 419.699 373.056 419.377 372.854 419.02C372.663 418.511 371.708 418.702 371.963 419.275C372.854 421.438 375.717 422.52 377.626 423.411C381.406 425.006 385.273 426.387 389.208 427.547L402.318 431.811C405.627 432.957 409.127 434.102 412.118 435.884C412.818 436.266 413.9 436.902 414.154 437.666C414.409 438.429 413.9 439.002 413.645 439.575C412.372 442.057 410.336 444.22 408.49 446.32C402.954 452.43 396.845 458.03 390.672 463.63C388.127 465.984 385.454 468.275 382.845 470.63C381.572 471.775 379.917 472.857 378.835 474.13C378.716 474.231 378.628 474.363 378.581 474.512C378.562 474.57 378.555 474.632 378.56 474.693C378.566 474.755 378.585 474.814 378.614 474.868C378.644 474.922 378.685 474.969 378.734 475.006C378.783 475.043 378.839 475.07 378.899 475.085L378.708 474.321C376.481 476.421 374.126 478.457 371.772 480.494C365.917 485.521 359.808 490.294 353.444 494.748C345.382 500.587 336.87 505.779 327.989 510.276C318.762 514.858 308.962 518.676 298.78 520.458C293.959 521.381 289.043 521.702 284.143 521.412C279.943 521.158 275.934 520.203 271.797 519.312C264.352 517.849 256.843 516.385 249.461 514.54C240.233 512.298 231.157 509.471 222.288 506.076C209.975 501.303 197.967 495.777 186.333 489.53C182.833 487.621 179.269 485.712 175.769 483.676C172.269 481.639 170.996 479.985 169.023 477.63C168.381 476.756 167.633 475.965 166.796 475.275C165.778 474.512 164.696 473.939 163.678 473.239C162.66 472.539 160.241 470.312 159.414 468.275C157.632 463.63 160.241 458.03 162.15 453.83C163.597 450.532 165.277 447.342 167.178 444.284C168.005 442.948 168.832 441.675 169.787 440.402C170.741 439.129 170.996 438.557 171.887 438.302C173.987 437.857 176.405 438.875 178.569 438.811C179.606 438.671 180.615 438.37 181.56 437.92C182.772 437.361 184.114 437.141 185.442 437.284C191.614 437.475 197.787 437.984 203.96 438.684C218.597 440.466 232.788 444.602 246.661 449.502C251.752 451.348 256.779 453.257 261.743 455.293C265.052 456.566 268.297 457.966 271.67 459.112C272.943 459.493 275.17 460.384 276.507 459.621C276.995 459.217 277.424 458.745 277.779 458.221L280.007 455.866C285.098 450.393 290.316 445.048 295.534 439.702C302.025 433.02 308.516 426.466 315.007 419.847C319.716 415.075 324.426 410.302 329.326 405.656C337.238 398.379 346.288 392.446 356.117 388.092C360.699 386.056 365.599 384.147 370.626 383.574C373.108 383.256 377.181 382.938 378.645 385.61C379.281 386.82 379.09 388.347 378.899 389.62C378.546 391.686 378.057 393.727 377.435 395.729C376.035 400.374 374.381 404.956 373.044 409.665C372.486 411.521 372.061 413.413 371.772 415.329C371.516 416.64 371.581 417.994 371.963 419.275C372.154 419.847 373.108 419.593 372.854 419.02Z" fill="#0053DF"/>
<path d="M346.828 397.384C349.246 391.975 344.728 399.611 346.828 397.384V397.384Z" fill="#0053DF"/>
<path d="M494.465 396.365C488.801 393.247 464.428 384.783 459.655 381.729C454.882 378.674 455.837 381.538 454.437 377.274C453.037 373.01 454.119 379.565 452.655 370.656C451.509 364.101 445.718 363.656 445.718 363.656C445.718 363.656 453.928 367.347 448.518 371.929C443.109 376.51 430.827 381.411 420.518 380.711C410.209 380.011 404.927 379.247 402.636 375.938C401.859 374.75 401.48 373.346 401.554 371.929C399.518 371.42 399.518 374.41 393.472 376.447C383.545 379.82 365.726 383.511 358.472 386.056C347.971 389.747 353.317 394.011 349.244 394.329C348.503 395.397 347.696 396.417 346.826 397.384C346.571 398.02 346.19 398.72 345.808 399.611C343.071 405.275 340.59 411.002 338.299 416.857C337.153 419.784 336.071 422.711 334.99 425.702L334.226 428.12C334.226 428.184 334.226 428.248 334.162 428.248C334.089 428.496 334.046 428.752 334.035 429.011C332.635 435.439 330.789 434.23 329.835 440.721C328.88 447.212 328.753 451.921 325.126 464.457C325.126 464.585 322.58 478.076 323.026 485.903C321.244 506.203 316.28 508.812 313.416 537.831C311.762 555.013 293.434 580.341 301.134 586.832C318.635 601.659 378.263 568.759 427.073 574.295C494.719 581.995 478.555 580.595 480.528 574.295C491.155 541.077 478.683 542.349 479.446 536.686C481.228 523.576 482.692 516.131 484.792 499.203C485.311 490.996 486.374 482.833 487.974 474.767C491.416 457.105 496.926 439.91 504.392 423.538C506.81 418.257 509.228 416.093 512.156 411.002C510.565 407.184 502.165 400.629 494.465 396.365Z" fill="#008C99"/>
<path d="M181.943 447.148C181.88 446.003 175.325 445.876 174.243 445.621C173.161 445.367 169.216 444.221 173.034 446.957C176.852 449.694 177.107 448.676 175.898 452.685C174.689 456.694 172.588 456.249 169.025 455.93C165.461 455.612 163.17 456.185 163.043 456.567C162.916 456.949 170.616 459.43 172.207 464.076C173.798 468.721 173.607 469.994 170.552 472.985C167.497 475.976 159.988 470.758 159.988 470.758C160.293 471.673 160.898 472.458 161.706 472.985C163.234 474.003 167.561 476.867 168.325 478.331C169.088 479.794 171.443 482.594 177.616 485.84C177.616 485.84 175.961 483.931 174.879 482.467C174.879 482.467 172.716 478.84 173.67 472.54C175.007 463.821 181.943 448.357 181.943 447.148Z" fill="#102A54"/>
<path d="M280.452 454.084L275.68 458.921L277.334 459.239C277.334 459.239 281.152 459.939 284.207 469.676L287.198 479.412C287.198 479.412 287.071 465.03 283.443 458.603C282.107 455.357 280.452 454.084 280.452 454.084Z" fill="#102A54"/>
<path d="M154.07 462.23C150.442 466.24 143.315 468.276 142.424 468.212C141.533 468.149 152.097 469.421 158.524 468.149C157.761 460.321 163.043 449.694 163.043 449.694C163.043 449.694 157.761 458.221 154.07 462.23Z" fill="#102A54"/>
<path opacity="0.5" d="M186.971 485.522C199.744 482.668 213.041 483.217 225.535 487.113C231.834 489.013 237.849 491.753 243.417 495.258C246.203 496.92 248.842 498.815 251.308 500.922C252.597 501.935 253.829 503.019 254.999 504.167C255.954 505.058 256.972 505.886 257.418 507.158C257.863 508.431 258.054 509.195 257.227 509.449C256.91 509.488 256.606 509.597 256.336 509.767L255.445 510.213C254.867 510.407 254.269 510.535 253.663 510.595C252.356 510.607 251.063 510.322 249.883 509.759C248.703 509.197 247.667 508.373 246.854 507.349C242.654 502.258 246.472 494.813 251.117 491.567C257.036 487.494 264.736 486.922 271.672 486.285C276.381 485.776 281.218 485.458 285.927 486.285C289.602 486.972 293.119 488.331 296.3 490.294C300.755 492.904 304.955 495.958 309.218 498.822L313.546 501.622C314.437 502.131 315.2 500.795 314.373 500.222C309.218 496.913 304.191 493.349 299.036 490.104C295.536 487.94 291.909 485.967 287.9 485.076C283.891 484.185 278.1 484.122 273.263 484.503C269.7 484.822 266.136 485.203 262.572 485.776C259.008 486.349 255.063 487.367 251.69 489.34C246.217 492.522 241.508 499.649 244.245 506.14C244.823 507.407 245.651 508.545 246.679 509.485C247.706 510.426 248.913 511.149 250.227 511.613C251.511 512.067 252.878 512.24 254.236 512.122C254.943 512.051 255.632 511.857 256.272 511.549L257.099 511.104H257.227C257.418 510.977 257.608 511.04 257.863 510.977C260.345 510.086 259.008 506.331 257.927 504.931C256.873 503.676 255.701 502.525 254.427 501.495L250.354 498.185C242.079 491.851 232.615 487.246 222.524 484.644C212.433 482.042 201.922 481.497 191.617 483.04L186.526 484.058C185.507 484.249 185.953 485.776 186.971 485.585V485.522Z" fill="white"/>
<path opacity="0.5" d="M352.682 388.729C348.95 397.223 347.629 406.58 348.863 415.775C349.89 424.851 353.196 433.52 358.472 440.975C363.948 448.538 371.48 454.369 380.173 457.776C388.899 461.224 398.357 462.407 407.664 461.212C417.655 460.003 427.964 456.376 434.774 448.612C437.987 445.124 440.091 440.761 440.819 436.075C441.46 431.812 440.63 427.458 438.465 423.73C436.428 420.421 433.055 418.066 429.11 418.448C427.268 418.622 425.498 419.248 423.955 420.269C422.412 421.29 421.145 422.675 420.264 424.302C418.101 428.566 419.31 433.466 421.855 437.284C424.401 441.103 428.474 444.921 432.546 447.721C440.246 453.003 450.301 455.739 459.338 452.557C463.452 451.038 467.171 448.613 470.223 445.463C473.274 442.313 475.578 438.517 476.965 434.357C477.624 432.227 478.03 430.027 478.174 427.802C478.238 426.784 476.647 426.784 476.583 427.802C476.24 431.993 474.922 436.046 472.734 439.637C470.546 443.227 467.55 446.257 463.983 448.485C460.615 450.735 456.701 452.032 452.656 452.239C448.082 452.481 443.517 451.608 439.356 449.694C435.047 447.763 431.123 445.068 427.774 441.739C424.528 438.557 421.028 434.612 420.71 429.839C420.609 428.006 421.051 426.183 421.978 424.599C422.906 423.015 424.28 421.739 425.928 420.93C427.428 420.133 429.142 419.833 430.823 420.073C432.504 420.314 434.066 421.081 435.283 422.266C438.083 425.002 439.292 429.075 439.419 432.893C439.416 437.328 438.013 441.648 435.41 445.239C429.81 453.321 420.137 457.394 410.782 459.112C402.14 460.721 393.238 460.241 384.818 457.712C376.274 455.132 368.595 450.269 362.609 443.648C356.945 437.348 353.254 429.393 351.409 421.184C349.391 412.713 349.545 403.871 351.854 395.475C352.463 393.454 353.208 391.477 354.082 389.556C354.463 388.602 353.127 387.838 352.682 388.729Z" fill="white"/>
<path d="M150.76 421.375C145.859 418.066 141.596 415.011 138.414 413.293C135.232 411.575 122.568 395.729 120.341 397.065C118.114 398.402 121.868 411.193 119.832 414.247C114.55 422.266 120.341 428.502 120.341 428.502C120.341 428.502 121.168 429.202 124.414 425.066C127.659 420.929 133.577 428.82 133.577 428.82C133.577 428.82 132.368 432.893 136.377 440.466C140.387 448.039 142.678 449.693 142.678 449.693L163.423 434.293C163.423 434.293 157.951 426.275 150.76 421.375Z" fill="#FFE5DF"/>
<path d="M135.487 443.203C135.487 443.203 136.887 446.639 134.596 448.294C133.46 449.159 132.161 449.787 130.777 450.139L134.277 449.439L134.596 450.648C135.554 449.526 136.327 448.259 136.887 446.894C137.523 445.048 135.487 443.203 135.487 443.203Z" fill="#102A54"/>
<path d="M128.614 432.321C129.298 432.397 129.953 432.637 130.523 433.021C131.669 433.721 132.814 437.285 131.223 438.621C129.944 439.579 128.498 440.291 126.96 440.721C126.96 440.721 126.132 441.994 128.041 441.548C129.813 441.221 131.388 440.216 132.432 438.748C133.514 437.221 133.323 436.457 132.432 434.421C131.541 432.384 129.06 432.321 128.614 432.321Z" fill="#102A54"/>
<path opacity="0.5" d="M325.318 481.067C334.289 482.236 342.88 485.412 350.455 490.358C357.981 495.09 364.179 501.66 368.464 509.449C370.607 513.438 372.13 517.73 372.982 522.177C373.873 527.14 373.746 533.059 370.373 537.131C367.001 541.204 362.546 542.668 358.537 540.186C356.437 538.913 355.546 536.559 356.946 534.395C358.346 532.231 361.273 531.595 363.755 532.04C368.464 532.74 372.919 535.477 376.228 538.786C379.514 541.984 381.924 545.972 383.228 550.368C383.552 551.428 383.786 552.514 383.928 553.613C384.119 554.632 385.646 554.186 385.519 553.232C384.668 548.292 382.532 543.662 379.327 539.809C376.121 535.955 371.958 533.013 367.255 531.277C364.519 530.322 361.4 529.813 358.664 531.022C357.548 531.473 356.578 532.222 355.86 533.187C355.141 534.152 354.702 535.297 354.591 536.495C354.528 539.041 356.437 541.077 358.664 542.031C360.871 542.943 363.332 543.033 365.601 542.286C370.628 540.631 373.873 536.05 374.701 530.895C375.528 525.74 374.446 519.949 372.601 514.858C369.291 505.758 363.119 497.931 355.546 492.013C347.765 485.953 338.642 481.85 328.945 480.049L325.318 479.476C324.3 479.349 324.364 480.94 325.318 481.067Z" fill="white"/>
<path d="M510.499 416.284C507.909 425.995 506.205 435.921 505.408 445.939C504.644 455.905 505.093 465.927 506.745 475.785C508.171 484.375 510.717 492.74 514.318 500.667C517.69 508.136 522.057 515.114 527.3 521.413C532.532 527.661 538.692 533.069 545.564 537.45L548.236 538.977C548.346 539.036 548.475 539.049 548.594 539.013C548.713 538.978 548.814 538.896 548.873 538.786C548.932 538.676 548.945 538.548 548.909 538.428C548.873 538.309 548.791 538.209 548.682 538.15C534.618 530.131 523.609 517.468 516.481 502.958C508.272 486.476 505.345 467.83 506.172 449.503C506.75 438.358 508.521 427.307 511.454 416.539C511.456 416.425 511.42 416.314 511.351 416.224C511.283 416.133 511.186 416.068 511.076 416.039C510.966 416.009 510.85 416.018 510.745 416.062C510.641 416.107 510.554 416.185 510.499 416.284Z" fill="white"/>
<path d="M118.941 393.566C118.7 392.969 118.315 392.441 117.819 392.03C117.324 391.62 116.734 391.338 116.103 391.212C115.471 391.086 114.819 391.119 114.203 391.307C113.588 391.496 113.029 391.835 112.577 392.293L95.7134 408.966C95.1875 409.5 94.8244 410.172 94.6666 410.905C94.5088 411.637 94.5629 412.399 94.8225 413.102L118.814 475.785C119.098 476.595 119.651 477.282 120.38 477.734C121.11 478.185 121.972 478.374 122.823 478.267L147.323 475.849C147.921 475.764 148.491 475.547 148.993 475.211C149.494 474.876 149.913 474.432 150.219 473.912C150.525 473.392 150.709 472.809 150.759 472.208C150.808 471.607 150.722 471.003 150.505 470.44L118.941 393.566Z" fill="#102A54"/>
<path d="M123.207 425.512L123.463 425.32C123.207 425.448 123.207 425.512 123.207 425.512Z" fill="#102A54"/>
<path d="M126.643 425.13C125.434 424.112 124.034 424.939 123.461 425.321L124.67 424.875C124.962 424.837 125.258 424.856 125.542 424.932C125.826 425.009 126.092 425.141 126.325 425.321C127.534 426.148 128.679 427.866 127.852 429.521C127.025 431.175 121.87 433.275 121.87 433.275C121.87 433.275 112.706 437.475 109.206 438.239C105.706 439.003 104.37 439.066 104.561 439.257L105.961 440.212L107.615 439.448C107.615 439.448 115.061 436.521 120.47 434.612C125.879 432.703 127.788 430.984 128.425 429.075C129.061 427.166 128.17 426.339 126.643 425.13Z" fill="#102A54"/>
<path d="M119.387 472.794C121.105 473.112 122.759 472.858 119.387 472.794V472.794Z" fill="#FFC0B1"/>
<path d="M128.232 450.967C128.232 450.967 132.495 446.066 131.414 442.821C130.65 440.657 127.341 440.785 125.495 440.594C125.251 440.587 125.013 440.52 124.802 440.397C124.591 440.275 124.413 440.102 124.286 439.894C124.286 439.894 128.168 435.057 125.241 433.339C122.313 431.621 118.622 432.003 118.622 432.003C122.186 428.884 122.059 423.73 112.386 426.021C110.031 426.593 99.5312 429.584 98.7039 430.794C94.7584 436.521 100.677 439.703 100.677 439.703C100.677 439.703 98.3857 440.594 99.4676 444.666C99.7137 445.783 100.333 446.783 101.224 447.5C102.115 448.218 103.224 448.61 104.368 448.612C103.487 450.064 103.086 451.756 103.222 453.448C103.246 455.161 103.903 456.804 105.066 458.061C106.23 459.318 107.817 460.101 109.522 460.258C109.522 460.258 106.659 461.912 108.631 467.067C110.604 472.221 118.941 472.794 118.941 472.794H119.386C118.368 472.54 117.35 472.158 117.222 471.33C116.713 469.103 121.804 468.849 126.004 466.367C130.204 463.885 134.723 456.567 134.341 453.639C133.768 449.439 128.232 450.967 128.232 450.967Z" fill="#FFE5DF"/>
<path d="M117.223 469.739C115.375 470.613 113.275 470.794 111.305 470.248L113.405 471.839C115.138 472.971 117.024 473.849 119.005 474.448L127.023 474.194L125.432 470.312C125.432 470.312 130.396 466.812 133.323 463.694C135.116 461.703 136.269 459.22 136.632 456.566L130.587 463.248C128.359 465.667 120.278 468.276 117.223 469.739Z" fill="#102A54"/>
<path d="M133.195 434.803C133.195 434.803 135.041 437.157 136.441 443.076C137.841 448.994 133.45 449.885 136.186 448.994C138.923 448.103 144.268 446.83 144.268 446.83C142.295 441.23 133.195 434.803 133.195 434.803Z" fill="#102A54"/>
<path d="M318.571 566.15C315.071 565.45 294.516 575.187 284.334 581.041C274.152 586.896 276.38 592.75 276.38 592.75C275.437 593.702 274.891 594.976 274.852 596.314C274.534 600.514 280.452 601.023 280.452 601.023C280.452 601.023 279.498 601.978 280.134 603.823C281.98 608.978 302.28 605.478 302.28 605.478C302.28 605.478 293.753 608.914 294.834 611.078C296.553 614.578 302.153 614.642 315.071 613.114C327.989 611.587 344.79 608.851 349.181 607.832C353.572 606.814 366.426 601.023 366.426 601.023L364.517 569.714C364.517 569.714 322.135 566.914 318.571 566.15Z" fill="#FFE5DF"/>
<path d="M499.109 399.357C483.136 399.293 496.309 423.857 496.309 423.857C481.8 427.421 507.446 423.539 494.464 436.075C483.773 452.685 484.473 458.221 475.309 484.249C472.7 494.367 465.318 511.867 459.591 518.549C452.4 527.013 429.045 534.077 414.345 541.841C384.944 554.886 368.78 548.713 371.262 564.495C354.207 564.304 360.253 607.323 375.208 606.305C378.58 619.542 431.845 610.696 453.036 603.123C521.828 578.368 509.673 588.296 542.128 565.577C552.438 558.323 553.074 540.059 543.846 499.649C525.773 420.548 508.782 401.011 499.109 399.357Z" fill="#008C99"/>
<path d="M364.516 569.714C364.516 569.714 371.77 563.987 373.361 566.978C374.952 569.969 375.652 576.778 375.652 576.778C375.652 576.778 377.879 568.951 374.889 561.441C366.17 562.205 364.516 569.714 364.516 569.714Z" fill="#102A54"/>
<path d="M375.59 577.287V576.778C375.59 576.714 374.953 569.905 373.362 566.978C373.129 566.606 372.766 566.335 372.344 566.214C369.799 565.705 364.708 569.714 364.644 569.778L364.453 569.905V569.65C364.453 569.587 366.171 562.078 374.89 561.314H374.953C377.944 568.823 375.717 576.651 375.717 576.778L375.59 577.287ZM371.771 566.023H372.281C372.532 566.082 372.769 566.192 372.976 566.345C373.184 566.498 373.359 566.692 373.49 566.914C374.826 569.332 375.462 574.551 375.653 576.205C376.099 574.36 377.308 567.805 374.826 561.505C367.253 562.205 365.09 568.123 364.708 569.46C365.662 568.696 369.417 566.023 371.771 566.023Z" fill="#102A54"/>
<path d="M480.527 533.95C485.364 533.25 485.109 531.659 489.691 534.268C494.273 536.877 495.037 537.259 495.037 537.259L486.127 528.095L480.527 533.95Z" fill="#102A54"/>
<path d="M495.037 537.322H494.974C494.655 537.258 493.574 536.686 489.628 534.395C485.683 532.104 485.619 532.804 483.773 533.377C482.74 533.735 481.675 533.991 480.592 534.14H480.273L486.128 527.904V528.031L495.101 537.259H494.974L495.037 537.322ZM485.81 532.74C486.764 532.74 487.846 533.058 489.755 534.204L494.592 536.94L486.128 528.222L480.846 533.822C481.822 533.687 482.782 533.453 483.71 533.122C484.393 532.914 485.097 532.786 485.81 532.74Z" fill="#102A54"/>
<path d="M466.082 452.303C466.082 452.303 479.7 512.249 484.41 525.549C489.119 538.85 485.746 522.24 485.746 522.24C485.746 522.24 466.273 430.603 466.082 452.303Z" fill="#102A54"/>
<path d="M486.702 530.768C486.511 530.768 486.002 530.323 484.283 525.55C479.638 512.441 466.147 452.94 466.02 452.367C466.02 449.44 466.401 448.994 466.72 448.994C467.038 448.994 468.31 450.012 471.238 460.322C472.956 466.367 475.12 474.895 477.602 485.522C481.929 503.659 485.811 522.05 485.874 522.241C486.256 524.213 487.529 530.641 486.765 530.832L486.702 530.768ZM466.21 452.303C466.465 453.385 479.829 512.441 484.474 525.486C486.193 530.195 486.638 530.577 486.765 530.577C487.084 530.386 486.511 526.186 485.683 522.241C485.62 522.05 481.738 503.659 477.411 485.522C469.965 453.894 467.547 449.058 466.783 449.058H466.72C466.592 449.121 466.21 449.44 466.21 452.303Z" fill="#102A54"/>
<path opacity="0.5" d="M535.001 566.468C518.785 565.058 502.478 565.015 486.255 566.341C471.682 567.486 456.918 569.332 442.981 573.723C436.402 575.768 430.097 578.61 424.208 582.187C421.326 583.919 418.601 585.899 416.063 588.105C413.835 590.141 411.672 592.941 411.799 596.123C411.906 597.368 412.38 598.553 413.162 599.527C413.944 600.502 414.998 601.222 416.19 601.596C416.769 601.792 417.386 601.852 417.992 601.773C418.598 601.694 419.179 601.478 419.688 601.14C420.198 600.802 420.624 600.352 420.933 599.825C421.242 599.297 421.426 598.706 421.472 598.096C421.854 594.978 419.754 592.559 417.145 591.159C414.535 589.759 410.844 588.741 407.599 587.978C394.091 584.857 379.936 586.197 367.253 591.796L362.607 594.15C362.477 594.276 362.392 594.441 362.365 594.62C362.338 594.799 362.37 594.982 362.456 595.141C362.543 595.3 362.68 595.426 362.845 595.5C363.01 595.574 363.195 595.592 363.371 595.55C374.821 589.27 387.957 586.754 400.917 588.359C404.169 588.78 407.383 589.461 410.526 590.396C413.326 591.223 416.699 592.114 418.736 594.341C419.201 594.838 419.546 595.435 419.744 596.086C419.943 596.736 419.989 597.424 419.881 598.096C419.784 598.667 419.5 599.189 419.074 599.581C418.648 599.972 418.103 600.211 417.526 600.26C415.235 600.26 413.263 597.841 413.39 595.678C413.517 592.496 416.126 590.078 418.417 588.168C420.883 586.185 423.5 584.398 426.245 582.823C431.791 579.619 437.683 577.057 443.809 575.186C456.854 571.05 470.6 569.268 484.218 568.059C499.267 566.765 514.393 566.616 529.464 567.614L535.001 568.059C536.019 568.123 536.019 566.532 535.001 566.468Z" fill="white"/>
<path d="M422.236 544.831C413.39 547.059 392.008 552.913 384.753 555.395C377.499 557.877 378.008 559.85 378.008 559.85C378.008 559.85 445.081 540.504 460.354 537.258C460.354 537.258 479.255 535.286 480.527 533.949C466.082 530.322 430.572 542.668 422.236 544.831Z" fill="#102A54"/>
<path d="M377.946 559.977C377.883 559.913 377.819 559.659 378.01 559.277C378.201 558.895 379.919 557.05 384.692 555.395C391.883 552.913 413.074 547.122 422.238 544.768L428.92 542.859C442.793 538.658 468.63 530.895 480.593 533.949H480.721V534.077C479.384 535.413 461.184 537.258 460.42 537.322C445.338 540.504 378.774 559.786 378.074 559.977H377.946ZM422.238 544.831C413.138 547.186 391.947 552.977 384.756 555.459C377.565 557.941 378.074 559.277 378.074 559.659C381.128 558.768 445.529 540.249 460.357 537.068C460.548 537.068 478.175 535.222 480.339 533.949C468.375 531.086 442.729 538.722 428.984 542.859L422.238 544.831Z" fill="#102A54"/>
<path d="M275.488 598.669C276.952 601.278 280.452 601.023 280.452 601.023L289.807 597.523C287.538 598.212 285.218 598.722 282.87 599.051C280.407 599.375 277.905 599.245 275.488 598.669Z" fill="#102A54"/>
<path d="M360.065 599.878C357.646 604.841 351.855 607.069 351.855 607.069C351.855 607.069 360.001 604.841 366.428 601.023C366.428 601.023 361.91 594.532 361.465 587.214C361.528 590.523 361.465 596.887 360.065 599.878Z" fill="#102A54"/>
<path d="M351.855 607.132V606.941C351.919 606.941 357.71 604.714 360.001 599.814C361.465 596.759 361.465 590.014 361.401 587.214H361.592C362.101 594.405 366.556 600.896 366.619 600.96V601.087H366.556C360.128 604.905 351.983 607.132 351.855 607.132ZM361.528 589.123C361.592 592.368 361.337 597.396 360.128 599.878C358.41 603.441 354.91 605.669 353.065 606.623C355.61 605.796 361.465 603.823 366.301 601.023C365.856 600.26 362.547 595.169 361.528 589.123Z" fill="#102A54"/>
<path d="M361.464 587.15C361.4 584.923 361.273 584.095 361.464 587.15V587.15Z" fill="#102A54"/>
<path d="M361.336 587.214C361.209 585.178 361.209 585.178 361.272 585.178H361.4C361.523 585.849 361.566 586.533 361.527 587.214H361.336Z" fill="#102A54"/>
<path d="M313.927 491.312C312.018 499.076 306.354 509.258 295.281 521.986C309.154 519.949 316.854 515.749 316.854 515.749L317.109 514.604C317.363 513.522 318.445 496.913 318.445 487.176C318.502 474.652 319.224 462.141 320.609 449.694C322.136 436.521 331.045 413.739 331.427 413.102C331.809 412.466 321.054 428.248 319.336 438.43C317.618 448.612 315.836 483.485 313.927 491.312Z" fill="#102A54"/>
<path d="M295.027 522.113L295.218 521.922C305.528 510.085 311.764 499.776 313.864 491.249C314.882 487.049 315.9 474.767 316.855 462.93C317.682 452.748 318.446 443.075 319.21 438.43C320.928 428.312 331.301 413.166 331.364 413.039L331.555 413.166C331.237 413.611 322.264 436.266 320.737 449.694C319.358 462.141 318.635 474.653 318.573 487.176C318.573 497.04 317.491 513.522 317.173 514.667L316.919 515.813C316.791 515.813 309.028 520.013 295.282 522.049L295.027 522.113ZM330.919 414.12C328.628 417.557 320.864 429.902 319.4 438.43C318.637 443.139 317.873 452.748 317.046 462.93C316.091 474.83 315.073 487.112 314.055 491.312C311.955 499.776 305.718 510.085 295.536 521.858C308.582 519.949 316.155 516.004 316.791 515.686L317.046 514.604C317.3 513.458 318.382 496.976 318.382 487.176C318.443 474.653 319.165 462.141 320.546 449.694C321.882 438.112 328.946 418.83 330.919 414.12Z" fill="#102A54"/>
<path d="M101.188 440.275C107.694 436.447 114.667 433.474 121.933 431.43C122.086 431.334 122.202 431.191 122.266 431.023C122.33 430.855 122.337 430.671 122.287 430.498C122.236 430.325 122.131 430.174 121.987 430.066C121.843 429.959 121.668 429.901 121.488 429.902C114.109 432.028 107.014 435.041 100.36 438.875C100.215 439.002 100.119 439.176 100.089 439.367C100.058 439.557 100.095 439.752 100.193 439.918C100.291 440.085 100.444 440.211 100.626 440.276C100.808 440.341 101.006 440.341 101.188 440.275Z" fill="#102A54"/>
<path d="M105.258 449.376C106.594 447.976 108.694 447.276 110.413 446.512C112.131 445.749 114.231 444.858 116.14 444.158C120.035 442.707 124.008 441.475 128.04 440.467C128.192 440.371 128.309 440.228 128.373 440.06C128.437 439.892 128.444 439.708 128.394 439.535C128.343 439.363 128.238 439.211 128.094 439.104C127.95 438.996 127.775 438.938 127.595 438.939C123.376 439.953 119.23 441.25 115.185 442.821C113.213 443.585 111.24 444.349 109.331 445.24C107.422 446.13 105.513 446.767 104.113 448.23C102.713 449.694 104.558 450.14 105.258 449.376Z" fill="#102A54"/>
<path d="M109.714 461.466C113.341 458.857 117.732 457.712 121.805 455.866C125.878 454.021 130.078 451.412 134.469 449.694C135.423 449.312 135.041 447.784 134.087 448.166C129.632 449.884 125.559 452.366 121.232 454.339C116.905 456.312 112.641 457.394 108.95 460.13C108.123 460.703 108.886 462.103 109.714 461.466Z" fill="#102A54"/>
<path d="M277.461 593.323L293.752 582.887C296.297 581.232 298.715 579.832 301.643 579.069C304.57 578.305 307.37 577.987 310.107 577.159C310.307 577.091 310.474 576.949 310.572 576.762C310.671 576.575 310.694 576.357 310.637 576.153C310.58 575.949 310.447 575.775 310.266 575.666C310.084 575.558 309.868 575.523 309.661 575.569C306.925 576.459 303.997 576.778 301.197 577.541C298.354 578.369 295.667 579.659 293.243 581.36L276.697 591.923C275.806 592.496 276.633 593.832 277.461 593.323Z" fill="#102A54"/>
<path d="M280.452 601.596C285.734 598.669 290.952 595.296 296.616 593.069C302.28 590.841 307.689 589.759 313.353 588.487C314.371 588.296 313.925 586.768 312.971 586.959C307.18 588.232 301.389 589.505 295.916 591.669C290.443 593.832 284.97 597.269 279.625 600.26C278.734 600.769 279.561 602.105 280.452 601.596Z" fill="#102A54"/>
<path d="M319.082 569.268C321.31 575.314 323.282 581.423 325.064 587.66C325.319 588.614 326.91 588.232 326.592 587.214C324.81 581.041 322.837 574.868 320.61 568.823C320.292 567.868 318.764 568.314 319.082 569.268Z" fill="#102A54"/>
<path d="M285.037 606.878C290.593 608.06 296.369 607.663 301.71 605.732C306.738 603.887 311.256 600.387 316.729 599.814C317.747 599.75 317.747 598.159 316.729 598.223C311.32 598.796 306.929 601.914 302.028 603.887C296.775 605.984 291.022 606.493 285.483 605.35C284.465 605.096 284.019 606.687 285.037 606.878Z" fill="#102A54"/>
<defs>
<filter id="filter0_bd_575_427" x="125.379" y="0.313965" width="363.371" height="295.74" filterUnits="userSpaceOnUse" color-interpolation-filters="sRGB">
<feFlood flood-opacity="0" result="BackgroundImageFix"/>
<feGaussianBlur in="BackgroundImage" stdDeviation="18.9231"/>
<feComposite in2="SourceAlpha" operator="in" result="effect1_backgroundBlur_575_427"/>
<feColorMatrix in="SourceAlpha" type="matrix" values="0 0 0 0 0 0 0 0 0 0 0 0 0 0 0 0 0 0 127 0" result="hardAlpha"/>
<feOffset dy="30"/>
<feGaussianBlur stdDeviation="40"/>
<feComposite in2="hardAlpha" operator="out"/>
<feColorMatrix type="matrix" values="0 0 0 0 0 0 0 0 0 0 0 0 0 0 0 0 0 0 0.17 0"/>
<feBlend mode="normal" in2="effect1_backgroundBlur_575_427" result="effect2_dropShadow_575_427"/>
<feBlend mode="normal" in="SourceGraphic" in2="effect2_dropShadow_575_427" result="shape"/>
</filter>
<clipPath id="clip0_575_427">
<rect width="364" height="296" fill="white" transform="translate(124.949 0.205078)"/>
</clipPath>
</defs>
</svg>
