<svg width="130" height="78" viewBox="0 0 130 78" fill="none" xmlns="http://www.w3.org/2000/svg">
<path d="M10.168 42.0782V23.2188C10.168 19.6335 11.3043 16.3979 13.3728 14.1243L6.32224 4.94238C2.44732 8.20707 0 13.1041 0 18.5841V46.6837C0 51.2601 1.71895 55.4576 4.57415 58.6057L12.4114 49.9193C10.9547 47.7622 10.168 45.0514 10.168 42.0782Z" fill="#008C99"/>
<path d="M38.1937 0.686523H17.8577C13.4583 0.686523 9.43773 2.28972 6.32031 4.94227L13.3709 14.1242C15.2647 12.0255 17.9451 10.7429 21.2082 10.7429H34.8432C37.9898 10.7429 40.6119 11.9089 42.5639 13.8327L49.5854 4.82568C46.4971 2.23142 42.5348 0.686523 38.1937 0.686523Z" fill="#344170"/>
<path d="M46.15 23.1312V61.637C46.15 61.6953 46.1791 61.7828 46.2374 61.8119C46.2957 61.8411 46.3831 61.8411 46.4413 61.8119C51.7438 58.489 55.9684 52.834 55.9684 46.6253V18.4966C55.9684 13.0165 53.4919 8.11952 49.617 4.82568L42.5664 13.8327C44.8389 16.1355 46.15 19.4293 46.15 23.1312Z" fill="#FCCC3E"/>
<path d="M17.9489 64.6682H31.0012L38.7802 76.9108C38.8093 76.9399 39.1881 77.4937 39.8582 77.4937C39.8873 77.4937 39.9456 77.4937 40.0038 77.4937C40.7614 77.4063 40.9944 76.9691 41.1984 76.4735L43.4126 65.601C43.4126 65.5427 43.4126 65.4844 43.3835 65.4552L36.4203 54.6992C36.3911 54.6409 36.3329 54.6118 36.2455 54.6118H21.2702C17.337 54.6118 14.2779 52.7754 12.3841 49.8896L4.54688 58.6343C7.8391 62.3946 12.5881 64.6682 17.9489 64.6682Z" fill="#A6DCDD"/>
<path d="M69.8944 10.4514H66.7188V8.67334H75.0513V10.4514H71.8465V19.9831H69.8944V10.4514Z" fill="#344170"/>
<path d="M76.4492 19.9828V8.70215H78.343V12.4041C78.8383 11.996 79.5958 11.7919 80.1493 11.7919C83.2376 11.7919 83.5581 13.9198 83.5581 15.8145V19.9828H81.6643V15.8145C81.6643 14.6777 81.4895 13.3951 79.858 13.4534C79.1879 13.4826 78.5761 13.8907 78.343 14.2405V19.9828H76.4492Z" fill="#344170"/>
<path d="M91.6291 18.9628C90.755 19.6915 89.8518 20.0996 88.6573 20.0996C85.569 20.0996 84.6367 17.6802 84.6367 15.9604C84.6367 14.2698 85.569 11.8213 88.6573 11.8213C90.7841 11.8213 91.9495 13.1913 91.9495 15.2609C91.9495 15.6107 91.9204 16.0187 91.833 16.5143H86.5596C86.6762 17.3013 87.1423 18.409 88.6282 18.409C89.3565 18.409 90.114 18.1758 90.6967 17.7385L91.6291 18.9628ZM86.647 14.9694H90.114C90.1432 14.299 89.7936 13.4828 88.6282 13.4245C87.3462 13.4536 86.851 14.2115 86.647 14.9694Z" fill="#344170"/>
<path d="M75.2274 34.4117C75.2274 36.1898 73.5084 37.5889 71.1777 37.5889C69.4878 37.5889 68.2933 37.21 66.9531 36.5104L67.7106 34.9072C68.7595 35.4028 69.8666 35.7817 71.032 35.7817C72.1391 35.7817 73.1588 35.257 73.1588 34.3825C73.1588 31.7008 67.0988 33.1583 67.0988 29.1649C67.0988 27.1536 68.6138 25.9585 70.7115 25.9585C71.3525 25.9585 72.8966 26.0751 74.703 26.9204L73.9746 28.5819C73.188 28.2613 71.7604 27.824 71.0611 27.824C69.9831 27.824 69.1674 28.0281 69.08 29.0483C69.1382 31.3219 75.2274 30.0102 75.2274 34.4117Z" fill="#344170"/>
<path d="M84.549 33.3914C84.549 35.1404 83.6167 37.5598 80.5284 37.5598C77.4401 37.5598 76.5078 35.1404 76.5078 33.3914C76.5078 31.7008 77.4401 29.2231 80.5284 29.2231C83.6167 29.2231 84.549 31.7008 84.549 33.3914ZM82.6552 33.3914C82.6552 32.7502 82.393 30.8846 80.5284 30.8846C78.6638 30.8846 78.4016 32.7793 78.4016 33.3914C78.4016 34.0036 78.6638 35.8983 80.5284 35.8983C82.393 35.8983 82.6552 34.0327 82.6552 33.3914Z" fill="#344170"/>
<path d="M93.1157 36.015C92.2999 36.9478 91.3385 37.5599 89.9109 37.5599C86.8226 37.5599 85.832 35.1405 85.832 33.4499C85.832 31.6718 86.6478 29.2524 89.8526 29.2524C91.222 29.2524 92.1834 29.8937 92.97 30.7099L91.8629 31.9341C91.3676 31.3803 90.581 30.9722 89.8526 30.9722C88.4833 30.9722 87.7258 32.1965 87.7258 33.4207C87.7258 34.9365 88.7455 35.7235 89.8818 35.7235C90.4645 35.7235 91.1928 35.4612 91.8047 34.849L93.1157 36.015Z" fill="#344170"/>
<path d="M95.6774 25.7256C96.2893 25.7256 96.7845 26.2211 96.7845 26.8332C96.7845 27.4745 96.2893 27.9409 95.6774 27.9409C95.0365 27.9409 94.5703 27.4745 94.5703 26.8332C94.5994 26.2211 95.0656 25.7256 95.6774 25.7256ZM96.6389 37.4435H94.716V29.3692H96.6389V37.4435Z" fill="#344170"/>
<path d="M104.712 32.6629V37.4434H103.43L103.226 36.8021C102.585 37.3268 101.769 37.5891 101.099 37.5891C98.6227 37.5891 98.2148 35.8693 98.2148 35.1115C98.2148 32.9544 99.9338 32.488 101.594 32.488C102.002 32.488 102.41 32.5463 102.76 32.5755V32.4297C102.731 31.118 102.323 30.8848 101.449 30.8848C101.041 30.8848 100.05 31.118 99.2637 31.4387L98.681 30.0395C99.6133 29.5731 100.487 29.2817 101.361 29.2234C104.479 29.0776 104.712 30.9431 104.712 32.6629ZM102.789 34.0912C102.527 34.0621 102.148 34.0038 101.769 34.0038C100.954 34.0038 100.021 34.1787 100.021 34.9657C100.021 35.6653 100.546 35.9859 101.157 35.9859C101.944 35.9859 102.527 35.4612 102.76 35.0532V34.0912H102.789Z" fill="#344170"/>
<path d="M108.587 37.4436H106.664V26.1338H108.587V37.4436Z" fill="#344170"/>
<path d="M78.1391 49.2194C78.1391 50.8518 77.5564 52.9214 75.8374 54.0873L78.4304 57.1771V57.2646H76.1288L74.0602 54.8452C73.6523 54.9326 73.0988 54.9909 72.5743 54.9909C68.2624 54.9909 66.9805 51.6097 66.9805 49.1903C66.9805 46.8292 68.2624 43.3896 72.5743 43.3896C76.8571 43.4479 78.1391 46.8875 78.1391 49.2194ZM76.1288 49.2194C76.1288 48.2284 75.6626 45.226 72.5743 45.226C69.4278 45.226 68.9908 48.1992 68.9908 49.2194C68.9908 50.2397 69.4569 53.242 72.5743 53.242C75.6918 53.242 76.1288 50.2397 76.1288 49.2194Z" fill="#344170"/>
<path d="M84.7833 46.8003H86.6771V54.8746H85.4243L85.1912 54.2333C84.5502 54.7288 83.7636 54.9912 82.977 54.9912C79.9469 54.9912 79.5391 52.8341 79.5391 50.9686V46.8003H81.462V50.9686C81.462 51.9597 81.6368 53.3297 83.0352 53.3297C83.8219 53.3297 84.4628 52.8924 84.7542 52.4552V46.8003H84.7833Z" fill="#344170"/>
<path d="M95.0666 53.8544C94.1925 54.5831 93.2893 54.9912 92.0948 54.9912C89.0065 54.9912 88.0742 52.5718 88.0742 50.852C88.0742 49.1614 89.0065 46.7129 92.0948 46.7129C94.2217 46.7129 95.387 48.0829 95.387 50.1525C95.387 50.5023 95.3579 50.9103 95.2705 51.4059H89.9971C90.1137 52.1929 90.5798 53.3006 92.0657 53.3006C92.794 53.3006 93.5516 53.0674 94.1342 52.6301L95.0666 53.8544ZM90.1137 49.8901H93.5807C93.6098 49.2197 93.2602 48.4035 92.0948 48.3452C90.7838 48.3744 90.3176 49.1323 90.1137 49.8901Z" fill="#344170"/>
<path d="M102.585 52.6301C102.585 54.0584 101.303 55.0203 99.6132 55.0203C98.3604 55.0203 97.4864 54.7289 96.4375 54.1459L97.1367 52.6884C97.9234 53.0965 98.7391 53.388 99.4966 53.388C100.108 53.388 100.633 53.0965 100.633 52.6593C100.633 51.2018 96.6123 51.9597 96.6123 49.1323C96.6123 47.6165 97.6903 46.7129 99.2927 46.7129C99.7589 46.7129 100.924 46.8003 102.323 47.4999L101.623 49.0157C100.983 48.7242 100.108 48.4327 99.584 48.4327C99.0014 48.4327 98.4769 48.5784 98.4478 49.074C98.4769 50.2108 102.585 49.6861 102.585 52.6301Z" fill="#344170"/>
<path d="M103.078 48.4616V46.8293H103.952L104.127 45.2261H105.875V46.8293H107.448V48.4616H105.875V52.6299C105.875 53.038 105.933 53.4169 106.458 53.3586C106.633 53.3295 107.011 53.2712 107.594 53.1254L107.914 54.6412C106.924 54.9327 106.137 54.991 105.788 54.991C104.127 54.991 103.952 53.4461 103.952 52.8923V48.4616H103.078Z" fill="#344170"/>
<path d="M109.666 43.1855C110.278 43.1855 110.773 43.6811 110.773 44.2932C110.773 44.9345 110.278 45.4009 109.666 45.4009C109.025 45.4009 108.559 44.9345 108.559 44.2932C108.588 43.6811 109.054 43.1855 109.666 43.1855ZM110.627 54.9034H108.704V46.8292H110.627V54.9034Z" fill="#344170"/>
<path d="M120.268 50.8519C120.268 52.6008 119.335 55.0202 116.247 55.0202C113.159 55.0202 112.227 52.6008 112.227 50.8519C112.227 49.1613 113.159 46.6836 116.247 46.6836C119.335 46.6836 120.268 49.1613 120.268 50.8519ZM118.374 50.8519C118.374 50.2106 118.112 48.3451 116.247 48.3451C114.383 48.3451 114.12 50.2398 114.12 50.8519C114.12 51.464 114.383 53.3587 116.247 53.3587C118.112 53.3587 118.374 51.464 118.374 50.8519Z" fill="#344170"/>
<path d="M123.792 54.9038H121.898V46.8295H123.151L123.384 47.4708C124.025 46.9752 124.812 46.7129 125.599 46.7129C128.629 46.7129 129.036 48.8699 129.036 50.7355V54.9038H127.114V50.7355C127.114 49.7444 126.939 48.3744 125.54 48.3744C124.754 48.3744 124.113 48.8116 123.821 49.2489V54.9038H123.792Z" fill="#344170"/>
</svg>
