<?xml version="1.0" standalone="no"?>
<!DOCTYPE svg PUBLIC "-//W3C//DTD SVG 1.1//EN" "http://www.w3.org/Graphics/SVG/1.1/DTD/svg11.dtd" >
<svg xmlns="http://www.w3.org/2000/svg" xmlns:xlink="http://www.w3.org/1999/xlink" version="1.1">
<metadata>
Created by FontForge 20170731 at Mon Aug  8 10:48:11 2022
 By Aleksey,,,
Copyright (c) 2012 by Ahmet Altun. All rights reserved.
</metadata>
<defs>
<font id="HalisGR-Medium" horiz-adv-x="1191" >
  <font-face 
    font-family="Halis GR Medium"
    font-weight="500"
    font-stretch="normal"
    units-per-em="2048"
    panose-1="2 0 6 5 4 0 0 2 0 4"
    ascent="1638"
    descent="-410"
    x-height="1024"
    cap-height="1434"
    bbox="-379 -688 2394 2028"
    underline-thickness="102"
    underline-position="-368"
    unicode-range="U+0020-FB04"
  />
<missing-glyph horiz-adv-x="1003" 
d="M942 1331v-1229h-881v1229h881zM430 428q0 -25 19 -43t45 -18q25 0 42 18t17 43t-17 41t-42 16q-27 0 -45.5 -16.5t-18.5 -40.5zM537 547v57q0 22 23.5 54t51 61t51 73.5t23.5 88.5q0 79 -50 123.5t-128 44.5q-65 0 -112 -25t-101 -82l59 -57q38 40 67.5 58.5t65.5 19.5
q30 1 50.5 -7t30 -22.5t13 -27.5t3.5 -27q0 -32 -14.5 -61.5t-35 -53t-41 -46.5t-35 -51.5t-14.5 -58.5v-61h93z" />
    <glyph glyph-name="f_f" unicode="ff" horiz-adv-x="1320" 
d="M1341 1389l-69 -187q-109 41 -193 41q-58 0 -96.5 -33.5t-38.5 -105.5v-80h199v-207h-199v-817h-244v817h-325v-817h-244v817h-111v207h111v88q0 91 29 157.5t81 104.5t115.5 56t139.5 18q160 0 323 -68q95 74 244 74q142 0 278 -65zM375 1024h325v88q0 49 15 107
q-75 28 -172 28q-74 0 -121 -33.5t-47 -109.5v-80z" />
    <glyph glyph-name="fi" unicode="fi" horiz-adv-x="1163" 
d="M999 1024v-1024h-243v817h-381v-817h-244v817h-111v207h111v88q0 167 102.5 254.5t260.5 87.5q142 0 278 -65l-70 -187q-109 41 -192 41q-58 0 -96.5 -33.5t-38.5 -105.5v-80h624z" />
    <glyph glyph-name="fl" unicode="fl" horiz-adv-x="1167" 
d="M1004 1434v-1434h-242v1149q-29 41 -94 68.5t-131 27.5q-71 0 -116.5 -34.5t-45.5 -106.5v-80h209v-207h-209v-817h-244v817h-111v207h111v88q0 90 28.5 157.5t78.5 106t109.5 56.5t129.5 18q84 0 175.5 -32.5t148.5 -90.5l55 107h148z" />
    <glyph glyph-name="f_f_i" unicode="ffi" horiz-adv-x="1716" 
d="M1341 1389l-69 -187q-109 41 -193 41q-58 0 -96.5 -33.5t-38.5 -105.5v-80h608v-1024h-243v817h-365v-817h-244v817h-325v-817h-244v817h-111v207h111v88q0 91 29 157.5t81 104.5t115.5 56t139.5 18q160 0 323 -68q95 74 244 74q142 0 278 -65zM375 1024h325v88
q0 49 15 107q-75 28 -172 28q-74 0 -121 -33.5t-47 -109.5v-80z" />
    <glyph glyph-name="f_f_l" unicode="ffl" horiz-adv-x="1738" 
d="M1575 1434v-1434h-242v1149q-29 41 -94 68.5t-131 27.5q-71 0 -116.5 -34.5t-45.5 -106.5v-80h209v-207h-209v-817h-244v817h-327v-817h-244v817h-111v207h111v88q0 91 29 157.5t81 104.5t115.5 56t139.5 18q158 0 321 -68q90 70 232 70q84 0 175 -32.5t148 -90.5l55 107
h148zM702 1112q0 53 13 107q-75 28 -172 28q-74 0 -121 -33.5t-47 -109.5v-80h327v88z" />
    <glyph glyph-name="f_h" unicode="fh" horiz-adv-x="1789" 
d="M1004 1434v-471q43 37 106.5 57t122.5 20q82 0 147 -16t110 -42.5t78 -67t51.5 -82t29.5 -96.5t14.5 -102t3.5 -106v-528h-242v528q0 42 -2.5 73.5t-10 69t-23.5 64t-40.5 49.5t-63 34.5t-89.5 10.5q-60 -1 -114 -32t-78 -68v-729h-242v1149q-29 41 -94 68.5t-131 27.5
q-71 0 -116.5 -34.5t-45.5 -106.5v-80h209v-207h-209v-817h-244v817h-111v207h111v88q0 90 28.5 157.5t78.5 106t109.5 56.5t129.5 18q84 0 175.5 -32.5t148.5 -90.5l55 107h148z" />
    <glyph glyph-name="f_j" unicode="fj" horiz-adv-x="1165" 
d="M999 1024v-1026q0 -101 -19 -168q-56 -198 -251 -233q-40 -7 -84 -7q-92 0 -171 35t-122 76l105 174q108 -63 174 -63q57 0 91 45.5t34 140.5v819h-381v-817h-244v817h-111v207h111v88q0 167 102.5 254.5t260.5 87.5q142 0 278 -65l-70 -187q-109 41 -192 41
q-58 0 -96.5 -33.5t-38.5 -105.5v-80h624z" />
    <glyph glyph-name="f_k" unicode="fk" horiz-adv-x="1763" 
d="M1425 0l-421 465v-465h-242v1149q-29 41 -94 68.5t-131 27.5q-71 0 -116.5 -34.5t-45.5 -106.5v-80h209v-207h-209v-817h-244v817h-111v207h111v88q0 90 28.5 157.5t78.5 106t109.5 56.5t129.5 18q84 0 175.5 -32.5t148.5 -90.5l55 107h148v-846l393 436h266l4 -16
l-430 -471l465 -519l-8 -18h-269z" />
    <glyph glyph-name="f_b" unicode="fb" horiz-adv-x="1853" 
d="M1221 1040q113 0 203.5 -34.5t146.5 -89t93 -126t52 -140.5t15 -138q0 -70 -15 -139.5t-52 -140.5t-92 -125.5t-143 -88.5t-198 -34q-158 0 -283 96l-28 -80h-158v1149q-28 41 -101 68.5t-137 27.5q-65 0 -107 -35t-42 -106v-80h209v-207h-209v-817h-244v817h-111v207
h111v88q0 90 28.5 157.5t78.5 106t109.5 56.5t129.5 18q84 0 175.5 -32.5t148.5 -90.5l55 107h148v-433q103 39 217 39zM1221 193q57 0 102.5 17.5t73.5 47.5t48 64t29.5 72t13 66t3.5 52q0 33 -6.5 70t-26 82.5t-49.5 81.5t-83.5 60.5t-121.5 24.5q-118 0 -200 -57v-469
q72 -112 217 -112z" />
    <glyph glyph-name="f_f_b" unicode="ffb" horiz-adv-x="2424" 
d="M1792 1040q113 0 203.5 -34.5t146.5 -89t93 -126t52 -140.5t15 -138q0 -70 -15 -139.5t-52 -140.5t-92 -125.5t-143 -88.5t-198 -34q-157 0 -282 96l-29 -80h-158v1149q-29 41 -94 68.5t-131 27.5q-72 0 -117 -34t-45 -107v-80h209v-207h-209v-817h-244v817h-327v-817
h-244v817h-111v207h111v88q0 91 29 157.5t81 104.5t115.5 56t139.5 18q158 0 321 -68q90 70 232 70q83 0 174.5 -33t148.5 -90l55 107h148v-433q107 39 217 39zM1792 193q57 0 102.5 17.5t73.5 47.5t48 64t29.5 72t13 66t3.5 52q0 26 -5 56t-16 67.5t-32.5 71t-51.5 62
t-77 45.5t-104 17q-121 0 -201 -57v-469q69 -112 217 -112zM702 1024v88q0 53 13 107q-75 28 -172 28q-74 0 -121 -33.5t-47 -109.5v-80h327z" />
    <glyph glyph-name="f_f_h" unicode="ffh" horiz-adv-x="2361" 
d="M1575 0h-242v1149q-29 41 -94 68.5t-131 27.5q-72 0 -117 -34t-45 -107v-80h209v-207h-209v-817h-244v817h-327v-817h-244v817h-111v207h111v88q0 91 29 157.5t81 104.5t115.5 56t139.5 18q158 0 321 -68q90 70 232 70q83 0 174.5 -33t148.5 -90l55 107h148v-471
q44 39 106.5 58t122.5 19q82 0 147 -16t110 -42.5t78 -67t51.5 -82t29.5 -96.5t14.5 -102t3.5 -106v-528h-241v528q0 51 -3.5 88.5t-17.5 81t-37.5 70.5t-67.5 45t-104 16q-62 -1 -114 -31t-78 -69v-729zM702 1024v88q0 53 13 107q-75 28 -172 28q-74 0 -121 -33.5
t-47 -109.5v-80h327z" />
    <glyph glyph-name="f_f_j" unicode="ffj" horiz-adv-x="1716" 
d="M905 -299l105 174q105 -63 174 -63q57 0 91 45.5t34 140.5v819h-365v-817h-244v817h-325v-817h-244v817h-111v207h111v88q0 91 29 157.5t81 104.5t115.5 56t139.5 18q160 0 323 -68q95 74 244 74q145 0 278 -65l-69 -187q-112 41 -193 41q-58 0 -96.5 -33.5t-38.5 -105.5
v-80h608v-1026q0 -103 -20 -171q-58 -199 -257 -231q-36 -6 -77 -6q-92 0 -172.5 35.5t-120.5 75.5zM375 1024h325v88q0 49 15 107q-75 28 -172 28q-74 0 -121 -33.5t-47 -109.5v-80z" />
    <glyph glyph-name="f_f_k" unicode="ffk" horiz-adv-x="2349" 
d="M1997 0l-422 465v-465h-242v1149q-29 41 -94 68.5t-131 27.5q-72 0 -117 -34t-45 -107v-80h209v-207h-209v-817h-244v817h-327v-817h-244v817h-111v207h111v88q0 91 29 157.5t81 104.5t115.5 56t139.5 18q158 0 321 -68q90 70 232 70q83 0 174.5 -33t148.5 -90l55 107
h148v-846l393 436h287l-447 -487l480 -537h-291zM702 1024v88q0 53 13 107q-75 28 -172 28q-74 0 -121 -33.5t-47 -109.5v-80h327z" />
    <glyph glyph-name=".notdef" horiz-adv-x="1003" 
d="M942 1331v-1229h-881v1229h881zM430 428q0 -25 19 -43t45 -18q25 0 42 18t17 43t-17 41t-42 16q-27 0 -45.5 -16.5t-18.5 -40.5zM537 547v57q0 22 23.5 54t51 61t51 73.5t23.5 88.5q0 79 -50 123.5t-128 44.5q-65 0 -112 -25t-101 -82l59 -57q38 40 67.5 58.5t65.5 19.5
q30 1 50.5 -7t30 -22.5t13 -27.5t3.5 -27q0 -32 -14.5 -61.5t-35 -53t-41 -46.5t-35 -51.5t-14.5 -58.5v-61h93z" />
    <glyph glyph-name=".null" horiz-adv-x="0" 
 />
    <glyph glyph-name="nonmarkingreturn" horiz-adv-x="682" 
 />
    <glyph glyph-name="space" unicode=" " horiz-adv-x="614" 
 />
    <glyph glyph-name="exclam" unicode="!" horiz-adv-x="688" 
d="M465 1434v-576l-39 -432h-166l-37 432v576h242zM205 133q0 60 39.5 99.5t99.5 39.5q59 0 99 -39.5t40 -99.5q0 -59 -40.5 -100t-98.5 -41q-59 0 -99 41t-40 100z" />
    <glyph glyph-name="quotedbl" unicode="&#x22;" horiz-adv-x="774" 
d="M692 1434l-47 -496h-153l-48 496h248zM330 1434l-47 -496h-154l-47 496h248z" />
    <glyph glyph-name="numbersign" unicode="#" horiz-adv-x="1177" 
d="M123 805h172v219h194v-219h197v219h195v-219h174v-193h-174v-198h174v-193h-174v-221h-195v221h-197v-221h-194v221h-172v193h172v198h-172v193zM489 612v-198h197v198h-197z" />
    <glyph glyph-name="dollar" unicode="$" horiz-adv-x="1294" 
d="M733 -170h-182v158q-117 9 -217.5 41t-210.5 90l96 205q187 -92 332 -109v432q-51 15 -86.5 27t-82 32t-78 40.5t-65 51t-53 65.5t-32.5 82.5t-13 103.5q0 177 112.5 285t297.5 120v182h182v-190q184 -27 371 -113l-92 -211q-147 58 -279 84v-364q53 -17 90.5 -30.5
t87 -36t83.5 -46t70 -58.5t57.5 -74.5t35.5 -94t14 -117.5q0 -156 -122.5 -266.5t-315.5 -130.5v-158zM911 387q0 74 -46 120.5t-132 80.5v-367q79 18 128.5 61.5t49.5 104.5zM393 1063q0 -57 40.5 -95t117.5 -69v313q-73 -11 -113.5 -45.5t-44.5 -103.5z" />
    <glyph glyph-name="percent" unicode="%" horiz-adv-x="1673" 
d="M377 1446q86 0 150 -32t98 -83t49.5 -104.5t15.5 -108.5q0 -43 -9 -85.5t-32 -87t-57 -77.5t-89.5 -54t-125.5 -21t-126 21t-91 54t-58 77.5t-32 87t-9 85.5q0 55 16 108.5t50 104.5t98.5 83t151.5 32zM377 975q29 0 51.5 11.5t34.5 27.5t20 37t10.5 37t2.5 30
q0 19 -4.5 40t-16 46t-37 41.5t-61.5 16.5q-37 0 -63 -16.5t-37.5 -42t-16 -46t-4.5 -39.5t4.5 -39.5t16 -46t37.5 -41.5t63 -16zM1176 1434l-469 -1434h-207l471 1434h205zM1298 643q70 0 125.5 -21.5t90 -55.5t57.5 -78.5t32 -87t9 -85.5t-9 -85.5t-32 -87t-57.5 -77.5
t-90 -54t-125.5 -21t-126 21t-90.5 54t-57.5 77.5t-32 87t-9 85.5t9 85.5t32 87t57.5 78.5t90.5 55.5t126 21.5zM1298 172q29 0 51.5 11.5t34.5 27.5t20 37t10.5 37t2.5 30q0 19 -4.5 40t-16 46t-37 41.5t-61.5 16.5q-37 0 -63 -16.5t-37 -42t-15.5 -46t-4.5 -39.5
t4.5 -39.5t15.5 -46t37 -41.5t63 -16z" />
    <glyph glyph-name="ampersand" unicode="&#x26;" horiz-adv-x="1458" 
d="M479 1100v-4q0 -39 26 -83t95 -116q68 46 105.5 96t37.5 119q0 57 -34.5 98t-96.5 41q-42 0 -72 -19t-42.5 -45.5t-17 -49.5t-1.5 -37zM399 410q-3 -94 67.5 -153.5t162.5 -59.5q140 0 235 92l-303 321q-160 -105 -162 -200zM969 1114q0 -207 -224 -375l248 -264
q26 53 48 125t30 125l201 -37q-35 -239 -117 -389l180 -190l-157 -146l-160 164q-163 -154 -404 -145q-98 2 -183 37.5t-143 93t-91 132t-33 154.5q0 70 18.5 129t55 105t75.5 79.5t93 67.5l-35 35q-117 129 -117 293q0 64 22.5 123.5t66 109.5t116.5 80.5t164 30.5
q84 0 151.5 -29t109 -77.5t63.5 -108t22 -123.5z" />
    <glyph glyph-name="quotesingle" unicode="'" horiz-adv-x="411" 
d="M330 1434l-47 -496h-154l-47 496h248z" />
    <glyph glyph-name="parenleft" unicode="(" horiz-adv-x="614" 
d="M61 590q0 512 332 989l160 -102q-248 -455 -248 -885q0 -442 248 -897l-160 -103q-332 474 -332 998z" />
    <glyph glyph-name="parenright" unicode=")" horiz-adv-x="614" 
d="M553 590q0 -524 -332 -998l-160 103q248 455 248 897q0 430 -248 885l160 102q332 -477 332 -989z" />
    <glyph glyph-name="asterisk" unicode="*" horiz-adv-x="970" 
d="M410 682l-11 223l-200 -100l-76 131l188 121l-188 123l76 131l200 -103l11 226h151l12 -226l199 103l76 -131l-189 -123l189 -121l-76 -131l-199 100l-12 -223h-151z" />
    <glyph glyph-name="plus" unicode="+" horiz-adv-x="1132" 
d="M469 289v305h-305v194h305v306h195v-306h305v-194h-305v-305h-195z" />
    <glyph glyph-name="comma" unicode="," horiz-adv-x="643" 
d="M293 -348l-117 61q80 138 107 242q-119 25 -119 151q0 61 43 106.5t106 45.5q85 0 125.5 -49t40.5 -119q0 -96 -60.5 -225t-125.5 -213z" />
    <glyph glyph-name="hyphen" unicode="-" horiz-adv-x="897" 
d="M164 696h569v-209h-569v209z" />
    <glyph glyph-name="period" unicode="." horiz-adv-x="636" 
d="M164 141q0 64 46 110t109 46t108.5 -46t45.5 -110t-45.5 -108.5t-108.5 -44.5q-64 0 -109.5 44.5t-45.5 108.5z" />
    <glyph glyph-name="slash" unicode="/" horiz-adv-x="798" 
d="M737 1434l-469 -1434h-207l471 1434h205z" />
    <glyph glyph-name="zero" unicode="0" horiz-adv-x="1325" 
d="M662 1399q100 0 184 -32t141.5 -87t100.5 -124.5t67 -150.5t35.5 -158t11.5 -153q0 -78 -11.5 -155.5t-35.5 -159t-67 -150.5t-100.5 -123.5t-141.5 -86t-184 -31.5q-119 0 -214.5 45.5t-154.5 117t-98.5 167t-55.5 188.5t-16 188q0 93 15.5 185t55.5 187.5t99 168
t154.5 118.5t214.5 46zM662 199q74 0 130.5 40.5t86.5 97.5t49 130.5t24.5 127t5.5 99.5t-5.5 99.5t-24.5 127t-49 130t-86.5 97t-130.5 40.5q-62 0 -112 -27.5t-81 -74t-53 -99t-32.5 -111.5t-14.5 -102t-4 -80q0 -46 5.5 -99.5t24.5 -127t49.5 -130.5t87 -97.5
t130.5 -40.5z" />
    <glyph glyph-name="one" unicode="1" horiz-adv-x="825" 
d="M641 1389v-1389h-244v1014l-217 -119l-98 156l487 338h72z" />
    <glyph glyph-name="two" unicode="2" horiz-adv-x="1095" 
d="M231 1020l-141 149q105 116 222 172t233 56q190 0 309 -102t119 -294q0 -85 -47 -186t-125 -199l-307 -393h440v-223h-866l-7 18l564 738q114 151 114 254q0 75 -45.5 126.5t-146.5 51.5q-137 0 -316 -168z" />
    <glyph glyph-name="three" unicode="3" horiz-adv-x="1081" 
d="M958 997q0 -56 -16.5 -114.5t-55 -112.5t-91.5 -78q70 -26 116.5 -122t46.5 -183q0 -33 -5.5 -68t-20 -75t-36 -76t-57.5 -70t-81.5 -58t-110.5 -39t-141 -15q-75 0 -141.5 16t-119.5 45t-88.5 56t-74.5 63l133 158q57 -55 140 -95.5t151 -40.5q92 0 156.5 52t64.5 147
q0 97 -64 150t-157 53h-187v205h187q93 0 157 52.5t64 149.5q0 95 -64.5 147t-156.5 52q-67 0 -150.5 -40.5t-140.5 -94.5l-133 158q39 36 74.5 63t88.5 56t119.5 45t141.5 16q105 0 188 -28.5t131 -71t79.5 -99t42.5 -106t11 -97.5z" />
    <glyph glyph-name="four" unicode="4" horiz-adv-x="1161" 
d="M885 272v-274h-248v274h-576v138l629 976h195v-897h215v-217h-215zM635 918l-262 -429h264z" />
    <glyph glyph-name="five" unicode="5" horiz-adv-x="1146" 
d="M123 203l160 143q114 -145 258 -145q114 0 180.5 74t66.5 174q0 98 -66.5 169.5t-182.5 71.5h-322v692h705v-215h-463v-272h80q112 0 200 -30.5t140 -77.5t86 -110.5t46.5 -122t12.5 -118.5q0 -33 -6.5 -70.5t-22.5 -81.5t-40 -85t-63 -80t-87.5 -67.5t-117 -46
t-148.5 -17.5q-248 0 -416 215z" />
    <glyph glyph-name="six" unicode="6" horiz-adv-x="1198" 
d="M725 1403l113 -170q-143 -75 -246.5 -180.5t-155.5 -200.5q31 19 78.5 31t85.5 12q111 0 198 -32t137.5 -80.5t83.5 -113t44.5 -121.5t11.5 -114q0 -47 -11.5 -100.5t-45 -117.5t-83.5 -114t-137.5 -84t-197.5 -34q-80 0 -148 18.5t-115.5 49.5t-85.5 72.5t-61 85t-38 90
t-21 84.5t-6 71q-2 620 600 948zM600 199q112 0 176 73t64 172q0 100 -62.5 172t-177.5 72q-113 0 -175 -70.5t-65 -173.5q0 -100 63.5 -172.5t176.5 -72.5z" />
    <glyph glyph-name="seven" unicode="7" horiz-adv-x="985" 
d="M61 1167v215h863v-30l-551 -1352h-250l473 1167h-535z" />
    <glyph glyph-name="eight" unicode="8" horiz-adv-x="1153" 
d="M1030 995q0 -205 -158 -305q70 -43 114 -123.5t44 -181.5q0 -48 -11 -97.5t-42.5 -105.5t-80.5 -99t-132 -71t-189 -28q-76 0 -141 15t-110.5 39t-81.5 58t-57.5 70t-36 76t-20 75t-5.5 68q0 97 44 183.5t114 121.5q-71 38 -114.5 119.5t-43.5 185.5q0 48 11 97.5
t42.5 106t79.5 99t131 71t188 28.5q106 0 189 -28.5t132 -71t80.5 -99t42.5 -106t11 -97.5zM575 186q94 0 158 52t64 147q0 98 -64 150.5t-158 52.5q-93 0 -157 -53t-64 -150q0 -95 64.5 -147t156.5 -52zM575 793q94 0 158 52t64 150q0 95 -64 147t-158 52q-92 0 -156.5 -52
t-64.5 -147q0 -97 64 -149.5t157 -52.5z" />
    <glyph glyph-name="nine" unicode="9" horiz-adv-x="1198" 
d="M473 -16l-113 170q286 166 402 381q-31 -19 -78.5 -31t-85.5 -12q-111 0 -198 32t-137.5 80.5t-83.5 112.5t-44.5 121t-11.5 114q0 32 6 68.5t21 81.5t38 86t61 81t85.5 69t115.5 47t148 18t148 -18.5t115.5 -49.5t85.5 -72.5t61 -85t38 -90t21 -84.5t6 -71
q2 -620 -600 -948zM598 1188q-112 0 -176 -73t-64 -173t62.5 -172t177.5 -72q113 0 175 70.5t65 173.5q0 100 -63.5 173t-176.5 73z" />
    <glyph glyph-name="colon" unicode=":" horiz-adv-x="636" 
d="M164 872q0 64 46 110t109 46t108.5 -46t45.5 -110t-45.5 -108.5t-108.5 -44.5q-64 0 -109.5 44.5t-45.5 108.5zM164 143q0 64 46 110t109 46t108.5 -46t45.5 -110t-45.5 -108.5t-108.5 -44.5q-64 0 -109.5 44.5t-45.5 108.5z" />
    <glyph glyph-name="semicolon" unicode=";" horiz-adv-x="643" 
d="M293 -348l-117 61q80 138 107 242q-119 25 -119 151q0 61 43 106.5t106 45.5q85 0 125.5 -49t40.5 -119q0 -96 -60.5 -225t-125.5 -213zM164 872q0 64 46 110t109 46t108.5 -46t45.5 -110t-45.5 -108.5t-108.5 -44.5q-64 0 -109.5 44.5t-45.5 108.5z" />
    <glyph glyph-name="less" unicode="&#x3c;" horiz-adv-x="882" 
d="M403 606l418 -266l-98 -172l-662 399v78l662 399l98 -172z" />
    <glyph glyph-name="equal" unicode="=" horiz-adv-x="1042" 
d="M879 829h-715v195h715v-195zM879 371h-715v192h715v-192z" />
    <glyph glyph-name="greater" unicode="&#x3e;" horiz-adv-x="882" 
d="M61 340l418 266l-418 266l99 172l661 -399v-78l-661 -399z" />
    <glyph glyph-name="question" unicode="?" horiz-adv-x="1150" 
d="M694 557v-127h-223v133q0 79 34 140t101 135q33 37 50 58t40.5 56.5t34 71t10.5 74.5q0 22 -6.5 44t-22.5 46.5t-51.5 38.5t-85.5 12q-65 -3 -123 -41t-141 -121l-147 144q114 124 214.5 178.5t235.5 54.5q165 0 269 -93.5t104 -260.5q0 -55 -16 -107.5t-49.5 -104.5
t-57.5 -83.5t-67 -81.5q-33 -38 -51.5 -61.5t-35 -53.5t-16.5 -51zM438 125q0 60 42 100.5t102 40.5q59 0 101 -41t42 -100q0 -57 -42.5 -99t-100.5 -42q-62 0 -103 38.5t-41 102.5z" />
    <glyph glyph-name="at" unicode="@" horiz-adv-x="2342" 
d="M1186 1487q234 0 429 -75t327 -206t205 -311t73 -389q0 -97 -16.5 -191.5t-55.5 -187.5t-96.5 -163t-147.5 -113.5t-200 -43.5q-85 0 -150 38.5t-100 111.5q-126 -109 -299 -109q-113 0 -204 35.5t-148 91t-95 129t-53.5 145t-15.5 142.5q0 72 15.5 143.5t53.5 144.5
t95 129t148 91t204 35q167 0 295 -105l29 86h157v-782q4 -113 101 -113q106 0 174.5 137t68.5 339q0 163 -53.5 303t-153.5 243.5t-252.5 162.5t-340.5 59q-254 0 -441 -110t-284.5 -312t-94.5 -473q1 -100 26 -197t79.5 -195.5t134.5 -183.5t200 -159t267 -123l-94 -199
q-210 70 -372 179.5t-265.5 246.5t-156.5 296t-54 335q-2 239 72.5 445t210.5 354.5t337 233.5t441 85zM1395 178v424q-35 52 -94 87.5t-136 35.5q-70 0 -124 -27.5t-83.5 -66t-47.5 -88.5t-23.5 -86.5t-5.5 -67.5q0 -32 5.5 -68.5t24 -85.5t48 -87.5t83 -65.5t123.5 -27
q150 0 230 123z" />
    <glyph glyph-name="A" unicode="A" horiz-adv-x="1452" 
d="M733 1452l658 -1452h-279l-151 367h-469l-152 -367h-279l658 1452h14zM727 934l-149 -359h296z" />
    <glyph glyph-name="B" unicode="B" horiz-adv-x="1370" 
d="M1247 1016q0 -93 -46.5 -178.5t-129.5 -118.5q83 -35 129.5 -123t46.5 -180q0 -56 -15 -110.5t-52 -111t-92.5 -98.5t-145 -69t-201.5 -27h-536v1434h536q112 0 201.5 -27t145 -69.5t92.5 -99.5t52 -111.5t15 -110.5zM770 821q67 1 114 23.5t68.5 56t30 61.5t8.5 54
q0 23 -8.5 51t-30.5 62.5t-71.5 57.5t-118.5 23h-309v-389h317zM762 225q69 0 118.5 22.5t71.5 56.5t30.5 61.5t8.5 50.5q0 22 -4.5 42.5t-19 45.5t-37.5 44t-64.5 32t-95.5 14h-317v-369h309z" />
    <glyph glyph-name="C" unicode="C" horiz-adv-x="1501" 
d="M1378 1204l-168 -160q-63 74 -167 127.5t-209 53.5q-82 0 -150.5 -21.5t-114.5 -56t-82 -82t-56 -94t-33 -97t-17 -87t-4 -68.5t4 -68.5t17 -87t33 -97t56 -94t82 -82t114.5 -56t150.5 -21.5q105 0 209.5 52t185.5 126l145 -182q-227 -227 -540 -227q-157 0 -283 47.5
t-204 123t-130.5 175t-73 196.5t-20.5 195q0 67 10.5 135t35 141t61.5 138.5t94.5 125t129 102.5t169 68t211.5 25q175 0 305.5 -64t238.5 -186z" />
    <glyph glyph-name="D" unicode="D" horiz-adv-x="1538" 
d="M707 0h-502v1434h502q114 0 211.5 -24t168.5 -65t128 -98.5t94 -120.5t61.5 -134.5t34.5 -138.5t10 -134q0 -98 -20.5 -193t-72 -192t-129.5 -169.5t-203.5 -118.5t-282.5 -46zM453 225h254q82 0 150 21t114 54.5t81.5 79.5t55.5 91t32.5 94.5t16.5 85.5t4 68t-4 67.5
t-16.5 85t-32.5 94.5t-55.5 90.5t-81.5 78.5t-114 54t-150 21h-254v-985z" />
    <glyph glyph-name="E" unicode="E" horiz-adv-x="1286" 
d="M1010 594h-555v-369h708v-225h-958v1434h958v-226h-708v-389h555v-225z" />
    <glyph glyph-name="F" unicode="F" horiz-adv-x="1286" 
d="M1010 594h-555v-594h-250v1434h958v-226h-708v-389h555v-225z" />
    <glyph glyph-name="G" unicode="G" horiz-adv-x="1476" 
d="M1102 500h-291v221h543v-528q-211 -211 -520 -211q-157 0 -283 47.5t-204 123t-130.5 175t-73 196.5t-20.5 195q0 67 10.5 135t35 141t61.5 138.5t94.5 125t129 102.5t169 68t211.5 25q170 0 290 -55t222 -166l-156 -164q-60 65 -159 110.5t-197 45.5q-82 0 -150.5 -21.5
t-114.5 -56t-82 -82t-56 -94t-33 -97t-17 -87t-4 -68.5t4 -68.5t17 -87t33 -97t56 -94t82 -82t114.5 -56t150.5 -21.5q186 0 268 76v211z" />
    <glyph glyph-name="H" unicode="H" horiz-adv-x="1579" 
d="M457 594v-594h-252v1434h252v-615h667v615h250v-1434h-250v594h-667z" />
    <glyph glyph-name="I" unicode="I" horiz-adv-x="661" 
d="M457 1434v-1434h-252v1434h252z" />
    <glyph glyph-name="J" unicode="J" horiz-adv-x="1273" 
d="M41 397l221 82q18 -57 41 -100.5t56.5 -81.5t82 -57.5t109.5 -18.5q52 1 94 16t69 37t46.5 53.5t30 60t16 63.5t7 56.5t1.5 45.5v881h254v-881q0 -53 -6.5 -105t-23 -109t-42 -106.5t-66.5 -95t-93.5 -78t-126 -52t-160.5 -19.5q-92 0 -168 21.5t-129.5 57.5t-95.5 90
t-69 111.5t-48 128.5z" />
    <glyph glyph-name="K" unicode="K" horiz-adv-x="1445" 
d="M457 0h-252v1434h252v-592l559 592h297l4 -13l-658 -682l705 -727l-4 -12h-303l-600 637v-637z" />
    <glyph glyph-name="L" unicode="L" horiz-adv-x="1107" 
d="M457 1434v-1209h528v-225h-780v1434h252z" />
    <glyph glyph-name="M" unicode="M" horiz-adv-x="2064" 
d="M1038 -18h-14l-420 847l-274 -829h-269l508 1442h19l444 -926l443 926h18l510 -1442h-268l-277 829z" />
    <glyph glyph-name="N" unicode="N" horiz-adv-x="1581" 
d="M205 1442l16 8l903 -875v859h252v-1440l-18 -8l-901 876v-862h-252v1442z" />
    <glyph glyph-name="O" unicode="O" horiz-adv-x="1665" 
d="M834 1454q113 0 210.5 -25t168.5 -68t128 -102.5t94 -125t61.5 -138.5t35 -141t10.5 -135q0 -69 -10.5 -138t-35 -142.5t-61.5 -139t-94 -124t-128 -101t-168.5 -67.5t-210.5 -25q-157 0 -283 47.5t-204 123t-130.5 175t-73 196.5t-20.5 195q0 67 10.5 135t35 141
t61.5 138.5t94.5 125t129 102.5t169 68t211.5 25zM834 209q81 0 149 22t113.5 56.5t81 82.5t55.5 95t32.5 98t16.5 87.5t4 68.5t-4 68.5t-16.5 87t-32.5 97t-55.5 94t-81 82t-113.5 56t-149 21.5q-82 0 -150.5 -21.5t-114.5 -56t-82 -82t-56 -94t-33 -97t-17 -87t-4 -68.5
t4 -68.5t17 -87.5t33 -98t56 -95t82 -82.5t114.5 -56.5t150.5 -22z" />
    <glyph glyph-name="P" unicode="P" horiz-adv-x="1374" 
d="M457 514v-514h-252v1434h540q112 0 201.5 -30t145 -77t93 -109t52 -121.5t14.5 -119.5q0 -101 -42 -189.5t-110 -147.5t-153 -92.5t-172 -33.5h-317zM764 743q55 1 98 19t68 43.5t41.5 58.5t22 60.5t5.5 52.5q0 35 -10.5 71t-35 74.5t-75.5 63t-122 24.5h-299v-467h307z
" />
    <glyph glyph-name="Q" unicode="Q" horiz-adv-x="1681" 
d="M834 1454q113 0 210.5 -25t168.5 -68t128 -102.5t94 -125t61.5 -138.5t35 -141t10.5 -135q0 -83 -15.5 -165t-48.5 -165.5t-91.5 -159t-137.5 -129.5l330 -393v-12h-293l-264 305q-80 -18 -188 -18q-157 0 -283 47.5t-204 123t-130.5 175t-73 196.5t-20.5 195
q0 67 10.5 135t35 141t61.5 138.5t94.5 125t129 102.5t169 68t211.5 25zM834 209q81 0 149 22t113.5 56.5t81 82.5t55.5 95t32.5 98t16.5 87.5t4 68.5t-4 68.5t-16.5 87t-32.5 97t-55.5 94t-81 82t-113.5 56t-149 21.5q-82 0 -150.5 -21.5t-114.5 -56t-82 -82t-56 -94
t-33 -97t-17 -87t-4 -68.5t4 -68.5t17 -87.5t33 -98t56 -95t82 -82.5t114.5 -56.5t150.5 -22z" />
    <glyph glyph-name="R" unicode="R" horiz-adv-x="1370" 
d="M453 514v-514h-248v1434h536q112 0 201.5 -30t145 -77t93 -109t52 -121.5t14.5 -119.5q0 -150 -84.5 -263t-216.5 -165q40 -86 129.5 -274.5t128.5 -274.5h-270l-242 514h-239zM760 743q55 1 98 19t68 43.5t41.5 58.5t22 60.5t5.5 52.5q0 35 -10.5 71t-35 74.5t-75.5 63
t-122 24.5h-299v-467h307z" />
    <glyph glyph-name="S" unicode="S" horiz-adv-x="1294" 
d="M393 1063q1 -46 28 -80.5t72 -57t103.5 -41.5t123 -38.5t128.5 -42.5t122 -58.5t103 -82t71.5 -117.5t26.5 -160q0 -171 -146.5 -286t-367.5 -115q-155 0 -278 33t-256 102l96 205q239 -113 422 -113q110 0 190 48.5t80 127.5q0 54 -26.5 95t-71 67.5t-102 47
t-121.5 39.5t-128 39.5t-121.5 52t-102 72t-71 104.5t-26.5 145q0 189 127 298t330 109q89 0 223 -26.5t283 -96.5l-92 -211q-86 35 -197 66t-172 31q-55 0 -95.5 -6.5t-76 -23t-55.5 -48t-23 -78.5z" />
    <glyph glyph-name="T" unicode="T" horiz-adv-x="1243" 
d="M494 0v1208h-402v226h1059v-226h-406v-1208h-251z" />
    <glyph glyph-name="U" unicode="U" horiz-adv-x="1497" 
d="M748 209q71 0 128 27t90 66.5t55 88.5t30 88.5t8 71.5v883h254v-883q0 -76 -18 -151.5t-61 -151t-106 -133t-161.5 -93.5t-218.5 -36t-218.5 36t-161 93.5t-105.5 133t-61 151t-18 151.5v883h250v-883q0 -31 8 -71t31 -89t56.5 -88.5t90.5 -66.5t128 -27z" />
    <glyph glyph-name="V" unicode="V" horiz-adv-x="1452" 
d="M1391 1434l-652 -1452h-26l-652 1452h279l387 -934l385 934h279z" />
    <glyph glyph-name="W" unicode="W" horiz-adv-x="2263" 
d="M1524 -18l-394 897l-391 -897h-26l-652 1452h279l387 -912l393 938h21l395 -938l387 912h279l-652 -1452h-26z" />
    <glyph glyph-name="X" unicode="X" horiz-adv-x="1300" 
d="M651 940l301 494h287v-15l-446 -702l446 -705v-12h-287l-301 494l-303 -494h-287v12l449 705l-449 702v15h287z" />
    <glyph glyph-name="Y" unicode="Y" horiz-adv-x="1357" 
d="M805 645v-645h-250v641l-494 793h289l330 -562l330 562h286z" />
    <glyph glyph-name="Z" unicode="Z" horiz-adv-x="1343" 
d="M518 225h690v-225h-1079l-6 14l702 1196h-639v224h1031l4 -17z" />
    <glyph glyph-name="bracketleft" unicode="[" horiz-adv-x="530" 
d="M61 -420v2017h408v-186h-172v-1644h172v-187h-408z" />
    <glyph glyph-name="backslash" unicode="\" horiz-adv-x="798" 
d="M530 0l-469 1434h205l471 -1434h-207z" />
    <glyph glyph-name="bracketright" unicode="]" horiz-adv-x="530" 
d="M469 1597v-2017h-408v187h172v1644h-172v186h408z" />
    <glyph glyph-name="asciicircum" unicode="^" horiz-adv-x="1267" 
d="M317 811l-133 119l424 530h51l424 -530l-133 -119l-315 358z" />
    <glyph glyph-name="underscore" unicode="_" horiz-adv-x="843" 
d="M10 -156v150h824v-150h-824z" />
    <glyph glyph-name="grave" unicode="`" horiz-adv-x="1044" 
d="M336 1573l303 -252l-78 -113l-340 201z" />
    <glyph glyph-name="a" unicode="a" horiz-adv-x="1107" 
d="M520 1038q82 5 147 -5.5t109 -31t76 -55.5t49.5 -70t27.5 -84.5t12.5 -89.5t2.5 -94v-608h-162l-24 82q-59 -48 -132 -74t-137 -26q-90 0 -158.5 24t-106.5 58.5t-62 80t-31.5 81.5t-7.5 71q0 334 428 334q47 0 149 -13v17q-2 82 -21.5 125t-52.5 56t-94 13
q-41 0 -123 -20t-153 -51l-76 178q186 94 340 102zM700 303v121q-82 10 -129 10q-58 0 -104 -9t-81.5 -37.5t-35.5 -74.5q0 -63 41.5 -96t104.5 -33q67 0 121 36t83 83z" />
    <glyph glyph-name="b" unicode="b" horiz-adv-x="1255" 
d="M623 1040q113 0 203.5 -34.5t146.5 -89t93 -126t52 -140.5t15 -138q0 -70 -15 -139.5t-52 -140.5t-92 -125.5t-143 -88.5t-198 -34q-158 0 -283 96l-28 -80h-158v1434h242v-433q103 39 217 39zM623 193q57 0 102.5 17.5t73.5 47.5t48 64t29.5 72t13 66t3.5 52
q0 33 -6.5 70t-26 82.5t-49.5 81.5t-83.5 60.5t-121.5 24.5q-118 0 -200 -57v-469q72 -112 217 -112z" />
    <glyph glyph-name="c" unicode="c" horiz-adv-x="1167" 
d="M881 328l163 -148q-82 -94 -179.5 -144t-225.5 -50q-113 0 -204 34t-148 87.5t-95 124t-53.5 139t-15.5 137.5q0 74 13.5 143t49.5 141.5t92 126t148 87.5t209 34q220 0 395 -186l-139 -156q-48 54 -118 87.5t-138 33.5q-124 0 -197 -92.5t-73 -218.5q0 -138 79.5 -215.5
t192.5 -77.5q60 0 124.5 28.5t119.5 84.5z" />
    <glyph glyph-name="d" unicode="d" horiz-adv-x="1255" 
d="M633 1040q114 0 217 -39v433h242v-1434h-158l-29 80q-125 -96 -282 -96q-110 0 -198 34t-143 88.5t-92 125.5t-52 140.5t-15 139.5q0 69 15 138t52 140.5t93 126t146.5 89t203.5 34.5zM633 193q145 0 217 112v469q-82 57 -201 57q-68 0 -121.5 -24.5t-83.5 -60.5
t-49.5 -81.5t-26 -82.5t-6.5 -70q0 -30 5 -64.5t22.5 -82t45 -84t79.5 -62.5t119 -26z" />
    <glyph glyph-name="e" unicode="e" horiz-adv-x="1114" 
d="M866 289l115 -158q-87 -73 -177 -108t-200 -35q-113 0 -203.5 34t-147 87.5t-94 124.5t-52.5 140t-15 140q0 69 15 137.5t52.5 139.5t94 125t147 88t203.5 34q198 0 308 -117.5t110 -318.5q0 -72 -14 -160h-668q7 -43 22.5 -80.5t44.5 -75.5t79.5 -60.5t117.5 -22.5
q150 0 262 86zM602 829q-199 -2 -252 -194h441q3 75 -42.5 132.5t-146.5 61.5z" />
    <glyph glyph-name="f" unicode="f" horiz-adv-x="751" 
d="M772 1389l-70 -187q-109 41 -192 41q-58 0 -96.5 -33.5t-38.5 -105.5v-80h198v-207h-198v-817h-244v817h-111v207h111v88q0 167 102.5 254.5t260.5 87.5q142 0 278 -65z" />
    <glyph glyph-name="g" unicode="g" horiz-adv-x="1167" 
d="M123 -115q1 37 11.5 74.5t39 76t70.5 56.5q-48 24 -72.5 69.5t-24.5 100.5q0 60 32 111.5t87 62.5q-80 72 -80 221q0 53 11.5 105t41 104.5t73 92t113.5 64t157 24.5q118 0 200 -46l148 136l135 -138l-133 -147q47 -65 47 -195q0 -52 -12 -103t-41.5 -103.5t-73.5 -92.5
t-113.5 -65t-156.5 -25q-92 0 -154 25q-29 0 -49.5 -17.5t-20.5 -39.5q0 -35 37.5 -52.5t93.5 -15.5q132 2 229.5 -10.5t158 -36.5t97 -62.5t50.5 -81.5t14 -100q0 -16 -3 -35t-13.5 -51t-28.5 -61.5t-52 -61t-78.5 -54t-113.5 -37.5t-153 -15q-107 0 -191.5 21.5t-136 54.5
t-85.5 77t-47 86t-13 84zM582 483q38 0 67 14.5t44.5 34t25 46t12 45t2.5 34.5q0 23 -5 47.5t-19 56.5t-47 52.5t-80 20.5q-46 0 -78 -19.5t-46.5 -50.5t-20 -57t-5.5 -50q0 -23 5 -46.5t18.5 -55.5t46 -52t80.5 -20zM582 -221q61 0 107.5 10t68.5 23t35 29.5t15.5 24.5
t2.5 13q0 20 -10 35.5t-30.5 24t-38 14t-48.5 7.5t-46 2.5t-43 0.5h-13q-94 0 -148 -12.5t-70 -30t-16 -43.5q0 -8 5 -18.5t20.5 -24.5t40 -25.5t68.5 -20t100 -9.5z" />
    <glyph glyph-name="h" unicode="h" 
d="M406 0h-242v1434h242v-471q43 37 106.5 57t122.5 20q82 0 147 -16t110 -42.5t78 -67t51.5 -82t29.5 -96.5t14.5 -102t3.5 -106v-528h-242v528q0 42 -2.5 73.5t-10 69t-23.5 64t-40.5 49.5t-63 34.5t-89.5 10.5q-60 -1 -114 -32t-78 -68v-729z" />
    <glyph glyph-name="i" unicode="i" horiz-adv-x="571" 
d="M408 1024v-1024h-244v1024h244zM147 1346q0 59 40 99t100 40q59 0 99 -40.5t40 -98.5q0 -61 -40 -100.5t-99 -39.5q-60 0 -100 39.5t-40 100.5z" />
    <glyph glyph-name="j" unicode="j" horiz-adv-x="563" 
d="M-162 -125q108 -63 174 -63q57 0 91 45.5t34 140.5v1026h244v-1026q0 -101 -19 -168q-56 -198 -251 -233q-40 -7 -84 -7q-92 0 -171 35t-122 76zM121 1348q0 59 39.5 99t99.5 40q58 0 98.5 -40.5t40.5 -98.5q0 -61 -40 -100.5t-99 -39.5q-60 0 -99.5 39.5t-39.5 100.5z
" />
    <glyph glyph-name="k" unicode="k" horiz-adv-x="1179" 
d="M827 0l-421 465v-465h-242v1434h242v-846l393 436h286l-446 -487l479 -537h-291z" />
    <glyph glyph-name="l" unicode="l" horiz-adv-x="571" 
d="M408 1434v-1434h-244v1434h244z" />
    <glyph glyph-name="m" unicode="m" horiz-adv-x="1771" 
d="M406 719v-719h-242v1024h158l28 -80q125 96 283 96q215 0 311 -114l23 18q125 96 282 96q63 0 115 -10t90.5 -26.5t69 -43.5t50.5 -54t34.5 -66t22.5 -72t12 -79t5 -79.5t1 -81.5v-528h-246v528q0 120 -5 154q-18 126 -121 144q-17 3 -38 3q-69 0 -127.5 -32.5
t-87.5 -77.5q8 -61 8 -191v-528h-246v528v30q0 27 0.5 54t-3 53.5t-9 51t-17.5 45t-29 35.5t-43.5 23.5t-61.5 8.5q-71 0 -129.5 -32.5t-87.5 -77.5z" />
    <glyph glyph-name="n" unicode="n" 
d="M406 719v-719h-242v1024h158l28 -80q125 96 283 96q80 0 145 -16t110 -43t78 -67.5t52.5 -83t31 -96.5t15.5 -101.5t4 -104.5v-528h-246v528q0 45 -3.5 81t-15.5 79t-32.5 72t-58.5 49t-90 20q-71 0 -129.5 -32.5t-87.5 -77.5z" />
    <glyph glyph-name="o" unicode="o" horiz-adv-x="1265" 
d="M633 1042q113 0 203.5 -34.5t146.5 -89t93 -126t52 -140.5t15 -138q0 -71 -15 -140.5t-52 -140.5t-93 -125t-146.5 -88t-203.5 -34t-203.5 34t-146.5 88t-93 125t-52 140.5t-15 140.5q0 69 15 138t52 140.5t93 126t146.5 89t203.5 34.5zM633 195q56 0 101.5 17.5
t73.5 47.5t48 64t29.5 72t13.5 66t4 52q0 20 -2.5 43t-10 55t-19.5 61.5t-33 59.5t-48 52t-67.5 35.5t-89.5 13.5q-67 0 -119 -26t-79.5 -63t-45 -84.5t-22.5 -82t-5 -64.5t5 -64.5t22.5 -82t45 -84t79.5 -62.5t119 -26z" />
    <glyph glyph-name="p" unicode="p" horiz-adv-x="1255" 
d="M623 -16q-114 0 -217 39v-433h-242v1434h158l28 -80q125 96 283 96q110 0 198 -34t143 -88.5t92 -125.5t52 -140.5t15 -139.5q0 -69 -15 -138t-52 -140.5t-93 -126t-146.5 -89t-203.5 -34.5zM623 831q-145 0 -217 -112v-469q82 -57 200 -57q68 0 121.5 24.5t83.5 60.5
t49.5 81.5t26 82.5t6.5 70q0 24 -3.5 52t-13 66t-29.5 72t-48 64t-73.5 47.5t-102.5 17.5z" />
    <glyph glyph-name="q" unicode="q" horiz-adv-x="1255" 
d="M633 -16q-113 0 -203.5 34.5t-146.5 89t-93 126t-52 140.5t-15 138q0 70 15 139.5t52 140.5t92 125.5t143 88.5t198 34q157 0 282 -96l29 80h158v-1434h-242v433q-103 -39 -217 -39zM633 831q-67 0 -119 -26t-79.5 -62.5t-45 -84t-22.5 -82t-5 -64.5q0 -33 6.5 -70
t26 -82.5t49.5 -81.5t83.5 -60.5t121.5 -24.5q119 0 201 57v469q-72 112 -217 112z" />
    <glyph glyph-name="r" unicode="r" horiz-adv-x="794" 
d="M754 1026l-39 -219q-63 14 -97 14q-74 0 -132 -29.5t-80 -80.5v-711h-242v1024h158l28 -80q125 96 283 96q42 0 121 -14z" />
    <glyph glyph-name="s" unicode="s" horiz-adv-x="1026" 
d="M377 743q1 -30 30.5 -52.5t76 -38.5t102.5 -33.5t111.5 -43t101.5 -60.5t75 -93.5t29 -134.5q0 -134 -107.5 -218.5t-271.5 -84.5q-115 0 -206.5 26.5t-194.5 85.5l88 187q173 -90 301 -90q60 0 101.5 26t41.5 66q0 33 -22 58t-58 40t-81.5 31t-93.5 30t-93.5 39
t-81.5 55t-58 80.5t-22 114.5q0 143 93 225t247 82q183 0 383 -100l-88 -192q-162 75 -260 75q-138 0 -143 -80z" />
    <glyph glyph-name="t" unicode="t" horiz-adv-x="653" 
d="M131 815h-111v209h111l21 203h223v-203h200v-209h-200v-528q0 -23 2 -37.5t9 -29.5t23 -21.5t40 -5.5q29 3 145 30l39 -190q-152 -45 -271 -45q-60 0 -105 21.5t-68 51.5t-37 70t-17.5 68t-3.5 55v561z" />
    <glyph glyph-name="u" unicode="u" 
d="M786 307v719h242v-1024h-158l-28 80q-125 -96 -283 -96q-80 0 -145 16t-110 43t-78 67.5t-52.5 83t-31 96.5t-15.5 101.5t-4 104.5v528h246v-528q0 -45 3.5 -81t15.5 -79t32.5 -72t58.5 -49t90 -20q71 0 129.5 32.5t87.5 77.5z" />
    <glyph glyph-name="v" unicode="v" horiz-adv-x="1093" 
d="M772 1024h266l-483 -1038h-20l-478 1038h267l225 -535z" />
    <glyph glyph-name="w" unicode="w" horiz-adv-x="1638" 
d="M1309 1024h268l-485 -1032h-21l-256 528l-256 -528h-20l-478 1032h267l225 -535l250 553h20l262 -553z" />
    <glyph glyph-name="x" unicode="x" horiz-adv-x="997" 
d="M655 1024h281l-303 -514l303 -510h-283l-153 283l-156 -283h-283l306 510l-304 514h279l158 -287z" />
    <glyph glyph-name="y" unicode="y" horiz-adv-x="1185" 
d="M324 1024l270 -680l268 680h262v-14l-596 -1418h-256v11l193 460l-404 947v14h263z" />
    <glyph glyph-name="z" unicode="z" horiz-adv-x="1032" 
d="M150 797v227h786l4 -14l-448 -783h426v-227h-822l-4 16l447 781h-389z" />
    <glyph glyph-name="braceleft" unicode="{" horiz-adv-x="638" 
d="M578 -408h-66q-7 0 -22 1.5t-47.5 9.5t-63.5 21.5t-67 41t-62.5 63.5t-44 94.5t-17.5 129.5v436q0 54 -27.5 85t-62.5 36h-37v164h37q35 5 62.5 37t27.5 86v434q0 71 17.5 129t44 94.5t62.5 64t67 40.5t63.5 21t47.5 9.5t22 1.5h66v-186h-58q-8 0 -17 -2t-24.5 -13
t-27 -29.5t-20.5 -57t-9 -89.5v-436q0 -57 -34.5 -107.5t-78.5 -74.5v-8q44 -22 78.5 -73t34.5 -107v-439q0 -51 9 -89t20.5 -56.5t27.5 -29.5t24.5 -13t16.5 -2h58v-187z" />
    <glyph glyph-name="bar" unicode="|" horiz-adv-x="428" 
d="M305 -412h-182v1991h182v-1991z" />
    <glyph glyph-name="braceright" unicode="}" horiz-adv-x="638" 
d="M127 -408h-66v187h58q8 0 16.5 2t24.5 13t27.5 29.5t20.5 56.5t9 89v439q0 56 34.5 107t78.5 73v8q-44 24 -78.5 74.5t-34.5 107.5v436q0 51 -9 89.5t-20.5 57t-27 29.5t-24.5 13t-17 2h-58v186h66q7 0 22 -1.5t47.5 -9.5t63.5 -21t67 -40.5t62.5 -64t44 -94.5t17.5 -129
v-434q0 -54 27.5 -86t62.5 -37h37v-164h-37q-35 -5 -62.5 -36t-27.5 -85v-436q0 -71 -17.5 -129.5t-44 -94.5t-62.5 -63.5t-67 -41t-63.5 -21.5t-47.5 -9.5t-22 -1.5z" />
    <glyph glyph-name="asciitilde" unicode="~" horiz-adv-x="1273" 
d="M270 436l-147 107q135 237 348 237q47 0 96 -19t83 -41.5t78 -41.5t83 -19q91 0 193 132l147 -119q-129 -238 -342 -238q-52 0 -105 19.5t-89 43t-78 43t-74 19.5q-98 0 -193 -123z" />
    <glyph glyph-name="exclamdown" unicode="&#xa1;" horiz-adv-x="688" 
d="M465 168v-576h-242v576l37 432h166zM205 893q0 59 40 100t99 41q58 0 98.5 -41t40.5 -100q0 -60 -40 -99.5t-99 -39.5q-60 0 -99.5 39.5t-39.5 99.5z" />
    <glyph glyph-name="cent" unicode="&#xa2;" horiz-adv-x="1167" 
d="M713 -164h-183v160q-88 14 -159.5 53.5t-116.5 91.5t-75.5 117t-43 126.5t-12.5 123.5q0 67 11 130t40 129.5t73.5 119t117 92t165.5 53.5v146h183v-144q174 -27 317 -180l-139 -156q-80 83 -178 109v-582q87 22 168 103l163 -148q-146 -166 -331 -190v-154zM365 508
q0 -103 45.5 -173t119.5 -99v561q-79 -34 -122 -113.5t-43 -175.5z" />
    <glyph glyph-name="sterling" unicode="&#xa3;" horiz-adv-x="1277" 
d="M928 1384l-70 -186q-109 41 -192 41q-58 0 -97 -33.5t-39 -105.5v-80h199v-207h-199v-502q71 -39 99 -53.5t77 -31.5t87 -17q107 0 217 129l145 -119q-45 -83 -112.5 -138t-133 -77t-131.5 -22q-52 0 -105 19.5t-89 42.5t-78 42.5t-74 19.5q-98 0 -192 -122l-148 106
q81 142 195 201v522h-111v207h111v88q0 167 102 254.5t260 87.5q141 0 279 -66z" />
    <glyph glyph-name="currency" unicode="&#xa4;" horiz-adv-x="1345" 
d="M672 977q135 0 229 -59q30 32 97.5 99t97.5 99l127 -127l-199 -201q59 -104 59 -237q0 -126 -49 -219l189 -189l-127 -127l-181 179q-101 -70 -243 -70q-154 0 -244 68q-150 -150 -178 -177l-127 127l190 187q-53 98 -53 221q0 136 59 240l-196 198l127 127l194 -196
q96 57 228 57zM672 356q41 0 72 16t48 38.5t27.5 51t13.5 50t3 39.5t-3 39.5t-13.5 50.5t-27.5 52t-48 39t-72 16t-72 -16t-48 -39t-27.5 -52t-13.5 -50.5t-3 -39.5t3 -39.5t13.5 -50t27.5 -51t48 -38.5t72 -16z" />
    <glyph glyph-name="yen" unicode="&#xa5;" horiz-adv-x="1341" 
d="M1028 121h-233v-121h-250v121h-232v192h232v144h-232v194h226l-478 768v15h279l330 -562l329 562h281v-15l-481 -768h229v-194h-233v-144h233v-192z" />
    <glyph glyph-name="brokenbar" unicode="&#xa6;" horiz-adv-x="425" 
d="M303 373v-781h-180v781h180zM303 1585v-780h-180v780h180z" />
    <glyph glyph-name="section" unicode="&#xa7;" horiz-adv-x="1210" 
d="M164 -229l135 172q70 -53 153 -93t148 -40q64 0 113 35.5t49 97.5q0 103 -238 223q-144 66 -233.5 167.5t-89.5 233.5q0 82 38.5 149t88.5 111q-113 127 -113 258q0 62 25 123.5t73 115t128.5 87t181.5 33.5q190 0 395 -150l-127 -184q-156 97 -258 102
q-82 0 -124.5 -34.5t-45.5 -81.5q0 -53 50.5 -102.5t141.5 -92.5q66 -30 118 -59t105.5 -69t88.5 -81.5t57.5 -95.5t22.5 -113q0 -148 -140 -268q119 -139 119 -278q0 -159 -116 -260t-283 -101q-249 0 -463 195zM440 584q0 -39 19 -72t52.5 -57.5t66 -43t74.5 -39.5t63 -34
q67 58 71 131q0 36 -35.5 73.5t-73.5 59.5t-98.5 52t-74.5 38q-19 -18 -29.5 -29t-22.5 -33.5t-12 -45.5z" />
    <glyph glyph-name="dieresis" unicode="&#xa8;" 
d="M217 1348q0 59 39.5 99t99.5 40q59 0 99.5 -40.5t40.5 -98.5q0 -61 -40.5 -100.5t-99.5 -39.5q-60 0 -99.5 39.5t-39.5 100.5zM696 1348q0 59 40 99t100 40q58 0 98.5 -40.5t40.5 -98.5q0 -61 -40 -100.5t-99 -39.5q-60 0 -100 39.5t-40 100.5z" />
    <glyph glyph-name="copyright" unicode="&#xa9;" horiz-adv-x="1200" 
d="M600 1444q215 0 366.5 -151.5t151.5 -366.5t-151.5 -366.5t-366.5 -151.5q-98 0 -192 40t-166 108t-116 166t-44 208q0 131 67.5 249t188 191.5t262.5 73.5zM600 537q163 0 276 113t113 276t-113 277t-276 114t-276 -114t-113 -277t113 -276t276 -113zM455 924
q0 74 43 118.5t104 44.5q68 0 141 -59l86 76q-88 106 -227 106q-76 0 -135 -29t-91 -74t-47.5 -92t-15.5 -91t15.5 -91t47.5 -92.5t91 -74.5t135 -29q139 0 227 106l-86 76q-73 -59 -141 -59q-61 0 -104 45t-43 119z" />
    <glyph glyph-name="ordfeminine" unicode="&#xaa;" horiz-adv-x="821" 
d="M381 1454q62 3 110.5 -5t81.5 -23t56.5 -41.5t36.5 -52.5t20.5 -63.5t9.5 -67.5t2 -71v-454h-120l-19 61q-44 -35 -99.5 -55t-103.5 -20q-67 0 -118.5 17.5t-80 43.5t-46.5 60t-23.5 61t-5.5 53q0 252 321 252q21 0 113 -10v12q-3 90 -31 117.5t-96 27.5q-32 0 -92.5 -15
t-114.5 -38l-57 133q142 73 256 78zM516 903v90q-8 1 -26.5 3t-37 3.5t-34.5 1.5q-69 0 -117.5 -21t-48.5 -71q0 -47 31.5 -71.5t78.5 -24.5q51 0 91.5 27t62.5 63z" />
    <glyph glyph-name="guillemotleft" unicode="&#xab;" horiz-adv-x="1060" 
d="M301 514l242 -301l-121 -107l-361 381v54l361 381l121 -107zM758 514l241 -301l-120 -107l-361 381v54l361 381l120 -107z" />
    <glyph glyph-name="logicalnot" unicode="&#xac;" horiz-adv-x="1284" 
d="M1120 860v-684h-418v285h-538v399h956z" />
    <glyph glyph-name="uni00AD" unicode="&#xad;" horiz-adv-x="819" 
d="M125 502h577v-201h-577v201z" />
    <glyph glyph-name="registered" unicode="&#xae;" horiz-adv-x="1200" 
d="M539 831v-163h-117v520h205q53 0 93 -17t61 -44.5t30.5 -56t9.5 -58.5q0 -47 -29 -90t-71 -68l106 -186h-137l-86 163h-65zM539 944h96q37 1 51 22t14 46t-15 46t-54 21h-92v-135zM600 1444q215 0 366.5 -151.5t151.5 -366.5t-151.5 -366.5t-366.5 -151.5q-98 0 -192 40
t-166 108t-116 166t-44 208q0 131 67.5 249t188 191.5t262.5 73.5zM600 537q163 0 276 113t113 276t-113 277t-276 114t-276 -114t-113 -277t113 -276t276 -113z" />
    <glyph glyph-name="macron" unicode="&#xaf;" horiz-adv-x="1056" 
d="M231 1399h617v-178h-617v178z" />
    <glyph glyph-name="degree" unicode="&#xb0;" horiz-adv-x="675" 
d="M338 901q-116 0 -196.5 80.5t-80.5 196.5q0 115 80.5 195.5t196.5 80.5q115 0 195.5 -78.5t80.5 -197.5q0 -115 -81 -196t-195 -81zM338 1057q47 0 82 34.5t35 86.5q0 50 -35 83t-82 33q-49 0 -86 -35t-37 -81q0 -53 36 -87t87 -34z" />
    <glyph glyph-name="plusminus" unicode="&#xb1;" horiz-adv-x="1132" 
d="M164 236h805v-189h-805v189zM469 375v219h-305v194h305v306h195v-306h305v-194h-305v-219h-195z" />
    <glyph glyph-name="twosuperior" unicode="&#xb2;" horiz-adv-x="606" 
d="M158 1427l-97 93q104 131 248 131q99 0 157 -59.5t58 -145.5q0 -44 -20 -87.5t-60 -103.5l-104 -147h170v-139h-436l-6 16l256 367q43 62 43 100q0 22 -16 38.5t-42 16.5q-64 0 -151 -80z" />
    <glyph glyph-name="threesuperior" unicode="&#xb3;" horiz-adv-x="561" 
d="M500 1442q0 -36 -20.5 -78t-53.5 -61q37 -24 55.5 -63t18.5 -75q0 -31 -11 -63.5t-35 -67t-73 -56.5t-115 -22q-119 0 -225 97l86 92q53 -53 139 -53q35 0 61.5 20.5t26.5 52.5q0 37 -26 58.5t-62 21.5h-104v117h104q36 0 62 21.5t26 58.5q0 35 -26 54.5t-62 19.5
q-29 0 -69 -17.5t-66 -42.5l-84 96q95 99 219 99q66 0 115 -21.5t73 -55.5t35 -67t11 -65z" />
    <glyph glyph-name="acute" unicode="&#xb4;" horiz-adv-x="1044" 
d="M315 1321l303 252l115 -164l-340 -201z" />
    <glyph glyph-name="mu" unicode="&#xb5;" horiz-adv-x="1232" 
d="M164 -408v1432h246v-526q0 -45 3.5 -81t15.5 -79t32.5 -72t58.5 -49t90 -20q71 0 129.5 32.5t87.5 77.5v717h242v-1024h-158l-28 82q-125 -96 -283 -96q-116 0 -190 45v-439h-246z" />
    <glyph glyph-name="mu" unicode="&#x3bc;" horiz-adv-x="1232" 
d="M164 -408v1432h246v-526q0 -45 3.5 -81t15.5 -79t32.5 -72t58.5 -49t90 -20q71 0 129.5 32.5t87.5 77.5v717h242v-1024h-158l-28 82q-125 -96 -283 -96q-116 0 -190 45v-439h-246z" />
    <glyph glyph-name="paragraph" unicode="&#xb6;" horiz-adv-x="1355" 
d="M82 1012q0 56 12 111.5t42.5 113.5t75.5 101.5t118.5 71.5t165.5 28h696v-183h-137v-1663h-181v1663h-184v-1663h-180v994h-14q-92 0 -165.5 28t-118.5 71.5t-75.5 101.5t-42.5 113.5t-12 111.5z" />
    <glyph glyph-name="periodcentered" unicode="&#xb7;" horiz-adv-x="548" 
d="M123 608q0 65 42.5 107.5t106.5 42.5t109 -43t45 -107q0 -63 -45.5 -108t-108.5 -45q-64 0 -106.5 44.5t-42.5 108.5z" />
    <glyph glyph-name="cedilla" unicode="&#xb8;" horiz-adv-x="1134" 
d="M612 -180h-30l-27 26v201h147v-102q96 0 144.5 -57t48.5 -130q0 -106 -67 -162.5t-160 -56.5q-122 0 -213 68l71 125q71 -37 123 -37q32 0 51 19t19 44q0 62 -107 62z" />
    <glyph glyph-name="onesuperior" unicode="&#xb9;" horiz-adv-x="446" 
d="M354 1638v-669h-159v442l-93 -43l-61 100l238 170h75z" />
    <glyph glyph-name="ordmasculine" unicode="&#xba;" horiz-adv-x="774" 
d="M387 1446q68 0 122 -21t87.5 -53.5t56 -76t31 -85t8.5 -82.5q0 -43 -8.5 -84.5t-31 -84.5t-56 -75t-87.5 -52.5t-122 -20.5t-122 20.5t-87.5 52.5t-56 75t-31 84.5t-8.5 84.5q0 41 8.5 82.5t31 85t56 76t87.5 53.5t122 21zM387 987q37 0 63 16.5t37.5 41.5t16 45.5
t4.5 37.5t-4.5 37t-16 45.5t-37.5 41.5t-63 16t-63 -16t-37.5 -41.5t-16 -45.5t-4.5 -37t4.5 -37.5t16 -45.5t37.5 -41.5t63 -16.5zM121 651h530v-188h-530v188z" />
    <glyph glyph-name="guillemotright" unicode="&#xbb;" horiz-adv-x="1060" 
d="M518 213l242 301l-242 301l121 107l360 -381v-54l-360 -381zM61 213l242 301l-242 301l121 107l361 -381v-54l-361 -381z" />
    <glyph glyph-name="onequarter" unicode="&#xbc;" horiz-adv-x="1212" 
d="M1038 1434l-714 -1434h-181l717 1434h178zM365 1440v-670h-160v442l-92 -43l-62 101l238 170h76zM1042 106v-106h-151v106h-277v123l304 443h124v-414h97v-152h-97zM891 406l-98 -148h98v148z" />
    <glyph glyph-name="onehalf" unicode="&#xbd;" horiz-adv-x="1308" 
d="M1038 1434l-714 -1434h-181l717 1434h178zM365 1440v-670h-160v442l-92 -43l-62 101l238 170h76zM846 459l-96 92q104 131 247 131q99 0 157 -59.5t58 -145.5q0 -93 -79 -190l-117 -148h182v-139h-442v49l256 334q43 52 43 100q0 22 -16 39t-42 17q-64 0 -151 -80z" />
    <glyph glyph-name="threequarters" unicode="&#xbe;" horiz-adv-x="1296" 
d="M1126 1434l-714 -1434h-181l717 1434h178zM1130 106v-106h-151v106h-277v123l304 443h124v-414h97v-152h-97zM979 406l-98 -148h98v148zM512 1235q0 -36 -20.5 -78t-53.5 -61q37 -24 55.5 -63t18.5 -75q0 -24 -6 -49.5t-22.5 -54.5t-41 -51.5t-67 -37.5t-96.5 -15
q-121 0 -226 96l86 92q53 -53 140 -53q35 0 61.5 20.5t26.5 52.5q0 37 -26 58.5t-62 21.5h-105v117h105q36 0 62 21.5t26 58.5q0 35 -26 54.5t-62 19.5q-29 0 -69.5 -17.5t-66.5 -42.5l-84 97q94 98 220 98q66 0 115 -21.5t73 -55.5t34.5 -67t10.5 -65z" />
    <glyph glyph-name="questiondown" unicode="&#xbf;" horiz-adv-x="1150" 
d="M457 459l18 127h205v-133q0 -79 -34 -140t-101 -135q-33 -37 -50 -58t-40.5 -56.5t-34 -71t-10.5 -74.5q0 -22 6 -44t22 -46.5t51.5 -38.5t85.5 -12q65 3 123.5 41t141.5 121l147 -144q-114 -124 -214.5 -178.5t-235.5 -54.5q-165 0 -269 93.5t-104 260.5q0 55 16 107.5
t49.5 104.5t57.5 83.5t67 81.5q33 38 51.5 61.5t35 53.5t16.5 51zM717 891q0 -60 -42 -100.5t-102 -40.5q-59 0 -101 41t-42 100q0 57 42.5 99t100.5 42q62 0 103 -38.5t41 -102.5z" />
    <glyph glyph-name="Agrave" unicode="&#xc0;" horiz-adv-x="1452" 
d="M631 1982l303 -251l-78 -113l-340 201zM733 1452l658 -1452h-279l-151 367h-469l-152 -367h-279l658 1452h14zM727 934l-149 -359h296z" />
    <glyph glyph-name="Aacute" unicode="&#xc1;" horiz-adv-x="1452" 
d="M516 1731l303 251l115 -163l-340 -201zM733 1452l658 -1452h-279l-151 367h-469l-152 -367h-279l658 1452h14zM727 934l-149 -359h296z" />
    <glyph glyph-name="Acircumflex" unicode="&#xc2;" horiz-adv-x="1452" 
d="M422 1726l303 252l303 -252l-78 -112l-225 133l-225 -133zM733 1452l658 -1452h-279l-151 367h-469l-152 -367h-279l658 1452h14zM727 934l-149 -359h296z" />
    <glyph glyph-name="Atilde" unicode="&#xc3;" horiz-adv-x="1452" 
d="M920 1874l145 -76q-87 -194 -248 -194q-48 0 -106 38.5t-93 38.5q-52 0 -94 -88l-137 66q34 111 97 157t137 46q43 0 81 -18t67 -36t52 -18q52 0 99 84zM733 1452l658 -1452h-279l-151 367h-469l-152 -367h-279l658 1452h14zM727 934l-149 -359h296z" />
    <glyph glyph-name="Adieresis" unicode="&#xc4;" horiz-adv-x="1452" 
d="M733 1452l658 -1452h-279l-151 367h-469l-152 -367h-279l658 1452h14zM727 934l-149 -359h296zM352 1757q0 59 40 99t100 40q58 0 98.5 -40t40.5 -99q0 -61 -40 -100t-99 -39q-60 0 -100 39t-40 100zM831 1757q0 59 40 99t100 40q59 0 99 -40t40 -99q0 -61 -40 -100
t-99 -39q-60 0 -100 39t-40 100z" />
    <glyph glyph-name="Aring" unicode="&#xc5;" horiz-adv-x="1452" 
d="M733 1452l658 -1452h-279l-151 367h-469l-152 -367h-279l658 1452h14zM727 934l-149 -359h296zM518 1819q0 86 61.5 147.5t147.5 61.5t146.5 -61.5t60.5 -147.5t-60.5 -146.5t-146.5 -60.5t-147.5 60.5t-61.5 146.5zM643 1819q0 -32 25 -57t59 -25q32 0 57 25t25 57
q0 34 -25 59t-57 25q-34 0 -59 -25t-25 -59z" />
    <glyph glyph-name="AE" unicode="&#xc6;" horiz-adv-x="1808" 
d="M1532 594h-555v-369h709v-225h-959v367h-235l-152 -367h-279l644 1434h981v-226h-709v-389h555v-225zM727 934l-149 -359h149v359z" />
    <glyph glyph-name="Ccedilla" unicode="&#xc7;" horiz-adv-x="1501" 
d="M799 -180h-31l-27 26v140q-114 11 -209.5 49.5t-161.5 96.5t-115 128.5t-77 150.5t-41.5 156t-13.5 152q0 67 10.5 135t35 141t61.5 138.5t94.5 125t129 102.5t169 68t211.5 25q175 0 305.5 -64t238.5 -186l-168 -160q-63 74 -167 127.5t-209 53.5q-82 0 -150.5 -21.5
t-114.5 -56t-82 -82t-56 -94t-33 -97t-17 -87t-4 -68.5t4 -68.5t17 -87t33 -97t56 -94t82 -82t114.5 -56t150.5 -21.5q105 0 209.5 52t185.5 126l145 -182q-209 -209 -485 -225v-39q96 0 144 -57t48 -130q0 -106 -67 -162.5t-160 -56.5q-122 0 -213 68l72 125
q71 -37 123 -37q32 0 50.5 19t18.5 44q0 62 -106 62z" />
    <glyph glyph-name="Egrave" unicode="&#xc8;" horiz-adv-x="1286" 
d="M1010 594h-555v-369h708v-225h-958v1434h958v-226h-708v-389h555v-225zM549 1982l303 -251l-78 -113l-340 201z" />
    <glyph glyph-name="Eacute" unicode="&#xc9;" horiz-adv-x="1286" 
d="M1010 594h-555v-369h708v-225h-958v1434h958v-226h-708v-389h555v-225zM434 1731l303 251l115 -163l-340 -201z" />
    <glyph glyph-name="Ecircumflex" unicode="&#xca;" horiz-adv-x="1286" 
d="M1010 594h-555v-369h708v-225h-958v1434h958v-226h-708v-389h555v-225zM340 1726l303 252l303 -252l-78 -112l-225 133l-225 -133z" />
    <glyph glyph-name="Edieresis" unicode="&#xcb;" horiz-adv-x="1286" 
d="M1010 594h-555v-369h708v-225h-958v1434h958v-226h-708v-389h555v-225zM264 1757q0 59 39.5 99t99.5 40q59 0 99.5 -40.5t40.5 -98.5q0 -61 -40.5 -100t-99.5 -39q-60 0 -99.5 39t-39.5 100zM743 1757q0 59 40 99t100 40q59 0 99 -40t40 -99q0 -61 -40 -100t-99 -39
q-60 0 -100 39t-40 100z" />
    <glyph glyph-name="Igrave" unicode="&#xcc;" horiz-adv-x="417" 
d="M334 1434v-1434h-252v1434h252zM115 1982l303 -251l-78 -113l-340 201z" />
    <glyph glyph-name="Iacute" unicode="&#xcd;" horiz-adv-x="417" 
d="M334 1434v-1434h-252v1434h252zM0 1731l303 251l115 -163l-340 -201z" />
    <glyph glyph-name="Icircumflex" unicode="&#xce;" horiz-adv-x="606" 
d="M428 1434v-1434h-252v1434h252zM0 1726l303 252l303 -252l-78 -112l-225 133l-225 -133z" />
    <glyph glyph-name="Idieresis" unicode="&#xcf;" horiz-adv-x="757" 
d="M504 1434v-1434h-252v1434h252zM0 1757q0 59 39.5 99t99.5 40q59 0 99.5 -40.5t40.5 -98.5q0 -61 -40.5 -100t-99.5 -39q-60 0 -99.5 39t-39.5 100zM479 1757q0 59 39.5 99t99.5 40q59 0 99.5 -40.5t40.5 -98.5q0 -61 -40.5 -100t-99.5 -39q-60 0 -99.5 39t-39.5 100z
" />
    <glyph glyph-name="Eth" unicode="&#xd0;" horiz-adv-x="1538" 
d="M72 823h133v611h502q114 0 211.5 -24t168.5 -65t128 -98.5t94 -120.5t61.5 -134.5t34.5 -138.5t10 -134q0 -98 -20.5 -193t-72 -192t-129.5 -169.5t-203.5 -118.5t-282.5 -46h-502v614h-133v209zM453 225h254q82 0 150 21t114 54.5t81.5 79.5t55.5 91t32.5 94.5
t16.5 85.5t4 68t-4 67.5t-16.5 85t-32.5 94.5t-55.5 90.5t-81.5 78.5t-114 54t-150 21h-254v-387h305v-209h-305v-389z" />
    <glyph glyph-name="Ntilde" unicode="&#xd1;" horiz-adv-x="1581" 
d="M205 1442l22 8l897 -893v877h252v-1440l-22 -8l-897 897v-883h-252v1442zM983 1894l145 -75q-88 -195 -247 -195q-48 0 -106 39t-93 39q-52 0 -94 -88l-137 65q34 111 96.5 157t136.5 46q43 0 81 -18t67.5 -36t52.5 -18q51 0 98 84z" />
    <glyph glyph-name="Ograve" unicode="&#xd2;" horiz-adv-x="1665" 
d="M834 1454q113 0 210.5 -25t168.5 -68t128 -102.5t94 -125t61.5 -138.5t35 -141t10.5 -135q0 -69 -10.5 -138t-35 -142.5t-61.5 -139t-94 -124t-128 -101t-168.5 -67.5t-210.5 -25q-157 0 -283 47.5t-204 123t-130.5 175t-73 196.5t-20.5 195q0 67 10.5 135t35 141
t61.5 138.5t94.5 125t129 102.5t169 68t211.5 25zM834 209q81 0 149 22t113.5 56.5t81 82.5t55.5 95t32.5 98t16.5 87.5t4 68.5t-4 68.5t-16.5 87t-32.5 97t-55.5 94t-81 82t-113.5 56t-149 21.5q-82 0 -150.5 -21.5t-114.5 -56t-82 -82t-56 -94t-33 -97t-17 -87t-4 -68.5
t4 -68.5t17 -87.5t33 -98t56 -95t82 -82.5t114.5 -56.5t150.5 -22zM737 1982l303 -251l-77 -113l-340 201z" />
    <glyph glyph-name="Oacute" unicode="&#xd3;" horiz-adv-x="1665" 
d="M834 1454q113 0 210.5 -25t168.5 -68t128 -102.5t94 -125t61.5 -138.5t35 -141t10.5 -135q0 -69 -10.5 -138t-35 -142.5t-61.5 -139t-94 -124t-128 -101t-168.5 -67.5t-210.5 -25q-157 0 -283 47.5t-204 123t-130.5 175t-73 196.5t-20.5 195q0 67 10.5 135t35 141
t61.5 138.5t94.5 125t129 102.5t169 68t211.5 25zM834 209q81 0 149 22t113.5 56.5t81 82.5t55.5 95t32.5 98t16.5 87.5t4 68.5t-4 68.5t-16.5 87t-32.5 97t-55.5 94t-81 82t-113.5 56t-149 21.5q-82 0 -150.5 -21.5t-114.5 -56t-82 -82t-56 -94t-33 -97t-17 -87t-4 -68.5
t4 -68.5t17 -87.5t33 -98t56 -95t82 -82.5t114.5 -56.5t150.5 -22zM623 1731l303 251l114 -163l-340 -201z" />
    <glyph glyph-name="Ocircumflex" unicode="&#xd4;" horiz-adv-x="1665" 
d="M834 1454q113 0 210.5 -25t168.5 -68t128 -102.5t94 -125t61.5 -138.5t35 -141t10.5 -135q0 -69 -10.5 -138t-35 -142.5t-61.5 -139t-94 -124t-128 -101t-168.5 -67.5t-210.5 -25q-157 0 -283 47.5t-204 123t-130.5 175t-73 196.5t-20.5 195q0 67 10.5 135t35 141
t61.5 138.5t94.5 125t129 102.5t169 68t211.5 25zM834 209q81 0 149 22t113.5 56.5t81 82.5t55.5 95t32.5 98t16.5 87.5t4 68.5t-4 68.5t-16.5 87t-32.5 97t-55.5 94t-81 82t-113.5 56t-149 21.5q-82 0 -150.5 -21.5t-114.5 -56t-82 -82t-56 -94t-33 -97t-17 -87t-4 -68.5
t4 -68.5t17 -87.5t33 -98t56 -95t82 -82.5t114.5 -56.5t150.5 -22zM528 1726l303 252l304 -252l-78 -112l-226 133l-225 -133z" />
    <glyph glyph-name="Otilde" unicode="&#xd5;" horiz-adv-x="1665" 
d="M834 1454q113 0 210.5 -25t168.5 -68t128 -102.5t94 -125t61.5 -138.5t35 -141t10.5 -135q0 -69 -10.5 -138t-35 -142.5t-61.5 -139t-94 -124t-128 -101t-168.5 -67.5t-210.5 -25q-157 0 -283 47.5t-204 123t-130.5 175t-73 196.5t-20.5 195q0 67 10.5 135t35 141
t61.5 138.5t94.5 125t129 102.5t169 68t211.5 25zM834 209q81 0 149 22t113.5 56.5t81 82.5t55.5 95t32.5 98t16.5 87.5t4 68.5t-4 68.5t-16.5 87t-32.5 97t-55.5 94t-81 82t-113.5 56t-149 21.5q-82 0 -150.5 -21.5t-114.5 -56t-82 -82t-56 -94t-33 -97t-17 -87t-4 -68.5
t4 -68.5t17 -87.5t33 -98t56 -95t82 -82.5t114.5 -56.5t150.5 -22zM1026 1874l145 -76q-87 -194 -247 -194q-48 0 -106 38.5t-93 38.5q-52 0 -94 -88l-137 66q34 111 96.5 157t136.5 46q43 0 81 -18t67.5 -36t52.5 -18q51 0 98 84z" />
    <glyph glyph-name="Odieresis" unicode="&#xd6;" horiz-adv-x="1665" 
d="M834 1454q113 0 210.5 -25t168.5 -68t128 -102.5t94 -125t61.5 -138.5t35 -141t10.5 -135q0 -69 -10.5 -138t-35 -142.5t-61.5 -139t-94 -124t-128 -101t-168.5 -67.5t-210.5 -25q-157 0 -283 47.5t-204 123t-130.5 175t-73 196.5t-20.5 195q0 67 10.5 135t35 141
t61.5 138.5t94.5 125t129 102.5t169 68t211.5 25zM834 209q81 0 149 22t113.5 56.5t81 82.5t55.5 95t32.5 98t16.5 87.5t4 68.5t-4 68.5t-16.5 87t-32.5 97t-55.5 94t-81 82t-113.5 56t-149 21.5q-82 0 -150.5 -21.5t-114.5 -56t-82 -82t-56 -94t-33 -97t-17 -87t-4 -68.5
t4 -68.5t17 -87.5t33 -98t56 -95t82 -82.5t114.5 -56.5t150.5 -22zM453 1757q0 59 39.5 99t99.5 40q58 0 98.5 -40t40.5 -99q0 -61 -40 -100t-99 -39q-60 0 -99.5 39t-39.5 100zM932 1757q0 59 39.5 99t99.5 40q59 0 99 -40t40 -99q0 -61 -40 -100t-99 -39q-60 0 -99.5 39
t-39.5 100z" />
    <glyph glyph-name="multiply" unicode="&#xd7;" horiz-adv-x="1116" 
d="M774 59l-217 215l-215 -215l-137 138l215 215l-215 217l137 137l215 -215l217 215l137 -137l-215 -217l215 -215z" />
    <glyph glyph-name="Oslash" unicode="&#xd8;" horiz-adv-x="1665" 
d="M834 1454q221 0 387 -98l90 106l139 -116l-90 -107q93 -107 137.5 -245.5t44.5 -274.5q0 -69 -10.5 -138t-35 -142.5t-61.5 -139t-94 -124t-128 -101t-168.5 -67.5t-210.5 -25q-261 0 -428 122l-97 -112l-139 117l104 124q-78 102 -114.5 230t-36.5 256q0 67 10.5 135
t35 141t61.5 138.5t94.5 125t129 102.5t169 68t211.5 25zM834 209q81 0 149 22t113.5 56.5t81 82.5t55.5 95t32.5 98t16.5 87.5t4 68.5q0 69 -20.5 156.5t-71.5 164.5l-631 -749q110 -82 271 -82zM377 719q0 -154 67 -283l619 731q-98 58 -229 58q-82 0 -150.5 -21.5
t-114.5 -56t-82 -82t-56 -94t-33 -97t-17 -87t-4 -68.5z" />
    <glyph glyph-name="Ugrave" unicode="&#xd9;" horiz-adv-x="1497" 
d="M748 209q71 0 128 27t90 66.5t55 88.5t30 88.5t8 71.5v883h254v-883q0 -76 -18 -151.5t-61 -151t-106 -133t-161.5 -93.5t-218.5 -36t-218.5 36t-161 93.5t-105.5 133t-61 151t-18 151.5v883h250v-883q0 -31 8 -71t31 -89t56.5 -88.5t90.5 -66.5t128 -27zM653 1982
l303 -251l-77 -113l-340 201z" />
    <glyph glyph-name="Uacute" unicode="&#xda;" horiz-adv-x="1497" 
d="M748 209q71 0 128 27t90 66.5t55 88.5t30 88.5t8 71.5v883h254v-883q0 -76 -18 -151.5t-61 -151t-106 -133t-161.5 -93.5t-218.5 -36t-218.5 36t-161 93.5t-105.5 133t-61 151t-18 151.5v883h250v-883q0 -31 8 -71t31 -89t56.5 -88.5t90.5 -66.5t128 -27zM539 1731
l303 251l114 -163l-340 -201z" />
    <glyph glyph-name="Ucircumflex" unicode="&#xdb;" horiz-adv-x="1497" 
d="M748 209q71 0 128 27t90 66.5t55 88.5t30 88.5t8 71.5v883h254v-883q0 -76 -18 -151.5t-61 -151t-106 -133t-161.5 -93.5t-218.5 -36t-218.5 36t-161 93.5t-105.5 133t-61 151t-18 151.5v883h250v-883q0 -31 8 -71t31 -89t56.5 -88.5t90.5 -66.5t128 -27zM444 1726
l304 252l303 -252l-78 -112l-225 133l-226 -133z" />
    <glyph glyph-name="Udieresis" unicode="&#xdc;" horiz-adv-x="1497" 
d="M748 209q71 0 128 27t90 66.5t55 88.5t30 88.5t8 71.5v883h254v-883q0 -76 -18 -151.5t-61 -151t-106 -133t-161.5 -93.5t-218.5 -36t-218.5 36t-161 93.5t-105.5 133t-61 151t-18 151.5v883h250v-883q0 -31 8 -71t31 -89t56.5 -88.5t90.5 -66.5t128 -27zM369 1757
q0 59 39.5 99t99.5 40q58 0 98.5 -40t40.5 -99q0 -61 -40 -100t-99 -39q-60 0 -99.5 39t-39.5 100zM848 1757q0 59 39.5 99t99.5 40q59 0 99 -40t40 -99q0 -61 -40 -100t-99 -39q-60 0 -99.5 39t-39.5 100z" />
    <glyph glyph-name="Yacute" unicode="&#xdd;" horiz-adv-x="1357" 
d="M461 1731l303 251l115 -163l-340 -201zM805 645v-645h-250v641l-494 793h289l330 -562l330 562h286z" />
    <glyph glyph-name="Thorn" unicode="&#xde;" horiz-adv-x="1308" 
d="M670 176h-219v-176h-246v1434h246v-189h219q114 0 205.5 -35t148 -90t94.5 -127.5t53 -142t15 -139.5t-15 -139.5t-53 -142t-94.5 -128t-148 -90.5t-205.5 -35zM451 1034v-645h202q69 0 122.5 25t84 61t50 82.5t26 83.5t6.5 70t-6.5 70.5t-26 84t-50 82.5t-84 61
t-122.5 25h-202z" />
    <glyph glyph-name="germandbls" unicode="&#xdf;" horiz-adv-x="1339" 
d="M879 399q-2 33 -23 67t-49.5 64t-56 60t-47 67t-19.5 74q0 38 25.5 79t55.5 71.5t55.5 74.5t25.5 88v13t-3.5 25.5t-9.5 35t-20 35t-33 34t-51 23t-72 9.5q-24 0 -47.5 -4t-52 -17t-49.5 -33.5t-35.5 -57.5t-15.5 -85v-1104h-252v1100q0 87 23.5 157t57.5 113t82 75
t88 47t85 23.5t63.5 9.5t32.5 1q105 0 187 -29t129.5 -72t78.5 -99t42 -104t11 -93q0 -64 -20.5 -118.5t-45 -84t-46 -57.5t-23.5 -44q0 -24 19 -50t46 -54t54.5 -62t46.5 -86.5t19 -115.5q0 -176 -133 -284.5t-388 -108.5h-63v215h84q131 0 187.5 53t56.5 133v16z" />
    <glyph glyph-name="agrave" unicode="&#xe0;" horiz-adv-x="1107" 
d="M520 1038q82 5 147 -5.5t109 -31t76 -55.5t49.5 -70t27.5 -84.5t12.5 -89.5t2.5 -94v-608h-162l-24 82q-59 -48 -132 -74t-137 -26q-90 0 -158.5 24t-106.5 58.5t-62 80t-31.5 81.5t-7.5 71q0 334 428 334q47 0 149 -13v17q-2 82 -21.5 125t-52.5 56t-94 13
q-41 0 -123 -20t-153 -51l-76 178q186 94 340 102zM700 303v121q-82 10 -129 10q-58 0 -104 -9t-81.5 -37.5t-35.5 -74.5q0 -63 41.5 -96t104.5 -33q67 0 121 36t83 83zM459 1573l303 -252l-78 -113l-340 201z" />
    <glyph glyph-name="aacute" unicode="&#xe1;" horiz-adv-x="1107" 
d="M520 1038q82 5 147 -5.5t109 -31t76 -55.5t49.5 -70t27.5 -84.5t12.5 -89.5t2.5 -94v-608h-162l-24 82q-59 -48 -132 -74t-137 -26q-90 0 -158.5 24t-106.5 58.5t-62 80t-31.5 81.5t-7.5 71q0 334 428 334q47 0 149 -13v17q-2 82 -21.5 125t-52.5 56t-94 13
q-41 0 -123 -20t-153 -51l-76 178q186 94 340 102zM700 303v121q-82 10 -129 10q-58 0 -104 -9t-81.5 -37.5t-35.5 -74.5q0 -63 41.5 -96t104.5 -33q67 0 121 36t83 83zM344 1321l303 252l115 -164l-340 -201z" />
    <glyph glyph-name="acircumflex" unicode="&#xe2;" horiz-adv-x="1107" 
d="M520 1038q82 5 147 -5.5t109 -31t76 -55.5t49.5 -70t27.5 -84.5t12.5 -89.5t2.5 -94v-608h-162l-24 82q-59 -48 -132 -74t-137 -26q-90 0 -158.5 24t-106.5 58.5t-62 80t-31.5 81.5t-7.5 71q0 334 428 334q47 0 149 -13v17q-2 82 -21.5 125t-52.5 56t-94 13
q-41 0 -123 -20t-153 -51l-76 178q186 94 340 102zM700 303v121q-82 10 -129 10q-58 0 -104 -9t-81.5 -37.5t-35.5 -74.5q0 -63 41.5 -96t104.5 -33q67 0 121 36t83 83zM250 1317l303 252l303 -252l-78 -113l-225 133l-225 -133z" />
    <glyph glyph-name="atilde" unicode="&#xe3;" horiz-adv-x="1107" 
d="M520 1038q82 5 147 -5.5t109 -31t76 -55.5t49.5 -70t27.5 -84.5t12.5 -89.5t2.5 -94v-608h-162l-24 82q-59 -48 -132 -74t-137 -26q-90 0 -158.5 24t-106.5 58.5t-62 80t-31.5 81.5t-7.5 71q0 334 428 334q47 0 149 -13v17q-2 82 -21.5 125t-52.5 56t-94 13
q-41 0 -123 -20t-153 -51l-76 178q186 94 340 102zM700 303v121q-82 10 -129 10q-58 0 -104 -9t-81.5 -37.5t-35.5 -74.5q0 -63 41.5 -96t104.5 -33q67 0 121 36t83 83zM748 1464l145 -75q-87 -195 -248 -195q-48 0 -106 39t-93 39q-52 0 -94 -88l-137 65q34 111 97 157
t137 46q43 0 81 -18t67 -36t52 -18q52 0 99 84z" />
    <glyph glyph-name="adieresis" unicode="&#xe4;" horiz-adv-x="1107" 
d="M520 1038q82 5 147 -5.5t109 -31t76 -55.5t49.5 -70t27.5 -84.5t12.5 -89.5t2.5 -94v-608h-162l-24 82q-59 -48 -132 -74t-137 -26q-90 0 -158.5 24t-106.5 58.5t-62 80t-31.5 81.5t-7.5 71q0 334 428 334q47 0 149 -13v17q-2 82 -21.5 125t-52.5 56t-94 13
q-41 0 -123 -20t-153 -51l-76 178q186 94 340 102zM700 303v121q-82 10 -129 10q-58 0 -104 -9t-81.5 -37.5t-35.5 -74.5q0 -63 41.5 -96t104.5 -33q67 0 121 36t83 83zM176 1348q0 59 39.5 99t99.5 40q59 0 99.5 -40.5t40.5 -98.5q0 -61 -40.5 -100.5t-99.5 -39.5
q-60 0 -99.5 39.5t-39.5 100.5zM655 1348q0 59 40 99t100 40q59 0 99 -40.5t40 -98.5q0 -61 -40 -100.5t-99 -39.5q-60 0 -100 39.5t-40 100.5z" />
    <glyph glyph-name="aring" unicode="&#xe5;" horiz-adv-x="1107" 
d="M520 1038q82 5 147 -5.5t109 -31t76 -55.5t49.5 -70t27.5 -84.5t12.5 -89.5t2.5 -94v-608h-162l-24 82q-59 -48 -132 -74t-137 -26q-90 0 -158.5 24t-106.5 58.5t-62 80t-31.5 81.5t-7.5 71q0 334 428 334q47 0 149 -13v17q-2 82 -21.5 125t-52.5 56t-94 13
q-41 0 -123 -20t-153 -51l-76 178q186 94 340 102zM700 303v121q-82 10 -129 10q-58 0 -104 -9t-81.5 -37.5t-35.5 -74.5q0 -63 41.5 -96t104.5 -33q67 0 121 36t83 83zM346 1409q0 86 61.5 147.5t147.5 61.5t146.5 -61.5t60.5 -147.5t-60.5 -146.5t-146.5 -60.5
t-147.5 60.5t-61.5 146.5zM487 1409q0 -26 20 -46t48 -20q26 0 46 20t20 46q0 28 -20 48t-46 20q-28 0 -48 -20t-20 -48z" />
    <glyph glyph-name="ae" unicode="&#xe6;" horiz-adv-x="1681" 
d="M1434 289l114 -158q-87 -73 -177 -108t-200 -35q-221 0 -354 123q-152 -129 -328 -129q-90 0 -158.5 24t-106.5 58.5t-62 80t-31.5 81.5t-7.5 71q0 334 428 334q43 0 117 -8q9 44 24 92q-13 68 -50 91t-110 23q-41 0 -123 -20t-153 -51l-76 178q186 94 340 102
q233 14 334 -96q124 96 317 96q198 0 308 -117.5t110 -318.5q0 -72 -14 -160h-668q7 -43 22.5 -80.5t44.5 -75.5t79.5 -60.5t117.5 -22.5q151 0 263 86zM696 297q-19 50 -30 131q-44 6 -95 6q-58 0 -104 -9t-81.5 -37.5t-35.5 -74.5q0 -63 41.5 -96t104.5 -33q65 0 118 34
t82 79zM1169 829q-198 -2 -251 -194h440q3 75 -42.5 132.5t-146.5 61.5z" />
    <glyph glyph-name="ccedilla" unicode="&#xe7;" horiz-adv-x="1167" 
d="M588 -180h-31l-27 26v150q-88 14 -159.5 53.5t-116.5 91.5t-75.5 117t-43 126.5t-12.5 123.5q0 74 13.5 143t49.5 141.5t92 126t148 87.5t209 34q220 0 395 -186l-139 -156q-48 54 -118 87.5t-138 33.5q-124 0 -197 -92.5t-73 -218.5q0 -138 79.5 -215.5t192.5 -77.5
q60 0 124.5 28.5t119.5 84.5l163 -148q-77 -88 -164.5 -136.5t-201.5 -55.5v-43q96 0 144 -57t48 -130q0 -106 -67 -162.5t-160 -56.5q-122 0 -213 68l72 125q71 -37 123 -37q32 0 50.5 19t18.5 44q0 62 -106 62z" />
    <glyph glyph-name="egrave" unicode="&#xe8;" horiz-adv-x="1114" 
d="M866 289l115 -158q-87 -73 -177 -108t-200 -35q-113 0 -203.5 34t-147 87.5t-94 124.5t-52.5 140t-15 140q0 69 15 137.5t52.5 139.5t94 125t147 88t203.5 34q198 0 308 -117.5t110 -318.5q0 -72 -14 -160h-668q7 -43 22.5 -80.5t44.5 -75.5t79.5 -60.5t117.5 -22.5
q150 0 262 86zM602 829q-199 -2 -252 -194h441q3 75 -42.5 132.5t-146.5 61.5zM463 1573l303 -252l-78 -113l-340 201z" />
    <glyph glyph-name="eacute" unicode="&#xe9;" horiz-adv-x="1114" 
d="M866 289l115 -158q-87 -73 -177 -108t-200 -35q-113 0 -203.5 34t-147 87.5t-94 124.5t-52.5 140t-15 140q0 69 15 137.5t52.5 139.5t94 125t147 88t203.5 34q198 0 308 -117.5t110 -318.5q0 -72 -14 -160h-668q7 -43 22.5 -80.5t44.5 -75.5t79.5 -60.5t117.5 -22.5
q150 0 262 86zM602 829q-199 -2 -252 -194h441q3 75 -42.5 132.5t-146.5 61.5zM348 1321l303 252l115 -164l-340 -201z" />
    <glyph glyph-name="ecircumflex" unicode="&#xea;" horiz-adv-x="1114" 
d="M866 289l115 -158q-87 -73 -177 -108t-200 -35q-113 0 -203.5 34t-147 87.5t-94 124.5t-52.5 140t-15 140q0 69 15 137.5t52.5 139.5t94 125t147 88t203.5 34q198 0 308 -117.5t110 -318.5q0 -72 -14 -160h-668q7 -43 22.5 -80.5t44.5 -75.5t79.5 -60.5t117.5 -22.5
q150 0 262 86zM602 829q-199 -2 -252 -194h441q3 75 -42.5 132.5t-146.5 61.5zM254 1317l303 252l303 -252l-78 -113l-225 133l-225 -133z" />
    <glyph glyph-name="edieresis" unicode="&#xeb;" horiz-adv-x="1114" 
d="M866 289l115 -158q-87 -73 -177 -108t-200 -35q-113 0 -203.5 34t-147 87.5t-94 124.5t-52.5 140t-15 140q0 69 15 137.5t52.5 139.5t94 125t147 88t203.5 34q198 0 308 -117.5t110 -318.5q0 -72 -14 -160h-668q7 -43 22.5 -80.5t44.5 -75.5t79.5 -60.5t117.5 -22.5
q150 0 262 86zM602 829q-199 -2 -252 -194h441q3 75 -42.5 132.5t-146.5 61.5zM178 1348q0 59 39.5 99t99.5 40q59 0 99.5 -40.5t40.5 -98.5q0 -61 -40.5 -100.5t-99.5 -39.5q-60 0 -99.5 39.5t-39.5 100.5zM657 1348q0 59 40 99t100 40q59 0 99 -40.5t40 -98.5
q0 -61 -40 -100.5t-99 -39.5q-60 0 -100 39.5t-40 100.5z" />
    <glyph glyph-name="igrave" unicode="&#xec;" horiz-adv-x="499" 
d="M371 1024v-1024h-244v1024h244zM156 1573l303 -252l-78 -113l-340 201z" />
    <glyph glyph-name="iacute" unicode="&#xed;" horiz-adv-x="499" 
d="M371 1024v-1024h-244v1024h244zM41 1321l303 252l115 -164l-340 -201z" />
    <glyph glyph-name="icircumflex" unicode="&#xee;" horiz-adv-x="606" 
d="M424 1024v-1024h-244v1024h244zM0 1317l303 252l303 -252l-78 -113l-225 133l-225 -133z" />
    <glyph glyph-name="idieresis" unicode="&#xef;" horiz-adv-x="757" 
d="M500 1024v-1024h-244v1024h244zM0 1348q0 59 39.5 99t99.5 40q59 0 99.5 -40.5t40.5 -98.5q0 -61 -40.5 -100.5t-99.5 -39.5q-60 0 -99.5 39.5t-39.5 100.5zM479 1348q0 59 39.5 99t99.5 40q59 0 99.5 -40.5t40.5 -98.5q0 -61 -40.5 -100.5t-99.5 -39.5q-60 0 -99.5 39.5
t-39.5 100.5z" />
    <glyph glyph-name="eth" unicode="&#xf0;" horiz-adv-x="1196" 
d="M350 1294l113 170q96 -55 160 -104l131 131l125 -123l-125 -125q145 -150 232 -348t87 -440q0 -33 -6 -71t-21 -84.5t-38 -90t-61 -85t-85.5 -72.5t-115.5 -49.5t-148 -18.5q-110 0 -197.5 34t-137.5 84t-83.5 114t-45 117.5t-11.5 100.5q0 57 11.5 114t44.5 121.5
t83.5 113t137.5 80.5t198 32q38 0 85.5 -12t78.5 -31q-55 124 -160 240l-115 -115l-125 123l113 112q-52 42 -125 82zM598 199q113 0 176.5 72.5t63.5 172.5q-3 103 -65 173.5t-175 70.5q-115 0 -177.5 -72t-62.5 -172q0 -99 64 -172t176 -73z" />
    <glyph glyph-name="ntilde" unicode="&#xf1;" 
d="M406 719v-719h-242v1024h158l28 -80q125 96 283 96q80 0 145 -16t110 -43t78 -67.5t52.5 -83t31 -96.5t15.5 -101.5t4 -104.5v-528h-246v528q0 45 -3.5 81t-15.5 79t-32.5 72t-58.5 49t-90 20q-71 0 -129.5 -32.5t-87.5 -77.5zM788 1464l146 -75q-87 -195 -248 -195
q-48 0 -106 39t-93 39q-52 0 -94 -88l-137 65q34 111 96.5 157t136.5 46q43 0 81 -18t67.5 -36t52.5 -18q51 0 98 84z" />
    <glyph glyph-name="ograve" unicode="&#xf2;" horiz-adv-x="1265" 
d="M633 1042q113 0 203.5 -34.5t146.5 -89t93 -126t52 -140.5t15 -138q0 -71 -15 -140.5t-52 -140.5t-93 -125t-146.5 -88t-203.5 -34t-203.5 34t-146.5 88t-93 125t-52 140.5t-15 140.5q0 69 15 138t52 140.5t93 126t146.5 89t203.5 34.5zM633 195q56 0 101.5 17.5
t73.5 47.5t48 64t29.5 72t13.5 66t4 52q0 20 -2.5 43t-10 55t-19.5 61.5t-33 59.5t-48 52t-67.5 35.5t-89.5 13.5q-67 0 -119 -26t-79.5 -63t-45 -84.5t-22.5 -82t-5 -64.5t5 -64.5t22.5 -82t45 -84t79.5 -62.5t119 -26zM539 1573l303 -252l-78 -113l-340 201z" />
    <glyph glyph-name="oacute" unicode="&#xf3;" horiz-adv-x="1265" 
d="M633 1042q113 0 203.5 -34.5t146.5 -89t93 -126t52 -140.5t15 -138q0 -71 -15 -140.5t-52 -140.5t-93 -125t-146.5 -88t-203.5 -34t-203.5 34t-146.5 88t-93 125t-52 140.5t-15 140.5q0 69 15 138t52 140.5t93 126t146.5 89t203.5 34.5zM633 195q56 0 101.5 17.5
t73.5 47.5t48 64t29.5 72t13.5 66t4 52q0 20 -2.5 43t-10 55t-19.5 61.5t-33 59.5t-48 52t-67.5 35.5t-89.5 13.5q-67 0 -119 -26t-79.5 -63t-45 -84.5t-22.5 -82t-5 -64.5t5 -64.5t22.5 -82t45 -84t79.5 -62.5t119 -26zM424 1321l303 252l115 -164l-340 -201z" />
    <glyph glyph-name="ocircumflex" unicode="&#xf4;" horiz-adv-x="1265" 
d="M633 1042q113 0 203.5 -34.5t146.5 -89t93 -126t52 -140.5t15 -138q0 -71 -15 -140.5t-52 -140.5t-93 -125t-146.5 -88t-203.5 -34t-203.5 34t-146.5 88t-93 125t-52 140.5t-15 140.5q0 69 15 138t52 140.5t93 126t146.5 89t203.5 34.5zM633 195q56 0 101.5 17.5
t73.5 47.5t48 64t29.5 72t13.5 66t4 52q0 20 -2.5 43t-10 55t-19.5 61.5t-33 59.5t-48 52t-67.5 35.5t-89.5 13.5q-67 0 -119 -26t-79.5 -63t-45 -84.5t-22.5 -82t-5 -64.5t5 -64.5t22.5 -82t45 -84t79.5 -62.5t119 -26zM330 1317l303 252l303 -252l-78 -113l-225 133
l-225 -133z" />
    <glyph glyph-name="otilde" unicode="&#xf5;" horiz-adv-x="1265" 
d="M633 1042q113 0 203.5 -34.5t146.5 -89t93 -126t52 -140.5t15 -138q0 -71 -15 -140.5t-52 -140.5t-93 -125t-146.5 -88t-203.5 -34t-203.5 34t-146.5 88t-93 125t-52 140.5t-15 140.5q0 69 15 138t52 140.5t93 126t146.5 89t203.5 34.5zM633 195q56 0 101.5 17.5
t73.5 47.5t48 64t29.5 72t13.5 66t4 52q0 20 -2.5 43t-10 55t-19.5 61.5t-33 59.5t-48 52t-67.5 35.5t-89.5 13.5q-67 0 -119 -26t-79.5 -63t-45 -84.5t-22.5 -82t-5 -64.5t5 -64.5t22.5 -82t45 -84t79.5 -62.5t119 -26zM825 1464l146 -75q-88 -195 -248 -195q-48 0 -106 39
t-93 39q-52 0 -94 -88l-137 65q34 111 96.5 157t136.5 46q43 0 81 -18t67.5 -36t52.5 -18q51 0 98 84z" />
    <glyph glyph-name="odieresis" unicode="&#xf6;" horiz-adv-x="1265" 
d="M633 1042q113 0 203.5 -34.5t146.5 -89t93 -126t52 -140.5t15 -138q0 -71 -15 -140.5t-52 -140.5t-93 -125t-146.5 -88t-203.5 -34t-203.5 34t-146.5 88t-93 125t-52 140.5t-15 140.5q0 69 15 138t52 140.5t93 126t146.5 89t203.5 34.5zM633 195q56 0 101.5 17.5
t73.5 47.5t48 64t29.5 72t13.5 66t4 52q0 20 -2.5 43t-10 55t-19.5 61.5t-33 59.5t-48 52t-67.5 35.5t-89.5 13.5q-67 0 -119 -26t-79.5 -63t-45 -84.5t-22.5 -82t-5 -64.5t5 -64.5t22.5 -82t45 -84t79.5 -62.5t119 -26zM250 1348q0 59 39.5 99t99.5 40q59 0 99 -40.5
t40 -98.5q0 -61 -40 -100.5t-99 -39.5q-60 0 -99.5 39.5t-39.5 100.5zM729 1348q0 59 39.5 99t99.5 40q59 0 99.5 -40.5t40.5 -98.5q0 -61 -40.5 -100.5t-99.5 -39.5q-60 0 -99.5 39.5t-39.5 100.5z" />
    <glyph glyph-name="divide" unicode="&#xf7;" horiz-adv-x="944" 
d="M123 612h698v-202h-698v202zM332 889q0 59 39.5 99t99.5 40q59 0 99 -40t40 -99q0 -61 -40 -100t-99 -39q-60 0 -99.5 39t-39.5 100zM332 139q0 59 39.5 99.5t99.5 40.5q58 0 98.5 -40.5t40.5 -99.5q0 -61 -40 -100t-99 -39q-60 0 -99.5 39t-39.5 100z" />
    <glyph glyph-name="oslash" unicode="&#xf8;" horiz-adv-x="1265" 
d="M283 -20l-140 116l74 88q-94 137 -94 330q0 69 15 138t52 140.5t93 126t146.5 89t203.5 34.5q141 0 252 -57l76 90l141 -112l-76 -93q59 -75 88 -170t29 -186q0 -71 -15 -140.5t-52 -140.5t-93 -125t-146.5 -88t-203.5 -34q-171 0 -285 71zM633 195q56 0 101.5 17.5
t73.5 47.5t48 64t29.5 72t13.5 66t4 52q0 88 -37 168l-374 -451q58 -36 141 -36zM362 514q0 -64 21 -131l358 430q-54 21 -108 21q-67 0 -119 -26t-79.5 -63t-45 -84.5t-22.5 -82t-5 -64.5z" />
    <glyph glyph-name="ugrave" unicode="&#xf9;" 
d="M786 307v719h242v-1024h-158l-28 80q-125 -96 -283 -96q-80 0 -145 16t-110 43t-78 67.5t-52.5 83t-31 96.5t-15.5 101.5t-4 104.5v528h246v-528q0 -45 3.5 -81t15.5 -79t32.5 -72t58.5 -49t90 -20q71 0 129.5 32.5t87.5 77.5zM502 1573l303 -252l-78 -113l-340 201z" />
    <glyph glyph-name="uacute" unicode="&#xfa;" 
d="M786 307v719h242v-1024h-158l-28 80q-125 -96 -283 -96q-80 0 -145 16t-110 43t-78 67.5t-52.5 83t-31 96.5t-15.5 101.5t-4 104.5v528h246v-528q0 -45 3.5 -81t15.5 -79t32.5 -72t58.5 -49t90 -20q71 0 129.5 32.5t87.5 77.5zM387 1321l303 252l115 -164l-340 -201z" />
    <glyph glyph-name="ucircumflex" unicode="&#xfb;" 
d="M786 307v719h242v-1024h-158l-28 80q-125 -96 -283 -96q-80 0 -145 16t-110 43t-78 67.5t-52.5 83t-31 96.5t-15.5 101.5t-4 104.5v528h246v-528q0 -45 3.5 -81t15.5 -79t32.5 -72t58.5 -49t90 -20q71 0 129.5 32.5t87.5 77.5zM293 1317l303 252l303 -252l-78 -113
l-225 133l-225 -133z" />
    <glyph glyph-name="udieresis" unicode="&#xfc;" 
d="M786 307v719h242v-1024h-158l-28 80q-125 -96 -283 -96q-80 0 -145 16t-110 43t-78 67.5t-52.5 83t-31 96.5t-15.5 101.5t-4 104.5v528h246v-528q0 -45 3.5 -81t15.5 -79t32.5 -72t58.5 -49t90 -20q71 0 129.5 32.5t87.5 77.5zM217 1348q0 59 39.5 99t99.5 40
q59 0 99.5 -40.5t40.5 -98.5q0 -61 -40.5 -100.5t-99.5 -39.5q-60 0 -99.5 39.5t-39.5 100.5zM696 1348q0 59 40 99t100 40q58 0 98.5 -40.5t40.5 -98.5q0 -61 -40 -100.5t-99 -39.5q-60 0 -100 39.5t-40 100.5z" />
    <glyph glyph-name="yacute" unicode="&#xfd;" horiz-adv-x="1185" 
d="M324 1024l270 -680l268 680h262v-14l-596 -1418h-256v11l193 460l-404 947v14h263zM383 1321l303 252l115 -164l-340 -201z" />
    <glyph glyph-name="thorn" unicode="&#xfe;" horiz-adv-x="1255" 
d="M623 -16q-114 0 -217 39v-433h-242v1844h242v-433q103 39 217 39q113 0 203.5 -34.5t146.5 -89t93 -126t52 -140.5t15 -138t-15 -138t-52 -140.5t-93 -126t-146.5 -89t-203.5 -34.5zM406 774v-524q82 -57 200 -57q68 0 121.5 24.5t83.5 60.5t49.5 81.5t26 82.5t6.5 70
t-6.5 70t-26 82.5t-49.5 81.5t-83.5 60.5t-121.5 24.5q-118 0 -200 -57z" />
    <glyph glyph-name="ydieresis" unicode="&#xff;" horiz-adv-x="1185" 
d="M324 1024l270 -680l268 680h262v-14l-596 -1418h-256v11l193 460l-404 947v14h263zM215 1348q0 59 39.5 99t99.5 40q59 0 99.5 -40.5t40.5 -98.5q0 -61 -40.5 -100.5t-99.5 -39.5q-60 0 -99.5 39.5t-39.5 100.5zM694 1348q0 59 40 99t100 40q58 0 98.5 -40.5t40.5 -98.5
q0 -61 -40 -100.5t-99 -39.5q-60 0 -100 39.5t-40 100.5z" />
    <glyph glyph-name="Amacron" unicode="&#x100;" horiz-adv-x="1452" 
d="M733 1452l658 -1452h-279l-151 367h-469l-152 -367h-279l658 1452h14zM727 934l-149 -359h296zM418 1808h616v-178h-616v178z" />
    <glyph glyph-name="amacron" unicode="&#x101;" horiz-adv-x="1107" 
d="M520 1038q82 5 147 -5.5t109 -31t76 -55.5t49.5 -70t27.5 -84.5t12.5 -89.5t2.5 -94v-608h-162l-24 82q-59 -48 -132 -74t-137 -26q-90 0 -158.5 24t-106.5 58.5t-62 80t-31.5 81.5t-7.5 71q0 334 428 334q47 0 149 -13v17q-2 82 -21.5 125t-52.5 56t-94 13
q-41 0 -123 -20t-153 -51l-76 178q186 94 340 102zM700 303v121q-82 10 -129 10q-58 0 -104 -9t-81.5 -37.5t-35.5 -74.5q0 -63 41.5 -96t104.5 -33q67 0 121 36t83 83zM246 1399h616v-178h-616v178z" />
    <glyph glyph-name="Abreve" unicode="&#x102;" horiz-adv-x="1452" 
d="M733 1452l658 -1452h-279l-151 367h-469l-152 -367h-279l658 1452h14zM727 934l-149 -359h296zM846 1925l180 -51q-31 -122 -112 -187t-189 -65t-188.5 64.5t-110.5 187.5l176 49q26 -113 123 -113q99 0 121 115z" />
    <glyph glyph-name="abreve" unicode="&#x103;" horiz-adv-x="1107" 
d="M520 1038q82 5 147 -5.5t109 -31t76 -55.5t49.5 -70t27.5 -84.5t12.5 -89.5t2.5 -94v-608h-162l-24 82q-59 -48 -132 -74t-137 -26q-90 0 -158.5 24t-106.5 58.5t-62 80t-31.5 81.5t-7.5 71q0 334 428 334q47 0 149 -13v17q-2 82 -21.5 125t-52.5 56t-94 13
q-41 0 -123 -20t-153 -51l-76 178q186 94 340 102zM700 303v121q-82 10 -129 10q-58 0 -104 -9t-81.5 -37.5t-35.5 -74.5q0 -63 41.5 -96t104.5 -33q67 0 121 36t83 83zM674 1516l180 -52q-31 -122 -112 -187t-189 -65t-188.5 64.5t-110.5 187.5l176 49q25 -112 123 -112
q99 0 121 115z" />
    <glyph glyph-name="Aogonek" unicode="&#x104;" horiz-adv-x="1452" 
d="M733 1452l658 -1452h-129v-6q0 -21 -36 -90.5t-36 -112.5q0 -94 108 -94q63 0 152 33v-150q-86 -37 -193 -37q-102 0 -169.5 55t-67.5 162q0 47 23 97t46 87.5t23 55.5l-151 367h-469l-152 -367h-279l658 1452h14zM727 934l-149 -359h296z" />
    <glyph glyph-name="aogonek" unicode="&#x105;" horiz-adv-x="1107" 
d="M520 1038q82 5 147 -5.5t109 -31t76 -55.5t49.5 -70t27.5 -84.5t12.5 -89.5t2.5 -94v-612q0 -21 -36 -90.5t-36 -112.5q0 -94 109 -94q63 0 152 33v-150q-86 -37 -193 -37q-102 0 -170 55t-68 162q0 47 20.5 96t41.5 86.5t22 55.5l-28 82q-59 -48 -132 -74t-137 -26
q-90 0 -158.5 24t-106.5 58.5t-62 80t-31.5 81.5t-7.5 71q0 334 428 334q47 0 149 -13v17q-2 82 -21.5 125t-52.5 56t-94 13q-41 0 -123 -20t-153 -51l-76 178q186 94 340 102zM700 303v121q-82 10 -129 10q-58 0 -104 -9t-81.5 -37.5t-35.5 -74.5q0 -63 41.5 -96t104.5 -33
q67 0 121 36t83 83z" />
    <glyph glyph-name="Cacute" unicode="&#x106;" horiz-adv-x="1501" 
d="M1378 1204l-168 -160q-63 74 -167 127.5t-209 53.5q-82 0 -150.5 -21.5t-114.5 -56t-82 -82t-56 -94t-33 -97t-17 -87t-4 -68.5t4 -68.5t17 -87t33 -97t56 -94t82 -82t114.5 -56t150.5 -21.5q105 0 209.5 52t185.5 126l145 -182q-227 -227 -540 -227q-157 0 -283 47.5
t-204 123t-130.5 175t-73 196.5t-20.5 195q0 67 10.5 135t35 141t61.5 138.5t94.5 125t129 102.5t169 68t211.5 25q175 0 305.5 -64t238.5 -186zM541 1731l303 251l114 -163l-340 -201z" />
    <glyph glyph-name="cacute" unicode="&#x107;" horiz-adv-x="1167" 
d="M881 328l163 -148q-82 -94 -179.5 -144t-225.5 -50q-113 0 -204 34t-148 87.5t-95 124t-53.5 139t-15.5 137.5q0 74 13.5 143t49.5 141.5t92 126t148 87.5t209 34q220 0 395 -186l-139 -156q-48 54 -118 87.5t-138 33.5q-124 0 -197 -92.5t-73 -218.5q0 -138 79.5 -215.5
t192.5 -77.5q60 0 124.5 28.5t119.5 84.5zM375 1321l303 252l115 -164l-340 -201z" />
    <glyph glyph-name="Ccircumflex" unicode="&#x108;" horiz-adv-x="1501" 
d="M1378 1204l-168 -160q-63 74 -167 127.5t-209 53.5q-82 0 -150.5 -21.5t-114.5 -56t-82 -82t-56 -94t-33 -97t-17 -87t-4 -68.5t4 -68.5t17 -87t33 -97t56 -94t82 -82t114.5 -56t150.5 -21.5q105 0 209.5 52t185.5 126l145 -182q-227 -227 -540 -227q-157 0 -283 47.5
t-204 123t-130.5 175t-73 196.5t-20.5 195q0 67 10.5 135t35 141t61.5 138.5t94.5 125t129 102.5t169 68t211.5 25q175 0 305.5 -64t238.5 -186zM514 1726l303 252l303 -252l-78 -112l-225 133l-225 -133z" />
    <glyph glyph-name="ccircumflex" unicode="&#x109;" horiz-adv-x="1167" 
d="M1044 180l-163 148q-55 -56 -119.5 -84.5t-124.5 -28.5q-113 0 -192.5 77.5t-79.5 215.5q0 126 73 218.5t197 92.5q68 0 138 -33.5t118 -87.5l139 156q-175 186 -395 186q-117 0 -209 -34t-148 -87.5t-92 -126t-49.5 -141.5t-13.5 -143q0 -69 15.5 -137.5t53.5 -139
t95 -124t148 -87.5t204 -34q128 0 225.5 50t179.5 144zM319 1317l304 252l303 -252l-78 -113l-225 133l-226 -133z" />
    <glyph glyph-name="Cdotaccent" unicode="&#x10a;" horiz-adv-x="1501" 
d="M1378 1204l-168 -160q-63 74 -167 127.5t-209 53.5q-82 0 -150.5 -21.5t-114.5 -56t-82 -82t-56 -94t-33 -97t-17 -87t-4 -68.5t4 -68.5t17 -87t33 -97t56 -94t82 -82t114.5 -56t150.5 -21.5q105 0 209.5 52t185.5 126l145 -182q-227 -227 -540 -227q-157 0 -283 47.5
t-204 123t-130.5 175t-73 196.5t-20.5 195q0 67 10.5 135t35 141t61.5 138.5t94.5 125t129 102.5t169 68t211.5 25q175 0 305.5 -64t238.5 -186zM674 1761q0 59 39.5 99.5t99.5 40.5q59 0 100 -41t41 -99q0 -61 -41 -100t-100 -39q-60 0 -99.5 39t-39.5 100z" />
    <glyph glyph-name="cdotaccent" unicode="&#x10b;" horiz-adv-x="1167" 
d="M1044 180l-163 148q-55 -56 -119.5 -84.5t-124.5 -28.5q-113 0 -192.5 77.5t-79.5 215.5q0 126 73 218.5t197 92.5q68 0 138 -33.5t118 -87.5l139 156q-175 186 -395 186q-117 0 -209 -34t-148 -87.5t-92 -126t-49.5 -141.5t-13.5 -143q0 -69 15.5 -137.5t53.5 -139
t95 -124t148 -87.5t204 -34q128 0 225.5 50t179.5 144zM475 1352q0 59 39.5 99t99.5 40q59 0 100.5 -40.5t41.5 -98.5q0 -61 -41.5 -100.5t-100.5 -39.5q-60 0 -99.5 39.5t-39.5 100.5z" />
    <glyph glyph-name="Ccaron" unicode="&#x10c;" horiz-adv-x="1501" 
d="M1378 1204l-168 -160q-63 74 -167 127.5t-209 53.5q-82 0 -150.5 -21.5t-114.5 -56t-82 -82t-56 -94t-33 -97t-17 -87t-4 -68.5t4 -68.5t17 -87t33 -97t56 -94t82 -82t114.5 -56t150.5 -21.5q105 0 209.5 52t185.5 126l145 -182q-227 -227 -540 -227q-157 0 -283 47.5
t-204 123t-130.5 175t-73 196.5t-20.5 195q0 67 10.5 135t35 141t61.5 138.5t94.5 125t129 102.5t169 68t211.5 25q175 0 305.5 -64t238.5 -186zM827 1614l-303 252l78 112l225 -133l226 133l77 -112z" />
    <glyph glyph-name="ccaron" unicode="&#x10d;" horiz-adv-x="1167" 
d="M881 328l163 -148q-82 -94 -179.5 -144t-225.5 -50q-113 0 -204 34t-148 87.5t-95 124t-53.5 139t-15.5 137.5q0 74 13.5 143t49.5 141.5t92 126t148 87.5t209 34q220 0 395 -186l-139 -156q-48 54 -118 87.5t-138 33.5q-124 0 -197 -92.5t-73 -218.5q0 -138 79.5 -215.5
t192.5 -77.5q60 0 124.5 28.5t119.5 84.5zM625 1204l-303 252l77 113l226 -133l225 133l78 -113z" />
    <glyph glyph-name="Dcaron" unicode="&#x10e;" horiz-adv-x="1538" 
d="M707 0h-502v1434h502q114 0 211.5 -24t168.5 -65t128 -98.5t94 -120.5t61.5 -134.5t34.5 -138.5t10 -134q0 -98 -20.5 -193t-72 -192t-129.5 -169.5t-203.5 -118.5t-282.5 -46zM453 225h254q82 0 150 21t114 54.5t81.5 79.5t55.5 91t32.5 94.5t16.5 85.5t4 68t-4 67.5
t-16.5 85t-32.5 94.5t-55.5 90.5t-81.5 78.5t-114 54t-150 21h-254v-985zM588 1614l-303 252l77 112l226 -133l225 133l78 -112z" />
    <glyph glyph-name="dcaron" unicode="&#x10f;" horiz-adv-x="1581" 
d="M633 1040q-113 0 -203.5 -34.5t-146.5 -89t-93 -126t-52 -140.5t-15 -138q0 -70 15 -139.5t52 -140.5t92 -125.5t143 -88.5t198 -34q157 0 282 96l29 -80h158v1434h-242v-433q-103 39 -217 39zM633 193q-67 0 -119 26t-79.5 62.5t-45 84t-22.5 82t-5 64.5q0 33 6.5 70
t26 82.5t49.5 81.5t83.5 60.5t121.5 24.5q119 0 201 -57v-469q-72 -112 -217 -112zM1395 854l-117 61q78 135 106 242q-118 25 -118 152q0 61 43 106t106 45q85 0 125.5 -49t40.5 -119q0 -96 -60.5 -225t-125.5 -213z" />
    <glyph glyph-name="Dcroat" unicode="&#x110;" horiz-adv-x="1538" 
d="M72 823h133v611h502q114 0 211.5 -24t168.5 -65t128 -98.5t94 -120.5t61.5 -134.5t34.5 -138.5t10 -134q0 -98 -20.5 -193t-72 -192t-129.5 -169.5t-203.5 -118.5t-282.5 -46h-502v614h-133v209zM453 225h254q82 0 150 21t114 54.5t81.5 79.5t55.5 91t32.5 94.5
t16.5 85.5t4 68t-4 67.5t-16.5 85t-32.5 94.5t-55.5 90.5t-81.5 78.5t-114 54t-150 21h-254v-387h305v-209h-305v-389z" />
    <glyph glyph-name="dcroat" unicode="&#x111;" horiz-adv-x="1255" 
d="M1092 1352h122v-144h-122v-1208h-158l-29 80q-125 -96 -282 -96q-110 0 -198 34t-143 88.5t-92 125.5t-52 140.5t-15 139.5q0 69 15 138t52 140.5t93 126t146.5 89t203.5 34.5q114 0 217 -39v207h-184v144h184v82h242v-82zM633 193q145 0 217 112v469q-82 57 -201 57
q-68 0 -121.5 -24.5t-83.5 -60.5t-49.5 -81.5t-26 -82.5t-6.5 -70q0 -30 5 -64.5t22.5 -82t45 -84t79.5 -62.5t119 -26z" />
    <glyph glyph-name="Emacron" unicode="&#x112;" horiz-adv-x="1286" 
d="M1010 594h-555v-369h708v-225h-958v1434h958v-226h-708v-389h555v-225zM334 1808h616v-178h-616v178z" />
    <glyph glyph-name="emacron" unicode="&#x113;" horiz-adv-x="1114" 
d="M866 289l115 -158q-87 -73 -177 -108t-200 -35q-113 0 -203.5 34t-147 87.5t-94 124.5t-52.5 140t-15 140q0 69 15 137.5t52.5 139.5t94 125t147 88t203.5 34q198 0 308 -117.5t110 -318.5q0 -72 -14 -160h-668q7 -43 22.5 -80.5t44.5 -75.5t79.5 -60.5t117.5 -22.5
q150 0 262 86zM602 829q-199 -2 -252 -194h441q3 75 -42.5 132.5t-146.5 61.5zM281 1399h616v-178h-616v178z" />
    <glyph glyph-name="Ebreve" unicode="&#x114;" horiz-adv-x="1286" 
d="M1010 594h-555v-369h708v-225h-958v1434h958v-226h-708v-389h555v-225zM762 1925l180 -51q-31 -122 -112 -187t-189 -65t-188.5 64.5t-110.5 187.5l176 49q26 -113 123 -113q99 0 121 115z" />
    <glyph glyph-name="ebreve" unicode="&#x115;" horiz-adv-x="1114" 
d="M866 289l115 -158q-87 -73 -177 -108t-200 -35q-113 0 -203.5 34t-147 87.5t-94 124.5t-52.5 140t-15 140q0 69 15 137.5t52.5 139.5t94 125t147 88t203.5 34q198 0 308 -117.5t110 -318.5q0 -72 -14 -160h-668q7 -43 22.5 -80.5t44.5 -75.5t79.5 -60.5t117.5 -22.5
q150 0 262 86zM602 829q-199 -2 -252 -194h441q3 75 -42.5 132.5t-146.5 61.5zM692 1516l180 -52q-31 -122 -112 -187t-189 -65t-188.5 64.5t-110.5 187.5l177 49q25 -112 122 -112q99 0 121 115z" />
    <glyph glyph-name="Edotaccent" unicode="&#x116;" horiz-adv-x="1286" 
d="M1010 594h-555v-369h708v-225h-958v1434h958v-226h-708v-389h555v-225zM502 1761q0 59 39.5 99.5t99.5 40.5q59 0 100 -41t41 -99q0 -61 -41 -100t-100 -39q-60 0 -99.5 39t-39.5 100z" />
    <glyph glyph-name="edotaccent" unicode="&#x117;" horiz-adv-x="1114" 
d="M866 289l115 -158q-87 -73 -177 -108t-200 -35q-113 0 -203.5 34t-147 87.5t-94 124.5t-52.5 140t-15 140q0 69 15 137.5t52.5 139.5t94 125t147 88t203.5 34q198 0 308 -117.5t110 -318.5q0 -72 -14 -160h-668q7 -43 22.5 -80.5t44.5 -75.5t79.5 -60.5t117.5 -22.5
q150 0 262 86zM602 829q-199 -2 -252 -194h441q3 75 -42.5 132.5t-146.5 61.5zM432 1352q0 59 39.5 99t99.5 40q59 0 100.5 -40.5t41.5 -98.5q0 -61 -41.5 -100.5t-100.5 -39.5q-60 0 -99.5 39.5t-39.5 100.5z" />
    <glyph glyph-name="Eogonek" unicode="&#x118;" horiz-adv-x="1286" 
d="M1010 594h-555v-369h708v-231q0 -21 -35.5 -90.5t-35.5 -112.5q0 -94 108 -94q63 0 152 33v-150q-86 -37 -193 -37q-102 0 -169.5 55t-67.5 162q0 47 23 97t46 87.5t23 55.5h-809v1434h958v-226h-708v-389h555v-225z" />
    <glyph glyph-name="eogonek" unicode="&#x119;" horiz-adv-x="1114" 
d="M866 289l115 -158q-63 -53 -115 -80v-57q0 -21 -35.5 -90.5t-35.5 -112.5q0 -94 108 -94q63 0 152 33v-150q-86 -37 -193 -37q-102 0 -169.5 55t-67.5 162q0 47 22.5 96.5t45.5 86.5t24 55q-62 -10 -113 -10q-113 0 -203.5 34t-147 87.5t-94 124.5t-52.5 140t-15 140
q0 69 15 137.5t52.5 139.5t94 125t147 88t203.5 34q198 0 308 -117.5t110 -318.5q0 -72 -14 -160h-668q7 -43 22.5 -80.5t44.5 -75.5t79.5 -60.5t117.5 -22.5q150 0 262 86zM602 829q-199 -2 -252 -194h441q3 75 -42.5 132.5t-146.5 61.5z" />
    <glyph glyph-name="Ecaron" unicode="&#x11a;" horiz-adv-x="1286" 
d="M1010 594h-555v-369h708v-225h-958v1434h958v-226h-708v-389h555v-225zM643 1614l-303 252l78 112l225 -133l225 133l78 -112z" />
    <glyph glyph-name="ecaron" unicode="&#x11b;" horiz-adv-x="1114" 
d="M866 289l115 -158q-87 -73 -177 -108t-200 -35q-113 0 -203.5 34t-147 87.5t-94 124.5t-52.5 140t-15 140q0 69 15 137.5t52.5 139.5t94 125t147 88t203.5 34q198 0 308 -117.5t110 -318.5q0 -72 -14 -160h-668q7 -43 22.5 -80.5t44.5 -75.5t79.5 -60.5t117.5 -22.5
q150 0 262 86zM602 829q-199 -2 -252 -194h441q3 75 -42.5 132.5t-146.5 61.5zM573 1204l-303 252l78 113l225 -133l226 133l78 -113z" />
    <glyph glyph-name="Gcircumflex" unicode="&#x11c;" horiz-adv-x="1476" 
d="M1102 500h-291v221h543v-528q-211 -211 -520 -211q-157 0 -283 47.5t-204 123t-130.5 175t-73 196.5t-20.5 195q0 67 10.5 135t35 141t61.5 138.5t94.5 125t129 102.5t169 68t211.5 25q170 0 290 -55t222 -166l-156 -164q-60 65 -159 110.5t-197 45.5q-82 0 -150.5 -21.5
t-114.5 -56t-82 -82t-56 -94t-33 -97t-17 -87t-4 -68.5t4 -68.5t17 -87t33 -97t56 -94t82 -82t114.5 -56t150.5 -21.5q186 0 268 76v211zM494 1726l303 252l303 -252l-78 -112l-225 133l-226 -133z" />
    <glyph glyph-name="gcircumflex" unicode="&#x11d;" horiz-adv-x="1167" 
d="M123 -115q1 37 11.5 74.5t39 76t70.5 56.5q-48 24 -72.5 69.5t-24.5 100.5q0 60 32 111.5t87 62.5q-80 72 -80 221q0 53 11.5 105t41 104.5t73 92t113.5 64t157 24.5q118 0 200 -46l148 136l135 -138l-133 -147q47 -65 47 -195q0 -52 -12 -103t-41.5 -103.5t-73.5 -92.5
t-113.5 -65t-156.5 -25q-92 0 -154 25q-29 0 -49.5 -17.5t-20.5 -39.5q0 -35 37.5 -52.5t93.5 -15.5q132 2 229.5 -10.5t158 -36.5t97 -62.5t50.5 -81.5t14 -100q0 -16 -3 -35t-13.5 -51t-28.5 -61.5t-52 -61t-78.5 -54t-113.5 -37.5t-153 -15q-107 0 -191.5 21.5t-136 54.5
t-85.5 77t-47 86t-13 84zM582 483q38 0 67 14.5t44.5 34t25 46t12 45t2.5 34.5q0 23 -5 47.5t-19 56.5t-47 52.5t-80 20.5q-46 0 -78 -19.5t-46.5 -50.5t-20 -57t-5.5 -50q0 -23 5 -46.5t18.5 -55.5t46 -52t80.5 -20zM582 -221q61 0 107.5 10t68.5 23t35 29.5t15.5 24.5
t2.5 13q0 20 -10 35.5t-30.5 24t-38 14t-48.5 7.5t-46 2.5t-43 0.5h-13q-94 0 -148 -12.5t-70 -30t-16 -43.5q0 -8 5 -18.5t20.5 -24.5t40 -25.5t68.5 -20t100 -9.5zM281 1317l303 252l303 -252l-78 -113l-225 133l-226 -133z" />
    <glyph glyph-name="Gbreve" unicode="&#x11e;" horiz-adv-x="1476" 
d="M1102 500h-291v221h543v-528q-211 -211 -520 -211q-157 0 -283 47.5t-204 123t-130.5 175t-73 196.5t-20.5 195q0 67 10.5 135t35 141t61.5 138.5t94.5 125t129 102.5t169 68t211.5 25q170 0 290 -55t222 -166l-156 -164q-60 65 -159 110.5t-197 45.5q-82 0 -150.5 -21.5
t-114.5 -56t-82 -82t-56 -94t-33 -97t-17 -87t-4 -68.5t4 -68.5t17 -87t33 -97t56 -94t82 -82t114.5 -56t150.5 -21.5q186 0 268 76v211zM928 1925l180 -51q-31 -122 -112 -187t-189 -65t-188.5 64.5t-110.5 187.5l176 49q26 -113 123 -113q99 0 121 115z" />
    <glyph glyph-name="gbreve" unicode="&#x11f;" horiz-adv-x="1167" 
d="M123 -115q1 37 11.5 74.5t39 76t70.5 56.5q-48 24 -72.5 69.5t-24.5 100.5q0 60 32 111.5t87 62.5q-80 72 -80 221q0 53 11.5 105t41 104.5t73 92t113.5 64t157 24.5q118 0 200 -46l148 136l135 -138l-133 -147q47 -65 47 -195q0 -52 -12 -103t-41.5 -103.5t-73.5 -92.5
t-113.5 -65t-156.5 -25q-92 0 -154 25q-29 0 -49.5 -17.5t-20.5 -39.5q0 -35 37.5 -52.5t93.5 -15.5q132 2 229.5 -10.5t158 -36.5t97 -62.5t50.5 -81.5t14 -100q0 -16 -3 -35t-13.5 -51t-28.5 -61.5t-52 -61t-78.5 -54t-113.5 -37.5t-153 -15q-107 0 -191.5 21.5t-136 54.5
t-85.5 77t-47 86t-13 84zM582 483q38 0 67 14.5t44.5 34t25 46t12 45t2.5 34.5q0 23 -5 47.5t-19 56.5t-47 52.5t-80 20.5q-46 0 -78 -19.5t-46.5 -50.5t-20 -57t-5.5 -50q0 -23 5 -46.5t18.5 -55.5t46 -52t80.5 -20zM582 -221q61 0 107.5 10t68.5 23t35 29.5t15.5 24.5
t2.5 13q0 20 -10 35.5t-30.5 24t-38 14t-48.5 7.5t-46 2.5t-43 0.5h-13q-94 0 -148 -12.5t-70 -30t-16 -43.5q0 -8 5 -18.5t20.5 -24.5t40 -25.5t68.5 -20t100 -9.5zM702 1516l181 -52q-31 -122 -112 -187t-189 -65t-188.5 64.5t-110.5 187.5l176 49q25 -112 123 -112
t120 115z" />
    <glyph glyph-name="Gdotaccent" unicode="&#x120;" horiz-adv-x="1476" 
d="M1102 500h-291v221h543v-528q-211 -211 -520 -211q-157 0 -283 47.5t-204 123t-130.5 175t-73 196.5t-20.5 195q0 67 10.5 135t35 141t61.5 138.5t94.5 125t129 102.5t169 68t211.5 25q170 0 290 -55t222 -166l-156 -164q-60 65 -159 110.5t-197 45.5q-82 0 -150.5 -21.5
t-114.5 -56t-82 -82t-56 -94t-33 -97t-17 -87t-4 -68.5t4 -68.5t17 -87t33 -97t56 -94t82 -82t114.5 -56t150.5 -21.5q186 0 268 76v211zM659 1761q0 59 40 99.5t100 40.5q59 0 100 -41t41 -99q0 -61 -41 -100t-100 -39q-60 0 -100 39t-40 100z" />
    <glyph glyph-name="gdotaccent" unicode="&#x121;" horiz-adv-x="1167" 
d="M123 -115q1 37 11.5 74.5t39 76t70.5 56.5q-48 24 -72.5 69.5t-24.5 100.5q0 60 32 111.5t87 62.5q-80 72 -80 221q0 53 11.5 105t41 104.5t73 92t113.5 64t157 24.5q118 0 200 -46l148 136l135 -138l-133 -147q47 -65 47 -195q0 -52 -12 -103t-41.5 -103.5t-73.5 -92.5
t-113.5 -65t-156.5 -25q-92 0 -154 25q-29 0 -49.5 -17.5t-20.5 -39.5q0 -35 37.5 -52.5t93.5 -15.5q132 2 229.5 -10.5t158 -36.5t97 -62.5t50.5 -81.5t14 -100q0 -16 -3 -35t-13.5 -51t-28.5 -61.5t-52 -61t-78.5 -54t-113.5 -37.5t-153 -15q-107 0 -191.5 21.5t-136 54.5
t-85.5 77t-47 86t-13 84zM582 483q38 0 67 14.5t44.5 34t25 46t12 45t2.5 34.5q0 23 -5 47.5t-19 56.5t-47 52.5t-80 20.5q-46 0 -78 -19.5t-46.5 -50.5t-20 -57t-5.5 -50q0 -23 5 -46.5t18.5 -55.5t46 -52t80.5 -20zM582 -221q61 0 107.5 10t68.5 23t35 29.5t15.5 24.5
t2.5 13q0 20 -10 35.5t-30.5 24t-38 14t-48.5 7.5t-46 2.5t-43 0.5h-13q-94 0 -148 -12.5t-70 -30t-16 -43.5q0 -8 5 -18.5t20.5 -24.5t40 -25.5t68.5 -20t100 -9.5zM442 1352q0 59 40 99t100 40q59 0 100 -40.5t41 -98.5q0 -61 -41 -100.5t-100 -39.5q-60 0 -100 39.5
t-40 100.5z" />
    <glyph glyph-name="Gcommaaccent" unicode="&#x122;" horiz-adv-x="1476" 
d="M1102 500h-291v221h543v-528q-211 -211 -520 -211q-157 0 -283 47.5t-204 123t-130.5 175t-73 196.5t-20.5 195q0 67 10.5 135t35 141t61.5 138.5t94.5 125t129 102.5t169 68t211.5 25q170 0 290 -55t222 -166l-156 -164q-60 65 -159 110.5t-197 45.5q-82 0 -150.5 -21.5
t-114.5 -56t-82 -82t-56 -94t-33 -97t-17 -87t-4 -68.5t4 -68.5t17 -87t33 -97t56 -94t82 -82t114.5 -56t150.5 -21.5q186 0 268 76v211zM821 -680l-106 47q64 122 80 182q-107 23 -107 138q0 55 38.5 95t94.5 40q77 0 113.5 -43.5t36.5 -106.5q0 -113 -150 -352z" />
    <glyph glyph-name="gcommaaccent" unicode="&#x123;" horiz-adv-x="1167" 
d="M123 -115q1 37 11.5 74.5t39 76t70.5 56.5q-48 24 -72.5 69.5t-24.5 100.5q0 60 32 111.5t87 62.5q-80 72 -80 221q0 53 11.5 105t41 104.5t73 92t113.5 64t157 24.5q118 0 200 -46l148 136l135 -138l-133 -147q47 -65 47 -195q0 -52 -12 -103t-41.5 -103.5t-73.5 -92.5
t-113.5 -65t-156.5 -25q-92 0 -154 25q-29 0 -49.5 -17.5t-20.5 -39.5q0 -35 37.5 -52.5t93.5 -15.5q132 2 229.5 -10.5t158 -36.5t97 -62.5t50.5 -81.5t14 -100q0 -16 -3 -35t-13.5 -51t-28.5 -61.5t-52 -61t-78.5 -54t-113.5 -37.5t-153 -15q-107 0 -191.5 21.5t-136 54.5
t-85.5 77t-47 86t-13 84zM582 483q38 0 67 14.5t44.5 34t25 46t12 45t2.5 34.5q0 23 -5 47.5t-19 56.5t-47 52.5t-80 20.5q-46 0 -78 -19.5t-46.5 -50.5t-20 -57t-5.5 -50q0 -23 5 -46.5t18.5 -55.5t46 -52t80.5 -20zM582 -221q61 0 107.5 10t68.5 23t35 29.5t15.5 24.5
t2.5 13q0 20 -10 35.5t-30.5 24t-38 14t-48.5 7.5t-46 2.5t-43 0.5h-13q-94 0 -148 -12.5t-70 -30t-16 -43.5q0 -8 5 -18.5t20.5 -24.5t40 -25.5t68.5 -20t100 -9.5zM596 1724l106 -47q-62 -118 -79 -182q106 -22 106 -137q0 -55 -38.5 -95t-94.5 -40q-77 0 -113.5 43
t-36.5 106q0 113 150 352z" />
    <glyph glyph-name="Hcircumflex" unicode="&#x124;" horiz-adv-x="1579" 
d="M457 594v-594h-252v1434h252v-615h667v615h250v-1434h-250v594h-667zM485 1726l303 252l304 -252l-78 -112l-226 133l-225 -133z" />
    <glyph glyph-name="hcircumflex" unicode="&#x125;" 
d="M406 0h-242v1434h242v-471q43 37 106.5 57t122.5 20q82 0 147 -16t110 -42.5t78 -67t51.5 -82t29.5 -96.5t14.5 -102t3.5 -106v-528h-242v528q0 42 -2.5 73.5t-10 69t-23.5 64t-40.5 49.5t-63 34.5t-89.5 10.5q-60 -1 -114 -32t-78 -68v-729zM129 1743l303 252l303 -252
l-78 -113l-225 133l-225 -133z" />
    <glyph glyph-name="Hbar" unicode="&#x126;" horiz-adv-x="1579" 
d="M1376 1245h113v-178h-113v-1067h-252v594h-667v-594h-250v1065h-115v178h115v191h250v-191h667v191h252v-189zM457 819h667v246h-667v-246z" />
    <glyph glyph-name="hbar" unicode="&#x127;" 
d="M49 1348h115v86h242v-86h260v-179h-260v-206q43 37 106.5 57t122.5 20q82 0 147 -16t110 -42.5t78 -67t51.5 -82t29.5 -96.5t14.5 -102t3.5 -106v-528h-242v528q0 42 -2.5 73.5t-10 69t-23.5 64t-40.5 49.5t-63 34.5t-89.5 10.5q-60 -1 -114 -32t-78 -68v-729h-242v1169
h-115v179z" />
    <glyph glyph-name="Itilde" unicode="&#x128;" horiz-adv-x="661" 
d="M457 1434v-1434h-252v1434h252zM524 1894l146 -75q-88 -195 -248 -195q-48 0 -106 39t-93 39q-52 0 -94 -88l-137 65q34 111 96.5 157t136.5 46q43 0 81 -18t67.5 -36t52.5 -18q51 0 98 84z" />
    <glyph glyph-name="itilde" unicode="&#x129;" horiz-adv-x="677" 
d="M461 1024v-1024h-244v1024h244zM532 1485l146 -76q-88 -195 -248 -195q-48 0 -106 39t-93 39q-52 0 -94 -88l-137 66q34 111 96.5 157t136.5 46q43 0 81 -18t67.5 -36t52.5 -18q51 0 98 84z" />
    <glyph glyph-name="Imacron" unicode="&#x12a;" horiz-adv-x="661" 
d="M457 1434v-1434h-252v1434h252zM23 1808h616v-178h-616v178z" />
    <glyph glyph-name="imacron" unicode="&#x12b;" horiz-adv-x="616" 
d="M430 1024v-1024h-244v1024h244zM0 1399h616v-178h-616v178z" />
    <glyph glyph-name="Ibreve" unicode="&#x12c;" horiz-adv-x="600" 
d="M426 1434v-1434h-252v1434h252zM420 1925l180 -51q-31 -122 -112 -187t-189 -65t-188.5 64.5t-110.5 187.5l176 49q26 -113 123 -113q99 0 121 115z" />
    <glyph glyph-name="ibreve" unicode="&#x12d;" horiz-adv-x="571" 
d="M408 1024v-1024h-244v1024h244zM406 1516l180 -52q-31 -122 -112 -187t-189 -65t-188.5 64.5t-110.5 187.5l176 49q25 -112 123 -112q99 0 121 115z" />
    <glyph glyph-name="Iogonek" unicode="&#x12e;" horiz-adv-x="661" 
d="M457 1434v-1440q0 -21 -36 -90.5t-36 -112.5q0 -94 109 -94q62 0 151 33v-150q-86 -37 -192 -37q-102 0 -170 55t-68 162q0 47 23 97t46 87.5t23 55.5h-102v1434h252z" />
    <glyph glyph-name="iogonek" unicode="&#x12f;" horiz-adv-x="571" 
d="M408 1024v-1030q0 -21 -36 -90.5t-36 -112.5q0 -94 108 -94q63 0 152 33v-150q-86 -37 -193 -37q-102 0 -169.5 55t-67.5 162q0 47 23 97t46 87.5t23 55.5h-94v1024h244zM147 1346q0 59 40 99t100 40q59 0 99 -40.5t40 -98.5q0 -61 -40 -100.5t-99 -39.5q-60 0 -100 39.5
t-40 100.5z" />
    <glyph glyph-name="Idotaccent" unicode="&#x130;" horiz-adv-x="661" 
d="M457 1434v-1434h-252v1434h252zM190 1761q0 59 40 99.5t100 40.5q59 0 100 -41t41 -99q0 -61 -41 -100t-100 -39q-60 0 -100 39t-40 100z" />
    <glyph glyph-name="dotlessi" unicode="&#x131;" horiz-adv-x="571" 
d="M408 1024v-1024h-244v1024h244z" />
    <glyph glyph-name="IJ" unicode="&#x132;" horiz-adv-x="1853" 
d="M457 1434v-1434h-252v1434h252zM621 397l221 82q18 -57 41 -100.5t56.5 -81.5t81.5 -57.5t109 -18.5q52 1 94 16t69 37t47 53.5t30 60t16 63.5t7.5 56.5t1.5 45.5v881h254v-881q0 -63 -9.5 -123.5t-31 -126t-61.5 -120.5t-95 -100t-138 -70t-184 -25q-115 0 -203 31.5
t-146.5 90.5t-95.5 127.5t-64 159.5z" />
    <glyph glyph-name="ij" unicode="&#x133;" horiz-adv-x="1134" 
d="M408 1024v-1024h-244v1024h244zM147 1346q0 59 40 99t100 40q59 0 99 -40.5t40 -98.5q0 -61 -40 -100.5t-99 -39.5q-60 0 -100 39.5t-40 100.5zM410 -125q108 -63 174 -63q57 0 91 45.5t34 140.5v1026h243v-1026q0 -101 -19 -168q-56 -198 -251 -233q-40 -7 -84 -7
q-92 0 -171 35t-122 76zM692 1348q0 59 39.5 99t99.5 40q59 0 99.5 -40.5t40.5 -98.5q0 -61 -40.5 -100.5t-99.5 -39.5q-60 0 -99.5 39.5t-39.5 100.5z" />
    <glyph glyph-name="Jcircumflex" unicode="&#x134;" horiz-adv-x="1273" 
d="M41 397l221 82q18 -57 41 -100.5t56.5 -81.5t82 -57.5t109.5 -18.5q52 1 94 16t69 37t46.5 53.5t30 60t16 63.5t7 56.5t1.5 45.5v881h254v-881q0 -53 -6.5 -105t-23 -109t-42 -106.5t-66.5 -95t-93.5 -78t-126 -52t-160.5 -19.5q-92 0 -168 21.5t-129.5 57.5t-95.5 90
t-69 111.5t-48 128.5zM637 1726l303 252l303 -252l-78 -112l-225 133l-225 -133z" />
    <glyph glyph-name="jcircumflex" unicode="&#x135;" horiz-adv-x="563" 
d="M-162 -125q108 -63 174 -63q57 0 91 45.5t34 140.5v1026h244v-1026q0 -101 -19 -168q-56 -198 -251 -233q-40 -7 -84 -7q-92 0 -171 35t-122 76zM-20 1317l303 252l303 -252l-78 -113l-225 133l-226 -133z" />
    <glyph glyph-name="Kcommaaccent" unicode="&#x136;" horiz-adv-x="1445" 
d="M457 0h-252v1434h252v-592l559 592h297l4 -13l-658 -682l705 -727l-4 -12h-303l-600 637v-637zM680 -680l-107 47q64 122 80 182q-106 22 -106 138q0 55 38.5 95t94.5 40q77 0 113 -43.5t36 -106.5q0 -115 -149 -352z" />
    <glyph glyph-name="kcommaaccent" unicode="&#x137;" horiz-adv-x="1165" 
d="M827 0l-421 465v-465h-242v1434h242v-846l393 436h266l4 -10l-430 -477l465 -527l-6 -10h-271zM573 -680l-106 47q64 122 80 182q-107 23 -107 138q0 55 38.5 95t94.5 40q77 0 113.5 -43.5t36.5 -106.5q0 -113 -150 -352z" />
    <glyph glyph-name="kgreenlandic" unicode="&#x138;" horiz-adv-x="1165" 
d="M827 0l-421 465v-465h-242v1024h242v-436l393 436h264l6 -10l-430 -477l465 -527l-6 -10h-271z" />
    <glyph glyph-name="Lacute" unicode="&#x139;" horiz-adv-x="1107" 
d="M457 1434v-1209h528v-225h-780v1434h252zM231 1731l304 251l114 -163l-340 -201z" />
    <glyph glyph-name="lacute" unicode="&#x13a;" horiz-adv-x="571" 
d="M408 1434v-1434h-244v1434h244zM78 1733l303 252l115 -164l-340 -201z" />
    <glyph glyph-name="Lcommaaccent" unicode="&#x13b;" horiz-adv-x="1107" 
d="M457 1434v-1209h528v-225h-780v1434h252zM545 -680l-107 47q64 122 80 182q-106 22 -106 138q0 55 38.5 95t94.5 40q77 0 113 -43.5t36 -106.5q0 -115 -149 -352z" />
    <glyph glyph-name="lcommaaccent" unicode="&#x13c;" horiz-adv-x="571" 
d="M408 1434v-1434h-244v1434h244zM276 -680l-106 47q64 122 80 182q-107 23 -107 138q0 55 38.5 95t94.5 40q77 0 113.5 -43.5t36.5 -106.5q0 -113 -150 -352z" />
    <glyph glyph-name="Lcaron" unicode="&#x13d;" horiz-adv-x="1107" 
d="M457 1434v-1209h528v-225h-780v1434h252zM793 825l-117 62q78 136 106 241q-118 25 -118 152q0 61 43 106.5t106 45.5q85 0 125.5 -49t40.5 -119q0 -96 -60.5 -226t-125.5 -213z" />
    <glyph glyph-name="lcaron" unicode="&#x13e;" horiz-adv-x="921" 
d="M408 1434v-1434h-244v1434h244zM719 854l-117 61q80 138 107 242q-119 25 -119 152q0 61 43 106t106 45q85 0 125.5 -49t40.5 -119q0 -96 -60.5 -225t-125.5 -213z" />
    <glyph glyph-name="Ldot" unicode="&#x13f;" horiz-adv-x="1107" 
d="M457 1434v-1209h528v-225h-780v1434h252zM606 715q0 -56 38.5 -95.5t94.5 -39.5q55 0 95 40t40 95q0 56 -39.5 94.5t-95.5 38.5q-57 0 -95 -38t-38 -95z" />
    <glyph glyph-name="ldot" unicode="&#x140;" horiz-adv-x="921" 
d="M408 1434v-1434h-244v1434h244zM563 668q0 -56 38.5 -96t94.5 -40q55 0 95 40t40 96t-39.5 94.5t-95.5 38.5q-57 0 -95 -38t-38 -95z" />
    <glyph glyph-name="Lslash" unicode="&#x141;" horiz-adv-x="1122" 
d="M115 473l-95 156l199 116v689h252v-545l279 162l92 -156l-371 -217v-453h528v-225h-780v535z" />
    <glyph glyph-name="lslash" unicode="&#x142;" horiz-adv-x="745" 
d="M113 467l-93 154l197 114v699h248v-555l168 96l92 -154l-260 -151v-668h-248v526z" />
    <glyph glyph-name="Nacute" unicode="&#x143;" horiz-adv-x="1581" 
d="M582 1731l303 251l114 -163l-340 -201zM205 1442l22 8l897 -893v877h252v-1440l-22 -8l-897 897v-883h-252v1442z" />
    <glyph glyph-name="nacute" unicode="&#x144;" 
d="M406 719v-719h-242v1024h158l28 -80q125 96 283 96q80 0 145 -16t110 -43t78 -67.5t52.5 -83t31 -96.5t15.5 -101.5t4 -104.5v-528h-246v528q0 45 -3.5 81t-15.5 79t-32.5 72t-58.5 49t-90 20q-71 0 -129.5 -32.5t-87.5 -77.5zM387 1321l303 252l115 -164l-340 -201z" />
    <glyph glyph-name="Ncommaaccent" unicode="&#x145;" horiz-adv-x="1581" 
d="M205 1442l22 8l897 -893v877h252v-1440l-22 -8l-897 897v-883h-252v1442zM782 -680l-106 47q64 122 80 182q-107 23 -107 138q0 55 38.5 95t94.5 40q77 0 113.5 -43.5t36.5 -106.5q0 -113 -150 -352z" />
    <glyph glyph-name="ncommaaccent" unicode="&#x146;" 
d="M406 719v-719h-242v1024h158l28 -80q125 96 283 96q80 0 145 -16t110 -43t78 -67.5t52.5 -83t31 -96.5t15.5 -101.5t4 -104.5v-528h-246v528q0 45 -3.5 81t-15.5 79t-32.5 72t-58.5 49t-90 20q-71 0 -129.5 -32.5t-87.5 -77.5zM588 -680l-107 47q64 122 80 182
q-106 22 -106 138q0 55 38.5 95t94.5 40q77 0 113 -43.5t36 -106.5q0 -115 -149 -352z" />
    <glyph glyph-name="Ncaron" unicode="&#x147;" horiz-adv-x="1581" 
d="M205 1442l16 8l903 -875v859h252v-1440l-18 -8l-901 876v-862h-252v1442zM791 1614l-304 252l78 112l226 -133l225 133l78 -112z" />
    <glyph glyph-name="ncaron" unicode="&#x148;" 
d="M406 719v-719h-242v1024h158l28 -80q125 96 283 96q80 0 145 -16t110 -43t78 -67.5t52.5 -83t31 -96.5t15.5 -101.5t4 -104.5v-528h-246v528q0 45 -3.5 81t-15.5 79t-32.5 72t-58.5 49t-90 20q-71 0 -129.5 -32.5t-87.5 -77.5zM596 1204l-303 252l78 113l225 -133
l225 133l78 -113z" />
    <glyph glyph-name="napostrophe" unicode="&#x149;" horiz-adv-x="1478" 
d="M692 719v-719h-241v1024h157l29 -80q125 96 283 96q80 0 145 -16t110 -43t78 -67.5t52.5 -83t31 -96.5t15.5 -101.5t4 -104.5v-528h-246v528q0 44 -3.5 80.5t-15.5 79.5t-33 72t-59 49t-90 20q-71 0 -129.5 -32.5t-87.5 -77.5zM154 1016l-107 47q64 122 80 182
q-107 23 -107 137q0 55 39 95.5t95 40.5q77 0 113 -43.5t36 -106.5q0 -115 -149 -352z" />
    <glyph glyph-name="Eng" unicode="&#x14a;" horiz-adv-x="1581" 
d="M831 -172q110 -64 175 -64q118 0 118 187v264l-667 664v-879h-252v1440l16 6l903 -891v879h252l-2 -1483q0 -101 -19 -168q-56 -198 -251 -233q-40 -7 -84 -7q-92 0 -171 35t-122 76z" />
    <glyph glyph-name="eng" unicode="&#x14b;" 
d="M526 -193q108 -63 174 -63q57 0 91 45.5t34 140.5l-2 598q0 45 -3.5 81t-15.5 79t-32.5 72t-58.5 49t-90 20q-71 0 -129.5 -32.5t-87.5 -77.5v-719h-242v1024h158l28 -80q125 96 283 96q80 0 145 -16t110 -43t78 -67.5t52.5 -83t31 -96.5t15.5 -101.5t4 -104.5v-579
q0 -101 -19 -168q-56 -198 -251 -233q-40 -7 -84 -7q-92 0 -171 35t-122 76z" />
    <glyph glyph-name="Omacron" unicode="&#x14c;" horiz-adv-x="1665" 
d="M834 1454q113 0 210.5 -25t168.5 -68t128 -102.5t94 -125t61.5 -138.5t35 -141t10.5 -135q0 -69 -10.5 -138t-35 -142.5t-61.5 -139t-94 -124t-128 -101t-168.5 -67.5t-210.5 -25q-157 0 -283 47.5t-204 123t-130.5 175t-73 196.5t-20.5 195q0 67 10.5 135t35 141
t61.5 138.5t94.5 125t129 102.5t169 68t211.5 25zM834 209q81 0 149 22t113.5 56.5t81 82.5t55.5 95t32.5 98t16.5 87.5t4 68.5t-4 68.5t-16.5 87t-32.5 97t-55.5 94t-81 82t-113.5 56t-149 21.5q-82 0 -150.5 -21.5t-114.5 -56t-82 -82t-56 -94t-33 -97t-17 -87t-4 -68.5
t4 -68.5t17 -87.5t33 -98t56 -95t82 -82.5t114.5 -56.5t150.5 -22zM524 1808h617v-178h-617v178z" />
    <glyph glyph-name="omacron" unicode="&#x14d;" horiz-adv-x="1265" 
d="M633 1042q113 0 203.5 -34.5t146.5 -89t93 -126t52 -140.5t15 -138q0 -71 -15 -140.5t-52 -140.5t-93 -125t-146.5 -88t-203.5 -34t-203.5 34t-146.5 88t-93 125t-52 140.5t-15 140.5q0 69 15 138t52 140.5t93 126t146.5 89t203.5 34.5zM633 195q56 0 101.5 17.5
t73.5 47.5t48 64t29.5 72t13.5 66t4 52q0 20 -2.5 43t-10 55t-19.5 61.5t-33 59.5t-48 52t-67.5 35.5t-89.5 13.5q-67 0 -119 -26t-79.5 -63t-45 -84.5t-22.5 -82t-5 -64.5t5 -64.5t22.5 -82t45 -84t79.5 -62.5t119 -26zM324 1399h616v-178h-616v178z" />
    <glyph glyph-name="Obreve" unicode="&#x14e;" horiz-adv-x="1665" 
d="M834 1454q113 0 210.5 -25t168.5 -68t128 -102.5t94 -125t61.5 -138.5t35 -141t10.5 -135q0 -69 -10.5 -138t-35 -142.5t-61.5 -139t-94 -124t-128 -101t-168.5 -67.5t-210.5 -25q-157 0 -283 47.5t-204 123t-130.5 175t-73 196.5t-20.5 195q0 67 10.5 135t35 141
t61.5 138.5t94.5 125t129 102.5t169 68t211.5 25zM834 209q81 0 149 22t113.5 56.5t81 82.5t55.5 95t32.5 98t16.5 87.5t4 68.5t-4 68.5t-16.5 87t-32.5 97t-55.5 94t-81 82t-113.5 56t-149 21.5q-82 0 -150.5 -21.5t-114.5 -56t-82 -82t-56 -94t-33 -97t-17 -87t-4 -68.5
t4 -68.5t17 -87.5t33 -98t56 -95t82 -82.5t114.5 -56.5t150.5 -22zM952 1925l181 -51q-31 -122 -112.5 -187t-189.5 -65t-188.5 64.5t-110.5 187.5l177 49q26 -113 122 -113q99 0 121 115z" />
    <glyph glyph-name="obreve" unicode="&#x14f;" horiz-adv-x="1265" 
d="M633 1042q113 0 203.5 -34.5t146.5 -89t93 -126t52 -140.5t15 -138q0 -71 -15 -140.5t-52 -140.5t-93 -125t-146.5 -88t-203.5 -34t-203.5 34t-146.5 88t-93 125t-52 140.5t-15 140.5q0 69 15 138t52 140.5t93 126t146.5 89t203.5 34.5zM633 195q56 0 101.5 17.5
t73.5 47.5t48 64t29.5 72t13.5 66t4 52q0 20 -2.5 43t-10 55t-19.5 61.5t-33 59.5t-48 52t-67.5 35.5t-89.5 13.5q-67 0 -119 -26t-79.5 -63t-45 -84.5t-22.5 -82t-5 -64.5t5 -64.5t22.5 -82t45 -84t79.5 -62.5t119 -26zM752 1516l180 -52q-31 -122 -112 -187t-189 -65
t-188.5 64.5t-110.5 187.5l176 49q25 -112 123 -112q99 0 121 115z" />
    <glyph glyph-name="Ohungarumlaut" unicode="&#x150;" horiz-adv-x="1665" 
d="M834 1454q113 0 210.5 -25t168.5 -68t128 -102.5t94 -125t61.5 -138.5t35 -141t10.5 -135q0 -69 -10.5 -138t-35 -142.5t-61.5 -139t-94 -124t-128 -101t-168.5 -67.5t-210.5 -25q-157 0 -283 47.5t-204 123t-130.5 175t-73 196.5t-20.5 195q0 67 10.5 135t35 141
t61.5 138.5t94.5 125t129 102.5t169 68t211.5 25zM834 209q81 0 149 22t113.5 56.5t81 82.5t55.5 95t32.5 98t16.5 87.5t4 68.5t-4 68.5t-16.5 87t-32.5 97t-55.5 94t-81 82t-113.5 56t-149 21.5q-82 0 -150.5 -21.5t-114.5 -56t-82 -82t-56 -94t-33 -97t-17 -87t-4 -68.5
t4 -68.5t17 -87.5t33 -98t56 -95t82 -82.5t114.5 -56.5t150.5 -22zM1192 1946l-133 -316h-170l100 316h203zM838 1946l-133 -316h-170l100 316h203z" />
    <glyph glyph-name="ohungarumlaut" unicode="&#x151;" horiz-adv-x="1265" 
d="M633 1042q113 0 203.5 -34.5t146.5 -89t93 -126t52 -140.5t15 -138q0 -71 -15 -140.5t-52 -140.5t-93 -125t-146.5 -88t-203.5 -34t-203.5 34t-146.5 88t-93 125t-52 140.5t-15 140.5q0 69 15 138t52 140.5t93 126t146.5 89t203.5 34.5zM633 195q56 0 101.5 17.5
t73.5 47.5t48 64t29.5 72t13.5 66t4 52q0 20 -2.5 43t-10 55t-19.5 61.5t-33 59.5t-48 52t-67.5 35.5t-89.5 13.5q-67 0 -119 -26t-79.5 -63t-45 -84.5t-22.5 -82t-5 -64.5t5 -64.5t22.5 -82t45 -84t79.5 -62.5t119 -26zM1016 1536l-133 -315h-170l100 315h203zM662 1536
l-134 -315h-170l101 315h203z" />
    <glyph glyph-name="OE" unicode="&#x152;" horiz-adv-x="2091" 
d="M1815 594h-555v-369h708v-225h-952q-82 -18 -182 -18q-157 0 -283 47.5t-204 123t-130.5 175t-73 196.5t-20.5 195q0 67 10.5 135t35 141t61.5 138.5t94.5 125t129 102.5t169 68t211.5 25q93 0 188 -20h946v-226h-708v-389h555v-225zM834 209q94 0 176 29v956
q-88 31 -176 31q-82 0 -150.5 -21.5t-114.5 -56t-82 -82t-56 -94t-33 -97t-17 -87t-4 -68.5t4 -68.5t17 -87.5t33 -98t56 -95t82 -82.5t114.5 -56.5t150.5 -22z" />
    <glyph glyph-name="oe" unicode="&#x153;" horiz-adv-x="1925" 
d="M1677 289l115 -158q-87 -73 -177 -108t-200 -35q-254 0 -391 164q-135 -166 -391 -166q-113 0 -203.5 34t-146.5 88t-93 125t-52 140.5t-15 140.5q0 69 15 138t52 140.5t93 126t146.5 89t203.5 34.5q256 0 391 -170q138 166 391 166q198 0 308 -117.5t110 -318.5
q0 -72 -14 -160h-668q7 -43 22.5 -80.5t44.5 -75.5t79.5 -60.5t117.5 -22.5q150 0 262 86zM633 195q56 0 101.5 17.5t73.5 47.5t48 64t29.5 72t13.5 66t4 52q0 20 -2.5 43t-10 55t-19.5 61.5t-33 59.5t-48 52t-67.5 35.5t-89.5 13.5q-67 0 -119 -26t-79.5 -63t-45 -84.5
t-22.5 -82t-5 -64.5t5 -64.5t22.5 -82t45 -84t79.5 -62.5t119 -26zM1413 829q-199 -2 -252 -194h441q3 75 -42.5 132.5t-146.5 61.5z" />
    <glyph glyph-name="Racute" unicode="&#x154;" horiz-adv-x="1370" 
d="M453 514v-514h-248v1434h536q112 0 201.5 -30t145 -77t93 -109t52 -121.5t14.5 -119.5q0 -150 -84.5 -263t-216.5 -165q40 -86 129.5 -274.5t128.5 -274.5h-270l-242 514h-239zM760 743q55 1 98 19t68 43.5t41.5 58.5t22 60.5t5.5 52.5q0 35 -10.5 71t-35 74.5t-75.5 63
t-122 24.5h-299v-467h307zM475 1731l303 251l115 -163l-340 -201z" />
    <glyph glyph-name="racute" unicode="&#x155;" horiz-adv-x="794" 
d="M754 1026l-39 -219q-63 14 -97 14q-74 0 -132 -29.5t-80 -80.5v-711h-242v1024h158l28 -80q125 96 283 96q42 0 121 -14zM188 1321l304 252l114 -164l-340 -201z" />
    <glyph glyph-name="Rcommaaccent" unicode="&#x156;" horiz-adv-x="1370" 
d="M453 514v-514h-248v1434h536q112 0 201.5 -30t145 -77t93 -109t52 -121.5t14.5 -119.5q0 -150 -84.5 -263t-216.5 -165q40 -86 129.5 -274.5t128.5 -274.5h-270l-242 514h-239zM760 743q55 1 98 19t68 43.5t41.5 58.5t22 60.5t5.5 52.5q0 35 -10.5 71t-35 74.5t-75.5 63
t-122 24.5h-299v-467h307zM676 -680l-107 47q64 122 80 182q-106 22 -106 138q0 55 38.5 95t94.5 40q77 0 113 -43.5t36 -106.5q0 -115 -149 -352z" />
    <glyph glyph-name="rcommaaccent" unicode="&#x157;" horiz-adv-x="794" 
d="M754 1026l-39 -219q-63 14 -97 14q-74 0 -132 -29.5t-80 -80.5v-711h-242v1024h158l28 -80q125 96 283 96q42 0 121 -14zM281 -680l-107 47q64 122 80 182q-107 23 -107 138q0 55 39 95t95 40q77 0 113 -43.5t36 -106.5q0 -115 -149 -352z" />
    <glyph glyph-name="Rcaron" unicode="&#x158;" horiz-adv-x="1370" 
d="M453 514v-514h-248v1434h536q112 0 201.5 -30t145 -77t93 -109t52 -121.5t14.5 -119.5q0 -150 -84.5 -263t-216.5 -165q40 -86 129.5 -274.5t128.5 -274.5h-270l-242 514h-239zM760 743q55 1 98 19t68 43.5t41.5 58.5t22 60.5t5.5 52.5q0 35 -10.5 71t-35 74.5t-75.5 63
t-122 24.5h-299v-467h307zM565 1614l-303 252l78 112l225 -133l226 133l77 -112z" />
    <glyph glyph-name="rcaron" unicode="&#x159;" horiz-adv-x="794" 
d="M754 1026l-39 -219q-63 14 -97 14q-74 0 -132 -29.5t-80 -80.5v-711h-242v1024h158l28 -80q125 96 283 96q42 0 121 -14zM397 1204l-303 252l78 113l225 -133l226 133l77 -113z" />
    <glyph glyph-name="Sacute" unicode="&#x15a;" horiz-adv-x="1294" 
d="M393 1063q1 -46 28 -80.5t72 -57t103.5 -41.5t123 -38.5t128.5 -42.5t122 -58.5t103 -82t71.5 -117.5t26.5 -160q0 -171 -146.5 -286t-367.5 -115q-155 0 -278 33t-256 102l96 205q239 -113 422 -113q110 0 190 48.5t80 127.5q0 54 -26.5 95t-71 67.5t-102 47
t-121.5 39.5t-128 39.5t-121.5 52t-102 72t-71 104.5t-26.5 145q0 189 127 298t330 109q89 0 223 -26.5t283 -96.5l-92 -211q-86 35 -197 66t-172 31q-55 0 -95.5 -6.5t-76 -23t-55.5 -48t-23 -78.5zM438 1731l303 251l115 -163l-340 -201z" />
    <glyph glyph-name="sacute" unicode="&#x15b;" horiz-adv-x="1026" 
d="M377 743q1 -30 30.5 -52.5t76 -38.5t102.5 -33.5t111.5 -43t101.5 -60.5t75 -93.5t29 -134.5q0 -134 -107.5 -218.5t-271.5 -84.5q-115 0 -206.5 26.5t-194.5 85.5l88 187q173 -90 301 -90q60 0 101.5 26t41.5 66q0 33 -22 58t-58 40t-81.5 31t-93.5 30t-93.5 39
t-81.5 55t-58 80.5t-22 114.5q0 143 93 225t247 82q183 0 383 -100l-88 -192q-162 75 -260 75q-138 0 -143 -80zM305 1321l303 252l115 -164l-340 -201z" />
    <glyph glyph-name="Scircumflex" unicode="&#x15c;" horiz-adv-x="1294" 
d="M393 1063q1 -46 28 -80.5t72 -57t103.5 -41.5t123 -38.5t128.5 -42.5t122 -58.5t103 -82t71.5 -117.5t26.5 -160q0 -171 -146.5 -286t-367.5 -115q-155 0 -278 33t-256 102l96 205q239 -113 422 -113q110 0 190 48.5t80 127.5q0 54 -26.5 95t-71 67.5t-102 47
t-121.5 39.5t-128 39.5t-121.5 52t-102 72t-71 104.5t-26.5 145q0 189 127 298t330 109q89 0 223 -26.5t283 -96.5l-92 -211q-86 35 -197 66t-172 31q-55 0 -95.5 -6.5t-76 -23t-55.5 -48t-23 -78.5zM311 1726l303 252l304 -252l-78 -112l-226 133l-225 -133z" />
    <glyph glyph-name="scircumflex" unicode="&#x15d;" horiz-adv-x="1026" 
d="M377 743q1 -30 30.5 -52.5t76 -38.5t102.5 -33.5t111.5 -43t101.5 -60.5t75 -93.5t29 -134.5q0 -134 -107.5 -218.5t-271.5 -84.5q-115 0 -206.5 26.5t-194.5 85.5l88 187q173 -90 301 -90q60 0 101.5 26t41.5 66q0 33 -22 58t-58 40t-81.5 31t-93.5 30t-93.5 39
t-81.5 55t-58 80.5t-22 114.5q0 143 93 225t247 82q183 0 383 -100l-88 -192q-162 75 -260 75q-138 0 -143 -80zM211 1317l303 252l303 -252l-78 -113l-225 133l-225 -133z" />
    <glyph glyph-name="Scedilla" unicode="&#x15e;" horiz-adv-x="1294" 
d="M623 -180h-31l-27 26v142q-124 9 -227.5 40.5t-214.5 90.5l96 205q239 -113 422 -113q110 0 190 48.5t80 127.5q0 54 -26.5 95t-71 67.5t-102 47t-121.5 39.5t-128 39.5t-121.5 52t-102 72t-71 104.5t-26.5 145q0 189 127 298t330 109q89 0 223 -26.5t283 -96.5l-92 -211
q-86 35 -197 66t-172 31q-55 0 -95.5 -6.5t-76 -23t-55.5 -48t-23 -78.5q1 -46 28 -80.5t72 -57t103.5 -41.5t123 -38.5t128.5 -42.5t122 -58.5t103 -82t71.5 -117.5t26.5 -160q0 -160 -129 -272t-329 -127v-41q96 0 144 -57t48 -130q0 -106 -67 -162.5t-160 -56.5
q-122 0 -213 68l72 125q71 -37 122 -37q32 0 51 19t19 44q0 62 -106 62z" />
    <glyph glyph-name="scedilla" unicode="&#x15f;" horiz-adv-x="1026" 
d="M471 -180h-31l-26 26v144q-138 19 -291 106l88 187q173 -90 301 -90q60 0 101.5 26t41.5 66q0 33 -22 58t-58 40t-81.5 31t-93.5 30t-93.5 39t-81.5 55t-58 80.5t-22 114.5q0 143 93 225t247 82q183 0 383 -100l-88 -192q-162 75 -260 75q-138 0 -143 -80
q1 -30 30.5 -52.5t76 -38.5t102.5 -33.5t111.5 -43t101.5 -60.5t75 -93.5t29 -134.5q0 -126 -95.5 -209t-246.5 -92v-41q96 0 144.5 -57t48.5 -130q0 -106 -67.5 -162.5t-160.5 -56.5q-122 0 -213 68l72 125q71 -37 123 -37q32 0 51 19t19 44q0 62 -107 62z" />
    <glyph glyph-name="Scaron" unicode="&#x160;" horiz-adv-x="1294" 
d="M393 1063q1 -46 28 -80.5t72 -57t103.5 -41.5t123 -38.5t128.5 -42.5t122 -58.5t103 -82t71.5 -117.5t26.5 -160q0 -171 -146.5 -286t-367.5 -115q-155 0 -278 33t-256 102l96 205q239 -113 422 -113q110 0 190 48.5t80 127.5q0 54 -26.5 95t-71 67.5t-102 47
t-121.5 39.5t-128 39.5t-121.5 52t-102 72t-71 104.5t-26.5 145q0 189 127 298t330 109q89 0 223 -26.5t283 -96.5l-92 -211q-86 35 -197 66t-172 31q-55 0 -95.5 -6.5t-76 -23t-55.5 -48t-23 -78.5zM647 1614l-303 252l78 112l225 -133l225 133l78 -112z" />
    <glyph glyph-name="scaron" unicode="&#x161;" horiz-adv-x="1026" 
d="M377 743q1 -30 30.5 -52.5t76 -38.5t102.5 -33.5t111.5 -43t101.5 -60.5t75 -93.5t29 -134.5q0 -134 -107.5 -218.5t-271.5 -84.5q-115 0 -206.5 26.5t-194.5 85.5l88 187q173 -90 301 -90q60 0 101.5 26t41.5 66q0 33 -22 58t-58 40t-81.5 31t-93.5 30t-93.5 39
t-81.5 55t-58 80.5t-22 114.5q0 143 93 225t247 82q183 0 383 -100l-88 -192q-162 75 -260 75q-138 0 -143 -80zM514 1204l-303 252l78 113l225 -133l225 133l78 -113z" />
    <glyph glyph-name="Tcommaaccent" unicode="&#x162;" horiz-adv-x="1243" 
d="M494 0v1208h-402v226h1059v-226h-406v-1208h-251zM612 -680l-106 47q64 122 80 182q-107 23 -107 138q0 55 38.5 95t94.5 40q77 0 113.5 -43.5t36.5 -106.5q0 -113 -150 -352z" />
    <glyph glyph-name="tcommaaccent" unicode="&#x163;" horiz-adv-x="653" 
d="M131 815h-111v209h111l21 203h223v-203h200v-209h-200v-528q0 -23 2 -37.5t9 -29.5t23 -21.5t40 -5.5q29 3 145 30l39 -190q-152 -45 -271 -45q-60 0 -105 21.5t-68 51.5t-37 70t-17.5 68t-3.5 55v561zM317 -680l-106 47q64 122 80 182q-107 23 -107 138q0 55 38.5 95
t94.5 40q77 0 113.5 -43.5t36.5 -106.5q0 -113 -150 -352z" />
    <glyph glyph-name="Tcaron" unicode="&#x164;" horiz-adv-x="1243" 
d="M494 0v1208h-402v226h1059v-226h-406v-1208h-251zM621 1614l-304 252l78 112l226 -133l225 133l78 -112z" />
    <glyph glyph-name="tcaron" unicode="&#x165;" horiz-adv-x="1081" 
d="M131 815h-111v209h111l21 203h223v-203h200v-209h-200v-528q0 -23 2 -37.5t9 -29.5t23 -21.5t40 -5.5q29 3 145 30l39 -190q-152 -45 -271 -45q-60 0 -105 21.5t-68 51.5t-37 70t-17.5 68t-3.5 55v561zM825 829l-116 62q78 135 106 242q-119 25 -119 151q0 61 43.5 106.5
t106.5 45.5q85 0 125.5 -49t40.5 -119q0 -96 -60.5 -225.5t-126.5 -213.5z" />
    <glyph glyph-name="Tbar" unicode="&#x166;" horiz-adv-x="1243" 
d="M745 786h244v-178h-244v-608h-247v608h-240v178h240v422h-406v226h1059v-226h-406v-422z" />
    <glyph glyph-name="tbar" unicode="&#x167;" horiz-adv-x="653" 
d="M14 690l117 2v123h-111v209h111l21 203h223v-203h200v-209h-200v-123h205v-219h-205v-186q0 -23 2 -37.5t9 -29.5t23 -21.5t40 -5.5q29 3 145 30l39 -190q-152 -45 -271 -45q-60 0 -105 21.5t-68 51.5t-37 70t-17.5 68t-3.5 55v219l-117 -2v219z" />
    <glyph glyph-name="Utilde" unicode="&#x168;" horiz-adv-x="1497" 
d="M748 209q71 0 128 27t90 66.5t55 88.5t30 88.5t8 71.5v883h254v-883q0 -76 -18 -151.5t-61 -151t-106 -133t-161.5 -93.5t-218.5 -36t-218.5 36t-161 93.5t-105.5 133t-61 151t-18 151.5v883h250v-883q0 -31 8 -71t31 -89t56.5 -88.5t90.5 -66.5t128 -27zM942 1894
l145 -75q-87 -195 -247 -195q-48 0 -106 39t-93 39q-52 0 -94 -88l-137 65q34 111 96.5 157t136.5 46q43 0 81 -18t67.5 -36t52.5 -18q51 0 98 84z" />
    <glyph glyph-name="utilde" unicode="&#x169;" 
d="M786 307v719h242v-1024h-158l-28 80q-125 -96 -283 -96q-80 0 -145 16t-110 43t-78 67.5t-52.5 83t-31 96.5t-15.5 101.5t-4 104.5v528h246v-528q0 -45 3.5 -81t15.5 -79t32.5 -72t58.5 -49t90 -20q71 0 129.5 32.5t87.5 77.5zM788 1485l146 -76q-87 -195 -248 -195
q-48 0 -106 39t-93 39q-52 0 -94 -88l-137 66q34 111 96.5 157t136.5 46q43 0 81 -18t67.5 -36t52.5 -18q51 0 98 84z" />
    <glyph glyph-name="Umacron" unicode="&#x16a;" horiz-adv-x="1497" 
d="M748 209q71 0 128 27t90 66.5t55 88.5t30 88.5t8 71.5v883h254v-883q0 -76 -18 -151.5t-61 -151t-106 -133t-161.5 -93.5t-218.5 -36t-218.5 36t-161 93.5t-105.5 133t-61 151t-18 151.5v883h250v-883q0 -31 8 -71t31 -89t56.5 -88.5t90.5 -66.5t128 -27zM440 1808h617
v-178h-617v178z" />
    <glyph glyph-name="umacron" unicode="&#x16b;" 
d="M786 307v719h242v-1024h-158l-28 80q-125 -96 -283 -96q-80 0 -145 16t-110 43t-78 67.5t-52.5 83t-31 96.5t-15.5 101.5t-4 104.5v528h246v-528q0 -45 3.5 -81t15.5 -79t32.5 -72t58.5 -49t90 -20q71 0 129.5 32.5t87.5 77.5zM287 1399h616v-178h-616v178z" />
    <glyph glyph-name="Ubreve" unicode="&#x16c;" horiz-adv-x="1497" 
d="M748 209q71 0 128 27t90 66.5t55 88.5t30 88.5t8 71.5v883h254v-883q0 -76 -18 -151.5t-61 -151t-106 -133t-161.5 -93.5t-218.5 -36t-218.5 36t-161 93.5t-105.5 133t-61 151t-18 151.5v883h250v-883q0 -31 8 -71t31 -89t56.5 -88.5t90.5 -66.5t128 -27zM868 1925
l181 -51q-31 -122 -112 -187t-189 -65t-188.5 64.5t-110.5 187.5l176 49q26 -113 123 -113q98 0 120 115z" />
    <glyph glyph-name="ubreve" unicode="&#x16d;" 
d="M786 307v719h242v-1024h-158l-28 80q-125 -96 -283 -96q-80 0 -145 16t-110 43t-78 67.5t-52.5 83t-31 96.5t-15.5 101.5t-4 104.5v528h246v-528q0 -45 3.5 -81t15.5 -79t32.5 -72t58.5 -49t90 -20q71 0 129.5 32.5t87.5 77.5zM715 1516l180 -52q-31 -122 -112 -187
t-189 -65t-188.5 64.5t-110.5 187.5l176 49q25 -112 123 -112q99 0 121 115z" />
    <glyph glyph-name="Uring" unicode="&#x16e;" horiz-adv-x="1497" 
d="M748 209q71 0 128 27t90 66.5t55 88.5t30 88.5t8 71.5v883h254v-883q0 -76 -18 -151.5t-61 -151t-106 -133t-161.5 -93.5t-218.5 -36t-218.5 36t-161 93.5t-105.5 133t-61 151t-18 151.5v883h250v-883q0 -31 8 -71t31 -89t56.5 -88.5t90.5 -66.5t128 -27zM541 1819
q0 86 61.5 147.5t147.5 61.5t146 -61t60 -148q0 -86 -60 -146.5t-146 -60.5t-147.5 60.5t-61.5 146.5zM682 1819q0 -26 20 -46t48 -20q26 0 45.5 20t19.5 46q0 28 -19.5 47.5t-45.5 19.5q-28 0 -48 -19.5t-20 -47.5z" />
    <glyph glyph-name="uring" unicode="&#x16f;" 
d="M786 307v719h242v-1024h-158l-28 80q-125 -96 -283 -96q-80 0 -145 16t-110 43t-78 67.5t-52.5 83t-31 96.5t-15.5 101.5t-4 104.5v528h246v-528q0 -45 3.5 -81t15.5 -79t32.5 -72t58.5 -49t90 -20q71 0 129.5 32.5t87.5 77.5zM387 1409q0 86 61.5 147.5t147.5 61.5
t146.5 -61.5t60.5 -147.5t-60.5 -146.5t-146.5 -60.5t-147.5 60.5t-61.5 146.5zM528 1409q0 -26 20 -46t48 -20q26 0 46 20t20 46q0 28 -20 48t-46 20q-28 0 -48 -20t-20 -48z" />
    <glyph glyph-name="Uhungarumlaut" unicode="&#x170;" horiz-adv-x="1497" 
d="M748 209q71 0 128 27t90 66.5t55 88.5t30 88.5t8 71.5v883h254v-883q0 -76 -18 -151.5t-61 -151t-106 -133t-161.5 -93.5t-218.5 -36t-218.5 36t-161 93.5t-105.5 133t-61 151t-18 151.5v883h250v-883q0 -31 8 -71t31 -89t56.5 -88.5t90.5 -66.5t128 -27zM1114 1946
l-133 -316h-170l100 316h203zM760 1946l-133 -316h-170l100 316h203z" />
    <glyph glyph-name="uhungarumlaut" unicode="&#x171;" 
d="M786 307v719h242v-1024h-158l-28 80q-125 -96 -283 -96q-80 0 -145 16t-110 43t-78 67.5t-52.5 83t-31 96.5t-15.5 101.5t-4 104.5v528h246v-528q0 -45 3.5 -81t15.5 -79t32.5 -72t58.5 -49t90 -20q71 0 129.5 32.5t87.5 77.5zM924 1536l-133 -315h-170l100 315h203z
M569 1536l-133 -315h-170l101 315h202z" />
    <glyph glyph-name="Uogonek" unicode="&#x172;" horiz-adv-x="1497" 
d="M748 209q71 0 128 27t90 66.5t55 88.5t30 88.5t8 71.5v883h254v-883q0 -68 -16 -137t-48 -137.5t-88 -128.5t-129 -99v-55q0 -21 -35.5 -90.5t-35.5 -112.5q0 -94 108 -94q63 0 152 33v-150q-86 -37 -193 -37q-102 0 -169.5 55t-67.5 162q0 47 22.5 96.5t45.5 86.5t24 55
q-61 -12 -135 -12q-120 0 -218.5 36t-161 93.5t-105.5 133t-61 151t-18 151.5v883h250v-883q0 -31 8 -71t31 -89t56.5 -88.5t90.5 -66.5t128 -27z" />
    <glyph glyph-name="uogonek" unicode="&#x173;" 
d="M786 307v719h242v-1032q0 -21 -36 -90.5t-36 -112.5q0 -94 109 -94q63 0 152 33v-150q-86 -37 -193 -37q-102 0 -170 55t-68 162q0 47 22.5 97t44.5 87.5t21 55.5l-32 82q-125 -96 -283 -96q-80 0 -145 16t-110 43t-78 67.5t-52.5 83t-31 96.5t-15.5 101.5t-4 104.5v528
h246v-528q0 -45 3.5 -81t15.5 -79t32.5 -72t58.5 -49t90 -20q71 0 129.5 32.5t87.5 77.5z" />
    <glyph glyph-name="Wcircumflex" unicode="&#x174;" horiz-adv-x="2263" 
d="M1524 -18l-394 897l-391 -897h-26l-652 1452h279l387 -912l393 938h21l395 -938l387 912h279l-652 -1452h-26zM827 1726l303 252l304 -252l-78 -112l-226 133l-225 -133z" />
    <glyph glyph-name="wcircumflex" unicode="&#x175;" horiz-adv-x="1638" 
d="M510 1317l303 252l303 -252l-78 -113l-225 133l-225 -133zM1309 1024h268l-485 -1032h-21l-256 528l-256 -528h-20l-478 1032h267l225 -535l250 553h20l262 -553z" />
    <glyph glyph-name="Ycircumflex" unicode="&#x176;" horiz-adv-x="1357" 
d="M805 645v-645h-250v641l-494 793h289l330 -562l330 562h286zM375 1726l303 252l303 -252l-78 -112l-225 133l-225 -133z" />
    <glyph glyph-name="ycircumflex" unicode="&#x177;" horiz-adv-x="1185" 
d="M324 1024l270 -680l268 680h262v-14l-596 -1418h-256v11l193 460l-404 947v14h263zM289 1317l303 252l303 -252l-78 -113l-225 133l-225 -133z" />
    <glyph glyph-name="Ydieresis" unicode="&#x178;" horiz-adv-x="1357" 
d="M805 645v-645h-250v641l-494 793h289l330 -562l330 562h286zM299 1757q0 59 39.5 99t99.5 40q59 0 99.5 -40.5t40.5 -98.5q0 -61 -40.5 -100t-99.5 -39q-60 0 -99.5 39t-39.5 100zM778 1757q0 59 40 99t100 40q58 0 98.5 -40t40.5 -99q0 -61 -40 -100t-99 -39
q-60 0 -100 39t-40 100z" />
    <glyph glyph-name="Zacute" unicode="&#x179;" horiz-adv-x="1343" 
d="M518 225h690v-225h-1079l-6 14l702 1196h-639v224h1031l4 -17zM463 1731l303 251l115 -163l-340 -201z" />
    <glyph glyph-name="zacute" unicode="&#x17a;" horiz-adv-x="1032" 
d="M150 797v227h786l4 -14l-448 -783h426v-227h-822l-4 16l447 781h-389zM307 1321l303 252l115 -164l-340 -201z" />
    <glyph glyph-name="Zdotaccent" unicode="&#x17b;" horiz-adv-x="1343" 
d="M518 225h690v-225h-1079l-6 14l702 1196h-639v224h1031l4 -17zM530 1761q0 59 40 99.5t100 40.5q59 0 100 -41t41 -99q0 -61 -41 -100t-100 -39q-60 0 -100 39t-40 100z" />
    <glyph glyph-name="zdotaccent" unicode="&#x17c;" horiz-adv-x="1032" 
d="M150 797v227h786l4 -14l-448 -783h426v-227h-822l-4 16l447 781h-389zM377 1352q0 59 39.5 99t99.5 40q59 0 100 -40.5t41 -98.5q0 -61 -41 -100.5t-100 -39.5q-60 0 -99.5 39.5t-39.5 100.5z" />
    <glyph glyph-name="Zcaron" unicode="&#x17d;" horiz-adv-x="1343" 
d="M518 225h690v-225h-1079l-6 14l702 1196h-639v224h1031l4 -17zM672 1614l-303 252l77 112l226 -133l225 133l78 -112z" />
    <glyph glyph-name="zcaron" unicode="&#x17e;" horiz-adv-x="1032" 
d="M150 797v227h786l4 -14l-448 -783h426v-227h-822l-4 16l447 781h-389zM516 1204l-303 252l78 113l225 -133l225 133l78 -113z" />
    <glyph glyph-name="longs" unicode="&#x17f;" horiz-adv-x="751" 
d="M772 1389l-70 -187q-109 41 -192 41q-58 0 -96.5 -33.5t-38.5 -105.5v-1104h-244v817h-111v207h111v88q0 167 102.5 254.5t260.5 87.5q142 0 278 -65z" />
    <glyph glyph-name="florin" unicode="&#x192;" horiz-adv-x="786" 
d="M-188 -381l69 186q109 -41 193 -41q57 0 96 34t39 106v913h-111v207h111v88q0 167 102 254.5t260 87.5q143 0 279 -65l-70 -187q-109 41 -192 41q-58 0 -96.5 -33.5t-38.5 -105.5v-80h198v-207h-198v-921q0 -167 -102.5 -254.5t-260.5 -87.5q-142 0 -278 65z" />
    <glyph glyph-name="Scommaaccent" unicode="&#x218;" horiz-adv-x="1294" 
d="M659 -680l-106 47q64 122 80 182q-107 23 -107 138q0 55 38.5 95t94.5 40q77 0 113.5 -43.5t36.5 -106.5q0 -113 -150 -352zM393 1063q1 -46 28 -80.5t72 -57t103.5 -41.5t123 -38.5t128.5 -42.5t122 -58.5t103 -82t71.5 -117.5t26.5 -160q0 -171 -146.5 -286
t-367.5 -115q-155 0 -278 33t-256 102l96 205q239 -113 422 -113q110 0 190 48.5t80 127.5q0 54 -26.5 95t-71 67.5t-102 47t-121.5 39.5t-128 39.5t-121.5 52t-102 72t-71 104.5t-26.5 145q0 189 127 298t330 109q89 0 223 -26.5t283 -96.5l-92 -211q-86 35 -197 66
t-172 31q-55 0 -95.5 -6.5t-76 -23t-55.5 -48t-23 -78.5z" />
    <glyph glyph-name="scommaaccent" unicode="&#x219;" horiz-adv-x="1026" 
d="M377 743q1 -30 30.5 -52.5t76 -38.5t102.5 -33.5t111.5 -43t101.5 -60.5t75 -93.5t29 -134.5q0 -134 -107.5 -218.5t-271.5 -84.5q-115 0 -206.5 26.5t-194.5 85.5l88 187q173 -90 301 -90q60 0 101.5 26t41.5 66q0 33 -22 58t-58 40t-81.5 31t-93.5 30t-93.5 39
t-81.5 55t-58 80.5t-22 114.5q0 143 93 225t247 82q183 0 383 -100l-88 -192q-162 75 -260 75q-138 0 -143 -80zM512 -680l-106 47q62 118 79 182q-106 22 -106 138q0 55 38.5 95t94.5 40q77 0 113.5 -43.5t36.5 -106.5q0 -113 -150 -352z" />
    <glyph glyph-name="circumflex" unicode="&#x2c6;" horiz-adv-x="1060" 
d="M236 1317l303 252l303 -252l-78 -113l-225 133l-226 -133z" />
    <glyph glyph-name="caron" unicode="&#x2c7;" horiz-adv-x="1024" 
d="M539 1204l-303 252l77 113l226 -133l225 133l78 -113z" />
    <glyph glyph-name="breve" unicode="&#x2d8;" horiz-adv-x="1056" 
d="M678 1516l180 -52q-31 -122 -112 -187t-189 -65t-188.5 64.5t-110.5 187.5l176 49q25 -112 123 -112q99 0 121 115z" />
    <glyph glyph-name="dotaccent" unicode="&#x2d9;" horiz-adv-x="1185" 
d="M442 1352q0 59 40 99t100 40q59 0 100 -40.5t41 -98.5q0 -61 -41 -100.5t-100 -39.5q-60 0 -100 39.5t-40 100.5z" />
    <glyph glyph-name="ring" unicode="&#x2da;" horiz-adv-x="1071" 
d="M328 1409q0 86 61.5 147.5t147.5 61.5t146 -61t60 -148q0 -86 -60 -146.5t-146 -60.5t-147.5 60.5t-61.5 146.5zM469 1409q0 -26 20 -46t48 -20q26 0 45.5 20t19.5 46q0 28 -19.5 48t-45.5 20q-28 0 -48 -20t-20 -48z" />
    <glyph glyph-name="ogonek" unicode="&#x2db;" horiz-adv-x="1251" 
d="M555 53h150v-59q0 -21 -36 -90.5t-36 -112.5q0 -94 108 -94q63 0 152 33v-150q-86 -37 -193 -37q-102 0 -169.5 55t-67.5 162q0 47 23 97t46 87.5t23 55.5v53z" />
    <glyph glyph-name="tilde" unicode="&#x2dc;" horiz-adv-x="1056" 
d="M713 1485l145 -76q-88 -195 -248 -195q-48 0 -105.5 39t-92.5 39q-53 0 -95 -88l-137 66q34 111 97 157t137 46q43 0 81 -18t67 -36t52 -18q52 0 99 84z" />
    <glyph glyph-name="hungarumlaut" unicode="&#x2dd;" horiz-adv-x="1085" 
d="M924 1536l-133 -315h-170l100 315h203zM569 1536l-133 -315h-170l101 315h202z" />
    <glyph glyph-name="Delta" unicode="&#x394;" horiz-adv-x="1540" 
d="M758 1448h14l649 -1448h-1302zM764 895l-283 -670h572z" />
    <glyph glyph-name="Delta" unicode="&#x2206;" horiz-adv-x="1540" 
d="M758 1448h14l649 -1448h-1302zM764 895l-283 -670h572z" />
    <glyph glyph-name="Omega" unicode="&#x3a9;" horiz-adv-x="1736" 
d="M1409 225h205v-225h-567v211q68 34 120.5 89.5t81 111.5t46 118.5t23 105.5t5.5 79q0 32 -4 68.5t-17 87.5t-33 97.5t-55.5 94t-81.5 82t-114 56.5t-150 22q-81 0 -149 -22t-113.5 -56.5t-81 -82t-55.5 -94t-32.5 -97.5t-16.5 -87.5t-4 -68.5q0 -36 5 -78.5t23 -105
t46.5 -118.5t80 -111.5t119.5 -90.5v-211h-567v225h205q-81 87 -124.5 224t-43.5 266q0 67 10 135t34.5 141.5t61.5 138.5t94 124.5t128 102.5t168.5 68t211.5 25t211.5 -25t168.5 -68t128.5 -102.5t94 -124.5t61 -138.5t35 -141.5t10.5 -135q0 -127 -41 -255t-127 -235z
" />
    <glyph glyph-name="Omega" unicode="&#x2126;" horiz-adv-x="1736" 
d="M1409 225h205v-225h-567v211q68 34 120.5 89.5t81 111.5t46 118.5t23 105.5t5.5 79q0 32 -4 68.5t-17 87.5t-33 97.5t-55.5 94t-81.5 82t-114 56.5t-150 22q-81 0 -149 -22t-113.5 -56.5t-81 -82t-55.5 -94t-32.5 -97.5t-16.5 -87.5t-4 -68.5q0 -36 5 -78.5t23 -105
t46.5 -118.5t80 -111.5t119.5 -90.5v-211h-567v225h205q-81 87 -124.5 224t-43.5 266q0 67 10 135t34.5 141.5t61.5 138.5t94 124.5t128 102.5t168.5 68t211.5 25t211.5 -25t168.5 -68t128.5 -102.5t94 -124.5t61 -138.5t35 -141.5t10.5 -135q0 -127 -41 -255t-127 -235z
" />
    <glyph glyph-name="pi" unicode="&#x3c0;" horiz-adv-x="1298" 
d="M924 -8q-60 0 -105 21.5t-68.5 51.5t-37.5 70t-17.5 68t-3.5 55v539h-203v-797h-241v797h-146v227h1057v-227h-223v-506q0 -47 14.5 -72t59.5 -22q27 2 147 30l39 -190q-152 -45 -272 -45z" />
    <glyph glyph-name="endash" unicode="&#x2013;" horiz-adv-x="1126" 
d="M965 553h-801v195h801v-195z" />
    <glyph glyph-name="emdash" unicode="&#x2014;" horiz-adv-x="1376" 
d="M1212 553h-1048v195h1048v-195z" />
    <glyph glyph-name="quoteleft" unicode="&#x2018;" horiz-adv-x="561" 
d="M309 1460l117 -61q-80 -138 -107 -242q119 -25 119 -151q0 -61 -43 -106.5t-106 -45.5q-85 0 -125.5 49t-40.5 119q0 96 60.5 225t125.5 213z" />
    <glyph glyph-name="quoteright" unicode="&#x2019;" horiz-adv-x="561" 
d="M252 854l-117 61q80 138 107 242q-119 25 -119 152q0 61 43 106t106 45q85 0 125.5 -49t40.5 -119q0 -96 -60.5 -225t-125.5 -213z" />
    <glyph glyph-name="quotesinglbase" unicode="&#x201a;" horiz-adv-x="643" 
d="M293 -348l-117 61q80 138 107 242q-119 25 -119 151q0 61 43 106.5t106 45.5q85 0 125.5 -49t40.5 -119q0 -96 -60.5 -225t-125.5 -213z" />
    <glyph glyph-name="quotedblleft" unicode="&#x201c;" horiz-adv-x="999" 
d="M309 1460l117 -61q-80 -138 -107 -242q119 -25 119 -151q0 -61 -43 -106.5t-106 -45.5q-85 0 -125.5 49t-40.5 119q0 96 60.5 225t125.5 213zM748 1460l116 -61q-78 -135 -106 -242q119 -25 119 -151q0 -61 -43.5 -106.5t-106.5 -45.5q-85 0 -125.5 49t-40.5 119
q0 96 60.5 225t126.5 213z" />
    <glyph glyph-name="quotedblright" unicode="&#x201d;" horiz-adv-x="999" 
d="M690 854l-117 61q80 138 107 242q-119 25 -119 152q0 61 43.5 106t106.5 45q85 0 125.5 -49t40.5 -119q0 -96 -60.5 -225t-126.5 -213zM252 854l-117 61q80 138 107 242q-119 25 -119 152q0 61 43 106t106 45q85 0 125.5 -49t40.5 -119q0 -96 -60.5 -225t-125.5 -213z
" />
    <glyph glyph-name="quotedblbase" unicode="&#x201e;" horiz-adv-x="1034" 
d="M293 -348l-117 61q80 138 107 242q-119 25 -119 151q0 61 43 106.5t106 45.5q85 0 125.5 -49t40.5 -119q0 -96 -60.5 -225t-125.5 -213zM766 -348l-117 61q80 138 107 242q-119 25 -119 151q0 61 43 106.5t106 45.5q85 0 125.5 -49t40.5 -119q0 -96 -60.5 -225
t-125.5 -213z" />
    <glyph glyph-name="dagger" unicode="&#x2020;" horiz-adv-x="1118" 
d="M958 803h-286v-1129h-234v1129h-284v221h284v410h234v-410h286v-221z" />
    <glyph glyph-name="daggerdbl" unicode="&#x2021;" horiz-adv-x="1118" 
d="M672 84v-412h-234v412h-284v221h284v498h-284v221h284v410h234v-410h286v-221h-286v-498h286v-221h-286z" />
    <glyph glyph-name="bullet" unicode="&#x2022;" horiz-adv-x="839" 
d="M416 336q-100 0 -176 75.5t-76 176.5q0 104 76 182t176 78q107 0 183.5 -77.5t76.5 -182.5q0 -102 -76.5 -177t-183.5 -75z" />
    <glyph glyph-name="ellipsis" unicode="&#x2026;" horiz-adv-x="1583" 
d="M164 141q0 64 46 110t109 46t108.5 -46t45.5 -110t-45.5 -108.5t-108.5 -44.5q-64 0 -109.5 44.5t-45.5 108.5zM676 141q0 64 46 110t109 46t108.5 -46t45.5 -110t-45.5 -108.5t-108.5 -44.5q-64 0 -109.5 44.5t-45.5 108.5zM1192 141q0 64 46.5 110t109.5 46t108 -46
t45 -110t-45 -108.5t-108 -44.5q-64 0 -110 44.5t-46 108.5z" />
    <glyph glyph-name="perthousand" unicode="&#x2030;" horiz-adv-x="2455" 
d="M377 1446q86 0 150 -32t98 -83t49.5 -104.5t15.5 -108.5q0 -43 -9 -85.5t-32 -87t-57 -77.5t-89.5 -54t-125.5 -21t-126 21t-91 54t-58 77.5t-32 87t-9 85.5q0 55 16 108.5t50 104.5t98.5 83t151.5 32zM377 975q29 0 51.5 11.5t34.5 27.5t20 37t10.5 37t2.5 30
q0 19 -4.5 40t-16 46t-37 41.5t-61.5 16.5q-37 0 -63 -16.5t-37.5 -42t-16 -46t-4.5 -39.5t4.5 -39.5t16 -46t37.5 -41.5t63 -16zM1176 1434l-469 -1434h-207l471 1434h205zM1298 643q70 0 125.5 -21.5t90 -55.5t57.5 -78.5t32 -87t9 -85.5t-9 -85.5t-32 -87t-57.5 -77.5
t-90 -54t-125.5 -21t-126 21t-90.5 54t-57.5 77.5t-32 87t-9 85.5t9 85.5t32 87t57.5 78.5t90.5 55.5t126 21.5zM1298 172q29 0 51.5 11.5t34.5 27.5t20 37t10.5 37t2.5 30q0 19 -4.5 40t-16 46t-37 41.5t-61.5 16.5q-37 0 -63 -16.5t-37 -42t-15.5 -46t-4.5 -39.5
t4.5 -39.5t15.5 -46t37 -41.5t63 -16zM2081 643q86 0 150 -32t98 -83t49.5 -104.5t15.5 -108.5q0 -43 -9 -85.5t-32 -87t-57 -77.5t-89.5 -54t-125.5 -21t-126 21t-91 54t-58 77.5t-32 87t-9 85.5q0 55 16 108.5t50 104.5t98.5 83t151.5 32zM2081 172q29 0 51.5 11.5
t34.5 27.5t20 37t10.5 37t2.5 30q0 19 -4.5 40t-16 46t-37 41.5t-61.5 16.5q-37 0 -63 -16.5t-37.5 -42t-16 -46t-4.5 -39.5t4.5 -39.5t16 -46t37.5 -41.5t63 -16z" />
    <glyph glyph-name="guilsinglleft" unicode="&#x2039;" horiz-adv-x="604" 
d="M301 514l242 -301l-121 -107l-361 381v54l361 381l121 -107z" />
    <glyph glyph-name="guilsinglright" unicode="&#x203a;" horiz-adv-x="604" 
d="M61 213l242 301l-242 301l121 107l361 -381v-54l-361 -381z" />
    <glyph glyph-name="fraction" unicode="&#x2044;" horiz-adv-x="137" 
d="M516 1434l-715 -1434h-180l717 1434h178z" />
    <glyph glyph-name="zerosuperior" unicode="&#x2070;" horiz-adv-x="659" 
d="M330 1647q59 0 107 -23t77 -58.5t49 -82.5t27.5 -92.5t7.5 -90.5q0 -58 -13.5 -114t-42.5 -108.5t-83.5 -84.5t-128.5 -32q-60 0 -107.5 22t-77 56t-49 80t-27.5 90.5t-8 90.5q0 45 8 90.5t27.5 92.5t49 82.5t77.5 58.5t107 23zM330 1102q33 0 56.5 23t34 58.5t15 64
t4.5 52.5t-4.5 53.5t-15 65.5t-34 60t-56.5 24t-56.5 -24t-34.5 -60t-15.5 -65.5t-4.5 -53.5t4.5 -52.5t15.5 -64t34.5 -58.5t56.5 -23z" />
    <glyph glyph-name="foursuperior" unicode="&#x2074;" horiz-adv-x="606" 
d="M469 1075v-106h-152v106h-276v123l303 442h125v-413h96v-152h-96zM317 1374l-98 -147h98v147z" />
    <glyph glyph-name="fivesuperior" unicode="&#x2075;" horiz-adv-x="600" 
d="M61 1077l99 94q50 -67 135 -67q41 0 63.5 23.5t22.5 58.5q0 36 -23 62t-65 26h-172v364h373v-145h-213v-76h12q60 0 105.5 -15t71.5 -38t42.5 -55t21.5 -60.5t5 -60.5q0 -33 -12 -69t-37.5 -74t-76.5 -62.5t-120 -24.5q-141 0 -232 119z" />
    <glyph glyph-name="sixsuperior" unicode="&#x2076;" horiz-adv-x="610" 
d="M354 1659l84 -109q-116 -74 -159 -135q59 9 106.5 -2t77 -35.5t49.5 -58t28 -65.5t7 -62q-1 -25 -6.5 -51.5t-22.5 -60t-42.5 -59t-70.5 -43t-102 -17.5q-69 0 -119.5 25t-75 63.5t-35 74t-10.5 68.5q-5 294 291 467zM303 1108q41 0 64.5 27t23.5 63q0 35 -23 60.5
t-65 25.5q-35 0 -58.5 -25t-25.5 -61q0 -36 22.5 -63t61.5 -27z" />
    <glyph glyph-name="sevensuperior" unicode="&#x2077;" horiz-adv-x="518" 
d="M41 1493v145h430l6 -12l-254 -659h-166l205 524z" />
    <glyph glyph-name="eightsuperior" unicode="&#x2078;" horiz-adv-x="575" 
d="M514 1446q0 -33 -18.5 -74t-55.5 -63q39 -21 56.5 -63.5t17.5 -82.5q0 -25 -5.5 -50.5t-21.5 -53.5t-40 -49t-65 -35t-93 -14q-65 0 -112.5 20t-71 53t-34 65t-10.5 64q0 46 20 85t54 61q-74 52 -74 137q0 32 10.5 64.5t34 65t71 53t112.5 20.5q64 0 111 -20.5
t70.5 -53.5t33.5 -65t10 -64zM289 1098q29 0 50 17.5t21 47.5q0 31 -21 49.5t-50 18.5q-30 0 -52 -18.5t-22 -49.5q0 -29 22 -47t52 -18zM289 1380q29 0 50 17.5t21 48.5t-20.5 48t-50.5 17t-52 -17.5t-22 -47.5q0 -31 22 -48.5t52 -17.5z" />
    <glyph glyph-name="ninesuperior" unicode="&#x2079;" horiz-adv-x="610" 
d="M256 954l-84 109q118 75 160 135q-72 -12 -128 7.5t-85 58t-43 79t-13 78.5q1 25 6.5 51.5t22.5 60t42.5 59.5t70.5 43.5t102 17.5q69 0 119.5 -25t75 -64t35 -74.5t10.5 -68.5q1 -70 -16 -134t-45 -112t-67.5 -91.5t-78.5 -73.5t-84 -56zM307 1505q-41 0 -64.5 -27
t-23.5 -63q0 -35 23 -60.5t65 -25.5q35 0 58.5 25t25.5 61q0 36 -22.5 63t-61.5 27z" />
    <glyph glyph-name="zeroinferior" unicode="&#x2080;" horiz-adv-x="659" 
d="M330 346q59 0 107 -22.5t77 -58.5t49 -83t27.5 -92t7.5 -90q0 -58 -13.5 -114t-42.5 -109t-83.5 -85t-128.5 -32q-60 0 -107.5 22t-77 56.5t-49 80.5t-27.5 90.5t-8 90.5q0 45 8 90.5t27.5 92t49 82.5t77.5 58.5t107 22.5zM330 -199q33 0 56.5 23.5t34 58.5t15 64t4.5 53
t-4.5 53.5t-15 65.5t-34 60t-56.5 24t-56.5 -24t-34.5 -60t-15.5 -65.5t-4.5 -53.5t4.5 -53t15.5 -64t34.5 -58.5t56.5 -23.5z" />
    <glyph glyph-name="oneinferior" unicode="&#x2081;" horiz-adv-x="446" 
d="M354 338v-670h-159v443l-93 -43l-61 100l238 170h75z" />
    <glyph glyph-name="twoinferior" unicode="&#x2082;" horiz-adv-x="606" 
d="M156 127l-97 92q104 131 248 131q99 0 157 -59.5t58 -145.5q0 -43 -19.5 -86t-60.5 -104l-104 -148h170v-139h-436l-6 17l256 366q43 62 43 101q0 22 -16 38.5t-42 16.5q-64 0 -151 -80z" />
    <glyph glyph-name="threeinferior" unicode="&#x2083;" horiz-adv-x="561" 
d="M500 141q0 -36 -20.5 -78t-53.5 -61q37 -24 55.5 -62.5t18.5 -74.5q0 -31 -11 -63.5t-35 -67t-73 -56.5t-115 -22q-120 0 -225 96l86 92q53 -53 139 -53q35 0 61.5 20.5t26.5 53.5q0 37 -26 58.5t-62 21.5h-104v116h104q36 0 62 21.5t26 58.5q0 35 -26 54.5t-62 19.5
q-30 0 -69.5 -17t-65.5 -42l-84 96q94 98 219 98q66 0 115 -21.5t73 -55.5t35 -67t11 -65z" />
    <glyph glyph-name="fourinferior" unicode="&#x2084;" horiz-adv-x="606" 
d="M469 -225v-107h-152v107h-276v123l303 442h125v-414h96v-151h-96zM317 74l-98 -148h98v148z" />
    <glyph glyph-name="fiveinferior" unicode="&#x2085;" horiz-adv-x="600" 
d="M61 -223l99 94q27 -37 65 -52.5t70 -15.5q41 0 63.5 23.5t22.5 58.5q0 36 -23 62t-65 26h-172v365h373v-145h-213v-76h12q60 0 105.5 -15t71.5 -38.5t42.5 -55.5t21.5 -60.5t5 -60.5q0 -25 -6.5 -53t-24 -60t-44 -57.5t-71 -42t-100.5 -16.5q-141 0 -232 119z" />
    <glyph glyph-name="sixinferior" unicode="&#x2086;" horiz-adv-x="610" 
d="M354 358l84 -108q-116 -74 -159 -135q72 12 127.5 -7.5t84.5 -58t43 -79.5t13 -79q-1 -25 -6.5 -51.5t-22.5 -60t-42.5 -59t-70.5 -43t-102 -17.5q-69 0 -119.5 25t-75 63.5t-35 74t-10.5 68.5q-5 294 291 467zM303 -193q41 0 64.5 27.5t23.5 63.5q0 35 -23 60.5
t-65 25.5q-35 0 -58.5 -25t-25.5 -61q0 -36 22.5 -63.5t61.5 -27.5z" />
    <glyph glyph-name="seveninferior" unicode="&#x2087;" horiz-adv-x="518" 
d="M41 193v145h430l6 -16l-254 -656h-166l207 527h-223z" />
    <glyph glyph-name="eightinferior" unicode="&#x2088;" horiz-adv-x="575" 
d="M514 145q0 -33 -18.5 -74t-55.5 -63q39 -21 56.5 -63t17.5 -82q0 -32 -10 -64t-33.5 -65t-70.5 -53.5t-111 -20.5q-65 0 -112.5 20.5t-71 53t-34 65t-10.5 64.5q0 45 20 84t54 61q-74 52 -74 137q0 32 10.5 64.5t34 65t71 53t112.5 20.5q64 0 111 -20.5t70.5 -53.5
t33.5 -65t10 -64zM289 -203q29 0 50 18t21 48q0 31 -21 49t-50 18q-30 0 -52 -18t-22 -49q0 -29 22.5 -47.5t51.5 -18.5zM289 80q30 0 50.5 17t20.5 48t-21 48.5t-50 17.5q-30 0 -52 -17.5t-22 -48.5t22 -48t52 -17z" />
    <glyph glyph-name="nineinferior" unicode="&#x2089;" horiz-adv-x="610" 
d="M256 -346l-84 108q54 34 98 72t62 64q-72 -12 -128 7.5t-85 58t-43 79t-13 78.5q1 25 6.5 51.5t22.5 60t42.5 59t70.5 43t102 17.5q69 0 119.5 -25t75 -63.5t35 -74t10.5 -68.5q1 -70 -16 -134t-45 -112t-67.5 -91.5t-78.5 -73.5t-84 -56zM307 205q-41 0 -64.5 -27
t-23.5 -63q0 -35 23 -60.5t65 -25.5q35 0 58.5 25t25.5 61q0 36 -22.5 63t-61.5 27z" />
    <glyph glyph-name="Euro" unicode="&#x20ac;" horiz-adv-x="1148" 
d="M686 1233q-204 0 -274 -266h452l-55 -181h-422v-45q0 -48 2 -77h363l-52 -181h-280q16 -58 38 -106t54 -89t76.5 -64t97.5 -23q57 0 120 29t114 83l147 -141q-84 -94 -175 -140t-206 -46q-208 0 -333.5 134t-172.5 363h-160l58 181h78q-4 50 -4 73v49h-132l58 181h96
q17 78 43.5 146t69.5 131t98.5 107.5t132.5 71.5t168 27q114 0 205 -45.5t174 -140.5l-152 -142q-105 111 -227 111z" />
    <glyph glyph-name="afii61289" unicode="&#x2113;" horiz-adv-x="913" 
d="M41 582v211h113v290q0 86 23.5 152.5t58.5 105t81.5 63t87 32.5t80.5 8q91 0 163 -32t115.5 -86.5t66 -122t22.5 -142.5q0 -198 -131.5 -333t-323.5 -144v-195q0 -35 4 -63.5t15.5 -61t38.5 -50.5t67 -17q72 4 180 75l109 -170q-24 -20 -39 -31t-53 -34t-85.5 -37
t-101.5 -18q-73 -5 -132 8.5t-97.5 37.5t-67.5 61t-44 72t-24 77.5t-11 71t-2 59.5v213h-113zM397 1098v-305q98 9 164 89.5t60 198.5q-4 72 -42.5 112.5t-91.5 35.5q-90 -8 -90 -131z" />
    <glyph glyph-name="trademark" unicode="&#x2122;" horiz-adv-x="1292" 
d="M229 1026v408h-137v114h397v-114h-137v-408h-123zM854 1020h-14l-133 250l-78 -244h-131l186 530h18l148 -290l141 290h19l190 -530h-129l-82 248z" />
    <glyph glyph-name="estimated" unicode="&#x212e;" horiz-adv-x="1679" 
d="M1284 330l113 -92q-110 -137 -240 -203t-317 -66q-115 0 -213.5 25.5t-170.5 68.5t-130 102.5t-95 126t-62 141t-35.5 144t-10.5 138.5q0 67 10.5 136t35.5 142.5t62 139.5t95 126t130 103t170.5 68.5t213.5 25.5q114 0 212.5 -25.5t170.5 -68.5t130 -103t95 -126
t62 -139.5t35.5 -142.5t10.5 -136v-43h-1126v-379q147 -187 410 -187q140 0 245 57.5t199 166.5zM840 1321q-264 0 -410 -186v-326h813q0 57 1 168t1 166q-146 178 -405 178z" />
    <glyph glyph-name="onethird" unicode="&#x2153;" horiz-adv-x="1290" 
d="M1038 1434l-714 -1434h-181l717 1434h178zM365 1440v-670h-160v442l-92 -43l-62 101l238 170h76zM1214 479q0 -36 -20 -78t-53 -61q37 -24 55 -62.5t18 -74.5q0 -31 -10.5 -63.5t-34.5 -67t-73 -56.5t-115 -22q-120 0 -225 96l86 92q53 -53 139 -53q35 0 61.5 20.5
t26.5 53.5q0 37 -26 58.5t-62 21.5h-104v116h104q36 0 62 21.5t26 58.5q0 35 -26 54.5t-62 19.5q-30 0 -69.5 -17t-65.5 -42l-84 96q94 98 219 98q66 0 115 -21.5t73 -55.5t34.5 -67t10.5 -65z" />
    <glyph glyph-name="twothirds" unicode="&#x2154;" horiz-adv-x="1413" 
d="M1157 1436l-715 -1434h-180l717 1434h178zM1333 481q0 -36 -20 -78t-53 -61q37 -24 55 -62.5t18 -74.5q0 -31 -10.5 -63.5t-34.5 -67t-73 -56.5t-115 -22q-121 0 -226 96l87 92q53 -53 139 -53q35 0 61.5 20.5t26.5 53.5q0 37 -26 58.5t-62 21.5h-105v116h105
q36 0 62 21.5t26 58.5q0 35 -26 54.5t-62 19.5q-30 0 -69.5 -17t-65.5 -42l-84 96q94 98 219 98q66 0 115 -21.5t73 -55.5t34.5 -67t10.5 -65zM158 1231l-97 92q104 131 248 131q99 0 157 -59.5t58 -145.5q0 -43 -19.5 -86t-60.5 -104l-104 -148h170v-139h-436l-6 16
l256 367q43 62 43 100q0 22 -16 39t-42 17q-64 0 -151 -80z" />
    <glyph glyph-name="oneeighth" unicode="&#x215b;" horiz-adv-x="1286" 
d="M1038 1434l-714 -1434h-181l717 1434h178zM365 1436v-670h-160v442l-92 -43l-62 101l238 170h76zM1198 477q0 -33 -18.5 -74t-55.5 -63q39 -21 56.5 -63t17.5 -82q0 -32 -10 -64t-33.5 -65t-70.5 -53.5t-111 -20.5q-65 0 -112.5 20.5t-71 53t-34 65t-10.5 64.5
q0 45 20 84t54 61q-74 52 -74 137q0 32 10.5 64.5t34 65t71 53t112.5 20.5q64 0 111 -20.5t70.5 -53.5t33.5 -65t10 -64zM973 129q29 0 50 18t21 48q0 31 -21 49t-50 18q-30 0 -52 -18t-22 -49q0 -29 22.5 -47.5t51.5 -18.5zM973 412q30 0 50.5 17t20.5 48t-21 48.5
t-50 17.5q-30 0 -52 -17.5t-22 -48.5t22 -48t52 -17z" />
    <glyph glyph-name="threeeighths" unicode="&#x215c;" horiz-adv-x="1347" 
d="M1118 1434l-715 -1434h-180l717 1434h178zM1278 477q0 -33 -18.5 -74t-55.5 -63q39 -21 56.5 -63t17.5 -82q0 -32 -10 -64t-33.5 -65t-70.5 -53.5t-111 -20.5q-65 0 -112.5 20.5t-71 53t-34 65t-10.5 64.5q0 45 20 84t54 61q-74 52 -74 137q0 32 10.5 64.5t34 65t71 53
t112.5 20.5q64 0 111 -20.5t70.5 -53.5t33.5 -65t10 -64zM1053 129q29 0 50 18t21 48q0 31 -21 49t-50 18q-30 0 -52 -18t-22 -49q0 -29 22.5 -47.5t51.5 -18.5zM1053 412q30 0 50.5 17t20.5 48t-21 48.5t-50 17.5q-30 0 -52 -17.5t-22 -48.5t22 -48t52 -17zM518 1237
q0 -36 -20.5 -78t-53.5 -61q37 -24 55.5 -62.5t18.5 -74.5q0 -31 -10.5 -63.5t-34.5 -67t-73 -56.5t-115 -22q-121 0 -226 96l86 92q53 -53 140 -53q35 0 61.5 20.5t26.5 53.5q0 36 -26 57.5t-62 21.5h-105v117h105q36 0 62 21.5t26 58.5q0 35 -26 54.5t-62 19.5
q-29 0 -69 -17.5t-66 -42.5l-84 97q94 98 219 98q66 0 115 -21.5t73 -55.5t34.5 -67t10.5 -65z" />
    <glyph glyph-name="fiveeighths" unicode="&#x215d;" horiz-adv-x="1341" 
d="M1118 1434l-715 -1434h-180l717 1434h178zM1278 477q0 -33 -18.5 -74t-55.5 -63q39 -21 56.5 -63t17.5 -82q0 -32 -10 -64t-33.5 -65t-70.5 -53.5t-111 -20.5q-65 0 -112.5 20.5t-71 53t-34 65t-10.5 64.5q0 45 20 84t54 61q-74 52 -74 137q0 32 10.5 64.5t34 65t71 53
t112.5 20.5q64 0 111 -20.5t70.5 -53.5t33.5 -65t10 -64zM1053 129q29 0 50 18t21 48q0 31 -21 49t-50 18q-30 0 -52 -18t-22 -49q0 -29 22.5 -47.5t51.5 -18.5zM1053 412q30 0 50.5 17t20.5 48t-21 48.5t-50 17.5q-30 0 -52 -17.5t-22 -48.5t22 -48t52 -17zM61 877l99 94
q27 -37 65 -52.5t70 -15.5q41 0 63.5 23.5t22.5 58.5q0 36 -23 62t-65 26h-172v365h373v-146h-213v-75h12q60 0 105.5 -15t71.5 -38.5t42.5 -55.5t21.5 -60.5t5 -60.5q0 -25 -6.5 -53t-24 -60t-44 -57.5t-71 -42t-100.5 -16.5q-141 0 -232 119z" />
    <glyph glyph-name="seveneighths" unicode="&#x215e;" horiz-adv-x="1257" 
d="M1012 1434l-715 -1434h-180l717 1434h178zM1171 477q0 -33 -18 -74t-55 -63q38 -21 55.5 -63t17.5 -82q0 -32 -10 -64t-33.5 -65t-70.5 -53.5t-111 -20.5q-53 0 -94 14t-65.5 35.5t-40.5 49.5t-21.5 53.5t-5.5 50.5q0 45 20 84t54 61q-74 52 -74 137q0 25 5.5 50.5
t21.5 53.5t40.5 49.5t65.5 35.5t94 14q64 0 111 -20.5t70.5 -53.5t33.5 -65t10 -64zM946 129q29 0 50.5 18t21.5 48q0 31 -21.5 49t-50.5 18q-30 0 -52 -18t-22 -49q0 -29 22.5 -47.5t51.5 -18.5zM946 412q30 0 51 17t21 48t-21 48.5t-51 17.5t-52 -17.5t-22 -48.5t22 -48
t52 -17zM78 1292v146h432l4 -23l-254 -649h-166l203 524z" />
    <glyph glyph-name="arrowleft" unicode="&#x2190;" horiz-adv-x="1243" 
d="M1120 426h-624l286 -315l-135 -131l-543 544v8l543 547l133 -133l-286 -313h626v-207z" />
    <glyph glyph-name="arrowup" unicode="&#x2191;" horiz-adv-x="1210" 
d="M709 645v-625h-207v627l-314 -287l-133 134l547 542h8l545 -542l-131 -136z" />
    <glyph glyph-name="arrowright" unicode="&#x2192;" horiz-adv-x="1243" 
d="M739 426h-624v207h626l-286 313l133 133l542 -547v-8l-542 -544l-135 131z" />
    <glyph glyph-name="arrowdown" unicode="&#x2193;" horiz-adv-x="1210" 
d="M709 1036v-624l315 286l131 -135l-545 -543h-8l-547 543l133 133l314 -286v626h207z" />
    <glyph glyph-name="partialdiff" unicode="&#x2202;" horiz-adv-x="1198" 
d="M350 1278l117 168q90 -49 171 -110.5t163 -152.5t140.5 -195t95.5 -242t36 -289q0 -33 -6 -71t-21 -84.5t-38 -90t-61 -85t-85.5 -72.5t-115.5 -49.5t-148 -18.5q-110 0 -197.5 34t-137.5 84t-83.5 114t-45 117.5t-11.5 100.5q0 57 11.5 114t44.5 121.5t83.5 113
t137.5 80.5t198 32q37 0 84 -12t78 -31q-51 108 -158.5 228t-251.5 196zM598 201q113 0 176.5 72.5t63.5 172.5q-3 103 -65 173.5t-175 70.5q-115 0 -177.5 -72t-62.5 -172q0 -99 64 -172t176 -73z" />
    <glyph glyph-name="product" unicode="&#x220f;" horiz-adv-x="1255" 
d="M246 0v1221h-154v213h1071v-213h-151v-1221h-248v1221h-270v-1221h-248z" />
    <glyph glyph-name="summation" unicode="&#x2211;" horiz-adv-x="1062" 
d="M459 1219l340 -502l-340 -502h542v-215h-933l-7 12l469 705l-467 702l7 15h931v-215h-542z" />
    <glyph glyph-name="minus" unicode="&#x2212;" horiz-adv-x="1140" 
d="M154 877h847v-199h-847v199z" />
    <glyph glyph-name="radical" unicode="&#x221a;" horiz-adv-x="1380" 
d="M555 487l387 947h377v-213h-209l-539 -1258h-43l-467 1061h267z" />
    <glyph glyph-name="infinity" unicode="&#x221e;" horiz-adv-x="1372" 
d="M459 293q-76 0 -134.5 27t-92.5 72t-51 99t-17 113q0 58 17 111t51 99t92.5 73.5t134.5 27.5q65 0 125.5 -32.5t103.5 -85.5q39 54 98.5 86t126.5 32q77 0 135.5 -27.5t92.5 -73.5t50.5 -99.5t16.5 -112.5t-16.5 -112t-50.5 -98t-92.5 -72t-135.5 -27q-64 0 -124 31
t-101 82q-41 -52 -100.5 -82.5t-128.5 -30.5zM897 498q43 0 70.5 30t27.5 74q0 42 -27 70t-71 28q-71 0 -113 -98q43 -104 113 -104zM477 496q68 0 111 108q-41 101 -111 101q-44 0 -71 -27.5t-27 -73.5q0 -50 26.5 -79t71.5 -29z" />
    <glyph glyph-name="integral" unicode="&#x222b;" horiz-adv-x="950" 
d="M866 1165q-110 64 -174 64q-57 0 -91 -46t-34 -141l-2 -1040q0 -101 -19 -168q-56 -198 -251 -233q-40 -7 -84 -7q-92 0 -171 35t-122 76l105 174q108 -63 174 -63q57 0 91 45.5t34 140.5v1002h2v38q0 101 19 168q56 198 251 233q39 7 84 7q92 0 171 -35t122 -76z" />
    <glyph glyph-name="approxequal" unicode="&#x2248;" horiz-adv-x="1224" 
d="M301 608l-137 94q124 216 305 216q50 0 102 -24t98 -47.5t83 -23.5q34 0 82.5 27t91.5 82l135 -105q-59 -110 -140 -161.5t-167 -51.5q-38 0 -78.5 16t-70 34.5t-68 34.5t-72.5 16q-32 0 -76 -24t-88 -83zM301 203l-137 94q124 215 305 215q50 0 102 -23.5t98 -47
t83 -23.5q35 0 83 26.5t91 81.5l135 -104q-59 -110 -140 -161.5t-167 -51.5q-47 0 -98 25t-100 50t-91 25q-33 0 -76.5 -23.5t-87.5 -82.5z" />
    <glyph glyph-name="notequal" unicode="&#x2260;" horiz-adv-x="1042" 
d="M326 195h-162v194h221l78 236h-299v194h358l72 205h176l-70 -205h179v-194h-238l-78 -236h316v-194h-377l-66 -195h-172z" />
    <glyph glyph-name="lessequal" unicode="&#x2264;" horiz-adv-x="882" 
d="M61 182h730v-182h-730v182zM403 719l418 -266l-98 -172l-662 399v78l662 399l98 -172z" />
    <glyph glyph-name="greaterequal" unicode="&#x2265;" horiz-adv-x="882" 
d="M821 182h-729v-182h729v182zM61 453l418 266l-418 266l99 172l661 -399v-78l-661 -399z" />
    <glyph glyph-name="lozenge" unicode="&#x25ca;" horiz-adv-x="1343" 
d="M123 723l549 758l549 -758l-549 -758zM672 1085l-254 -362l254 -363l254 363z" />
    <glyph glyph-name="CR" horiz-adv-x="512" 
 />
    <glyph glyph-name="zero.oldstyle" horiz-adv-x="1179" 
d="M590 1036q103 0 185.5 -35.5t134 -91t86 -128.5t48 -142.5t13.5 -138.5q0 -67 -11.5 -132t-44 -135.5t-83 -123t-135 -87t-193.5 -34.5q-79 0 -145 18.5t-113.5 49.5t-84.5 74.5t-60 90t-37.5 99t-20.5 99.5t-6 93q0 65 11.5 130t44 138t82.5 128t135.5 91.5t193.5 36.5z
M590 203q51 0 90.5 17t62.5 47t38.5 61t21.5 68.5t8 59.5t2 44q0 23 -2 46.5t-8 63.5t-21.5 73.5t-38.5 66t-62.5 51t-90.5 18.5q-44 0 -79.5 -14t-58 -35.5t-39.5 -52t-25.5 -58t-13.5 -59.5t-6 -50.5t-1 -37.5q0 -23 2 -45.5t8 -61.5t21.5 -71.5t38.5 -63.5t62.5 -49
t90.5 -18z" />
    <glyph glyph-name="one.oldstyle" horiz-adv-x="950" 
d="M119 176h260v533l-236 -123l-82 137l467 328h70v-875h229v-176h-708v176z" />
    <glyph glyph-name="two.oldstyle" horiz-adv-x="890" 
d="M764 696q-7 -95 -125 -256l-186 -235h315v-205h-707v66l408 512q58 73 70 139q1 10 1 24t-7 29.5t-17.5 29t-31.5 22.5t-48 9q-105 0 -246 -122l-124 145q166 184 370 184q156 0 248.5 -89t79.5 -253z" />
    <glyph glyph-name="three.oldstyle" horiz-adv-x="997" 
d="M874 668q0 -68 -41 -148t-108 -114q67 -33 108 -111.5t41 -161.5q0 -44 -10 -89t-38 -97t-71.5 -91.5t-117.5 -65.5t-168 -26q-67 0 -125.5 15.5t-109 47t-80 55t-70.5 61.5l129 151q51 -49 122 -84t134 -35q74 0 125 41t51 117q0 77 -52 124.5t-124 47.5h-176v203h176
q73 0 124.5 42.5t51.5 117.5q0 78 -51 119.5t-125 41.5q-62 0 -133 -31.5t-123 -82.5l-131 151q37 34 70 59t82 52.5t108.5 42t126.5 14.5q94 0 168 -25.5t117.5 -64.5t71.5 -90t38 -96.5t10 -89.5z" />
    <glyph glyph-name="four.oldstyle" horiz-adv-x="1052" 
d="M807 29v-256h-244v256h-502v139l555 856h191v-782h184v-213h-184zM563 557l-196 -315h196v315z" />
    <glyph glyph-name="five.oldstyle" horiz-adv-x="1073" 
d="M123 -25l149 146q112 -137 240 -137q95 0 151 61t56 141q0 90 -59.5 148.5t-161.5 58.5h-293v631h676v-215h-441v-209h70q102 0 182 -26.5t127.5 -68.5t78 -99.5t41.5 -112.5t11 -115q0 -44 -11.5 -93.5t-42.5 -107t-78.5 -102t-127.5 -74.5t-180 -30q-118 0 -208.5 49.5
t-178.5 154.5z" />
    <glyph glyph-name="six.oldstyle" horiz-adv-x="1112" 
d="M672 1286l121 -174q-125 -69 -203 -143.5t-141 -167.5q56 20 110 20q101 0 180 -29.5t125 -73.5t75.5 -103.5t39.5 -111.5t10 -104q0 -34 -8 -74t-26 -88t-51.5 -91t-78.5 -79t-114.5 -57.5t-153.5 -21.5q-71 0 -132.5 16t-104.5 42.5t-77.5 62.5t-56 73.5t-35.5 78
t-20 74.5t-6 64q-4 161 41 303.5t126.5 251t174.5 188.5t205 144zM557 203q94 0 146.5 62.5t52.5 144.5t-52 142t-147 60q-92 0 -145.5 -59.5t-53.5 -142.5q0 -82 53 -144.5t146 -62.5z" />
    <glyph glyph-name="seven.oldstyle" horiz-adv-x="888" 
d="M508 811h-447v213h760l6 -14l-477 -1237h-246z" />
    <glyph glyph-name="eight.oldstyle" horiz-adv-x="1093" 
d="M545 -16h4q-95 0 -171 25t-122.5 63.5t-77.5 90t-43 100t-12 97.5q0 83 41.5 163.5t101.5 107.5q-61 41 -95 113t-34 157q0 36 7.5 74t24 81t47.5 80.5t74 68.5t108 49t145 18h8q95 0 169 -26t117.5 -65.5t71 -91.5t37.5 -97.5t10 -90.5q0 -85 -34 -157t-95 -113
q61 -27 102.5 -107.5t41.5 -163.5q0 -49 -12 -97.5t-43 -100t-77.5 -90t-122.5 -63.5t-171 -25zM545 532h4q-99 0 -150 -55.5t-51 -116.5q0 -88 58 -131t143 -43h-4q85 0 142.5 43t57.5 131q0 61 -50.5 116.5t-149.5 55.5zM731 901q0 78 -54.5 123t-129.5 45t-130 -45
t-55 -123q0 -19 9 -44.5t28.5 -54.5t58 -50t89.5 -23q51 2 89.5 23t57.5 50t28 54.5t9 44.5z" />
    <glyph glyph-name="nine.oldstyle" horiz-adv-x="1112" 
d="M440 -258l-121 174q125 69 203.5 144t141.5 167q-56 -20 -111 -20q-101 0 -180 29.5t-125 73.5t-75.5 103.5t-39.5 111.5t-10 104q0 34 8 74t26 88t51.5 91t78.5 79t114.5 57.5t153.5 21.5q71 0 132.5 -16t104.5 -42.5t77.5 -62.5t56 -73.5t35.5 -78t20 -74.5t6 -64
q4 -161 -41 -303.5t-126.5 -251t-174.5 -188.5t-205 -144zM555 825q-94 0 -146.5 -62.5t-52.5 -144.5t52 -142t147 -60q92 0 145.5 59.5t53.5 142.5q0 82 -53 144.5t-146 62.5z" />
    <glyph glyph-name="Euro.oldstyle" horiz-adv-x="1148" 
d="M123 547l49 131h68q17 71 49 130.5t83.5 113t132.5 84t183 30.5q202 0 338 -125l-119 -166q-47 37 -108.5 55.5t-110.5 18.5q-139 0 -196 -141h346l-50 -131h-323v-35q0 -3 -0.5 -8.5t-0.5 -11t1 -11.5h260l-49 -131h-187q52 -147 199 -147q85 0 209 76l111 -170
q-154 -121 -320 -121q-103 0 -184.5 31t-133 85t-83.5 114.5t-49 131.5h-115l49 131h49v66h-98z" />
    <glyph glyph-name="florin.oldstyle" horiz-adv-x="997" 
d="M-82 -240l70 187q109 -41 192 -41q58 0 96.5 33.5t38.5 105.5v361h-110v206h110v88q0 167 102.5 254.5t260.5 87.5q142 0 278 -65l-69 -186q-106 40 -193 40q-58 0 -96.5 -33.5t-38.5 -105.5v-80h199v-206h-199v-369q0 -167 -102 -254.5t-260 -87.5q-143 0 -279 65z" />
    <glyph glyph-name="sterling.oldstyle" horiz-adv-x="1277" 
d="M928 991l-70 -186q-109 41 -192 41q-58 0 -97 -33.5t-39 -105.5v-115h199v-164h-199v-123q71 -39 99 -53.5t77 -31.5t87 -17q107 0 217 129l145 -119q-45 -83 -112.5 -138.5t-133 -77.5t-131.5 -22q-52 0 -105 19.5t-89 43t-78 43t-74 19.5q-97 0 -192 -123l-148 107
q81 142 195 201v143h-111v164h111v123q0 167 102 254.5t260 87.5q141 0 279 -66z" />
    <glyph glyph-name="yen.oldstyle" horiz-adv-x="1241" 
d="M260 539h211l-348 460v25h268l227 -309l226 309h274v-20l-350 -465h207v-164h-232v-99h232v-145h-232v-131h-247v131h-236v145h236v99h-236v164z" />
    <glyph glyph-name="percent.oldstyle" horiz-adv-x="1771" 
d="M377 1143q86 0 150 -32t98 -83t49.5 -104.5t15.5 -108.5q0 -43 -9 -86t-32 -87t-57 -77.5t-89.5 -54.5t-125.5 -21t-126 21t-91 54.5t-58 77.5t-32 87t-9 86q0 55 16 108.5t50 104.5t98.5 83t151.5 32zM1397 643q86 0 150 -32t98 -83t49.5 -104.5t15.5 -108.5
q0 -43 -9 -85.5t-32 -87t-57 -77.5t-89.5 -54t-125.5 -21t-126 21t-91 54t-58 77.5t-32 87t-9 85.5q0 55 16 108.5t50 104.5t98.5 83t151.5 32zM805 0h-207l375 1141h205zM377 672q29 0 51.5 11.5t34.5 27.5t20 37t10.5 37t2.5 30t-2.5 30t-10.5 37t-20 37t-34.5 27.5
t-51.5 11.5q-37 0 -63 -16t-37.5 -41.5t-16 -46t-4.5 -39.5t4.5 -39.5t16 -46t37.5 -41.5t63 -16zM1397 172q29 0 51.5 11.5t34.5 27.5t20 37t10.5 37t2.5 30q0 19 -4.5 40t-16 46t-37 41.5t-61.5 16.5q-37 0 -63 -16.5t-37.5 -42t-16 -46t-4.5 -39.5t4.5 -39.5t16 -46
t37.5 -41.5t63 -16z" />
    <glyph glyph-name="commaaccent" horiz-adv-x="512" 
d="M262 -680l-106 47q64 122 80 182q-107 23 -107 138q0 55 38.5 95t94.5 40q77 0 113.5 -43.5t36.5 -106.5q0 -113 -150 -352z" />
    <glyph glyph-name="a.alt" horiz-adv-x="1255" 
d="M623 -16q-110 0 -198 34t-143 88.5t-92 125.5t-52 140.5t-15 139.5t15 139.5t52 140.5t92 125.5t143 88.5t198 34q157 0 282 -96l29 80h158v-1024h-158l-29 80q-125 -96 -282 -96zM633 831q-67 0 -119 -26t-79.5 -62.5t-45 -84t-22.5 -82t-5 -64.5t5 -64.5t22.5 -82
t45 -84t79.5 -62.5t119 -26q145 0 217 112v414q-72 112 -217 112z" />
    <glyph glyph-name="aogonek.alt" horiz-adv-x="1236" 
d="M623 -16q-110 0 -198 34t-143 88.5t-92 125.5t-52 140.5t-15 139.5t15 139.5t52 140.5t92 125.5t143 88.5t198 34q157 0 282 -96l29 80h158v-1026q0 -21 -36 -90.5t-36 -112.5q0 -94 108 -94q63 0 152 33v-150q-86 -37 -193 -37q-102 0 -169.5 55t-67.5 162
q0 47 20.5 95.5t41.5 85.5t22 55l-29 80q-125 -96 -282 -96zM633 831q-67 0 -119 -26t-79.5 -62.5t-45 -84t-22.5 -82t-5 -64.5t5 -64.5t22.5 -82t45 -84t79.5 -62.5t119 -26q145 0 217 112v414q-72 112 -217 112z" />
    <glyph glyph-name="amacron.alt" horiz-adv-x="1253" 
d="M623 -16q-110 0 -198 34t-143 88.5t-92 125.5t-52 140.5t-15 139.5t15 139.5t52 140.5t92 125.5t143 88.5t198 34q157 0 282 -96l29 80h158v-1024h-158l-29 80q-125 -96 -282 -96zM633 831q-67 0 -119 -26t-79.5 -62.5t-45 -84t-22.5 -82t-5 -64.5t5 -64.5t22.5 -82
t45 -84t79.5 -62.5t119 -26q145 0 217 112v414q-72 112 -217 112zM356 1399h617v-178h-617v178z" />
    <glyph glyph-name="adieresis.alt" horiz-adv-x="1253" 
d="M623 -16q-110 0 -198 34t-143 88.5t-92 125.5t-52 140.5t-15 139.5t15 139.5t52 140.5t92 125.5t143 88.5t198 34q157 0 282 -96l29 80h158v-1024h-158l-29 80q-125 -96 -282 -96zM633 831q-67 0 -119 -26t-79.5 -62.5t-45 -84t-22.5 -82t-5 -64.5t5 -64.5t22.5 -82
t45 -84t79.5 -62.5t119 -26q145 0 217 112v414q-72 112 -217 112zM299 1348q0 59 39.5 99t99.5 40q59 0 99.5 -40.5t40.5 -98.5q0 -61 -40.5 -100.5t-99.5 -39.5q-60 0 -99.5 39.5t-39.5 100.5zM778 1348q0 59 40 99t100 40q58 0 98.5 -40.5t40.5 -98.5q0 -61 -40 -100.5
t-99 -39.5q-60 0 -100 39.5t-40 100.5z" />
    <glyph glyph-name="aring.alt" horiz-adv-x="1253" 
d="M623 -16q-110 0 -198 34t-143 88.5t-92 125.5t-52 140.5t-15 139.5t15 139.5t52 140.5t92 125.5t143 88.5t198 34q157 0 282 -96l29 80h158v-1024h-158l-29 80q-125 -96 -282 -96zM633 831q-67 0 -119 -26t-79.5 -62.5t-45 -84t-22.5 -82t-5 -64.5t5 -64.5t22.5 -82
t45 -84t79.5 -62.5t119 -26q145 0 217 112v414q-72 112 -217 112zM430 1409q0 86 61.5 147.5t147.5 61.5t146.5 -61.5t60.5 -147.5t-60.5 -146.5t-146.5 -60.5t-147.5 60.5t-61.5 146.5zM571 1409q0 -26 20 -46t48 -20q26 0 46 20t20 46q0 28 -20 48t-46 20q-28 0 -48 -20
t-20 -48z" />
    <glyph glyph-name="agrave.alt" horiz-adv-x="1253" 
d="M623 -16q-110 0 -198 34t-143 88.5t-92 125.5t-52 140.5t-15 139.5t15 139.5t52 140.5t92 125.5t143 88.5t198 34q157 0 282 -96l29 80h158v-1024h-158l-29 80q-125 -96 -282 -96zM633 831q-67 0 -119 -26t-79.5 -62.5t-45 -84t-22.5 -82t-5 -64.5t5 -64.5t22.5 -82
t45 -84t79.5 -62.5t119 -26q145 0 217 112v414q-72 112 -217 112zM481 1573l303 -252l-77 -113l-340 201z" />
    <glyph glyph-name="acircumflex.alt" horiz-adv-x="1253" 
d="M623 -16q-110 0 -198 34t-143 88.5t-92 125.5t-52 140.5t-15 139.5t15 139.5t52 140.5t92 125.5t143 88.5t198 34q157 0 282 -96l29 80h158v-1024h-158l-29 80q-125 -96 -282 -96zM633 831q-67 0 -119 -26t-79.5 -62.5t-45 -84t-22.5 -82t-5 -64.5t5 -64.5t22.5 -82
t45 -84t79.5 -62.5t119 -26q145 0 217 112v414q-72 112 -217 112zM328 1317l303 252l303 -252l-78 -113l-225 133l-225 -133z" />
    <glyph glyph-name="aacute.alt" horiz-adv-x="1253" 
d="M623 -16q-110 0 -198 34t-143 88.5t-92 125.5t-52 140.5t-15 139.5t15 139.5t52 140.5t92 125.5t143 88.5t198 34q157 0 282 -96l29 80h158v-1024h-158l-29 80q-125 -96 -282 -96zM633 831q-67 0 -119 -26t-79.5 -62.5t-45 -84t-22.5 -82t-5 -64.5t5 -64.5t22.5 -82
t45 -84t79.5 -62.5t119 -26q145 0 217 112v414q-72 112 -217 112zM430 1321l303 252l115 -164l-340 -201z" />
    <glyph glyph-name="atilde.alt" horiz-adv-x="1253" 
d="M623 -16q-110 0 -198 34t-143 88.5t-92 125.5t-52 140.5t-15 139.5t15 139.5t52 140.5t92 125.5t143 88.5t198 34q157 0 282 -96l29 80h158v-1024h-158l-29 80q-125 -96 -282 -96zM633 831q-67 0 -119 -26t-79.5 -62.5t-45 -84t-22.5 -82t-5 -64.5t5 -64.5t22.5 -82
t45 -84t79.5 -62.5t119 -26q145 0 217 112v414q-72 112 -217 112zM834 1481l145 -76q-87 -195 -248 -195q-48 0 -106 39t-93 39q-52 0 -94 -88l-137 66q34 111 97 156.5t137 45.5q43 0 81 -18t67 -35.5t52 -17.5q52 0 99 84z" />
    <glyph glyph-name="abreve.alt" horiz-adv-x="1253" 
d="M623 -16q-110 0 -198 34t-143 88.5t-92 125.5t-52 140.5t-15 139.5t15 139.5t52 140.5t92 125.5t143 88.5t198 34q157 0 282 -96l29 80h158v-1024h-158l-29 80q-125 -96 -282 -96zM633 831q-67 0 -119 -26t-79.5 -62.5t-45 -84t-22.5 -82t-5 -64.5t5 -64.5t22.5 -82
t45 -84t79.5 -62.5t119 -26q145 0 217 112v414q-72 112 -217 112zM754 1511l180 -51q-31 -122 -112 -187t-189 -65t-188.5 64.5t-110.5 187.5l176 49q25 -112 123 -112q99 0 121 114z" />
    <glyph glyph-name="parenleft.case" horiz-adv-x="614" 
d="M61 727q0 512 332 989l160 -102q-248 -455 -248 -885q0 -442 248 -897l-160 -102q-332 474 -332 997z" />
    <glyph glyph-name="parenright.case" horiz-adv-x="614" 
d="M553 727q0 -523 -332 -997l-160 102q248 455 248 897q0 430 -248 885l160 102q332 -477 332 -989z" />
    <glyph glyph-name="hyphen.case" horiz-adv-x="897" 
d="M164 831h569v-208h-569v208z" />
    <glyph glyph-name="bracketleft.case" horiz-adv-x="530" 
d="M61 -281v2018h408v-187h-172v-1644h172v-187h-408z" />
    <glyph glyph-name="bracketright.case" horiz-adv-x="530" 
d="M469 1737v-2018h-408v187h172v1644h-172v187h408z" />
    <glyph glyph-name="braceleft.case" horiz-adv-x="638" 
d="M578 -276h-66q-7 0 -22 1.5t-47.5 9.5t-63.5 21t-67 40.5t-62.5 64t-44 94.5t-17.5 129v436q0 54 -27.5 85t-62.5 36h-37v164h37q35 5 62.5 37t27.5 86v434q0 71 17.5 129t44 94.5t62.5 64t67 40.5t63.5 21t47.5 9.5t22 1.5h66v-186h-58q-8 0 -16.5 -2t-24.5 -13
t-27.5 -29.5t-20.5 -56.5t-9 -89v-437q0 -57 -34.5 -107.5t-78.5 -74.5v-8q44 -22 78.5 -73t34.5 -107v-439q0 -51 9 -89t20.5 -56.5t27.5 -29.5t24.5 -13t16.5 -2h58v-186z" />
    <glyph glyph-name="bar.case" horiz-adv-x="428" 
d="M305 -274h-182v1990h182v-1990z" />
    <glyph glyph-name="braceright.case" horiz-adv-x="638" 
d="M127 -276h-66v186h58q8 0 16.5 2t24.5 13t27.5 29.5t20.5 56.5t9 89v439q0 56 34.5 107t78.5 73v8q-44 24 -78.5 74.5t-34.5 107.5v437q0 51 -9 89t-20.5 56.5t-27.5 29.5t-24.5 13t-16.5 2h-58v186h66q7 0 22 -1.5t47.5 -9.5t63.5 -21t67 -40.5t62.5 -64t44 -94.5
t17.5 -129v-434q0 -54 27.5 -86t62.5 -37h37v-164h-37q-35 -5 -62.5 -36t-27.5 -85v-436q0 -71 -17.5 -129t-44 -94.5t-62.5 -64t-67 -40.5t-63.5 -21t-47.5 -9.5t-22 -1.5z" />
    <glyph glyph-name="guilsinglleft.case" horiz-adv-x="604" 
d="M301 723l242 -301l-121 -107l-361 381v54l361 380l121 -106z" />
    <glyph glyph-name="guilsinglright.case" horiz-adv-x="604" 
d="M61 422l242 301l-242 301l121 106l361 -380v-54l-361 -381z" />
    <glyph glyph-name="guillemotleft.case" horiz-adv-x="1060" 
d="M301 698l242 -301l-121 -106l-361 381v53l361 381l121 -107zM758 698l241 -301l-120 -106l-361 381v53l361 381l120 -107z" />
    <glyph glyph-name="guillemotright.case" horiz-adv-x="1060" 
d="M518 397l242 301l-242 301l121 107l360 -381v-53l-360 -381zM61 397l242 301l-242 301l121 107l361 -381v-53l-361 -381z" />
    <glyph glyph-name="endash.case" horiz-adv-x="1126" 
d="M965 682h-801v195h801v-195z" />
    <glyph glyph-name="emdash.case" horiz-adv-x="1376" 
d="M1212 680h-1048v194h1048v-194z" />
    <glyph glyph-name="bullet.case" horiz-adv-x="839" 
d="M416 473q-100 0 -176 75.5t-76 176.5q0 104 76 182t176 78q107 0 183.5 -77.5t76.5 -182.5q0 -102 -76.5 -177t-183.5 -75z" />
    <glyph glyph-name="periodcentered.case" horiz-adv-x="548" 
d="M123 745q0 65 42.5 107.5t106.5 42.5t109 -43t45 -107q0 -63 -45.5 -108t-108.5 -45q-64 0 -106.5 44.5t-42.5 108.5z" />
    <glyph glyph-name="brokenbar.case" horiz-adv-x="425" 
d="M303 506v-780h-180v780h180zM303 1718v-780h-180v780h180z" />
    <glyph glyph-name="numbersign.oldstyle" horiz-adv-x="1177" 
d="M123 805h172v219h194v-219h197v219h195v-219h174v-193h-174v-198h174v-193h-174v-221h-195v221h-197v-221h-194v221h-172v193h172v198h-172v193zM489 612v-198h197v198h-197z" />
    <glyph glyph-name="dollar.oldstyle" horiz-adv-x="1026" 
d="M594 -158h-156v146q-156 16 -315 108l88 187q130 -69 227 -84v233q-43 14 -71 24.5t-66 29t-62.5 40t-48 50.5t-34.5 69t-11 88q0 130 79.5 211.5t213.5 93.5v138h156v-146q141 -24 274 -90l-88 -192q-96 44 -186 65v-199q51 -17 88.5 -32t82 -43t72.5 -60.5t47 -82
t19 -109.5q0 -119 -85.5 -199t-223.5 -98v-148zM655 285q0 55 -61 88v-166q61 26 61 78zM377 743q0 -41 61 -71v141q-58 -20 -61 -70z" />
    <glyph glyph-name="cent.oldstyle" horiz-adv-x="1142" 
d="M881 328l163 -148q-151 -172 -342 -190v-152h-151v154q-93 12 -168.5 50.5t-122.5 91t-79 118.5t-45 129.5t-13 126.5q0 68 11.5 132.5t42 132.5t77.5 120.5t123.5 91t173.5 49.5v135h151v-133q176 -23 328 -182l-139 -156q-78 84 -189 113v-588q101 24 179 105zM365 508
q0 -110 51.5 -182.5t134.5 -98.5v578q-88 -30 -137 -113t-49 -184z" />
    <glyph glyph-name="g.alt" horiz-adv-x="1255" 
d="M633 -16q-113 0 -203.5 34.5t-146.5 89t-93 126t-52 140.5t-15 138q0 70 15 139.5t52 140.5t92 125.5t143 88.5t198 34q157 0 282 -96l29 80h158v-989q0 -43 -4 -83.5t-16 -92.5t-32.5 -96t-57 -87.5t-85 -74t-120 -49.5t-159.5 -19q-127 0 -238 49.5t-224 145.5l133 155
q157 -139 321 -139q240 0 240 272v7q-103 -39 -217 -39zM633 831q-67 0 -119 -26t-79.5 -62.5t-45 -84t-22.5 -82t-5 -64.5q0 -33 6.5 -70t26 -82.5t49.5 -81.5t83.5 -60.5t121.5 -24.5q119 0 201 57v469q-72 112 -217 112z" />
    <glyph glyph-name="gcircumflex.alt" horiz-adv-x="1253" 
d="M633 -16q-113 0 -203.5 34.5t-146.5 89t-93 126t-52 140.5t-15 138q0 70 15 139.5t52 140.5t92 125.5t143 88.5t198 34q157 0 282 -96l29 80h158v-989q0 -43 -4 -83.5t-16 -92.5t-32.5 -96t-57 -87.5t-85 -74t-120 -49.5t-159.5 -19q-127 0 -238 49.5t-224 145.5l133 155
q157 -139 321 -139q240 0 240 272v7q-103 -39 -217 -39zM633 831q-67 0 -119 -26t-79.5 -62.5t-45 -84t-22.5 -82t-5 -64.5q0 -33 6.5 -70t26 -82.5t49.5 -81.5t83.5 -60.5t121.5 -24.5q119 0 201 57v469q-72 112 -217 112zM324 1313l303 252l303 -252l-78 -113l-225 133
l-226 -133z" />
    <glyph glyph-name="gbreve.alt" horiz-adv-x="1253" 
d="M633 -16q-113 0 -203.5 34.5t-146.5 89t-93 126t-52 140.5t-15 138q0 70 15 139.5t52 140.5t92 125.5t143 88.5t198 34q157 0 282 -96l29 80h158v-989q0 -43 -4 -83.5t-16 -92.5t-32.5 -96t-57 -87.5t-85 -74t-120 -49.5t-159.5 -19q-127 0 -238 49.5t-224 145.5l133 155
q157 -139 321 -139q240 0 240 272v7q-103 -39 -217 -39zM633 831q-67 0 -119 -26t-79.5 -62.5t-45 -84t-22.5 -82t-5 -64.5q0 -33 6.5 -70t26 -82.5t49.5 -81.5t83.5 -60.5t121.5 -24.5q119 0 201 57v469q-72 112 -217 112zM752 1516l180 -52q-31 -122 -112 -187t-189 -65
t-188.5 64.5t-110.5 187.5l176 49q25 -112 123 -112q99 0 121 115z" />
    <glyph glyph-name="gdotaccent.alt" horiz-adv-x="1253" 
d="M633 -16q-113 0 -203.5 34.5t-146.5 89t-93 126t-52 140.5t-15 138q0 70 15 139.5t52 140.5t92 125.5t143 88.5t198 34q157 0 282 -96l29 80h158v-989q0 -43 -4 -83.5t-16 -92.5t-32.5 -96t-57 -87.5t-85 -74t-120 -49.5t-159.5 -19q-127 0 -238 49.5t-224 145.5l133 155
q157 -139 321 -139q240 0 240 272v7q-103 -39 -217 -39zM633 831q-67 0 -119 -26t-79.5 -62.5t-45 -84t-22.5 -82t-5 -64.5q0 -33 6.5 -70t26 -82.5t49.5 -81.5t83.5 -60.5t121.5 -24.5q119 0 201 57v469q-72 112 -217 112zM498 1327q0 57 38 95t95 38q56 0 95.5 -38.5
t39.5 -94.5q0 -55 -40 -95t-95 -40q-56 0 -94.5 39.5t-38.5 95.5z" />
    <glyph glyph-name="gcommaaccent.alt" horiz-adv-x="1253" 
d="M633 -16q-113 0 -203.5 34.5t-146.5 89t-93 126t-52 140.5t-15 138q0 70 15 139.5t52 140.5t92 125.5t143 88.5t198 34q157 0 282 -96l29 80h158v-989q0 -43 -4 -83.5t-16 -92.5t-32.5 -96t-57 -87.5t-85 -74t-120 -49.5t-159.5 -19q-127 0 -238 49.5t-224 145.5l133 155
q157 -139 321 -139q240 0 240 272v7q-103 -39 -217 -39zM633 831q-67 0 -119 -26t-79.5 -62.5t-45 -84t-22.5 -82t-5 -64.5q0 -33 6.5 -70t26 -82.5t49.5 -81.5t83.5 -60.5t121.5 -24.5q119 0 201 57v469q-72 112 -217 112zM633 1700l106 -47q-64 -121 -80 -183
q107 -23 107 -137q0 -55 -38.5 -95t-94.5 -40q-77 0 -113.5 43.5t-36.5 106.5q0 113 150 352z" />
    <glyph glyph-name="zero.num" horiz-adv-x="659" 
d="M330 1446q59 0 107 -22.5t77 -58.5t49 -83t27.5 -92t7.5 -90q0 -58 -13.5 -114t-42.5 -109t-83.5 -85t-128.5 -32q-60 0 -107.5 22t-77 56.5t-49 80.5t-27.5 90.5t-8 90.5q0 45 8 90.5t27.5 92t49 82.5t77.5 58.5t107 22.5zM330 901q33 0 56.5 23.5t34 58.5t15 64t4.5 53
t-4.5 53.5t-15 65.5t-34 60t-56.5 24t-56.5 -24t-34.5 -60t-15.5 -65.5t-4.5 -53.5t4.5 -53t15.5 -64t34.5 -58.5t56.5 -23.5z" />
    <glyph glyph-name="one.num" horiz-adv-x="446" 
d="M354 1438v-670h-159v442l-93 -43l-61 101l238 170h75z" />
    <glyph glyph-name="two.num" horiz-adv-x="606" 
d="M158 1227l-97 92q104 131 248 131q99 0 157 -59.5t58 -145.5q0 -43 -19.5 -86t-60.5 -104l-104 -148h170v-139h-436l-6 16l256 367q43 62 43 100q0 22 -16 39t-42 17q-64 0 -151 -80z" />
    <glyph glyph-name="three.num" horiz-adv-x="561" 
d="M500 1241q0 -36 -20.5 -78t-53.5 -61q37 -24 55.5 -62.5t18.5 -74.5q0 -31 -11 -63.5t-35 -67t-73 -56.5t-115 -22q-120 0 -225 96l86 92q53 -53 139 -53q35 0 61.5 20.5t26.5 53.5q0 36 -26 57.5t-62 21.5h-104v117h104q36 0 62 21.5t26 58.5q0 35 -26 54.5t-62 19.5
q-29 0 -69 -17.5t-66 -42.5l-84 97q94 98 219 98q66 0 115 -21.5t73 -55.5t35 -67t11 -65z" />
    <glyph glyph-name="four.num" horiz-adv-x="606" 
d="M469 874v-106h-152v106h-276v123l303 443h125v-414h96v-152h-96zM317 1174l-98 -148h98v148z" />
    <glyph glyph-name="five.num" horiz-adv-x="600" 
d="M61 877l99 94q27 -37 65 -52.5t70 -15.5q41 0 63.5 23.5t22.5 58.5q0 36 -23 62t-65 26h-172v365h373v-146h-213v-75h12q60 0 105.5 -15t71.5 -38.5t42.5 -55.5t21.5 -60.5t5 -60.5q0 -25 -6.5 -53t-24 -60t-44 -57.5t-71 -42t-100.5 -16.5q-141 0 -232 119z" />
    <glyph glyph-name="six.num" horiz-adv-x="610" 
d="M354 1458l84 -108q-53 -34 -97 -72t-62 -64q59 9 106.5 -2t77 -35.5t49.5 -58t28 -65.5t7 -62q-1 -25 -6.5 -51.5t-22.5 -60t-42.5 -59t-70.5 -43t-102 -17.5q-69 0 -119.5 25t-75 63.5t-35 74t-10.5 68.5q-5 294 291 467zM303 907q41 0 64.5 27t23.5 63q0 35 -23 60.5
t-65 25.5q-35 0 -58.5 -25t-25.5 -61q0 -36 22.5 -63t61.5 -27z" />
    <glyph glyph-name="seven.num" horiz-adv-x="518" 
d="M41 1288v146h432l4 -15l-254 -657h-166l205 526h-221z" />
    <glyph glyph-name="eight.num" horiz-adv-x="575" 
d="M514 1245q0 -33 -18.5 -74t-55.5 -63q39 -21 56.5 -63t17.5 -82q0 -32 -10 -64t-33.5 -65t-70.5 -53.5t-111 -20.5q-65 0 -112.5 20.5t-71 53t-34 65t-10.5 64.5q0 45 20 84t54 61q-74 52 -74 137q0 32 10.5 64.5t34 65t71 53t112.5 20.5q64 0 111 -20.5t70.5 -53.5
t33.5 -65t10 -64zM289 897q29 0 50 18t21 48q0 31 -21 49t-50 18q-30 0 -52 -18t-22 -49q0 -29 22.5 -47.5t51.5 -18.5zM289 1180q30 0 50.5 17t20.5 48t-21 48.5t-50 17.5q-30 0 -52 -17.5t-22 -48.5t22 -48t52 -17z" />
    <glyph glyph-name="nine.num" horiz-adv-x="610" 
d="M256 754l-84 108q118 75 160 135q-59 -9 -107 2t-77.5 35.5t-49.5 58.5t-28 66t-7 62q1 25 6.5 51.5t22.5 60t42.5 59t70.5 43t102 17.5q69 0 119.5 -25t75 -63.5t35 -74t10.5 -68.5q1 -70 -16 -134t-45 -112t-67.5 -91.5t-78.5 -73.5t-84 -56zM307 1305
q-41 0 -64.5 -27.5t-23.5 -63.5q0 -35 23 -60.5t65 -25.5q35 0 58.5 25t25.5 61q0 36 -22.5 63.5t-61.5 27.5z" />
    <glyph glyph-name="zero.denom" horiz-adv-x="659" 
d="M330 678q59 0 107 -22.5t77 -58.5t49 -83t27.5 -92t7.5 -90q0 -58 -13.5 -114t-42.5 -109t-83.5 -85t-128.5 -32q-60 0 -107.5 22t-77 56.5t-49 80.5t-27.5 90.5t-8 90.5q0 45 8 90.5t27.5 92t49 82.5t77.5 58.5t107 22.5zM330 133q33 0 56.5 23.5t34 58.5t15 64t4.5 53
t-4.5 53.5t-15 65.5t-34 60t-56.5 24t-56.5 -24t-34.5 -60t-15.5 -65.5t-4.5 -53.5t4.5 -53t15.5 -64t34.5 -58.5t56.5 -23.5z" />
    <glyph glyph-name="one.denom" horiz-adv-x="446" 
d="M354 670v-670h-159v442l-93 -43l-61 101l238 170h75z" />
    <glyph glyph-name="two.denom" horiz-adv-x="606" 
d="M156 457l-97 92q104 131 248 131q99 0 157 -59.5t58 -145.5q0 -43 -19.5 -86t-60.5 -104l-104 -148h170v-139h-436l-6 16l256 367q43 62 43 100q0 22 -16 39t-42 17q-64 0 -151 -80z" />
    <glyph glyph-name="three.denom" horiz-adv-x="561" 
d="M500 473q0 -36 -20.5 -78t-53.5 -61q37 -24 55.5 -62.5t18.5 -74.5q0 -31 -11 -63.5t-35 -67t-73 -56.5t-115 -22q-120 0 -225 96l86 92q53 -53 139 -53q35 0 61.5 20.5t26.5 53.5q0 36 -26 57.5t-62 21.5h-104v117h104q36 0 62 21.5t26 58.5q0 35 -26 54.5t-62 19.5
q-29 0 -69 -17.5t-66 -42.5l-84 97q94 98 219 98q66 0 115 -21.5t73 -55.5t35 -67t11 -65z" />
    <glyph glyph-name="four.denom" horiz-adv-x="606" 
d="M469 106v-106h-152v106h-276v123l303 443h125v-414h96v-152h-96zM317 406l-98 -148h98v148z" />
    <glyph glyph-name="five.denom" horiz-adv-x="600" 
d="M61 109l99 94q27 -37 65 -52.5t70 -15.5q41 0 63.5 23.5t22.5 58.5q0 36 -23 62t-65 26h-172v365h373v-146h-213v-75h12q60 0 105.5 -15t71.5 -38.5t42.5 -55.5t21.5 -60.5t5 -60.5q0 -25 -6.5 -53t-24 -60t-44 -57.5t-71 -42t-100.5 -16.5q-141 0 -232 119z" />
    <glyph glyph-name="six.denom" horiz-adv-x="610" 
d="M354 690l84 -108q-53 -34 -97 -72t-62 -64q59 9 106.5 -2t77 -35.5t49.5 -58t28 -65.5t7 -62q-1 -25 -6.5 -51.5t-22.5 -60t-42.5 -59t-70.5 -43t-102 -17.5q-69 0 -119.5 25t-75 63.5t-35 74t-10.5 68.5q-5 294 291 467zM303 139q41 0 64.5 27t23.5 63q0 35 -23 60.5
t-65 25.5q-35 0 -58.5 -25t-25.5 -61q0 -36 22.5 -63t61.5 -27z" />
    <glyph glyph-name="seven.denom" horiz-adv-x="518" 
d="M41 524v146h432l4 -15l-254 -655h-166l209 524h-225z" />
    <glyph glyph-name="eight.denom" horiz-adv-x="575" 
d="M514 477q0 -33 -18.5 -74t-55.5 -63q39 -21 56.5 -63t17.5 -82q0 -32 -10 -64t-33.5 -65t-70.5 -53.5t-111 -20.5q-65 0 -112.5 20.5t-71 53t-34 65t-10.5 64.5q0 45 20 84t54 61q-74 52 -74 137q0 32 10.5 64.5t34 65t71 53t112.5 20.5q64 0 111 -20.5t70.5 -53.5
t33.5 -65t10 -64zM289 129q29 0 50 18t21 48q0 31 -21 49t-50 18q-30 0 -52 -18t-22 -49q0 -29 22.5 -47.5t51.5 -18.5zM289 412q30 0 50.5 17t20.5 48t-21 48.5t-50 17.5q-30 0 -52 -17.5t-22 -48.5t22 -48t52 -17z" />
    <glyph glyph-name="nine.denom" horiz-adv-x="610" 
d="M256 -14l-84 108q118 75 160 135q-59 -9 -107 2t-77.5 35.5t-49.5 58.5t-28 66t-7 62q1 25 6.5 51.5t22.5 60t42.5 59t70.5 43t102 17.5q69 0 119.5 -25t75 -63.5t35 -74t10.5 -68.5q1 -70 -16 -134t-45 -112t-67.5 -91.5t-78.5 -73.5t-84 -56zM307 537
q-41 0 -64.5 -27.5t-23.5 -63.5q0 -35 23 -60.5t65 -25.5q35 0 58.5 25t25.5 61q0 36 -22.5 63.5t-61.5 27.5z" />
    <glyph glyph-name="zero.ftd" horiz-adv-x="1406" 
d="M702 1399q120 0 215.5 -46t155 -118.5t99 -168t55.5 -187.5t16 -185q0 -95 -16 -188t-55.5 -188.5t-99 -167t-155 -117t-215.5 -45.5q-100 0 -183.5 31.5t-140.5 86t-100 123.5t-67 150.5t-35.5 159t-11.5 155.5q0 76 11.5 153t35.5 158t67 150.5t100 124.5t140.5 87
t183.5 32zM702 199q74 0 130.5 40.5t87 97.5t49.5 130.5t24.5 127t5.5 99.5q0 37 -4 80t-14.5 102t-32.5 111.5t-53 99t-81 74t-112 27.5q-74 0 -130.5 -40.5t-86.5 -97t-49 -130t-24.5 -127t-5.5 -99.5t5.5 -99.5t24.5 -127t49 -130.5t86.5 -97.5t130.5 -40.5z" />
    <glyph glyph-name="one.ftd" horiz-adv-x="1011" 
d="M143 0v197h295v817l-217 -119l-98 156l487 338h72v-1192h207v-197h-746z" />
    <glyph glyph-name="two.ftd" horiz-adv-x="1198" 
d="M272 1020l-141 149q105 116 222 172t233 56q190 0 309 -102t119 -294q0 -85 -47 -186t-125 -199l-307 -393h440v-223h-866l-7 18l564 738q114 151 114 254q0 75 -45.5 126.5t-146.5 51.5q-137 0 -316 -168z" />
    <glyph glyph-name="three.ftd" horiz-adv-x="1163" 
d="M999 997q0 -56 -16.5 -114.5t-55 -112.5t-91.5 -78q70 -26 116.5 -122t46.5 -183q0 -33 -5.5 -68t-20 -75t-36 -76t-57.5 -70t-81.5 -58t-110.5 -39t-141 -15q-75 0 -141.5 16t-119.5 45t-88.5 56t-74.5 63l133 158q57 -55 140 -95.5t151 -40.5q92 0 156.5 52t64.5 147
q0 97 -64 150t-157 53h-187v205h187q93 0 157 52.5t64 149.5q0 95 -64.5 147t-156.5 52q-67 0 -150.5 -40.5t-140.5 -94.5l-133 158q39 36 74.5 63t88.5 56t119.5 45t141.5 16q105 0 188 -28.5t131 -71t79.5 -99t42.5 -106t11 -97.5z" />
    <glyph glyph-name="four.ftd" horiz-adv-x="1284" 
d="M946 272v-274h-248v274h-575v138l629 976h194v-897h215v-217h-215zM696 918l-262 -429h264z" />
    <glyph glyph-name="five.ftd" horiz-adv-x="1228" 
d="M164 203l160 143q114 -145 258 -145q114 0 180.5 74t66.5 174q0 98 -66.5 169.5t-182.5 71.5h-322v692h705v-215h-463v-272h80q112 0 200 -30.5t140 -77.5t86 -110.5t46.5 -122t12.5 -118.5q0 -33 -6.5 -70.5t-22.5 -81.5t-40 -85t-63 -80t-87.5 -67.5t-117 -46
t-148.5 -17.5q-248 0 -416 215z" />
    <glyph glyph-name="six.ftd" horiz-adv-x="1320" 
d="M786 1403l113 -170q-143 -75 -246 -180.5t-155 -200.5q31 19 78.5 31t85.5 12q111 0 198 -32t137.5 -80.5t83.5 -113t44.5 -121.5t11.5 -114q0 -47 -11.5 -100.5t-45 -117.5t-83.5 -114t-137.5 -84t-197.5 -34q-93 0 -169.5 24.5t-126.5 66t-87 91t-56 104.5t-28 100
t-9 85q-2 620 600 948zM662 199q112 0 175.5 72.5t63.5 172.5t-62 172t-177 72q-113 0 -175 -70.5t-65 -173.5q0 -100 63.5 -172.5t176.5 -72.5z" />
    <glyph glyph-name="seven.ftd" horiz-adv-x="1067" 
d="M102 1167v215h856l7 -14l-551 -1368h-250l473 1167h-535z" />
    <glyph glyph-name="eight.ftd" horiz-adv-x="1234" 
d="M1071 995q0 -205 -158 -305q70 -43 114 -123.5t44 -181.5q0 -48 -11 -97.5t-42.5 -105.5t-80.5 -99t-132 -71t-189 -28q-76 0 -141 15t-110.5 39t-81.5 58t-57.5 70t-36 76t-20 75t-5.5 68q0 97 44 183.5t114 121.5q-71 38 -114.5 119.5t-43.5 185.5q0 48 11 97.5
t42.5 106t79.5 99t131 71t188 28.5q106 0 189 -28.5t132 -71t80.5 -99t42.5 -106t11 -97.5zM616 186q94 0 158 52t64 147q0 98 -64 150.5t-158 52.5q-93 0 -157 -53t-64 -150q0 -95 64.5 -147t156.5 -52zM616 793q94 0 158 52t64 150q0 95 -64 147t-158 52q-92 0 -156.5 -52
t-64.5 -147q0 -97 64 -149.5t157 -52.5z" />
    <glyph glyph-name="nine.ftd" horiz-adv-x="1320" 
d="M535 -16l-113 170q154 90 249 182.5t152 198.5q-31 -19 -78.5 -31t-85.5 -12q-111 0 -198 32t-137.5 80.5t-83.5 112.5t-44.5 121t-11.5 114q0 32 6 68.5t21 81.5t38 86t61 81t85.5 69t115.5 47t148 18q93 0 169.5 -24.5t126.5 -66t87 -91t56 -104.5t28 -100t9 -85
q2 -620 -600 -948zM659 1188q-112 0 -175.5 -73t-63.5 -173t62 -172t177 -72q113 0 175 70.5t65 173.5q0 100 -63.5 173t-176.5 73z" />
    <glyph glyph-name="ampersand.alt1" horiz-adv-x="1644" 
d="M705 231q78 0 184 56l-66 47q-136 94 -196.5 178.5t-61.5 189.5q0 38 13.5 81.5t46 85.5t77.5 59q-39 33 -59 83t-20 95q0 154 110 251t268 97q125 0 220.5 -44t151 -119.5t83 -167t27.5 -195.5q0 -169 -51.5 -327t-143.5 -286l234 -170l-152 -196l-260 178
q-192 -141 -401 -141q-240 0 -379.5 130.5t-139.5 377.5v542q-1 58 -29 78.5t-100 22.5v217q53 10 109 10q143 0 207.5 -81.5t64.5 -238.5v-571q0 -57 17 -100.5t43.5 -70t62.5 -43t70 -22.5t70 -6zM954 553l125 -94q146 213 146 467q0 126 -57 210.5t-162 84.5
q-55 0 -85 -39.5t-30 -85.5q0 -31 19.5 -54.5t52.5 -23.5h124v-234h-174q-39 0 -62.5 -21.5t-23.5 -51.5q0 -40 28 -73t99 -85z" />
    <glyph glyph-name="T_L" horiz-adv-x="1212" 
d="M287 1434h254v-230l399 150v-178l-399 -144v-108l399 149v-178l-399 -145v-502q150 41 243 158.5t113 291.5h233q-12 -164 -77 -300t-163.5 -224t-221 -136t-252.5 -48q-69 0 -129 8v661l-246 -90v172l246 90v109l-246 -86v168l246 90v322z" />
    </font>
</defs>
</svg>
